M48
; DRILL file KiCad 10.0.6 date 2026-09-24T22:10:38
; FORMAT={-:-/ absolute / metric / decimal}
; #@! TF.CreationDate,2026-09-24T22:10:38-07:00
; #@! TF.GenerationSoftware,Kicad,Pcbnew,10.0.6
; #@! TF.FileFunction,Plated,1,2,PTH
FMAT,2
METRIC
; #@! TA.AperFunction,Plated,PTH,ViaDrill
T1C0.400
; #@! TA.AperFunction,Plated,PTH,ComponentDrill
T2C0.600
; #@! TA.AperFunction,Plated,PTH,ComponentDrill
T3C0.700
; #@! TA.AperFunction,Plated,PTH,ComponentDrill
T4C1.020
%
G90
G05
T1
X133.5Y-62.2
X134.7Y-64.9
X134.9Y-52.0
X135.6Y-68.2
X135.9Y-59.2
X136.6Y-70.4
X137.6Y-71.7
X139.1Y-67.0
X140.6Y-66.2
X143.2Y-72.5
X145.1Y-68.1
X147.2Y-59.9
X152.0Y-67.1
X152.6Y-59.5
X155.675Y-64.9
X156.4Y-65.7
X157.7Y-72.2
X162.4Y-61.1
X163.8Y-68.2
X164.9Y-63.3
X169.4Y-53.8
X170.762Y-70.384
X170.8Y-58.2
X174.391Y-69.875
T3
X132.8Y-51.6
X132.8Y-67.8
X162.0Y-66.2
X175.133Y-51.816
T4
X127.9Y-52.68
X127.9Y-55.22
X127.9Y-57.76
X127.9Y-60.3
X127.9Y-64.58
X127.9Y-67.12
X127.9Y-69.66
X127.9Y-72.2
T2
X175.77Y-63.13G85X176.87Y-63.13
G05
X175.77Y-71.77G85X176.87Y-71.77
G05
X180.2Y-63.13G85X180.8Y-63.13
G05
X180.2Y-71.77G85X180.8Y-71.77
G05
M30
