%TF.GenerationSoftware,KiCad,Pcbnew,10.0.6*%
%TF.CreationDate,2026-09-24T22:10:38-07:00*%
%TF.ProjectId,luftctl,6c756674-6374-46c2-9e6b-696361645f70,rev?*%
%TF.SameCoordinates,Original*%
%TF.FileFunction,Drillmap*%
%TF.FilePolarity,Positive*%
%FSLAX45Y45*%
G04 Gerber Fmt 4.5, Leading zero omitted, Abs format (unit mm)*
G04 Created by KiCad (PCBNEW 10.0.6) date 2026-09-24 22:10:38*
%MOMM*%
%LPD*%
G01*
G04 APERTURE LIST*
%ADD10C,0.100000*%
%ADD11C,0.200000*%
%ADD12C,0.110000*%
G04 APERTURE END LIST*
D10*
X18160000Y-5000000D02*
G75*
G02*
X18220000Y-5060000I0J-60000D01*
G01*
X18220000Y-7440000D02*
G75*
G02*
X18160000Y-7500000I-60000J0D01*
G01*
X12560000Y-7440000D02*
X12560000Y-5060000D01*
X12560000Y-5060000D02*
G75*
G02*
X12620000Y-5000000I60000J0D01*
G01*
X12620000Y-5000000D02*
X18160000Y-5000000D01*
X12620000Y-7500000D02*
G75*
G02*
X12560000Y-7440000I0J60000D01*
G01*
X18220000Y-5060000D02*
X18220000Y-7440000D01*
X18160000Y-7500000D02*
X12620000Y-7500000D01*
D11*
D10*
X17652500Y-6423500D02*
X17717500Y-6488500D01*
X17717500Y-6423500D02*
X17652500Y-6488500D01*
X17652500Y-7001500D02*
X17717500Y-7066500D01*
X17717500Y-7001500D02*
X17652500Y-7066500D01*
D12*
X12629000Y-5522000D02*
G75*
G02*
X12519000Y-5522000I-55000J0D01*
G01*
X12519000Y-5522000D02*
G75*
G02*
X12629000Y-5522000I55000J0D01*
G01*
X12629000Y-6712000D02*
G75*
G02*
X12519000Y-6712000I-55000J0D01*
G01*
X12519000Y-6712000D02*
G75*
G02*
X12629000Y-6712000I55000J0D01*
G01*
D11*
X12815777Y-7816484D02*
X12815777Y-7616484D01*
X12815777Y-7616484D02*
X12863396Y-7616484D01*
X12863396Y-7616484D02*
X12891967Y-7626008D01*
X12891967Y-7626008D02*
X12911015Y-7645055D01*
X12911015Y-7645055D02*
X12920539Y-7664103D01*
X12920539Y-7664103D02*
X12930062Y-7702198D01*
X12930062Y-7702198D02*
X12930062Y-7730769D01*
X12930062Y-7730769D02*
X12920539Y-7768865D01*
X12920539Y-7768865D02*
X12911015Y-7787912D01*
X12911015Y-7787912D02*
X12891967Y-7806960D01*
X12891967Y-7806960D02*
X12863396Y-7816484D01*
X12863396Y-7816484D02*
X12815777Y-7816484D01*
X13015777Y-7816484D02*
X13015777Y-7683150D01*
X13015777Y-7721246D02*
X13025301Y-7702198D01*
X13025301Y-7702198D02*
X13034824Y-7692674D01*
X13034824Y-7692674D02*
X13053872Y-7683150D01*
X13053872Y-7683150D02*
X13072920Y-7683150D01*
X13139586Y-7816484D02*
X13139586Y-7683150D01*
X13139586Y-7616484D02*
X13130062Y-7626008D01*
X13130062Y-7626008D02*
X13139586Y-7635531D01*
X13139586Y-7635531D02*
X13149110Y-7626008D01*
X13149110Y-7626008D02*
X13139586Y-7616484D01*
X13139586Y-7616484D02*
X13139586Y-7635531D01*
X13263396Y-7816484D02*
X13244348Y-7806960D01*
X13244348Y-7806960D02*
X13234824Y-7787912D01*
X13234824Y-7787912D02*
X13234824Y-7616484D01*
X13368158Y-7816484D02*
X13349110Y-7806960D01*
X13349110Y-7806960D02*
X13339586Y-7787912D01*
X13339586Y-7787912D02*
X13339586Y-7616484D01*
X13596729Y-7816484D02*
X13596729Y-7616484D01*
X13596729Y-7616484D02*
X13663396Y-7759341D01*
X13663396Y-7759341D02*
X13730062Y-7616484D01*
X13730062Y-7616484D02*
X13730062Y-7816484D01*
X13911015Y-7816484D02*
X13911015Y-7711722D01*
X13911015Y-7711722D02*
X13901491Y-7692674D01*
X13901491Y-7692674D02*
X13882443Y-7683150D01*
X13882443Y-7683150D02*
X13844348Y-7683150D01*
X13844348Y-7683150D02*
X13825301Y-7692674D01*
X13911015Y-7806960D02*
X13891967Y-7816484D01*
X13891967Y-7816484D02*
X13844348Y-7816484D01*
X13844348Y-7816484D02*
X13825301Y-7806960D01*
X13825301Y-7806960D02*
X13815777Y-7787912D01*
X13815777Y-7787912D02*
X13815777Y-7768865D01*
X13815777Y-7768865D02*
X13825301Y-7749817D01*
X13825301Y-7749817D02*
X13844348Y-7740293D01*
X13844348Y-7740293D02*
X13891967Y-7740293D01*
X13891967Y-7740293D02*
X13911015Y-7730769D01*
X14006253Y-7683150D02*
X14006253Y-7883150D01*
X14006253Y-7692674D02*
X14025301Y-7683150D01*
X14025301Y-7683150D02*
X14063396Y-7683150D01*
X14063396Y-7683150D02*
X14082443Y-7692674D01*
X14082443Y-7692674D02*
X14091967Y-7702198D01*
X14091967Y-7702198D02*
X14101491Y-7721246D01*
X14101491Y-7721246D02*
X14101491Y-7778388D01*
X14101491Y-7778388D02*
X14091967Y-7797436D01*
X14091967Y-7797436D02*
X14082443Y-7806960D01*
X14082443Y-7806960D02*
X14063396Y-7816484D01*
X14063396Y-7816484D02*
X14025301Y-7816484D01*
X14025301Y-7816484D02*
X14006253Y-7806960D01*
X14187205Y-7797436D02*
X14196729Y-7806960D01*
X14196729Y-7806960D02*
X14187205Y-7816484D01*
X14187205Y-7816484D02*
X14177682Y-7806960D01*
X14177682Y-7806960D02*
X14187205Y-7797436D01*
X14187205Y-7797436D02*
X14187205Y-7816484D01*
X14187205Y-7692674D02*
X14196729Y-7702198D01*
X14196729Y-7702198D02*
X14187205Y-7711722D01*
X14187205Y-7711722D02*
X14177682Y-7702198D01*
X14177682Y-7702198D02*
X14187205Y-7692674D01*
X14187205Y-7692674D02*
X14187205Y-7711722D01*
D10*
X12490000Y-8112500D02*
X12555000Y-8177500D01*
X12555000Y-8112500D02*
X12490000Y-8177500D01*
D11*
X12853872Y-8036484D02*
X12872920Y-8036484D01*
X12872920Y-8036484D02*
X12891967Y-8046008D01*
X12891967Y-8046008D02*
X12901491Y-8055531D01*
X12901491Y-8055531D02*
X12911015Y-8074579D01*
X12911015Y-8074579D02*
X12920539Y-8112674D01*
X12920539Y-8112674D02*
X12920539Y-8160293D01*
X12920539Y-8160293D02*
X12911015Y-8198388D01*
X12911015Y-8198388D02*
X12901491Y-8217436D01*
X12901491Y-8217436D02*
X12891967Y-8226960D01*
X12891967Y-8226960D02*
X12872920Y-8236484D01*
X12872920Y-8236484D02*
X12853872Y-8236484D01*
X12853872Y-8236484D02*
X12834824Y-8226960D01*
X12834824Y-8226960D02*
X12825301Y-8217436D01*
X12825301Y-8217436D02*
X12815777Y-8198388D01*
X12815777Y-8198388D02*
X12806253Y-8160293D01*
X12806253Y-8160293D02*
X12806253Y-8112674D01*
X12806253Y-8112674D02*
X12815777Y-8074579D01*
X12815777Y-8074579D02*
X12825301Y-8055531D01*
X12825301Y-8055531D02*
X12834824Y-8046008D01*
X12834824Y-8046008D02*
X12853872Y-8036484D01*
X13006253Y-8217436D02*
X13015777Y-8226960D01*
X13015777Y-8226960D02*
X13006253Y-8236484D01*
X13006253Y-8236484D02*
X12996729Y-8226960D01*
X12996729Y-8226960D02*
X13006253Y-8217436D01*
X13006253Y-8217436D02*
X13006253Y-8236484D01*
X13187205Y-8036484D02*
X13149110Y-8036484D01*
X13149110Y-8036484D02*
X13130062Y-8046008D01*
X13130062Y-8046008D02*
X13120539Y-8055531D01*
X13120539Y-8055531D02*
X13101491Y-8084103D01*
X13101491Y-8084103D02*
X13091967Y-8122198D01*
X13091967Y-8122198D02*
X13091967Y-8198388D01*
X13091967Y-8198388D02*
X13101491Y-8217436D01*
X13101491Y-8217436D02*
X13111015Y-8226960D01*
X13111015Y-8226960D02*
X13130062Y-8236484D01*
X13130062Y-8236484D02*
X13168158Y-8236484D01*
X13168158Y-8236484D02*
X13187205Y-8226960D01*
X13187205Y-8226960D02*
X13196729Y-8217436D01*
X13196729Y-8217436D02*
X13206253Y-8198388D01*
X13206253Y-8198388D02*
X13206253Y-8150769D01*
X13206253Y-8150769D02*
X13196729Y-8131722D01*
X13196729Y-8131722D02*
X13187205Y-8122198D01*
X13187205Y-8122198D02*
X13168158Y-8112674D01*
X13168158Y-8112674D02*
X13130062Y-8112674D01*
X13130062Y-8112674D02*
X13111015Y-8122198D01*
X13111015Y-8122198D02*
X13101491Y-8131722D01*
X13101491Y-8131722D02*
X13091967Y-8150769D01*
X13387205Y-8036484D02*
X13291967Y-8036484D01*
X13291967Y-8036484D02*
X13282443Y-8131722D01*
X13282443Y-8131722D02*
X13291967Y-8122198D01*
X13291967Y-8122198D02*
X13311015Y-8112674D01*
X13311015Y-8112674D02*
X13358634Y-8112674D01*
X13358634Y-8112674D02*
X13377682Y-8122198D01*
X13377682Y-8122198D02*
X13387205Y-8131722D01*
X13387205Y-8131722D02*
X13396729Y-8150769D01*
X13396729Y-8150769D02*
X13396729Y-8198388D01*
X13396729Y-8198388D02*
X13387205Y-8217436D01*
X13387205Y-8217436D02*
X13377682Y-8226960D01*
X13377682Y-8226960D02*
X13358634Y-8236484D01*
X13358634Y-8236484D02*
X13311015Y-8236484D01*
X13311015Y-8236484D02*
X13291967Y-8226960D01*
X13291967Y-8226960D02*
X13282443Y-8217436D01*
X13520539Y-8036484D02*
X13539586Y-8036484D01*
X13539586Y-8036484D02*
X13558634Y-8046008D01*
X13558634Y-8046008D02*
X13568158Y-8055531D01*
X13568158Y-8055531D02*
X13577682Y-8074579D01*
X13577682Y-8074579D02*
X13587205Y-8112674D01*
X13587205Y-8112674D02*
X13587205Y-8160293D01*
X13587205Y-8160293D02*
X13577682Y-8198388D01*
X13577682Y-8198388D02*
X13568158Y-8217436D01*
X13568158Y-8217436D02*
X13558634Y-8226960D01*
X13558634Y-8226960D02*
X13539586Y-8236484D01*
X13539586Y-8236484D02*
X13520539Y-8236484D01*
X13520539Y-8236484D02*
X13501491Y-8226960D01*
X13501491Y-8226960D02*
X13491967Y-8217436D01*
X13491967Y-8217436D02*
X13482443Y-8198388D01*
X13482443Y-8198388D02*
X13472920Y-8160293D01*
X13472920Y-8160293D02*
X13472920Y-8112674D01*
X13472920Y-8112674D02*
X13482443Y-8074579D01*
X13482443Y-8074579D02*
X13491967Y-8055531D01*
X13491967Y-8055531D02*
X13501491Y-8046008D01*
X13501491Y-8046008D02*
X13520539Y-8036484D01*
X13672920Y-8236484D02*
X13672920Y-8103150D01*
X13672920Y-8122198D02*
X13682443Y-8112674D01*
X13682443Y-8112674D02*
X13701491Y-8103150D01*
X13701491Y-8103150D02*
X13730063Y-8103150D01*
X13730063Y-8103150D02*
X13749110Y-8112674D01*
X13749110Y-8112674D02*
X13758634Y-8131722D01*
X13758634Y-8131722D02*
X13758634Y-8236484D01*
X13758634Y-8131722D02*
X13768158Y-8112674D01*
X13768158Y-8112674D02*
X13787205Y-8103150D01*
X13787205Y-8103150D02*
X13815777Y-8103150D01*
X13815777Y-8103150D02*
X13834824Y-8112674D01*
X13834824Y-8112674D02*
X13844348Y-8131722D01*
X13844348Y-8131722D02*
X13844348Y-8236484D01*
X13939586Y-8236484D02*
X13939586Y-8103150D01*
X13939586Y-8122198D02*
X13949110Y-8112674D01*
X13949110Y-8112674D02*
X13968158Y-8103150D01*
X13968158Y-8103150D02*
X13996729Y-8103150D01*
X13996729Y-8103150D02*
X14015777Y-8112674D01*
X14015777Y-8112674D02*
X14025301Y-8131722D01*
X14025301Y-8131722D02*
X14025301Y-8236484D01*
X14025301Y-8131722D02*
X14034824Y-8112674D01*
X14034824Y-8112674D02*
X14053872Y-8103150D01*
X14053872Y-8103150D02*
X14082443Y-8103150D01*
X14082443Y-8103150D02*
X14101491Y-8112674D01*
X14101491Y-8112674D02*
X14111015Y-8131722D01*
X14111015Y-8131722D02*
X14111015Y-8236484D01*
X14501491Y-8026960D02*
X14330063Y-8284103D01*
X14758634Y-8036484D02*
X14777682Y-8036484D01*
X14777682Y-8036484D02*
X14796729Y-8046008D01*
X14796729Y-8046008D02*
X14806253Y-8055531D01*
X14806253Y-8055531D02*
X14815777Y-8074579D01*
X14815777Y-8074579D02*
X14825301Y-8112674D01*
X14825301Y-8112674D02*
X14825301Y-8160293D01*
X14825301Y-8160293D02*
X14815777Y-8198388D01*
X14815777Y-8198388D02*
X14806253Y-8217436D01*
X14806253Y-8217436D02*
X14796729Y-8226960D01*
X14796729Y-8226960D02*
X14777682Y-8236484D01*
X14777682Y-8236484D02*
X14758634Y-8236484D01*
X14758634Y-8236484D02*
X14739586Y-8226960D01*
X14739586Y-8226960D02*
X14730063Y-8217436D01*
X14730063Y-8217436D02*
X14720539Y-8198388D01*
X14720539Y-8198388D02*
X14711015Y-8160293D01*
X14711015Y-8160293D02*
X14711015Y-8112674D01*
X14711015Y-8112674D02*
X14720539Y-8074579D01*
X14720539Y-8074579D02*
X14730063Y-8055531D01*
X14730063Y-8055531D02*
X14739586Y-8046008D01*
X14739586Y-8046008D02*
X14758634Y-8036484D01*
X14911015Y-8217436D02*
X14920539Y-8226960D01*
X14920539Y-8226960D02*
X14911015Y-8236484D01*
X14911015Y-8236484D02*
X14901491Y-8226960D01*
X14901491Y-8226960D02*
X14911015Y-8217436D01*
X14911015Y-8217436D02*
X14911015Y-8236484D01*
X15044348Y-8036484D02*
X15063396Y-8036484D01*
X15063396Y-8036484D02*
X15082444Y-8046008D01*
X15082444Y-8046008D02*
X15091967Y-8055531D01*
X15091967Y-8055531D02*
X15101491Y-8074579D01*
X15101491Y-8074579D02*
X15111015Y-8112674D01*
X15111015Y-8112674D02*
X15111015Y-8160293D01*
X15111015Y-8160293D02*
X15101491Y-8198388D01*
X15101491Y-8198388D02*
X15091967Y-8217436D01*
X15091967Y-8217436D02*
X15082444Y-8226960D01*
X15082444Y-8226960D02*
X15063396Y-8236484D01*
X15063396Y-8236484D02*
X15044348Y-8236484D01*
X15044348Y-8236484D02*
X15025301Y-8226960D01*
X15025301Y-8226960D02*
X15015777Y-8217436D01*
X15015777Y-8217436D02*
X15006253Y-8198388D01*
X15006253Y-8198388D02*
X14996729Y-8160293D01*
X14996729Y-8160293D02*
X14996729Y-8112674D01*
X14996729Y-8112674D02*
X15006253Y-8074579D01*
X15006253Y-8074579D02*
X15015777Y-8055531D01*
X15015777Y-8055531D02*
X15025301Y-8046008D01*
X15025301Y-8046008D02*
X15044348Y-8036484D01*
X15187206Y-8055531D02*
X15196729Y-8046008D01*
X15196729Y-8046008D02*
X15215777Y-8036484D01*
X15215777Y-8036484D02*
X15263396Y-8036484D01*
X15263396Y-8036484D02*
X15282444Y-8046008D01*
X15282444Y-8046008D02*
X15291967Y-8055531D01*
X15291967Y-8055531D02*
X15301491Y-8074579D01*
X15301491Y-8074579D02*
X15301491Y-8093627D01*
X15301491Y-8093627D02*
X15291967Y-8122198D01*
X15291967Y-8122198D02*
X15177682Y-8236484D01*
X15177682Y-8236484D02*
X15301491Y-8236484D01*
X15482444Y-8036484D02*
X15387206Y-8036484D01*
X15387206Y-8036484D02*
X15377682Y-8131722D01*
X15377682Y-8131722D02*
X15387206Y-8122198D01*
X15387206Y-8122198D02*
X15406253Y-8112674D01*
X15406253Y-8112674D02*
X15453872Y-8112674D01*
X15453872Y-8112674D02*
X15472920Y-8122198D01*
X15472920Y-8122198D02*
X15482444Y-8131722D01*
X15482444Y-8131722D02*
X15491967Y-8150769D01*
X15491967Y-8150769D02*
X15491967Y-8198388D01*
X15491967Y-8198388D02*
X15482444Y-8217436D01*
X15482444Y-8217436D02*
X15472920Y-8226960D01*
X15472920Y-8226960D02*
X15453872Y-8236484D01*
X15453872Y-8236484D02*
X15406253Y-8236484D01*
X15406253Y-8236484D02*
X15387206Y-8226960D01*
X15387206Y-8226960D02*
X15377682Y-8217436D01*
X15663396Y-8036484D02*
X15625301Y-8036484D01*
X15625301Y-8036484D02*
X15606253Y-8046008D01*
X15606253Y-8046008D02*
X15596729Y-8055531D01*
X15596729Y-8055531D02*
X15577682Y-8084103D01*
X15577682Y-8084103D02*
X15568158Y-8122198D01*
X15568158Y-8122198D02*
X15568158Y-8198388D01*
X15568158Y-8198388D02*
X15577682Y-8217436D01*
X15577682Y-8217436D02*
X15587206Y-8226960D01*
X15587206Y-8226960D02*
X15606253Y-8236484D01*
X15606253Y-8236484D02*
X15644348Y-8236484D01*
X15644348Y-8236484D02*
X15663396Y-8226960D01*
X15663396Y-8226960D02*
X15672920Y-8217436D01*
X15672920Y-8217436D02*
X15682444Y-8198388D01*
X15682444Y-8198388D02*
X15682444Y-8150769D01*
X15682444Y-8150769D02*
X15672920Y-8131722D01*
X15672920Y-8131722D02*
X15663396Y-8122198D01*
X15663396Y-8122198D02*
X15644348Y-8112674D01*
X15644348Y-8112674D02*
X15606253Y-8112674D01*
X15606253Y-8112674D02*
X15587206Y-8122198D01*
X15587206Y-8122198D02*
X15577682Y-8131722D01*
X15577682Y-8131722D02*
X15568158Y-8150769D01*
X15758634Y-8036484D02*
X15758634Y-8074579D01*
X15834825Y-8036484D02*
X15834825Y-8074579D01*
X16130063Y-8312674D02*
X16120539Y-8303150D01*
X16120539Y-8303150D02*
X16101491Y-8274579D01*
X16101491Y-8274579D02*
X16091968Y-8255531D01*
X16091968Y-8255531D02*
X16082444Y-8226960D01*
X16082444Y-8226960D02*
X16072920Y-8179341D01*
X16072920Y-8179341D02*
X16072920Y-8141246D01*
X16072920Y-8141246D02*
X16082444Y-8093627D01*
X16082444Y-8093627D02*
X16091968Y-8065055D01*
X16091968Y-8065055D02*
X16101491Y-8046008D01*
X16101491Y-8046008D02*
X16120539Y-8017436D01*
X16120539Y-8017436D02*
X16130063Y-8007912D01*
X16196729Y-8055531D02*
X16206253Y-8046008D01*
X16206253Y-8046008D02*
X16225301Y-8036484D01*
X16225301Y-8036484D02*
X16272920Y-8036484D01*
X16272920Y-8036484D02*
X16291968Y-8046008D01*
X16291968Y-8046008D02*
X16301491Y-8055531D01*
X16301491Y-8055531D02*
X16311015Y-8074579D01*
X16311015Y-8074579D02*
X16311015Y-8093627D01*
X16311015Y-8093627D02*
X16301491Y-8122198D01*
X16301491Y-8122198D02*
X16187206Y-8236484D01*
X16187206Y-8236484D02*
X16311015Y-8236484D01*
X16549110Y-8236484D02*
X16549110Y-8036484D01*
X16634825Y-8236484D02*
X16634825Y-8131722D01*
X16634825Y-8131722D02*
X16625301Y-8112674D01*
X16625301Y-8112674D02*
X16606253Y-8103150D01*
X16606253Y-8103150D02*
X16577682Y-8103150D01*
X16577682Y-8103150D02*
X16558634Y-8112674D01*
X16558634Y-8112674D02*
X16549110Y-8122198D01*
X16758634Y-8236484D02*
X16739587Y-8226960D01*
X16739587Y-8226960D02*
X16730063Y-8217436D01*
X16730063Y-8217436D02*
X16720539Y-8198388D01*
X16720539Y-8198388D02*
X16720539Y-8141246D01*
X16720539Y-8141246D02*
X16730063Y-8122198D01*
X16730063Y-8122198D02*
X16739587Y-8112674D01*
X16739587Y-8112674D02*
X16758634Y-8103150D01*
X16758634Y-8103150D02*
X16787206Y-8103150D01*
X16787206Y-8103150D02*
X16806253Y-8112674D01*
X16806253Y-8112674D02*
X16815777Y-8122198D01*
X16815777Y-8122198D02*
X16825301Y-8141246D01*
X16825301Y-8141246D02*
X16825301Y-8198388D01*
X16825301Y-8198388D02*
X16815777Y-8217436D01*
X16815777Y-8217436D02*
X16806253Y-8226960D01*
X16806253Y-8226960D02*
X16787206Y-8236484D01*
X16787206Y-8236484D02*
X16758634Y-8236484D01*
X16939587Y-8236484D02*
X16920539Y-8226960D01*
X16920539Y-8226960D02*
X16911015Y-8207912D01*
X16911015Y-8207912D02*
X16911015Y-8036484D01*
X17091968Y-8226960D02*
X17072920Y-8236484D01*
X17072920Y-8236484D02*
X17034825Y-8236484D01*
X17034825Y-8236484D02*
X17015777Y-8226960D01*
X17015777Y-8226960D02*
X17006253Y-8207912D01*
X17006253Y-8207912D02*
X17006253Y-8131722D01*
X17006253Y-8131722D02*
X17015777Y-8112674D01*
X17015777Y-8112674D02*
X17034825Y-8103150D01*
X17034825Y-8103150D02*
X17072920Y-8103150D01*
X17072920Y-8103150D02*
X17091968Y-8112674D01*
X17091968Y-8112674D02*
X17101492Y-8131722D01*
X17101492Y-8131722D02*
X17101492Y-8150769D01*
X17101492Y-8150769D02*
X17006253Y-8169817D01*
X17177682Y-8226960D02*
X17196730Y-8236484D01*
X17196730Y-8236484D02*
X17234825Y-8236484D01*
X17234825Y-8236484D02*
X17253873Y-8226960D01*
X17253873Y-8226960D02*
X17263396Y-8207912D01*
X17263396Y-8207912D02*
X17263396Y-8198388D01*
X17263396Y-8198388D02*
X17253873Y-8179341D01*
X17253873Y-8179341D02*
X17234825Y-8169817D01*
X17234825Y-8169817D02*
X17206253Y-8169817D01*
X17206253Y-8169817D02*
X17187206Y-8160293D01*
X17187206Y-8160293D02*
X17177682Y-8141246D01*
X17177682Y-8141246D02*
X17177682Y-8131722D01*
X17177682Y-8131722D02*
X17187206Y-8112674D01*
X17187206Y-8112674D02*
X17206253Y-8103150D01*
X17206253Y-8103150D02*
X17234825Y-8103150D01*
X17234825Y-8103150D02*
X17253873Y-8112674D01*
X17330063Y-8312674D02*
X17339587Y-8303150D01*
X17339587Y-8303150D02*
X17358634Y-8274579D01*
X17358634Y-8274579D02*
X17368158Y-8255531D01*
X17368158Y-8255531D02*
X17377682Y-8226960D01*
X17377682Y-8226960D02*
X17387206Y-8179341D01*
X17387206Y-8179341D02*
X17387206Y-8141246D01*
X17387206Y-8141246D02*
X17377682Y-8093627D01*
X17377682Y-8093627D02*
X17368158Y-8065055D01*
X17368158Y-8065055D02*
X17358634Y-8046008D01*
X17358634Y-8046008D02*
X17339587Y-8017436D01*
X17339587Y-8017436D02*
X17330063Y-8007912D01*
X17691968Y-8312674D02*
X17682444Y-8303150D01*
X17682444Y-8303150D02*
X17663396Y-8274579D01*
X17663396Y-8274579D02*
X17653873Y-8255531D01*
X17653873Y-8255531D02*
X17644349Y-8226960D01*
X17644349Y-8226960D02*
X17634825Y-8179341D01*
X17634825Y-8179341D02*
X17634825Y-8141246D01*
X17634825Y-8141246D02*
X17644349Y-8093627D01*
X17644349Y-8093627D02*
X17653873Y-8065055D01*
X17653873Y-8065055D02*
X17663396Y-8046008D01*
X17663396Y-8046008D02*
X17682444Y-8017436D01*
X17682444Y-8017436D02*
X17691968Y-8007912D01*
X17768158Y-8103150D02*
X17768158Y-8236484D01*
X17768158Y-8122198D02*
X17777682Y-8112674D01*
X17777682Y-8112674D02*
X17796730Y-8103150D01*
X17796730Y-8103150D02*
X17825301Y-8103150D01*
X17825301Y-8103150D02*
X17844349Y-8112674D01*
X17844349Y-8112674D02*
X17853873Y-8131722D01*
X17853873Y-8131722D02*
X17853873Y-8236484D01*
X17977682Y-8236484D02*
X17958634Y-8226960D01*
X17958634Y-8226960D02*
X17949111Y-8217436D01*
X17949111Y-8217436D02*
X17939587Y-8198388D01*
X17939587Y-8198388D02*
X17939587Y-8141246D01*
X17939587Y-8141246D02*
X17949111Y-8122198D01*
X17949111Y-8122198D02*
X17958634Y-8112674D01*
X17958634Y-8112674D02*
X17977682Y-8103150D01*
X17977682Y-8103150D02*
X18006254Y-8103150D01*
X18006254Y-8103150D02*
X18025301Y-8112674D01*
X18025301Y-8112674D02*
X18034825Y-8122198D01*
X18034825Y-8122198D02*
X18044349Y-8141246D01*
X18044349Y-8141246D02*
X18044349Y-8198388D01*
X18044349Y-8198388D02*
X18034825Y-8217436D01*
X18034825Y-8217436D02*
X18025301Y-8226960D01*
X18025301Y-8226960D02*
X18006254Y-8236484D01*
X18006254Y-8236484D02*
X17977682Y-8236484D01*
X18101492Y-8103150D02*
X18177682Y-8103150D01*
X18130063Y-8036484D02*
X18130063Y-8207912D01*
X18130063Y-8207912D02*
X18139587Y-8226960D01*
X18139587Y-8226960D02*
X18158634Y-8236484D01*
X18158634Y-8236484D02*
X18177682Y-8236484D01*
X18396730Y-8103150D02*
X18396730Y-8303150D01*
X18396730Y-8112674D02*
X18415777Y-8103150D01*
X18415777Y-8103150D02*
X18453873Y-8103150D01*
X18453873Y-8103150D02*
X18472920Y-8112674D01*
X18472920Y-8112674D02*
X18482444Y-8122198D01*
X18482444Y-8122198D02*
X18491968Y-8141246D01*
X18491968Y-8141246D02*
X18491968Y-8198388D01*
X18491968Y-8198388D02*
X18482444Y-8217436D01*
X18482444Y-8217436D02*
X18472920Y-8226960D01*
X18472920Y-8226960D02*
X18453873Y-8236484D01*
X18453873Y-8236484D02*
X18415777Y-8236484D01*
X18415777Y-8236484D02*
X18396730Y-8226960D01*
X18606254Y-8236484D02*
X18587206Y-8226960D01*
X18587206Y-8226960D02*
X18577682Y-8207912D01*
X18577682Y-8207912D02*
X18577682Y-8036484D01*
X18768158Y-8236484D02*
X18768158Y-8131722D01*
X18768158Y-8131722D02*
X18758635Y-8112674D01*
X18758635Y-8112674D02*
X18739587Y-8103150D01*
X18739587Y-8103150D02*
X18701492Y-8103150D01*
X18701492Y-8103150D02*
X18682444Y-8112674D01*
X18768158Y-8226960D02*
X18749111Y-8236484D01*
X18749111Y-8236484D02*
X18701492Y-8236484D01*
X18701492Y-8236484D02*
X18682444Y-8226960D01*
X18682444Y-8226960D02*
X18672920Y-8207912D01*
X18672920Y-8207912D02*
X18672920Y-8188865D01*
X18672920Y-8188865D02*
X18682444Y-8169817D01*
X18682444Y-8169817D02*
X18701492Y-8160293D01*
X18701492Y-8160293D02*
X18749111Y-8160293D01*
X18749111Y-8160293D02*
X18768158Y-8150769D01*
X18834825Y-8103150D02*
X18911015Y-8103150D01*
X18863396Y-8036484D02*
X18863396Y-8207912D01*
X18863396Y-8207912D02*
X18872920Y-8226960D01*
X18872920Y-8226960D02*
X18891968Y-8236484D01*
X18891968Y-8236484D02*
X18911015Y-8236484D01*
X19053873Y-8226960D02*
X19034825Y-8236484D01*
X19034825Y-8236484D02*
X18996730Y-8236484D01*
X18996730Y-8236484D02*
X18977682Y-8226960D01*
X18977682Y-8226960D02*
X18968158Y-8207912D01*
X18968158Y-8207912D02*
X18968158Y-8131722D01*
X18968158Y-8131722D02*
X18977682Y-8112674D01*
X18977682Y-8112674D02*
X18996730Y-8103150D01*
X18996730Y-8103150D02*
X19034825Y-8103150D01*
X19034825Y-8103150D02*
X19053873Y-8112674D01*
X19053873Y-8112674D02*
X19063396Y-8131722D01*
X19063396Y-8131722D02*
X19063396Y-8150769D01*
X19063396Y-8150769D02*
X18968158Y-8169817D01*
X19234825Y-8236484D02*
X19234825Y-8036484D01*
X19234825Y-8226960D02*
X19215777Y-8236484D01*
X19215777Y-8236484D02*
X19177682Y-8236484D01*
X19177682Y-8236484D02*
X19158635Y-8226960D01*
X19158635Y-8226960D02*
X19149111Y-8217436D01*
X19149111Y-8217436D02*
X19139587Y-8198388D01*
X19139587Y-8198388D02*
X19139587Y-8141246D01*
X19139587Y-8141246D02*
X19149111Y-8122198D01*
X19149111Y-8122198D02*
X19158635Y-8112674D01*
X19158635Y-8112674D02*
X19177682Y-8103150D01*
X19177682Y-8103150D02*
X19215777Y-8103150D01*
X19215777Y-8103150D02*
X19234825Y-8112674D01*
X19311016Y-8312674D02*
X19320539Y-8303150D01*
X19320539Y-8303150D02*
X19339587Y-8274579D01*
X19339587Y-8274579D02*
X19349111Y-8255531D01*
X19349111Y-8255531D02*
X19358635Y-8226960D01*
X19358635Y-8226960D02*
X19368158Y-8179341D01*
X19368158Y-8179341D02*
X19368158Y-8141246D01*
X19368158Y-8141246D02*
X19358635Y-8093627D01*
X19358635Y-8093627D02*
X19349111Y-8065055D01*
X19349111Y-8065055D02*
X19339587Y-8046008D01*
X19339587Y-8046008D02*
X19320539Y-8017436D01*
X19320539Y-8017436D02*
X19311016Y-8007912D01*
D12*
X12555000Y-8409000D02*
G75*
G02*
X12445000Y-8409000I-55000J0D01*
G01*
X12445000Y-8409000D02*
G75*
G02*
X12555000Y-8409000I55000J0D01*
G01*
D11*
X12920539Y-8500484D02*
X12806253Y-8500484D01*
X12863396Y-8500484D02*
X12863396Y-8300484D01*
X12863396Y-8300484D02*
X12844348Y-8329055D01*
X12844348Y-8329055D02*
X12825301Y-8348103D01*
X12825301Y-8348103D02*
X12806253Y-8357627D01*
X13006253Y-8481436D02*
X13015777Y-8490960D01*
X13015777Y-8490960D02*
X13006253Y-8500484D01*
X13006253Y-8500484D02*
X12996729Y-8490960D01*
X12996729Y-8490960D02*
X13006253Y-8481436D01*
X13006253Y-8481436D02*
X13006253Y-8500484D01*
X13206253Y-8500484D02*
X13091967Y-8500484D01*
X13149110Y-8500484D02*
X13149110Y-8300484D01*
X13149110Y-8300484D02*
X13130062Y-8329055D01*
X13130062Y-8329055D02*
X13111015Y-8348103D01*
X13111015Y-8348103D02*
X13091967Y-8357627D01*
X13330062Y-8300484D02*
X13349110Y-8300484D01*
X13349110Y-8300484D02*
X13368158Y-8310008D01*
X13368158Y-8310008D02*
X13377682Y-8319531D01*
X13377682Y-8319531D02*
X13387205Y-8338579D01*
X13387205Y-8338579D02*
X13396729Y-8376674D01*
X13396729Y-8376674D02*
X13396729Y-8424293D01*
X13396729Y-8424293D02*
X13387205Y-8462389D01*
X13387205Y-8462389D02*
X13377682Y-8481436D01*
X13377682Y-8481436D02*
X13368158Y-8490960D01*
X13368158Y-8490960D02*
X13349110Y-8500484D01*
X13349110Y-8500484D02*
X13330062Y-8500484D01*
X13330062Y-8500484D02*
X13311015Y-8490960D01*
X13311015Y-8490960D02*
X13301491Y-8481436D01*
X13301491Y-8481436D02*
X13291967Y-8462389D01*
X13291967Y-8462389D02*
X13282443Y-8424293D01*
X13282443Y-8424293D02*
X13282443Y-8376674D01*
X13282443Y-8376674D02*
X13291967Y-8338579D01*
X13291967Y-8338579D02*
X13301491Y-8319531D01*
X13301491Y-8319531D02*
X13311015Y-8310008D01*
X13311015Y-8310008D02*
X13330062Y-8300484D01*
X13520539Y-8300484D02*
X13539586Y-8300484D01*
X13539586Y-8300484D02*
X13558634Y-8310008D01*
X13558634Y-8310008D02*
X13568158Y-8319531D01*
X13568158Y-8319531D02*
X13577682Y-8338579D01*
X13577682Y-8338579D02*
X13587205Y-8376674D01*
X13587205Y-8376674D02*
X13587205Y-8424293D01*
X13587205Y-8424293D02*
X13577682Y-8462389D01*
X13577682Y-8462389D02*
X13568158Y-8481436D01*
X13568158Y-8481436D02*
X13558634Y-8490960D01*
X13558634Y-8490960D02*
X13539586Y-8500484D01*
X13539586Y-8500484D02*
X13520539Y-8500484D01*
X13520539Y-8500484D02*
X13501491Y-8490960D01*
X13501491Y-8490960D02*
X13491967Y-8481436D01*
X13491967Y-8481436D02*
X13482443Y-8462389D01*
X13482443Y-8462389D02*
X13472920Y-8424293D01*
X13472920Y-8424293D02*
X13472920Y-8376674D01*
X13472920Y-8376674D02*
X13482443Y-8338579D01*
X13482443Y-8338579D02*
X13491967Y-8319531D01*
X13491967Y-8319531D02*
X13501491Y-8310008D01*
X13501491Y-8310008D02*
X13520539Y-8300484D01*
X13672920Y-8500484D02*
X13672920Y-8367150D01*
X13672920Y-8386198D02*
X13682443Y-8376674D01*
X13682443Y-8376674D02*
X13701491Y-8367150D01*
X13701491Y-8367150D02*
X13730063Y-8367150D01*
X13730063Y-8367150D02*
X13749110Y-8376674D01*
X13749110Y-8376674D02*
X13758634Y-8395722D01*
X13758634Y-8395722D02*
X13758634Y-8500484D01*
X13758634Y-8395722D02*
X13768158Y-8376674D01*
X13768158Y-8376674D02*
X13787205Y-8367150D01*
X13787205Y-8367150D02*
X13815777Y-8367150D01*
X13815777Y-8367150D02*
X13834824Y-8376674D01*
X13834824Y-8376674D02*
X13844348Y-8395722D01*
X13844348Y-8395722D02*
X13844348Y-8500484D01*
X13939586Y-8500484D02*
X13939586Y-8367150D01*
X13939586Y-8386198D02*
X13949110Y-8376674D01*
X13949110Y-8376674D02*
X13968158Y-8367150D01*
X13968158Y-8367150D02*
X13996729Y-8367150D01*
X13996729Y-8367150D02*
X14015777Y-8376674D01*
X14015777Y-8376674D02*
X14025301Y-8395722D01*
X14025301Y-8395722D02*
X14025301Y-8500484D01*
X14025301Y-8395722D02*
X14034824Y-8376674D01*
X14034824Y-8376674D02*
X14053872Y-8367150D01*
X14053872Y-8367150D02*
X14082443Y-8367150D01*
X14082443Y-8367150D02*
X14101491Y-8376674D01*
X14101491Y-8376674D02*
X14111015Y-8395722D01*
X14111015Y-8395722D02*
X14111015Y-8500484D01*
X14501491Y-8290960D02*
X14330063Y-8548103D01*
X14758634Y-8300484D02*
X14777682Y-8300484D01*
X14777682Y-8300484D02*
X14796729Y-8310008D01*
X14796729Y-8310008D02*
X14806253Y-8319531D01*
X14806253Y-8319531D02*
X14815777Y-8338579D01*
X14815777Y-8338579D02*
X14825301Y-8376674D01*
X14825301Y-8376674D02*
X14825301Y-8424293D01*
X14825301Y-8424293D02*
X14815777Y-8462389D01*
X14815777Y-8462389D02*
X14806253Y-8481436D01*
X14806253Y-8481436D02*
X14796729Y-8490960D01*
X14796729Y-8490960D02*
X14777682Y-8500484D01*
X14777682Y-8500484D02*
X14758634Y-8500484D01*
X14758634Y-8500484D02*
X14739586Y-8490960D01*
X14739586Y-8490960D02*
X14730063Y-8481436D01*
X14730063Y-8481436D02*
X14720539Y-8462389D01*
X14720539Y-8462389D02*
X14711015Y-8424293D01*
X14711015Y-8424293D02*
X14711015Y-8376674D01*
X14711015Y-8376674D02*
X14720539Y-8338579D01*
X14720539Y-8338579D02*
X14730063Y-8319531D01*
X14730063Y-8319531D02*
X14739586Y-8310008D01*
X14739586Y-8310008D02*
X14758634Y-8300484D01*
X14911015Y-8481436D02*
X14920539Y-8490960D01*
X14920539Y-8490960D02*
X14911015Y-8500484D01*
X14911015Y-8500484D02*
X14901491Y-8490960D01*
X14901491Y-8490960D02*
X14911015Y-8481436D01*
X14911015Y-8481436D02*
X14911015Y-8500484D01*
X15044348Y-8300484D02*
X15063396Y-8300484D01*
X15063396Y-8300484D02*
X15082444Y-8310008D01*
X15082444Y-8310008D02*
X15091967Y-8319531D01*
X15091967Y-8319531D02*
X15101491Y-8338579D01*
X15101491Y-8338579D02*
X15111015Y-8376674D01*
X15111015Y-8376674D02*
X15111015Y-8424293D01*
X15111015Y-8424293D02*
X15101491Y-8462389D01*
X15101491Y-8462389D02*
X15091967Y-8481436D01*
X15091967Y-8481436D02*
X15082444Y-8490960D01*
X15082444Y-8490960D02*
X15063396Y-8500484D01*
X15063396Y-8500484D02*
X15044348Y-8500484D01*
X15044348Y-8500484D02*
X15025301Y-8490960D01*
X15025301Y-8490960D02*
X15015777Y-8481436D01*
X15015777Y-8481436D02*
X15006253Y-8462389D01*
X15006253Y-8462389D02*
X14996729Y-8424293D01*
X14996729Y-8424293D02*
X14996729Y-8376674D01*
X14996729Y-8376674D02*
X15006253Y-8338579D01*
X15006253Y-8338579D02*
X15015777Y-8319531D01*
X15015777Y-8319531D02*
X15025301Y-8310008D01*
X15025301Y-8310008D02*
X15044348Y-8300484D01*
X15282444Y-8367150D02*
X15282444Y-8500484D01*
X15234825Y-8290960D02*
X15187206Y-8433817D01*
X15187206Y-8433817D02*
X15311015Y-8433817D01*
X15368158Y-8300484D02*
X15491967Y-8300484D01*
X15491967Y-8300484D02*
X15425301Y-8376674D01*
X15425301Y-8376674D02*
X15453872Y-8376674D01*
X15453872Y-8376674D02*
X15472920Y-8386198D01*
X15472920Y-8386198D02*
X15482444Y-8395722D01*
X15482444Y-8395722D02*
X15491967Y-8414770D01*
X15491967Y-8414770D02*
X15491967Y-8462389D01*
X15491967Y-8462389D02*
X15482444Y-8481436D01*
X15482444Y-8481436D02*
X15472920Y-8490960D01*
X15472920Y-8490960D02*
X15453872Y-8500484D01*
X15453872Y-8500484D02*
X15396729Y-8500484D01*
X15396729Y-8500484D02*
X15377682Y-8490960D01*
X15377682Y-8490960D02*
X15368158Y-8481436D01*
X15558634Y-8300484D02*
X15682444Y-8300484D01*
X15682444Y-8300484D02*
X15615777Y-8376674D01*
X15615777Y-8376674D02*
X15644348Y-8376674D01*
X15644348Y-8376674D02*
X15663396Y-8386198D01*
X15663396Y-8386198D02*
X15672920Y-8395722D01*
X15672920Y-8395722D02*
X15682444Y-8414770D01*
X15682444Y-8414770D02*
X15682444Y-8462389D01*
X15682444Y-8462389D02*
X15672920Y-8481436D01*
X15672920Y-8481436D02*
X15663396Y-8490960D01*
X15663396Y-8490960D02*
X15644348Y-8500484D01*
X15644348Y-8500484D02*
X15587206Y-8500484D01*
X15587206Y-8500484D02*
X15568158Y-8490960D01*
X15568158Y-8490960D02*
X15558634Y-8481436D01*
X15758634Y-8300484D02*
X15758634Y-8338579D01*
X15834825Y-8300484D02*
X15834825Y-8338579D01*
X16130063Y-8576674D02*
X16120539Y-8567150D01*
X16120539Y-8567150D02*
X16101491Y-8538579D01*
X16101491Y-8538579D02*
X16091968Y-8519531D01*
X16091968Y-8519531D02*
X16082444Y-8490960D01*
X16082444Y-8490960D02*
X16072920Y-8443341D01*
X16072920Y-8443341D02*
X16072920Y-8405246D01*
X16072920Y-8405246D02*
X16082444Y-8357627D01*
X16082444Y-8357627D02*
X16091968Y-8329055D01*
X16091968Y-8329055D02*
X16101491Y-8310008D01*
X16101491Y-8310008D02*
X16120539Y-8281436D01*
X16120539Y-8281436D02*
X16130063Y-8271912D01*
X16196729Y-8319531D02*
X16206253Y-8310008D01*
X16206253Y-8310008D02*
X16225301Y-8300484D01*
X16225301Y-8300484D02*
X16272920Y-8300484D01*
X16272920Y-8300484D02*
X16291968Y-8310008D01*
X16291968Y-8310008D02*
X16301491Y-8319531D01*
X16301491Y-8319531D02*
X16311015Y-8338579D01*
X16311015Y-8338579D02*
X16311015Y-8357627D01*
X16311015Y-8357627D02*
X16301491Y-8386198D01*
X16301491Y-8386198D02*
X16187206Y-8500484D01*
X16187206Y-8500484D02*
X16311015Y-8500484D01*
X16549110Y-8500484D02*
X16549110Y-8300484D01*
X16634825Y-8500484D02*
X16634825Y-8395722D01*
X16634825Y-8395722D02*
X16625301Y-8376674D01*
X16625301Y-8376674D02*
X16606253Y-8367150D01*
X16606253Y-8367150D02*
X16577682Y-8367150D01*
X16577682Y-8367150D02*
X16558634Y-8376674D01*
X16558634Y-8376674D02*
X16549110Y-8386198D01*
X16758634Y-8500484D02*
X16739587Y-8490960D01*
X16739587Y-8490960D02*
X16730063Y-8481436D01*
X16730063Y-8481436D02*
X16720539Y-8462389D01*
X16720539Y-8462389D02*
X16720539Y-8405246D01*
X16720539Y-8405246D02*
X16730063Y-8386198D01*
X16730063Y-8386198D02*
X16739587Y-8376674D01*
X16739587Y-8376674D02*
X16758634Y-8367150D01*
X16758634Y-8367150D02*
X16787206Y-8367150D01*
X16787206Y-8367150D02*
X16806253Y-8376674D01*
X16806253Y-8376674D02*
X16815777Y-8386198D01*
X16815777Y-8386198D02*
X16825301Y-8405246D01*
X16825301Y-8405246D02*
X16825301Y-8462389D01*
X16825301Y-8462389D02*
X16815777Y-8481436D01*
X16815777Y-8481436D02*
X16806253Y-8490960D01*
X16806253Y-8490960D02*
X16787206Y-8500484D01*
X16787206Y-8500484D02*
X16758634Y-8500484D01*
X16939587Y-8500484D02*
X16920539Y-8490960D01*
X16920539Y-8490960D02*
X16911015Y-8471912D01*
X16911015Y-8471912D02*
X16911015Y-8300484D01*
X17091968Y-8490960D02*
X17072920Y-8500484D01*
X17072920Y-8500484D02*
X17034825Y-8500484D01*
X17034825Y-8500484D02*
X17015777Y-8490960D01*
X17015777Y-8490960D02*
X17006253Y-8471912D01*
X17006253Y-8471912D02*
X17006253Y-8395722D01*
X17006253Y-8395722D02*
X17015777Y-8376674D01*
X17015777Y-8376674D02*
X17034825Y-8367150D01*
X17034825Y-8367150D02*
X17072920Y-8367150D01*
X17072920Y-8367150D02*
X17091968Y-8376674D01*
X17091968Y-8376674D02*
X17101492Y-8395722D01*
X17101492Y-8395722D02*
X17101492Y-8414770D01*
X17101492Y-8414770D02*
X17006253Y-8433817D01*
X17177682Y-8490960D02*
X17196730Y-8500484D01*
X17196730Y-8500484D02*
X17234825Y-8500484D01*
X17234825Y-8500484D02*
X17253873Y-8490960D01*
X17253873Y-8490960D02*
X17263396Y-8471912D01*
X17263396Y-8471912D02*
X17263396Y-8462389D01*
X17263396Y-8462389D02*
X17253873Y-8443341D01*
X17253873Y-8443341D02*
X17234825Y-8433817D01*
X17234825Y-8433817D02*
X17206253Y-8433817D01*
X17206253Y-8433817D02*
X17187206Y-8424293D01*
X17187206Y-8424293D02*
X17177682Y-8405246D01*
X17177682Y-8405246D02*
X17177682Y-8395722D01*
X17177682Y-8395722D02*
X17187206Y-8376674D01*
X17187206Y-8376674D02*
X17206253Y-8367150D01*
X17206253Y-8367150D02*
X17234825Y-8367150D01*
X17234825Y-8367150D02*
X17253873Y-8376674D01*
X17330063Y-8576674D02*
X17339587Y-8567150D01*
X17339587Y-8567150D02*
X17358634Y-8538579D01*
X17358634Y-8538579D02*
X17368158Y-8519531D01*
X17368158Y-8519531D02*
X17377682Y-8490960D01*
X17377682Y-8490960D02*
X17387206Y-8443341D01*
X17387206Y-8443341D02*
X17387206Y-8405246D01*
X17387206Y-8405246D02*
X17377682Y-8357627D01*
X17377682Y-8357627D02*
X17368158Y-8329055D01*
X17368158Y-8329055D02*
X17358634Y-8310008D01*
X17358634Y-8310008D02*
X17339587Y-8281436D01*
X17339587Y-8281436D02*
X17330063Y-8271912D01*
X17691968Y-8576674D02*
X17682444Y-8567150D01*
X17682444Y-8567150D02*
X17663396Y-8538579D01*
X17663396Y-8538579D02*
X17653873Y-8519531D01*
X17653873Y-8519531D02*
X17644349Y-8490960D01*
X17644349Y-8490960D02*
X17634825Y-8443341D01*
X17634825Y-8443341D02*
X17634825Y-8405246D01*
X17634825Y-8405246D02*
X17644349Y-8357627D01*
X17644349Y-8357627D02*
X17653873Y-8329055D01*
X17653873Y-8329055D02*
X17663396Y-8310008D01*
X17663396Y-8310008D02*
X17682444Y-8281436D01*
X17682444Y-8281436D02*
X17691968Y-8271912D01*
X17768158Y-8367150D02*
X17768158Y-8500484D01*
X17768158Y-8386198D02*
X17777682Y-8376674D01*
X17777682Y-8376674D02*
X17796730Y-8367150D01*
X17796730Y-8367150D02*
X17825301Y-8367150D01*
X17825301Y-8367150D02*
X17844349Y-8376674D01*
X17844349Y-8376674D02*
X17853873Y-8395722D01*
X17853873Y-8395722D02*
X17853873Y-8500484D01*
X17977682Y-8500484D02*
X17958634Y-8490960D01*
X17958634Y-8490960D02*
X17949111Y-8481436D01*
X17949111Y-8481436D02*
X17939587Y-8462389D01*
X17939587Y-8462389D02*
X17939587Y-8405246D01*
X17939587Y-8405246D02*
X17949111Y-8386198D01*
X17949111Y-8386198D02*
X17958634Y-8376674D01*
X17958634Y-8376674D02*
X17977682Y-8367150D01*
X17977682Y-8367150D02*
X18006254Y-8367150D01*
X18006254Y-8367150D02*
X18025301Y-8376674D01*
X18025301Y-8376674D02*
X18034825Y-8386198D01*
X18034825Y-8386198D02*
X18044349Y-8405246D01*
X18044349Y-8405246D02*
X18044349Y-8462389D01*
X18044349Y-8462389D02*
X18034825Y-8481436D01*
X18034825Y-8481436D02*
X18025301Y-8490960D01*
X18025301Y-8490960D02*
X18006254Y-8500484D01*
X18006254Y-8500484D02*
X17977682Y-8500484D01*
X18101492Y-8367150D02*
X18177682Y-8367150D01*
X18130063Y-8300484D02*
X18130063Y-8471912D01*
X18130063Y-8471912D02*
X18139587Y-8490960D01*
X18139587Y-8490960D02*
X18158634Y-8500484D01*
X18158634Y-8500484D02*
X18177682Y-8500484D01*
X18396730Y-8367150D02*
X18396730Y-8567150D01*
X18396730Y-8376674D02*
X18415777Y-8367150D01*
X18415777Y-8367150D02*
X18453873Y-8367150D01*
X18453873Y-8367150D02*
X18472920Y-8376674D01*
X18472920Y-8376674D02*
X18482444Y-8386198D01*
X18482444Y-8386198D02*
X18491968Y-8405246D01*
X18491968Y-8405246D02*
X18491968Y-8462389D01*
X18491968Y-8462389D02*
X18482444Y-8481436D01*
X18482444Y-8481436D02*
X18472920Y-8490960D01*
X18472920Y-8490960D02*
X18453873Y-8500484D01*
X18453873Y-8500484D02*
X18415777Y-8500484D01*
X18415777Y-8500484D02*
X18396730Y-8490960D01*
X18606254Y-8500484D02*
X18587206Y-8490960D01*
X18587206Y-8490960D02*
X18577682Y-8471912D01*
X18577682Y-8471912D02*
X18577682Y-8300484D01*
X18768158Y-8500484D02*
X18768158Y-8395722D01*
X18768158Y-8395722D02*
X18758635Y-8376674D01*
X18758635Y-8376674D02*
X18739587Y-8367150D01*
X18739587Y-8367150D02*
X18701492Y-8367150D01*
X18701492Y-8367150D02*
X18682444Y-8376674D01*
X18768158Y-8490960D02*
X18749111Y-8500484D01*
X18749111Y-8500484D02*
X18701492Y-8500484D01*
X18701492Y-8500484D02*
X18682444Y-8490960D01*
X18682444Y-8490960D02*
X18672920Y-8471912D01*
X18672920Y-8471912D02*
X18672920Y-8452865D01*
X18672920Y-8452865D02*
X18682444Y-8433817D01*
X18682444Y-8433817D02*
X18701492Y-8424293D01*
X18701492Y-8424293D02*
X18749111Y-8424293D01*
X18749111Y-8424293D02*
X18768158Y-8414770D01*
X18834825Y-8367150D02*
X18911015Y-8367150D01*
X18863396Y-8300484D02*
X18863396Y-8471912D01*
X18863396Y-8471912D02*
X18872920Y-8490960D01*
X18872920Y-8490960D02*
X18891968Y-8500484D01*
X18891968Y-8500484D02*
X18911015Y-8500484D01*
X19053873Y-8490960D02*
X19034825Y-8500484D01*
X19034825Y-8500484D02*
X18996730Y-8500484D01*
X18996730Y-8500484D02*
X18977682Y-8490960D01*
X18977682Y-8490960D02*
X18968158Y-8471912D01*
X18968158Y-8471912D02*
X18968158Y-8395722D01*
X18968158Y-8395722D02*
X18977682Y-8376674D01*
X18977682Y-8376674D02*
X18996730Y-8367150D01*
X18996730Y-8367150D02*
X19034825Y-8367150D01*
X19034825Y-8367150D02*
X19053873Y-8376674D01*
X19053873Y-8376674D02*
X19063396Y-8395722D01*
X19063396Y-8395722D02*
X19063396Y-8414770D01*
X19063396Y-8414770D02*
X18968158Y-8433817D01*
X19234825Y-8500484D02*
X19234825Y-8300484D01*
X19234825Y-8490960D02*
X19215777Y-8500484D01*
X19215777Y-8500484D02*
X19177682Y-8500484D01*
X19177682Y-8500484D02*
X19158635Y-8490960D01*
X19158635Y-8490960D02*
X19149111Y-8481436D01*
X19149111Y-8481436D02*
X19139587Y-8462389D01*
X19139587Y-8462389D02*
X19139587Y-8405246D01*
X19139587Y-8405246D02*
X19149111Y-8386198D01*
X19149111Y-8386198D02*
X19158635Y-8376674D01*
X19158635Y-8376674D02*
X19177682Y-8367150D01*
X19177682Y-8367150D02*
X19215777Y-8367150D01*
X19215777Y-8367150D02*
X19234825Y-8376674D01*
X19311016Y-8576674D02*
X19320539Y-8567150D01*
X19320539Y-8567150D02*
X19339587Y-8538579D01*
X19339587Y-8538579D02*
X19349111Y-8519531D01*
X19349111Y-8519531D02*
X19358635Y-8490960D01*
X19358635Y-8490960D02*
X19368158Y-8443341D01*
X19368158Y-8443341D02*
X19368158Y-8405246D01*
X19368158Y-8405246D02*
X19358635Y-8357627D01*
X19358635Y-8357627D02*
X19349111Y-8329055D01*
X19349111Y-8329055D02*
X19339587Y-8310008D01*
X19339587Y-8310008D02*
X19320539Y-8281436D01*
X19320539Y-8281436D02*
X19311016Y-8271912D01*
M02*
