%TF.GenerationSoftware,KiCad,Pcbnew,10.0.6*%
%TF.CreationDate,2026-09-24T22:10:38-07:00*%
%TF.ProjectId,luftctl,6c756674-6374-46c2-9e6b-696361645f70,rev?*%
%TF.SameCoordinates,Original*%
%TF.FileFunction,Drillmap*%
%TF.FilePolarity,Positive*%
%FSLAX45Y45*%
G04 Gerber Fmt 4.5, Leading zero omitted, Abs format (unit mm)*
G04 Created by KiCad (PCBNEW 10.0.6) date 2026-09-24 22:10:38*
%MOMM*%
%LPD*%
G01*
G04 APERTURE LIST*
%ADD10C,0.100000*%
%ADD11C,0.200000*%
%ADD12C,0.102000*%
G04 APERTURE END LIST*
D10*
X18160000Y-5000000D02*
G75*
G02*
X18220000Y-5060000I0J-60000D01*
G01*
X18220000Y-7440000D02*
G75*
G02*
X18160000Y-7500000I-60000J0D01*
G01*
X12560000Y-7440000D02*
X12560000Y-5060000D01*
X12560000Y-5060000D02*
G75*
G02*
X12620000Y-5000000I60000J0D01*
G01*
X12620000Y-5000000D02*
X18160000Y-5000000D01*
X12620000Y-7500000D02*
G75*
G02*
X12560000Y-7440000I0J60000D01*
G01*
X18220000Y-5060000D02*
X18220000Y-7440000D01*
X18160000Y-7500000D02*
X12620000Y-7500000D01*
D11*
D10*
X13330000Y-6200000D02*
X13370000Y-6240000D01*
X13370000Y-6200000D02*
X13330000Y-6240000D01*
X13450000Y-6470000D02*
X13490000Y-6510000D01*
X13490000Y-6470000D02*
X13450000Y-6510000D01*
X13470000Y-5180000D02*
X13510000Y-5220000D01*
X13510000Y-5180000D02*
X13470000Y-5220000D01*
X13540000Y-6800000D02*
X13580000Y-6840000D01*
X13580000Y-6800000D02*
X13540000Y-6840000D01*
X13570000Y-5900000D02*
X13610000Y-5940000D01*
X13610000Y-5900000D02*
X13570000Y-5940000D01*
X13640000Y-7020000D02*
X13680000Y-7060000D01*
X13680000Y-7020000D02*
X13640000Y-7060000D01*
X13740000Y-7150000D02*
X13780000Y-7190000D01*
X13780000Y-7150000D02*
X13740000Y-7190000D01*
X13890000Y-6680000D02*
X13930000Y-6720000D01*
X13930000Y-6680000D02*
X13890000Y-6720000D01*
X14040000Y-6600000D02*
X14080000Y-6640000D01*
X14080000Y-6600000D02*
X14040000Y-6640000D01*
X14300000Y-7230000D02*
X14340000Y-7270000D01*
X14340000Y-7230000D02*
X14300000Y-7270000D01*
X14490000Y-6790000D02*
X14530000Y-6830000D01*
X14530000Y-6790000D02*
X14490000Y-6830000D01*
X14700000Y-5970000D02*
X14740000Y-6010000D01*
X14740000Y-5970000D02*
X14700000Y-6010000D01*
X15180000Y-6690000D02*
X15220000Y-6730000D01*
X15220000Y-6690000D02*
X15180000Y-6730000D01*
X15240000Y-5930000D02*
X15280000Y-5970000D01*
X15280000Y-5930000D02*
X15240000Y-5970000D01*
X15547550Y-6470000D02*
X15587550Y-6510000D01*
X15587550Y-6470000D02*
X15547550Y-6510000D01*
X15620000Y-6550000D02*
X15660000Y-6590000D01*
X15660000Y-6550000D02*
X15620000Y-6590000D01*
X15750000Y-7200000D02*
X15790000Y-7240000D01*
X15790000Y-7200000D02*
X15750000Y-7240000D01*
X16220000Y-6090000D02*
X16260000Y-6130000D01*
X16260000Y-6090000D02*
X16220000Y-6130000D01*
X16360000Y-6800000D02*
X16400000Y-6840000D01*
X16400000Y-6800000D02*
X16360000Y-6840000D01*
X16470000Y-6310000D02*
X16510000Y-6350000D01*
X16510000Y-6310000D02*
X16470000Y-6350000D01*
X16920000Y-5360000D02*
X16960000Y-5400000D01*
X16960000Y-5360000D02*
X16920000Y-5400000D01*
X17056175Y-7018444D02*
X17096175Y-7058444D01*
X17096175Y-7018444D02*
X17056175Y-7058444D01*
X17060000Y-5800000D02*
X17100000Y-5840000D01*
X17100000Y-5800000D02*
X17060000Y-5840000D01*
X17419056Y-6967500D02*
X17459056Y-7007500D01*
X17459056Y-6967500D02*
X17419056Y-7007500D01*
X17662000Y-6313000D02*
G75*
G02*
X17602000Y-6313000I-30000J0D01*
G01*
X17602000Y-6313000D02*
G75*
G02*
X17662000Y-6313000I30000J0D01*
G01*
X17577000Y-6343000D02*
X17687000Y-6343000D01*
X17687000Y-6283000D02*
G75*
G02*
X17687000Y-6343000I0J-30000D01*
G01*
X17687000Y-6283000D02*
X17577000Y-6283000D01*
X17577000Y-6283000D02*
G75*
G03*
X17577000Y-6343000I0J-30000D01*
G01*
X17662000Y-7177000D02*
G75*
G02*
X17602000Y-7177000I-30000J0D01*
G01*
X17602000Y-7177000D02*
G75*
G02*
X17662000Y-7177000I30000J0D01*
G01*
X17577000Y-7207000D02*
X17687000Y-7207000D01*
X17687000Y-7147000D02*
G75*
G02*
X17687000Y-7207000I0J-30000D01*
G01*
X17687000Y-7147000D02*
X17577000Y-7147000D01*
X17577000Y-7147000D02*
G75*
G03*
X17577000Y-7207000I0J-30000D01*
G01*
X18080000Y-6313000D02*
G75*
G02*
X18020000Y-6313000I-30000J0D01*
G01*
X18020000Y-6313000D02*
G75*
G02*
X18080000Y-6313000I30000J0D01*
G01*
X18020000Y-6343000D02*
X18080000Y-6343000D01*
X18080000Y-6283000D02*
G75*
G02*
X18080000Y-6343000I0J-30000D01*
G01*
X18080000Y-6283000D02*
X18020000Y-6283000D01*
X18020000Y-6283000D02*
G75*
G03*
X18020000Y-6343000I0J-30000D01*
G01*
X18080000Y-7177000D02*
G75*
G02*
X18020000Y-7177000I-30000J0D01*
G01*
X18020000Y-7177000D02*
G75*
G02*
X18080000Y-7177000I30000J0D01*
G01*
X18020000Y-7207000D02*
X18080000Y-7207000D01*
X18080000Y-7147000D02*
G75*
G02*
X18080000Y-7207000I0J-30000D01*
G01*
X18080000Y-7147000D02*
X18020000Y-7147000D01*
X18020000Y-7147000D02*
G75*
G03*
X18020000Y-7207000I0J-30000D01*
G01*
X13280000Y-5125000D02*
X13280000Y-5195000D01*
X13245000Y-5160000D02*
X13315000Y-5160000D01*
X13280000Y-6745000D02*
X13280000Y-6815000D01*
X13245000Y-6780000D02*
X13315000Y-6780000D01*
X16200000Y-6585000D02*
X16200000Y-6655000D01*
X16165000Y-6620000D02*
X16235000Y-6620000D01*
X17513300Y-5146600D02*
X17513300Y-5216600D01*
X17478300Y-5181600D02*
X17548300Y-5181600D01*
D12*
X12826063Y-5304063D02*
X12826063Y-5231937D01*
X12753937Y-5231937D01*
X12753937Y-5304063D01*
X12826063Y-5304063D01*
X12826063Y-5558063D02*
X12826063Y-5485937D01*
X12753937Y-5485937D01*
X12753937Y-5558063D01*
X12826063Y-5558063D01*
X12826063Y-5812063D02*
X12826063Y-5739937D01*
X12753937Y-5739937D01*
X12753937Y-5812063D01*
X12826063Y-5812063D01*
X12826063Y-6066063D02*
X12826063Y-5993937D01*
X12753937Y-5993937D01*
X12753937Y-6066063D01*
X12826063Y-6066063D01*
X12826063Y-6494063D02*
X12826063Y-6421937D01*
X12753937Y-6421937D01*
X12753937Y-6494063D01*
X12826063Y-6494063D01*
X12826063Y-6748063D02*
X12826063Y-6675937D01*
X12753937Y-6675937D01*
X12753937Y-6748063D01*
X12826063Y-6748063D01*
X12826063Y-7002063D02*
X12826063Y-6929937D01*
X12753937Y-6929937D01*
X12753937Y-7002063D01*
X12826063Y-7002063D01*
X12826063Y-7256063D02*
X12826063Y-7183937D01*
X12753937Y-7183937D01*
X12753937Y-7256063D01*
X12826063Y-7256063D01*
D11*
X12815777Y-7816484D02*
X12815777Y-7616484D01*
X12815777Y-7616484D02*
X12863396Y-7616484D01*
X12863396Y-7616484D02*
X12891967Y-7626008D01*
X12891967Y-7626008D02*
X12911015Y-7645055D01*
X12911015Y-7645055D02*
X12920539Y-7664103D01*
X12920539Y-7664103D02*
X12930062Y-7702198D01*
X12930062Y-7702198D02*
X12930062Y-7730769D01*
X12930062Y-7730769D02*
X12920539Y-7768865D01*
X12920539Y-7768865D02*
X12911015Y-7787912D01*
X12911015Y-7787912D02*
X12891967Y-7806960D01*
X12891967Y-7806960D02*
X12863396Y-7816484D01*
X12863396Y-7816484D02*
X12815777Y-7816484D01*
X13015777Y-7816484D02*
X13015777Y-7683150D01*
X13015777Y-7721246D02*
X13025301Y-7702198D01*
X13025301Y-7702198D02*
X13034824Y-7692674D01*
X13034824Y-7692674D02*
X13053872Y-7683150D01*
X13053872Y-7683150D02*
X13072920Y-7683150D01*
X13139586Y-7816484D02*
X13139586Y-7683150D01*
X13139586Y-7616484D02*
X13130062Y-7626008D01*
X13130062Y-7626008D02*
X13139586Y-7635531D01*
X13139586Y-7635531D02*
X13149110Y-7626008D01*
X13149110Y-7626008D02*
X13139586Y-7616484D01*
X13139586Y-7616484D02*
X13139586Y-7635531D01*
X13263396Y-7816484D02*
X13244348Y-7806960D01*
X13244348Y-7806960D02*
X13234824Y-7787912D01*
X13234824Y-7787912D02*
X13234824Y-7616484D01*
X13368158Y-7816484D02*
X13349110Y-7806960D01*
X13349110Y-7806960D02*
X13339586Y-7787912D01*
X13339586Y-7787912D02*
X13339586Y-7616484D01*
X13596729Y-7816484D02*
X13596729Y-7616484D01*
X13596729Y-7616484D02*
X13663396Y-7759341D01*
X13663396Y-7759341D02*
X13730062Y-7616484D01*
X13730062Y-7616484D02*
X13730062Y-7816484D01*
X13911015Y-7816484D02*
X13911015Y-7711722D01*
X13911015Y-7711722D02*
X13901491Y-7692674D01*
X13901491Y-7692674D02*
X13882443Y-7683150D01*
X13882443Y-7683150D02*
X13844348Y-7683150D01*
X13844348Y-7683150D02*
X13825301Y-7692674D01*
X13911015Y-7806960D02*
X13891967Y-7816484D01*
X13891967Y-7816484D02*
X13844348Y-7816484D01*
X13844348Y-7816484D02*
X13825301Y-7806960D01*
X13825301Y-7806960D02*
X13815777Y-7787912D01*
X13815777Y-7787912D02*
X13815777Y-7768865D01*
X13815777Y-7768865D02*
X13825301Y-7749817D01*
X13825301Y-7749817D02*
X13844348Y-7740293D01*
X13844348Y-7740293D02*
X13891967Y-7740293D01*
X13891967Y-7740293D02*
X13911015Y-7730769D01*
X14006253Y-7683150D02*
X14006253Y-7883150D01*
X14006253Y-7692674D02*
X14025301Y-7683150D01*
X14025301Y-7683150D02*
X14063396Y-7683150D01*
X14063396Y-7683150D02*
X14082443Y-7692674D01*
X14082443Y-7692674D02*
X14091967Y-7702198D01*
X14091967Y-7702198D02*
X14101491Y-7721246D01*
X14101491Y-7721246D02*
X14101491Y-7778388D01*
X14101491Y-7778388D02*
X14091967Y-7797436D01*
X14091967Y-7797436D02*
X14082443Y-7806960D01*
X14082443Y-7806960D02*
X14063396Y-7816484D01*
X14063396Y-7816484D02*
X14025301Y-7816484D01*
X14025301Y-7816484D02*
X14006253Y-7806960D01*
X14187205Y-7797436D02*
X14196729Y-7806960D01*
X14196729Y-7806960D02*
X14187205Y-7816484D01*
X14187205Y-7816484D02*
X14177682Y-7806960D01*
X14177682Y-7806960D02*
X14187205Y-7797436D01*
X14187205Y-7797436D02*
X14187205Y-7816484D01*
X14187205Y-7692674D02*
X14196729Y-7702198D01*
X14196729Y-7702198D02*
X14187205Y-7711722D01*
X14187205Y-7711722D02*
X14177682Y-7702198D01*
X14177682Y-7702198D02*
X14187205Y-7692674D01*
X14187205Y-7692674D02*
X14187205Y-7711722D01*
D10*
X12515000Y-8125000D02*
X12555000Y-8165000D01*
X12555000Y-8125000D02*
X12515000Y-8165000D01*
D11*
X12853872Y-8036484D02*
X12872920Y-8036484D01*
X12872920Y-8036484D02*
X12891967Y-8046008D01*
X12891967Y-8046008D02*
X12901491Y-8055531D01*
X12901491Y-8055531D02*
X12911015Y-8074579D01*
X12911015Y-8074579D02*
X12920539Y-8112674D01*
X12920539Y-8112674D02*
X12920539Y-8160293D01*
X12920539Y-8160293D02*
X12911015Y-8198388D01*
X12911015Y-8198388D02*
X12901491Y-8217436D01*
X12901491Y-8217436D02*
X12891967Y-8226960D01*
X12891967Y-8226960D02*
X12872920Y-8236484D01*
X12872920Y-8236484D02*
X12853872Y-8236484D01*
X12853872Y-8236484D02*
X12834824Y-8226960D01*
X12834824Y-8226960D02*
X12825301Y-8217436D01*
X12825301Y-8217436D02*
X12815777Y-8198388D01*
X12815777Y-8198388D02*
X12806253Y-8160293D01*
X12806253Y-8160293D02*
X12806253Y-8112674D01*
X12806253Y-8112674D02*
X12815777Y-8074579D01*
X12815777Y-8074579D02*
X12825301Y-8055531D01*
X12825301Y-8055531D02*
X12834824Y-8046008D01*
X12834824Y-8046008D02*
X12853872Y-8036484D01*
X13006253Y-8217436D02*
X13015777Y-8226960D01*
X13015777Y-8226960D02*
X13006253Y-8236484D01*
X13006253Y-8236484D02*
X12996729Y-8226960D01*
X12996729Y-8226960D02*
X13006253Y-8217436D01*
X13006253Y-8217436D02*
X13006253Y-8236484D01*
X13187205Y-8103150D02*
X13187205Y-8236484D01*
X13139586Y-8026960D02*
X13091967Y-8169817D01*
X13091967Y-8169817D02*
X13215777Y-8169817D01*
X13330062Y-8036484D02*
X13349110Y-8036484D01*
X13349110Y-8036484D02*
X13368158Y-8046008D01*
X13368158Y-8046008D02*
X13377682Y-8055531D01*
X13377682Y-8055531D02*
X13387205Y-8074579D01*
X13387205Y-8074579D02*
X13396729Y-8112674D01*
X13396729Y-8112674D02*
X13396729Y-8160293D01*
X13396729Y-8160293D02*
X13387205Y-8198388D01*
X13387205Y-8198388D02*
X13377682Y-8217436D01*
X13377682Y-8217436D02*
X13368158Y-8226960D01*
X13368158Y-8226960D02*
X13349110Y-8236484D01*
X13349110Y-8236484D02*
X13330062Y-8236484D01*
X13330062Y-8236484D02*
X13311015Y-8226960D01*
X13311015Y-8226960D02*
X13301491Y-8217436D01*
X13301491Y-8217436D02*
X13291967Y-8198388D01*
X13291967Y-8198388D02*
X13282443Y-8160293D01*
X13282443Y-8160293D02*
X13282443Y-8112674D01*
X13282443Y-8112674D02*
X13291967Y-8074579D01*
X13291967Y-8074579D02*
X13301491Y-8055531D01*
X13301491Y-8055531D02*
X13311015Y-8046008D01*
X13311015Y-8046008D02*
X13330062Y-8036484D01*
X13520539Y-8036484D02*
X13539586Y-8036484D01*
X13539586Y-8036484D02*
X13558634Y-8046008D01*
X13558634Y-8046008D02*
X13568158Y-8055531D01*
X13568158Y-8055531D02*
X13577682Y-8074579D01*
X13577682Y-8074579D02*
X13587205Y-8112674D01*
X13587205Y-8112674D02*
X13587205Y-8160293D01*
X13587205Y-8160293D02*
X13577682Y-8198388D01*
X13577682Y-8198388D02*
X13568158Y-8217436D01*
X13568158Y-8217436D02*
X13558634Y-8226960D01*
X13558634Y-8226960D02*
X13539586Y-8236484D01*
X13539586Y-8236484D02*
X13520539Y-8236484D01*
X13520539Y-8236484D02*
X13501491Y-8226960D01*
X13501491Y-8226960D02*
X13491967Y-8217436D01*
X13491967Y-8217436D02*
X13482443Y-8198388D01*
X13482443Y-8198388D02*
X13472920Y-8160293D01*
X13472920Y-8160293D02*
X13472920Y-8112674D01*
X13472920Y-8112674D02*
X13482443Y-8074579D01*
X13482443Y-8074579D02*
X13491967Y-8055531D01*
X13491967Y-8055531D02*
X13501491Y-8046008D01*
X13501491Y-8046008D02*
X13520539Y-8036484D01*
X13672920Y-8236484D02*
X13672920Y-8103150D01*
X13672920Y-8122198D02*
X13682443Y-8112674D01*
X13682443Y-8112674D02*
X13701491Y-8103150D01*
X13701491Y-8103150D02*
X13730063Y-8103150D01*
X13730063Y-8103150D02*
X13749110Y-8112674D01*
X13749110Y-8112674D02*
X13758634Y-8131722D01*
X13758634Y-8131722D02*
X13758634Y-8236484D01*
X13758634Y-8131722D02*
X13768158Y-8112674D01*
X13768158Y-8112674D02*
X13787205Y-8103150D01*
X13787205Y-8103150D02*
X13815777Y-8103150D01*
X13815777Y-8103150D02*
X13834824Y-8112674D01*
X13834824Y-8112674D02*
X13844348Y-8131722D01*
X13844348Y-8131722D02*
X13844348Y-8236484D01*
X13939586Y-8236484D02*
X13939586Y-8103150D01*
X13939586Y-8122198D02*
X13949110Y-8112674D01*
X13949110Y-8112674D02*
X13968158Y-8103150D01*
X13968158Y-8103150D02*
X13996729Y-8103150D01*
X13996729Y-8103150D02*
X14015777Y-8112674D01*
X14015777Y-8112674D02*
X14025301Y-8131722D01*
X14025301Y-8131722D02*
X14025301Y-8236484D01*
X14025301Y-8131722D02*
X14034824Y-8112674D01*
X14034824Y-8112674D02*
X14053872Y-8103150D01*
X14053872Y-8103150D02*
X14082443Y-8103150D01*
X14082443Y-8103150D02*
X14101491Y-8112674D01*
X14101491Y-8112674D02*
X14111015Y-8131722D01*
X14111015Y-8131722D02*
X14111015Y-8236484D01*
X14501491Y-8026960D02*
X14330063Y-8284103D01*
X14758634Y-8036484D02*
X14777682Y-8036484D01*
X14777682Y-8036484D02*
X14796729Y-8046008D01*
X14796729Y-8046008D02*
X14806253Y-8055531D01*
X14806253Y-8055531D02*
X14815777Y-8074579D01*
X14815777Y-8074579D02*
X14825301Y-8112674D01*
X14825301Y-8112674D02*
X14825301Y-8160293D01*
X14825301Y-8160293D02*
X14815777Y-8198388D01*
X14815777Y-8198388D02*
X14806253Y-8217436D01*
X14806253Y-8217436D02*
X14796729Y-8226960D01*
X14796729Y-8226960D02*
X14777682Y-8236484D01*
X14777682Y-8236484D02*
X14758634Y-8236484D01*
X14758634Y-8236484D02*
X14739586Y-8226960D01*
X14739586Y-8226960D02*
X14730063Y-8217436D01*
X14730063Y-8217436D02*
X14720539Y-8198388D01*
X14720539Y-8198388D02*
X14711015Y-8160293D01*
X14711015Y-8160293D02*
X14711015Y-8112674D01*
X14711015Y-8112674D02*
X14720539Y-8074579D01*
X14720539Y-8074579D02*
X14730063Y-8055531D01*
X14730063Y-8055531D02*
X14739586Y-8046008D01*
X14739586Y-8046008D02*
X14758634Y-8036484D01*
X14911015Y-8217436D02*
X14920539Y-8226960D01*
X14920539Y-8226960D02*
X14911015Y-8236484D01*
X14911015Y-8236484D02*
X14901491Y-8226960D01*
X14901491Y-8226960D02*
X14911015Y-8217436D01*
X14911015Y-8217436D02*
X14911015Y-8236484D01*
X15044348Y-8036484D02*
X15063396Y-8036484D01*
X15063396Y-8036484D02*
X15082444Y-8046008D01*
X15082444Y-8046008D02*
X15091967Y-8055531D01*
X15091967Y-8055531D02*
X15101491Y-8074579D01*
X15101491Y-8074579D02*
X15111015Y-8112674D01*
X15111015Y-8112674D02*
X15111015Y-8160293D01*
X15111015Y-8160293D02*
X15101491Y-8198388D01*
X15101491Y-8198388D02*
X15091967Y-8217436D01*
X15091967Y-8217436D02*
X15082444Y-8226960D01*
X15082444Y-8226960D02*
X15063396Y-8236484D01*
X15063396Y-8236484D02*
X15044348Y-8236484D01*
X15044348Y-8236484D02*
X15025301Y-8226960D01*
X15025301Y-8226960D02*
X15015777Y-8217436D01*
X15015777Y-8217436D02*
X15006253Y-8198388D01*
X15006253Y-8198388D02*
X14996729Y-8160293D01*
X14996729Y-8160293D02*
X14996729Y-8112674D01*
X14996729Y-8112674D02*
X15006253Y-8074579D01*
X15006253Y-8074579D02*
X15015777Y-8055531D01*
X15015777Y-8055531D02*
X15025301Y-8046008D01*
X15025301Y-8046008D02*
X15044348Y-8036484D01*
X15301491Y-8236484D02*
X15187206Y-8236484D01*
X15244348Y-8236484D02*
X15244348Y-8036484D01*
X15244348Y-8036484D02*
X15225301Y-8065055D01*
X15225301Y-8065055D02*
X15206253Y-8084103D01*
X15206253Y-8084103D02*
X15187206Y-8093627D01*
X15482444Y-8036484D02*
X15387206Y-8036484D01*
X15387206Y-8036484D02*
X15377682Y-8131722D01*
X15377682Y-8131722D02*
X15387206Y-8122198D01*
X15387206Y-8122198D02*
X15406253Y-8112674D01*
X15406253Y-8112674D02*
X15453872Y-8112674D01*
X15453872Y-8112674D02*
X15472920Y-8122198D01*
X15472920Y-8122198D02*
X15482444Y-8131722D01*
X15482444Y-8131722D02*
X15491967Y-8150769D01*
X15491967Y-8150769D02*
X15491967Y-8198388D01*
X15491967Y-8198388D02*
X15482444Y-8217436D01*
X15482444Y-8217436D02*
X15472920Y-8226960D01*
X15472920Y-8226960D02*
X15453872Y-8236484D01*
X15453872Y-8236484D02*
X15406253Y-8236484D01*
X15406253Y-8236484D02*
X15387206Y-8226960D01*
X15387206Y-8226960D02*
X15377682Y-8217436D01*
X15558634Y-8036484D02*
X15691967Y-8036484D01*
X15691967Y-8036484D02*
X15606253Y-8236484D01*
X15758634Y-8036484D02*
X15758634Y-8074579D01*
X15834825Y-8036484D02*
X15834825Y-8074579D01*
X16130063Y-8312674D02*
X16120539Y-8303150D01*
X16120539Y-8303150D02*
X16101491Y-8274579D01*
X16101491Y-8274579D02*
X16091968Y-8255531D01*
X16091968Y-8255531D02*
X16082444Y-8226960D01*
X16082444Y-8226960D02*
X16072920Y-8179341D01*
X16072920Y-8179341D02*
X16072920Y-8141246D01*
X16072920Y-8141246D02*
X16082444Y-8093627D01*
X16082444Y-8093627D02*
X16091968Y-8065055D01*
X16091968Y-8065055D02*
X16101491Y-8046008D01*
X16101491Y-8046008D02*
X16120539Y-8017436D01*
X16120539Y-8017436D02*
X16130063Y-8007912D01*
X16196729Y-8055531D02*
X16206253Y-8046008D01*
X16206253Y-8046008D02*
X16225301Y-8036484D01*
X16225301Y-8036484D02*
X16272920Y-8036484D01*
X16272920Y-8036484D02*
X16291968Y-8046008D01*
X16291968Y-8046008D02*
X16301491Y-8055531D01*
X16301491Y-8055531D02*
X16311015Y-8074579D01*
X16311015Y-8074579D02*
X16311015Y-8093627D01*
X16311015Y-8093627D02*
X16301491Y-8122198D01*
X16301491Y-8122198D02*
X16187206Y-8236484D01*
X16187206Y-8236484D02*
X16311015Y-8236484D01*
X16482444Y-8103150D02*
X16482444Y-8236484D01*
X16434825Y-8026960D02*
X16387206Y-8169817D01*
X16387206Y-8169817D02*
X16511015Y-8169817D01*
X16739587Y-8236484D02*
X16739587Y-8036484D01*
X16825301Y-8236484D02*
X16825301Y-8131722D01*
X16825301Y-8131722D02*
X16815777Y-8112674D01*
X16815777Y-8112674D02*
X16796730Y-8103150D01*
X16796730Y-8103150D02*
X16768158Y-8103150D01*
X16768158Y-8103150D02*
X16749110Y-8112674D01*
X16749110Y-8112674D02*
X16739587Y-8122198D01*
X16949111Y-8236484D02*
X16930063Y-8226960D01*
X16930063Y-8226960D02*
X16920539Y-8217436D01*
X16920539Y-8217436D02*
X16911015Y-8198388D01*
X16911015Y-8198388D02*
X16911015Y-8141246D01*
X16911015Y-8141246D02*
X16920539Y-8122198D01*
X16920539Y-8122198D02*
X16930063Y-8112674D01*
X16930063Y-8112674D02*
X16949111Y-8103150D01*
X16949111Y-8103150D02*
X16977682Y-8103150D01*
X16977682Y-8103150D02*
X16996730Y-8112674D01*
X16996730Y-8112674D02*
X17006253Y-8122198D01*
X17006253Y-8122198D02*
X17015777Y-8141246D01*
X17015777Y-8141246D02*
X17015777Y-8198388D01*
X17015777Y-8198388D02*
X17006253Y-8217436D01*
X17006253Y-8217436D02*
X16996730Y-8226960D01*
X16996730Y-8226960D02*
X16977682Y-8236484D01*
X16977682Y-8236484D02*
X16949111Y-8236484D01*
X17130063Y-8236484D02*
X17111015Y-8226960D01*
X17111015Y-8226960D02*
X17101492Y-8207912D01*
X17101492Y-8207912D02*
X17101492Y-8036484D01*
X17282444Y-8226960D02*
X17263396Y-8236484D01*
X17263396Y-8236484D02*
X17225301Y-8236484D01*
X17225301Y-8236484D02*
X17206253Y-8226960D01*
X17206253Y-8226960D02*
X17196730Y-8207912D01*
X17196730Y-8207912D02*
X17196730Y-8131722D01*
X17196730Y-8131722D02*
X17206253Y-8112674D01*
X17206253Y-8112674D02*
X17225301Y-8103150D01*
X17225301Y-8103150D02*
X17263396Y-8103150D01*
X17263396Y-8103150D02*
X17282444Y-8112674D01*
X17282444Y-8112674D02*
X17291968Y-8131722D01*
X17291968Y-8131722D02*
X17291968Y-8150769D01*
X17291968Y-8150769D02*
X17196730Y-8169817D01*
X17368158Y-8226960D02*
X17387206Y-8236484D01*
X17387206Y-8236484D02*
X17425301Y-8236484D01*
X17425301Y-8236484D02*
X17444349Y-8226960D01*
X17444349Y-8226960D02*
X17453873Y-8207912D01*
X17453873Y-8207912D02*
X17453873Y-8198388D01*
X17453873Y-8198388D02*
X17444349Y-8179341D01*
X17444349Y-8179341D02*
X17425301Y-8169817D01*
X17425301Y-8169817D02*
X17396730Y-8169817D01*
X17396730Y-8169817D02*
X17377682Y-8160293D01*
X17377682Y-8160293D02*
X17368158Y-8141246D01*
X17368158Y-8141246D02*
X17368158Y-8131722D01*
X17368158Y-8131722D02*
X17377682Y-8112674D01*
X17377682Y-8112674D02*
X17396730Y-8103150D01*
X17396730Y-8103150D02*
X17425301Y-8103150D01*
X17425301Y-8103150D02*
X17444349Y-8112674D01*
X17520539Y-8312674D02*
X17530063Y-8303150D01*
X17530063Y-8303150D02*
X17549111Y-8274579D01*
X17549111Y-8274579D02*
X17558634Y-8255531D01*
X17558634Y-8255531D02*
X17568158Y-8226960D01*
X17568158Y-8226960D02*
X17577682Y-8179341D01*
X17577682Y-8179341D02*
X17577682Y-8141246D01*
X17577682Y-8141246D02*
X17568158Y-8093627D01*
X17568158Y-8093627D02*
X17558634Y-8065055D01*
X17558634Y-8065055D02*
X17549111Y-8046008D01*
X17549111Y-8046008D02*
X17530063Y-8017436D01*
X17530063Y-8017436D02*
X17520539Y-8007912D01*
D10*
X12555000Y-8409000D02*
G75*
G02*
X12495000Y-8409000I-30000J0D01*
G01*
X12495000Y-8409000D02*
G75*
G02*
X12555000Y-8409000I30000J0D01*
G01*
D11*
X12853872Y-8300484D02*
X12872920Y-8300484D01*
X12872920Y-8300484D02*
X12891967Y-8310008D01*
X12891967Y-8310008D02*
X12901491Y-8319531D01*
X12901491Y-8319531D02*
X12911015Y-8338579D01*
X12911015Y-8338579D02*
X12920539Y-8376674D01*
X12920539Y-8376674D02*
X12920539Y-8424293D01*
X12920539Y-8424293D02*
X12911015Y-8462389D01*
X12911015Y-8462389D02*
X12901491Y-8481436D01*
X12901491Y-8481436D02*
X12891967Y-8490960D01*
X12891967Y-8490960D02*
X12872920Y-8500484D01*
X12872920Y-8500484D02*
X12853872Y-8500484D01*
X12853872Y-8500484D02*
X12834824Y-8490960D01*
X12834824Y-8490960D02*
X12825301Y-8481436D01*
X12825301Y-8481436D02*
X12815777Y-8462389D01*
X12815777Y-8462389D02*
X12806253Y-8424293D01*
X12806253Y-8424293D02*
X12806253Y-8376674D01*
X12806253Y-8376674D02*
X12815777Y-8338579D01*
X12815777Y-8338579D02*
X12825301Y-8319531D01*
X12825301Y-8319531D02*
X12834824Y-8310008D01*
X12834824Y-8310008D02*
X12853872Y-8300484D01*
X13006253Y-8481436D02*
X13015777Y-8490960D01*
X13015777Y-8490960D02*
X13006253Y-8500484D01*
X13006253Y-8500484D02*
X12996729Y-8490960D01*
X12996729Y-8490960D02*
X13006253Y-8481436D01*
X13006253Y-8481436D02*
X13006253Y-8500484D01*
X13187205Y-8300484D02*
X13149110Y-8300484D01*
X13149110Y-8300484D02*
X13130062Y-8310008D01*
X13130062Y-8310008D02*
X13120539Y-8319531D01*
X13120539Y-8319531D02*
X13101491Y-8348103D01*
X13101491Y-8348103D02*
X13091967Y-8386198D01*
X13091967Y-8386198D02*
X13091967Y-8462389D01*
X13091967Y-8462389D02*
X13101491Y-8481436D01*
X13101491Y-8481436D02*
X13111015Y-8490960D01*
X13111015Y-8490960D02*
X13130062Y-8500484D01*
X13130062Y-8500484D02*
X13168158Y-8500484D01*
X13168158Y-8500484D02*
X13187205Y-8490960D01*
X13187205Y-8490960D02*
X13196729Y-8481436D01*
X13196729Y-8481436D02*
X13206253Y-8462389D01*
X13206253Y-8462389D02*
X13206253Y-8414770D01*
X13206253Y-8414770D02*
X13196729Y-8395722D01*
X13196729Y-8395722D02*
X13187205Y-8386198D01*
X13187205Y-8386198D02*
X13168158Y-8376674D01*
X13168158Y-8376674D02*
X13130062Y-8376674D01*
X13130062Y-8376674D02*
X13111015Y-8386198D01*
X13111015Y-8386198D02*
X13101491Y-8395722D01*
X13101491Y-8395722D02*
X13091967Y-8414770D01*
X13330062Y-8300484D02*
X13349110Y-8300484D01*
X13349110Y-8300484D02*
X13368158Y-8310008D01*
X13368158Y-8310008D02*
X13377682Y-8319531D01*
X13377682Y-8319531D02*
X13387205Y-8338579D01*
X13387205Y-8338579D02*
X13396729Y-8376674D01*
X13396729Y-8376674D02*
X13396729Y-8424293D01*
X13396729Y-8424293D02*
X13387205Y-8462389D01*
X13387205Y-8462389D02*
X13377682Y-8481436D01*
X13377682Y-8481436D02*
X13368158Y-8490960D01*
X13368158Y-8490960D02*
X13349110Y-8500484D01*
X13349110Y-8500484D02*
X13330062Y-8500484D01*
X13330062Y-8500484D02*
X13311015Y-8490960D01*
X13311015Y-8490960D02*
X13301491Y-8481436D01*
X13301491Y-8481436D02*
X13291967Y-8462389D01*
X13291967Y-8462389D02*
X13282443Y-8424293D01*
X13282443Y-8424293D02*
X13282443Y-8376674D01*
X13282443Y-8376674D02*
X13291967Y-8338579D01*
X13291967Y-8338579D02*
X13301491Y-8319531D01*
X13301491Y-8319531D02*
X13311015Y-8310008D01*
X13311015Y-8310008D02*
X13330062Y-8300484D01*
X13520539Y-8300484D02*
X13539586Y-8300484D01*
X13539586Y-8300484D02*
X13558634Y-8310008D01*
X13558634Y-8310008D02*
X13568158Y-8319531D01*
X13568158Y-8319531D02*
X13577682Y-8338579D01*
X13577682Y-8338579D02*
X13587205Y-8376674D01*
X13587205Y-8376674D02*
X13587205Y-8424293D01*
X13587205Y-8424293D02*
X13577682Y-8462389D01*
X13577682Y-8462389D02*
X13568158Y-8481436D01*
X13568158Y-8481436D02*
X13558634Y-8490960D01*
X13558634Y-8490960D02*
X13539586Y-8500484D01*
X13539586Y-8500484D02*
X13520539Y-8500484D01*
X13520539Y-8500484D02*
X13501491Y-8490960D01*
X13501491Y-8490960D02*
X13491967Y-8481436D01*
X13491967Y-8481436D02*
X13482443Y-8462389D01*
X13482443Y-8462389D02*
X13472920Y-8424293D01*
X13472920Y-8424293D02*
X13472920Y-8376674D01*
X13472920Y-8376674D02*
X13482443Y-8338579D01*
X13482443Y-8338579D02*
X13491967Y-8319531D01*
X13491967Y-8319531D02*
X13501491Y-8310008D01*
X13501491Y-8310008D02*
X13520539Y-8300484D01*
X13672920Y-8500484D02*
X13672920Y-8367150D01*
X13672920Y-8386198D02*
X13682443Y-8376674D01*
X13682443Y-8376674D02*
X13701491Y-8367150D01*
X13701491Y-8367150D02*
X13730063Y-8367150D01*
X13730063Y-8367150D02*
X13749110Y-8376674D01*
X13749110Y-8376674D02*
X13758634Y-8395722D01*
X13758634Y-8395722D02*
X13758634Y-8500484D01*
X13758634Y-8395722D02*
X13768158Y-8376674D01*
X13768158Y-8376674D02*
X13787205Y-8367150D01*
X13787205Y-8367150D02*
X13815777Y-8367150D01*
X13815777Y-8367150D02*
X13834824Y-8376674D01*
X13834824Y-8376674D02*
X13844348Y-8395722D01*
X13844348Y-8395722D02*
X13844348Y-8500484D01*
X13939586Y-8500484D02*
X13939586Y-8367150D01*
X13939586Y-8386198D02*
X13949110Y-8376674D01*
X13949110Y-8376674D02*
X13968158Y-8367150D01*
X13968158Y-8367150D02*
X13996729Y-8367150D01*
X13996729Y-8367150D02*
X14015777Y-8376674D01*
X14015777Y-8376674D02*
X14025301Y-8395722D01*
X14025301Y-8395722D02*
X14025301Y-8500484D01*
X14025301Y-8395722D02*
X14034824Y-8376674D01*
X14034824Y-8376674D02*
X14053872Y-8367150D01*
X14053872Y-8367150D02*
X14082443Y-8367150D01*
X14082443Y-8367150D02*
X14101491Y-8376674D01*
X14101491Y-8376674D02*
X14111015Y-8395722D01*
X14111015Y-8395722D02*
X14111015Y-8500484D01*
X14501491Y-8290960D02*
X14330063Y-8548103D01*
X14758634Y-8300484D02*
X14777682Y-8300484D01*
X14777682Y-8300484D02*
X14796729Y-8310008D01*
X14796729Y-8310008D02*
X14806253Y-8319531D01*
X14806253Y-8319531D02*
X14815777Y-8338579D01*
X14815777Y-8338579D02*
X14825301Y-8376674D01*
X14825301Y-8376674D02*
X14825301Y-8424293D01*
X14825301Y-8424293D02*
X14815777Y-8462389D01*
X14815777Y-8462389D02*
X14806253Y-8481436D01*
X14806253Y-8481436D02*
X14796729Y-8490960D01*
X14796729Y-8490960D02*
X14777682Y-8500484D01*
X14777682Y-8500484D02*
X14758634Y-8500484D01*
X14758634Y-8500484D02*
X14739586Y-8490960D01*
X14739586Y-8490960D02*
X14730063Y-8481436D01*
X14730063Y-8481436D02*
X14720539Y-8462389D01*
X14720539Y-8462389D02*
X14711015Y-8424293D01*
X14711015Y-8424293D02*
X14711015Y-8376674D01*
X14711015Y-8376674D02*
X14720539Y-8338579D01*
X14720539Y-8338579D02*
X14730063Y-8319531D01*
X14730063Y-8319531D02*
X14739586Y-8310008D01*
X14739586Y-8310008D02*
X14758634Y-8300484D01*
X14911015Y-8481436D02*
X14920539Y-8490960D01*
X14920539Y-8490960D02*
X14911015Y-8500484D01*
X14911015Y-8500484D02*
X14901491Y-8490960D01*
X14901491Y-8490960D02*
X14911015Y-8481436D01*
X14911015Y-8481436D02*
X14911015Y-8500484D01*
X15044348Y-8300484D02*
X15063396Y-8300484D01*
X15063396Y-8300484D02*
X15082444Y-8310008D01*
X15082444Y-8310008D02*
X15091967Y-8319531D01*
X15091967Y-8319531D02*
X15101491Y-8338579D01*
X15101491Y-8338579D02*
X15111015Y-8376674D01*
X15111015Y-8376674D02*
X15111015Y-8424293D01*
X15111015Y-8424293D02*
X15101491Y-8462389D01*
X15101491Y-8462389D02*
X15091967Y-8481436D01*
X15091967Y-8481436D02*
X15082444Y-8490960D01*
X15082444Y-8490960D02*
X15063396Y-8500484D01*
X15063396Y-8500484D02*
X15044348Y-8500484D01*
X15044348Y-8500484D02*
X15025301Y-8490960D01*
X15025301Y-8490960D02*
X15015777Y-8481436D01*
X15015777Y-8481436D02*
X15006253Y-8462389D01*
X15006253Y-8462389D02*
X14996729Y-8424293D01*
X14996729Y-8424293D02*
X14996729Y-8376674D01*
X14996729Y-8376674D02*
X15006253Y-8338579D01*
X15006253Y-8338579D02*
X15015777Y-8319531D01*
X15015777Y-8319531D02*
X15025301Y-8310008D01*
X15025301Y-8310008D02*
X15044348Y-8300484D01*
X15187206Y-8319531D02*
X15196729Y-8310008D01*
X15196729Y-8310008D02*
X15215777Y-8300484D01*
X15215777Y-8300484D02*
X15263396Y-8300484D01*
X15263396Y-8300484D02*
X15282444Y-8310008D01*
X15282444Y-8310008D02*
X15291967Y-8319531D01*
X15291967Y-8319531D02*
X15301491Y-8338579D01*
X15301491Y-8338579D02*
X15301491Y-8357627D01*
X15301491Y-8357627D02*
X15291967Y-8386198D01*
X15291967Y-8386198D02*
X15177682Y-8500484D01*
X15177682Y-8500484D02*
X15301491Y-8500484D01*
X15368158Y-8300484D02*
X15491967Y-8300484D01*
X15491967Y-8300484D02*
X15425301Y-8376674D01*
X15425301Y-8376674D02*
X15453872Y-8376674D01*
X15453872Y-8376674D02*
X15472920Y-8386198D01*
X15472920Y-8386198D02*
X15482444Y-8395722D01*
X15482444Y-8395722D02*
X15491967Y-8414770D01*
X15491967Y-8414770D02*
X15491967Y-8462389D01*
X15491967Y-8462389D02*
X15482444Y-8481436D01*
X15482444Y-8481436D02*
X15472920Y-8490960D01*
X15472920Y-8490960D02*
X15453872Y-8500484D01*
X15453872Y-8500484D02*
X15396729Y-8500484D01*
X15396729Y-8500484D02*
X15377682Y-8490960D01*
X15377682Y-8490960D02*
X15368158Y-8481436D01*
X15663396Y-8300484D02*
X15625301Y-8300484D01*
X15625301Y-8300484D02*
X15606253Y-8310008D01*
X15606253Y-8310008D02*
X15596729Y-8319531D01*
X15596729Y-8319531D02*
X15577682Y-8348103D01*
X15577682Y-8348103D02*
X15568158Y-8386198D01*
X15568158Y-8386198D02*
X15568158Y-8462389D01*
X15568158Y-8462389D02*
X15577682Y-8481436D01*
X15577682Y-8481436D02*
X15587206Y-8490960D01*
X15587206Y-8490960D02*
X15606253Y-8500484D01*
X15606253Y-8500484D02*
X15644348Y-8500484D01*
X15644348Y-8500484D02*
X15663396Y-8490960D01*
X15663396Y-8490960D02*
X15672920Y-8481436D01*
X15672920Y-8481436D02*
X15682444Y-8462389D01*
X15682444Y-8462389D02*
X15682444Y-8414770D01*
X15682444Y-8414770D02*
X15672920Y-8395722D01*
X15672920Y-8395722D02*
X15663396Y-8386198D01*
X15663396Y-8386198D02*
X15644348Y-8376674D01*
X15644348Y-8376674D02*
X15606253Y-8376674D01*
X15606253Y-8376674D02*
X15587206Y-8386198D01*
X15587206Y-8386198D02*
X15577682Y-8395722D01*
X15577682Y-8395722D02*
X15568158Y-8414770D01*
X15758634Y-8300484D02*
X15758634Y-8338579D01*
X15834825Y-8300484D02*
X15834825Y-8338579D01*
X16130063Y-8576674D02*
X16120539Y-8567150D01*
X16120539Y-8567150D02*
X16101491Y-8538579D01*
X16101491Y-8538579D02*
X16091968Y-8519531D01*
X16091968Y-8519531D02*
X16082444Y-8490960D01*
X16082444Y-8490960D02*
X16072920Y-8443341D01*
X16072920Y-8443341D02*
X16072920Y-8405246D01*
X16072920Y-8405246D02*
X16082444Y-8357627D01*
X16082444Y-8357627D02*
X16091968Y-8329055D01*
X16091968Y-8329055D02*
X16101491Y-8310008D01*
X16101491Y-8310008D02*
X16120539Y-8281436D01*
X16120539Y-8281436D02*
X16130063Y-8271912D01*
X16244348Y-8300484D02*
X16263396Y-8300484D01*
X16263396Y-8300484D02*
X16282444Y-8310008D01*
X16282444Y-8310008D02*
X16291968Y-8319531D01*
X16291968Y-8319531D02*
X16301491Y-8338579D01*
X16301491Y-8338579D02*
X16311015Y-8376674D01*
X16311015Y-8376674D02*
X16311015Y-8424293D01*
X16311015Y-8424293D02*
X16301491Y-8462389D01*
X16301491Y-8462389D02*
X16291968Y-8481436D01*
X16291968Y-8481436D02*
X16282444Y-8490960D01*
X16282444Y-8490960D02*
X16263396Y-8500484D01*
X16263396Y-8500484D02*
X16244348Y-8500484D01*
X16244348Y-8500484D02*
X16225301Y-8490960D01*
X16225301Y-8490960D02*
X16215777Y-8481436D01*
X16215777Y-8481436D02*
X16206253Y-8462389D01*
X16206253Y-8462389D02*
X16196729Y-8424293D01*
X16196729Y-8424293D02*
X16196729Y-8376674D01*
X16196729Y-8376674D02*
X16206253Y-8338579D01*
X16206253Y-8338579D02*
X16215777Y-8319531D01*
X16215777Y-8319531D02*
X16225301Y-8310008D01*
X16225301Y-8310008D02*
X16244348Y-8300484D01*
X16549110Y-8500484D02*
X16549110Y-8300484D01*
X16634825Y-8500484D02*
X16634825Y-8395722D01*
X16634825Y-8395722D02*
X16625301Y-8376674D01*
X16625301Y-8376674D02*
X16606253Y-8367150D01*
X16606253Y-8367150D02*
X16577682Y-8367150D01*
X16577682Y-8367150D02*
X16558634Y-8376674D01*
X16558634Y-8376674D02*
X16549110Y-8386198D01*
X16758634Y-8500484D02*
X16739587Y-8490960D01*
X16739587Y-8490960D02*
X16730063Y-8481436D01*
X16730063Y-8481436D02*
X16720539Y-8462389D01*
X16720539Y-8462389D02*
X16720539Y-8405246D01*
X16720539Y-8405246D02*
X16730063Y-8386198D01*
X16730063Y-8386198D02*
X16739587Y-8376674D01*
X16739587Y-8376674D02*
X16758634Y-8367150D01*
X16758634Y-8367150D02*
X16787206Y-8367150D01*
X16787206Y-8367150D02*
X16806253Y-8376674D01*
X16806253Y-8376674D02*
X16815777Y-8386198D01*
X16815777Y-8386198D02*
X16825301Y-8405246D01*
X16825301Y-8405246D02*
X16825301Y-8462389D01*
X16825301Y-8462389D02*
X16815777Y-8481436D01*
X16815777Y-8481436D02*
X16806253Y-8490960D01*
X16806253Y-8490960D02*
X16787206Y-8500484D01*
X16787206Y-8500484D02*
X16758634Y-8500484D01*
X16939587Y-8500484D02*
X16920539Y-8490960D01*
X16920539Y-8490960D02*
X16911015Y-8471912D01*
X16911015Y-8471912D02*
X16911015Y-8300484D01*
X17091968Y-8490960D02*
X17072920Y-8500484D01*
X17072920Y-8500484D02*
X17034825Y-8500484D01*
X17034825Y-8500484D02*
X17015777Y-8490960D01*
X17015777Y-8490960D02*
X17006253Y-8471912D01*
X17006253Y-8471912D02*
X17006253Y-8395722D01*
X17006253Y-8395722D02*
X17015777Y-8376674D01*
X17015777Y-8376674D02*
X17034825Y-8367150D01*
X17034825Y-8367150D02*
X17072920Y-8367150D01*
X17072920Y-8367150D02*
X17091968Y-8376674D01*
X17091968Y-8376674D02*
X17101492Y-8395722D01*
X17101492Y-8395722D02*
X17101492Y-8414770D01*
X17101492Y-8414770D02*
X17006253Y-8433817D01*
X17177682Y-8490960D02*
X17196730Y-8500484D01*
X17196730Y-8500484D02*
X17234825Y-8500484D01*
X17234825Y-8500484D02*
X17253873Y-8490960D01*
X17253873Y-8490960D02*
X17263396Y-8471912D01*
X17263396Y-8471912D02*
X17263396Y-8462389D01*
X17263396Y-8462389D02*
X17253873Y-8443341D01*
X17253873Y-8443341D02*
X17234825Y-8433817D01*
X17234825Y-8433817D02*
X17206253Y-8433817D01*
X17206253Y-8433817D02*
X17187206Y-8424293D01*
X17187206Y-8424293D02*
X17177682Y-8405246D01*
X17177682Y-8405246D02*
X17177682Y-8395722D01*
X17177682Y-8395722D02*
X17187206Y-8376674D01*
X17187206Y-8376674D02*
X17206253Y-8367150D01*
X17206253Y-8367150D02*
X17234825Y-8367150D01*
X17234825Y-8367150D02*
X17253873Y-8376674D01*
X17501492Y-8424293D02*
X17653873Y-8424293D01*
X17577682Y-8500484D02*
X17577682Y-8348103D01*
X17987206Y-8367150D02*
X17987206Y-8500484D01*
X17939587Y-8290960D02*
X17891968Y-8433817D01*
X17891968Y-8433817D02*
X18015777Y-8433817D01*
X18234825Y-8490960D02*
X18253873Y-8500484D01*
X18253873Y-8500484D02*
X18291968Y-8500484D01*
X18291968Y-8500484D02*
X18311016Y-8490960D01*
X18311016Y-8490960D02*
X18320539Y-8471912D01*
X18320539Y-8471912D02*
X18320539Y-8462389D01*
X18320539Y-8462389D02*
X18311016Y-8443341D01*
X18311016Y-8443341D02*
X18291968Y-8433817D01*
X18291968Y-8433817D02*
X18263396Y-8433817D01*
X18263396Y-8433817D02*
X18244349Y-8424293D01*
X18244349Y-8424293D02*
X18234825Y-8405246D01*
X18234825Y-8405246D02*
X18234825Y-8395722D01*
X18234825Y-8395722D02*
X18244349Y-8376674D01*
X18244349Y-8376674D02*
X18263396Y-8367150D01*
X18263396Y-8367150D02*
X18291968Y-8367150D01*
X18291968Y-8367150D02*
X18311016Y-8376674D01*
X18434825Y-8500484D02*
X18415777Y-8490960D01*
X18415777Y-8490960D02*
X18406254Y-8471912D01*
X18406254Y-8471912D02*
X18406254Y-8300484D01*
X18539587Y-8500484D02*
X18520539Y-8490960D01*
X18520539Y-8490960D02*
X18511016Y-8481436D01*
X18511016Y-8481436D02*
X18501492Y-8462389D01*
X18501492Y-8462389D02*
X18501492Y-8405246D01*
X18501492Y-8405246D02*
X18511016Y-8386198D01*
X18511016Y-8386198D02*
X18520539Y-8376674D01*
X18520539Y-8376674D02*
X18539587Y-8367150D01*
X18539587Y-8367150D02*
X18568158Y-8367150D01*
X18568158Y-8367150D02*
X18587206Y-8376674D01*
X18587206Y-8376674D02*
X18596730Y-8386198D01*
X18596730Y-8386198D02*
X18606254Y-8405246D01*
X18606254Y-8405246D02*
X18606254Y-8462389D01*
X18606254Y-8462389D02*
X18596730Y-8481436D01*
X18596730Y-8481436D02*
X18587206Y-8490960D01*
X18587206Y-8490960D02*
X18568158Y-8500484D01*
X18568158Y-8500484D02*
X18539587Y-8500484D01*
X18663397Y-8367150D02*
X18739587Y-8367150D01*
X18691968Y-8300484D02*
X18691968Y-8471912D01*
X18691968Y-8471912D02*
X18701492Y-8490960D01*
X18701492Y-8490960D02*
X18720539Y-8500484D01*
X18720539Y-8500484D02*
X18739587Y-8500484D01*
X18796730Y-8490960D02*
X18815777Y-8500484D01*
X18815777Y-8500484D02*
X18853873Y-8500484D01*
X18853873Y-8500484D02*
X18872920Y-8490960D01*
X18872920Y-8490960D02*
X18882444Y-8471912D01*
X18882444Y-8471912D02*
X18882444Y-8462389D01*
X18882444Y-8462389D02*
X18872920Y-8443341D01*
X18872920Y-8443341D02*
X18853873Y-8433817D01*
X18853873Y-8433817D02*
X18825301Y-8433817D01*
X18825301Y-8433817D02*
X18806254Y-8424293D01*
X18806254Y-8424293D02*
X18796730Y-8405246D01*
X18796730Y-8405246D02*
X18796730Y-8395722D01*
X18796730Y-8395722D02*
X18806254Y-8376674D01*
X18806254Y-8376674D02*
X18825301Y-8367150D01*
X18825301Y-8367150D02*
X18853873Y-8367150D01*
X18853873Y-8367150D02*
X18872920Y-8376674D01*
X18949111Y-8576674D02*
X18958635Y-8567150D01*
X18958635Y-8567150D02*
X18977682Y-8538579D01*
X18977682Y-8538579D02*
X18987206Y-8519531D01*
X18987206Y-8519531D02*
X18996730Y-8490960D01*
X18996730Y-8490960D02*
X19006254Y-8443341D01*
X19006254Y-8443341D02*
X19006254Y-8405246D01*
X19006254Y-8405246D02*
X18996730Y-8357627D01*
X18996730Y-8357627D02*
X18987206Y-8329055D01*
X18987206Y-8329055D02*
X18977682Y-8310008D01*
X18977682Y-8310008D02*
X18958635Y-8281436D01*
X18958635Y-8281436D02*
X18949111Y-8271912D01*
D10*
X12520000Y-8638000D02*
X12520000Y-8708000D01*
X12485000Y-8673000D02*
X12555000Y-8673000D01*
D11*
X12853872Y-8564484D02*
X12872920Y-8564484D01*
X12872920Y-8564484D02*
X12891967Y-8574008D01*
X12891967Y-8574008D02*
X12901491Y-8583531D01*
X12901491Y-8583531D02*
X12911015Y-8602579D01*
X12911015Y-8602579D02*
X12920539Y-8640674D01*
X12920539Y-8640674D02*
X12920539Y-8688293D01*
X12920539Y-8688293D02*
X12911015Y-8726389D01*
X12911015Y-8726389D02*
X12901491Y-8745436D01*
X12901491Y-8745436D02*
X12891967Y-8754960D01*
X12891967Y-8754960D02*
X12872920Y-8764484D01*
X12872920Y-8764484D02*
X12853872Y-8764484D01*
X12853872Y-8764484D02*
X12834824Y-8754960D01*
X12834824Y-8754960D02*
X12825301Y-8745436D01*
X12825301Y-8745436D02*
X12815777Y-8726389D01*
X12815777Y-8726389D02*
X12806253Y-8688293D01*
X12806253Y-8688293D02*
X12806253Y-8640674D01*
X12806253Y-8640674D02*
X12815777Y-8602579D01*
X12815777Y-8602579D02*
X12825301Y-8583531D01*
X12825301Y-8583531D02*
X12834824Y-8574008D01*
X12834824Y-8574008D02*
X12853872Y-8564484D01*
X13006253Y-8745436D02*
X13015777Y-8754960D01*
X13015777Y-8754960D02*
X13006253Y-8764484D01*
X13006253Y-8764484D02*
X12996729Y-8754960D01*
X12996729Y-8754960D02*
X13006253Y-8745436D01*
X13006253Y-8745436D02*
X13006253Y-8764484D01*
X13082443Y-8564484D02*
X13215777Y-8564484D01*
X13215777Y-8564484D02*
X13130062Y-8764484D01*
X13330062Y-8564484D02*
X13349110Y-8564484D01*
X13349110Y-8564484D02*
X13368158Y-8574008D01*
X13368158Y-8574008D02*
X13377682Y-8583531D01*
X13377682Y-8583531D02*
X13387205Y-8602579D01*
X13387205Y-8602579D02*
X13396729Y-8640674D01*
X13396729Y-8640674D02*
X13396729Y-8688293D01*
X13396729Y-8688293D02*
X13387205Y-8726389D01*
X13387205Y-8726389D02*
X13377682Y-8745436D01*
X13377682Y-8745436D02*
X13368158Y-8754960D01*
X13368158Y-8754960D02*
X13349110Y-8764484D01*
X13349110Y-8764484D02*
X13330062Y-8764484D01*
X13330062Y-8764484D02*
X13311015Y-8754960D01*
X13311015Y-8754960D02*
X13301491Y-8745436D01*
X13301491Y-8745436D02*
X13291967Y-8726389D01*
X13291967Y-8726389D02*
X13282443Y-8688293D01*
X13282443Y-8688293D02*
X13282443Y-8640674D01*
X13282443Y-8640674D02*
X13291967Y-8602579D01*
X13291967Y-8602579D02*
X13301491Y-8583531D01*
X13301491Y-8583531D02*
X13311015Y-8574008D01*
X13311015Y-8574008D02*
X13330062Y-8564484D01*
X13520539Y-8564484D02*
X13539586Y-8564484D01*
X13539586Y-8564484D02*
X13558634Y-8574008D01*
X13558634Y-8574008D02*
X13568158Y-8583531D01*
X13568158Y-8583531D02*
X13577682Y-8602579D01*
X13577682Y-8602579D02*
X13587205Y-8640674D01*
X13587205Y-8640674D02*
X13587205Y-8688293D01*
X13587205Y-8688293D02*
X13577682Y-8726389D01*
X13577682Y-8726389D02*
X13568158Y-8745436D01*
X13568158Y-8745436D02*
X13558634Y-8754960D01*
X13558634Y-8754960D02*
X13539586Y-8764484D01*
X13539586Y-8764484D02*
X13520539Y-8764484D01*
X13520539Y-8764484D02*
X13501491Y-8754960D01*
X13501491Y-8754960D02*
X13491967Y-8745436D01*
X13491967Y-8745436D02*
X13482443Y-8726389D01*
X13482443Y-8726389D02*
X13472920Y-8688293D01*
X13472920Y-8688293D02*
X13472920Y-8640674D01*
X13472920Y-8640674D02*
X13482443Y-8602579D01*
X13482443Y-8602579D02*
X13491967Y-8583531D01*
X13491967Y-8583531D02*
X13501491Y-8574008D01*
X13501491Y-8574008D02*
X13520539Y-8564484D01*
X13672920Y-8764484D02*
X13672920Y-8631150D01*
X13672920Y-8650198D02*
X13682443Y-8640674D01*
X13682443Y-8640674D02*
X13701491Y-8631150D01*
X13701491Y-8631150D02*
X13730063Y-8631150D01*
X13730063Y-8631150D02*
X13749110Y-8640674D01*
X13749110Y-8640674D02*
X13758634Y-8659722D01*
X13758634Y-8659722D02*
X13758634Y-8764484D01*
X13758634Y-8659722D02*
X13768158Y-8640674D01*
X13768158Y-8640674D02*
X13787205Y-8631150D01*
X13787205Y-8631150D02*
X13815777Y-8631150D01*
X13815777Y-8631150D02*
X13834824Y-8640674D01*
X13834824Y-8640674D02*
X13844348Y-8659722D01*
X13844348Y-8659722D02*
X13844348Y-8764484D01*
X13939586Y-8764484D02*
X13939586Y-8631150D01*
X13939586Y-8650198D02*
X13949110Y-8640674D01*
X13949110Y-8640674D02*
X13968158Y-8631150D01*
X13968158Y-8631150D02*
X13996729Y-8631150D01*
X13996729Y-8631150D02*
X14015777Y-8640674D01*
X14015777Y-8640674D02*
X14025301Y-8659722D01*
X14025301Y-8659722D02*
X14025301Y-8764484D01*
X14025301Y-8659722D02*
X14034824Y-8640674D01*
X14034824Y-8640674D02*
X14053872Y-8631150D01*
X14053872Y-8631150D02*
X14082443Y-8631150D01*
X14082443Y-8631150D02*
X14101491Y-8640674D01*
X14101491Y-8640674D02*
X14111015Y-8659722D01*
X14111015Y-8659722D02*
X14111015Y-8764484D01*
X14501491Y-8554960D02*
X14330063Y-8812103D01*
X14758634Y-8564484D02*
X14777682Y-8564484D01*
X14777682Y-8564484D02*
X14796729Y-8574008D01*
X14796729Y-8574008D02*
X14806253Y-8583531D01*
X14806253Y-8583531D02*
X14815777Y-8602579D01*
X14815777Y-8602579D02*
X14825301Y-8640674D01*
X14825301Y-8640674D02*
X14825301Y-8688293D01*
X14825301Y-8688293D02*
X14815777Y-8726389D01*
X14815777Y-8726389D02*
X14806253Y-8745436D01*
X14806253Y-8745436D02*
X14796729Y-8754960D01*
X14796729Y-8754960D02*
X14777682Y-8764484D01*
X14777682Y-8764484D02*
X14758634Y-8764484D01*
X14758634Y-8764484D02*
X14739586Y-8754960D01*
X14739586Y-8754960D02*
X14730063Y-8745436D01*
X14730063Y-8745436D02*
X14720539Y-8726389D01*
X14720539Y-8726389D02*
X14711015Y-8688293D01*
X14711015Y-8688293D02*
X14711015Y-8640674D01*
X14711015Y-8640674D02*
X14720539Y-8602579D01*
X14720539Y-8602579D02*
X14730063Y-8583531D01*
X14730063Y-8583531D02*
X14739586Y-8574008D01*
X14739586Y-8574008D02*
X14758634Y-8564484D01*
X14911015Y-8745436D02*
X14920539Y-8754960D01*
X14920539Y-8754960D02*
X14911015Y-8764484D01*
X14911015Y-8764484D02*
X14901491Y-8754960D01*
X14901491Y-8754960D02*
X14911015Y-8745436D01*
X14911015Y-8745436D02*
X14911015Y-8764484D01*
X15044348Y-8564484D02*
X15063396Y-8564484D01*
X15063396Y-8564484D02*
X15082444Y-8574008D01*
X15082444Y-8574008D02*
X15091967Y-8583531D01*
X15091967Y-8583531D02*
X15101491Y-8602579D01*
X15101491Y-8602579D02*
X15111015Y-8640674D01*
X15111015Y-8640674D02*
X15111015Y-8688293D01*
X15111015Y-8688293D02*
X15101491Y-8726389D01*
X15101491Y-8726389D02*
X15091967Y-8745436D01*
X15091967Y-8745436D02*
X15082444Y-8754960D01*
X15082444Y-8754960D02*
X15063396Y-8764484D01*
X15063396Y-8764484D02*
X15044348Y-8764484D01*
X15044348Y-8764484D02*
X15025301Y-8754960D01*
X15025301Y-8754960D02*
X15015777Y-8745436D01*
X15015777Y-8745436D02*
X15006253Y-8726389D01*
X15006253Y-8726389D02*
X14996729Y-8688293D01*
X14996729Y-8688293D02*
X14996729Y-8640674D01*
X14996729Y-8640674D02*
X15006253Y-8602579D01*
X15006253Y-8602579D02*
X15015777Y-8583531D01*
X15015777Y-8583531D02*
X15025301Y-8574008D01*
X15025301Y-8574008D02*
X15044348Y-8564484D01*
X15187206Y-8583531D02*
X15196729Y-8574008D01*
X15196729Y-8574008D02*
X15215777Y-8564484D01*
X15215777Y-8564484D02*
X15263396Y-8564484D01*
X15263396Y-8564484D02*
X15282444Y-8574008D01*
X15282444Y-8574008D02*
X15291967Y-8583531D01*
X15291967Y-8583531D02*
X15301491Y-8602579D01*
X15301491Y-8602579D02*
X15301491Y-8621627D01*
X15301491Y-8621627D02*
X15291967Y-8650198D01*
X15291967Y-8650198D02*
X15177682Y-8764484D01*
X15177682Y-8764484D02*
X15301491Y-8764484D01*
X15368158Y-8564484D02*
X15501491Y-8564484D01*
X15501491Y-8564484D02*
X15415777Y-8764484D01*
X15663396Y-8564484D02*
X15625301Y-8564484D01*
X15625301Y-8564484D02*
X15606253Y-8574008D01*
X15606253Y-8574008D02*
X15596729Y-8583531D01*
X15596729Y-8583531D02*
X15577682Y-8612103D01*
X15577682Y-8612103D02*
X15568158Y-8650198D01*
X15568158Y-8650198D02*
X15568158Y-8726389D01*
X15568158Y-8726389D02*
X15577682Y-8745436D01*
X15577682Y-8745436D02*
X15587206Y-8754960D01*
X15587206Y-8754960D02*
X15606253Y-8764484D01*
X15606253Y-8764484D02*
X15644348Y-8764484D01*
X15644348Y-8764484D02*
X15663396Y-8754960D01*
X15663396Y-8754960D02*
X15672920Y-8745436D01*
X15672920Y-8745436D02*
X15682444Y-8726389D01*
X15682444Y-8726389D02*
X15682444Y-8678770D01*
X15682444Y-8678770D02*
X15672920Y-8659722D01*
X15672920Y-8659722D02*
X15663396Y-8650198D01*
X15663396Y-8650198D02*
X15644348Y-8640674D01*
X15644348Y-8640674D02*
X15606253Y-8640674D01*
X15606253Y-8640674D02*
X15587206Y-8650198D01*
X15587206Y-8650198D02*
X15577682Y-8659722D01*
X15577682Y-8659722D02*
X15568158Y-8678770D01*
X15758634Y-8564484D02*
X15758634Y-8602579D01*
X15834825Y-8564484D02*
X15834825Y-8602579D01*
X16130063Y-8840674D02*
X16120539Y-8831150D01*
X16120539Y-8831150D02*
X16101491Y-8802579D01*
X16101491Y-8802579D02*
X16091968Y-8783531D01*
X16091968Y-8783531D02*
X16082444Y-8754960D01*
X16082444Y-8754960D02*
X16072920Y-8707341D01*
X16072920Y-8707341D02*
X16072920Y-8669246D01*
X16072920Y-8669246D02*
X16082444Y-8621627D01*
X16082444Y-8621627D02*
X16091968Y-8593055D01*
X16091968Y-8593055D02*
X16101491Y-8574008D01*
X16101491Y-8574008D02*
X16120539Y-8545436D01*
X16120539Y-8545436D02*
X16130063Y-8535912D01*
X16291968Y-8631150D02*
X16291968Y-8764484D01*
X16244348Y-8554960D02*
X16196729Y-8697817D01*
X16196729Y-8697817D02*
X16320539Y-8697817D01*
X16549110Y-8764484D02*
X16549110Y-8564484D01*
X16634825Y-8764484D02*
X16634825Y-8659722D01*
X16634825Y-8659722D02*
X16625301Y-8640674D01*
X16625301Y-8640674D02*
X16606253Y-8631150D01*
X16606253Y-8631150D02*
X16577682Y-8631150D01*
X16577682Y-8631150D02*
X16558634Y-8640674D01*
X16558634Y-8640674D02*
X16549110Y-8650198D01*
X16758634Y-8764484D02*
X16739587Y-8754960D01*
X16739587Y-8754960D02*
X16730063Y-8745436D01*
X16730063Y-8745436D02*
X16720539Y-8726389D01*
X16720539Y-8726389D02*
X16720539Y-8669246D01*
X16720539Y-8669246D02*
X16730063Y-8650198D01*
X16730063Y-8650198D02*
X16739587Y-8640674D01*
X16739587Y-8640674D02*
X16758634Y-8631150D01*
X16758634Y-8631150D02*
X16787206Y-8631150D01*
X16787206Y-8631150D02*
X16806253Y-8640674D01*
X16806253Y-8640674D02*
X16815777Y-8650198D01*
X16815777Y-8650198D02*
X16825301Y-8669246D01*
X16825301Y-8669246D02*
X16825301Y-8726389D01*
X16825301Y-8726389D02*
X16815777Y-8745436D01*
X16815777Y-8745436D02*
X16806253Y-8754960D01*
X16806253Y-8754960D02*
X16787206Y-8764484D01*
X16787206Y-8764484D02*
X16758634Y-8764484D01*
X16939587Y-8764484D02*
X16920539Y-8754960D01*
X16920539Y-8754960D02*
X16911015Y-8735912D01*
X16911015Y-8735912D02*
X16911015Y-8564484D01*
X17091968Y-8754960D02*
X17072920Y-8764484D01*
X17072920Y-8764484D02*
X17034825Y-8764484D01*
X17034825Y-8764484D02*
X17015777Y-8754960D01*
X17015777Y-8754960D02*
X17006253Y-8735912D01*
X17006253Y-8735912D02*
X17006253Y-8659722D01*
X17006253Y-8659722D02*
X17015777Y-8640674D01*
X17015777Y-8640674D02*
X17034825Y-8631150D01*
X17034825Y-8631150D02*
X17072920Y-8631150D01*
X17072920Y-8631150D02*
X17091968Y-8640674D01*
X17091968Y-8640674D02*
X17101492Y-8659722D01*
X17101492Y-8659722D02*
X17101492Y-8678770D01*
X17101492Y-8678770D02*
X17006253Y-8697817D01*
X17177682Y-8754960D02*
X17196730Y-8764484D01*
X17196730Y-8764484D02*
X17234825Y-8764484D01*
X17234825Y-8764484D02*
X17253873Y-8754960D01*
X17253873Y-8754960D02*
X17263396Y-8735912D01*
X17263396Y-8735912D02*
X17263396Y-8726389D01*
X17263396Y-8726389D02*
X17253873Y-8707341D01*
X17253873Y-8707341D02*
X17234825Y-8697817D01*
X17234825Y-8697817D02*
X17206253Y-8697817D01*
X17206253Y-8697817D02*
X17187206Y-8688293D01*
X17187206Y-8688293D02*
X17177682Y-8669246D01*
X17177682Y-8669246D02*
X17177682Y-8659722D01*
X17177682Y-8659722D02*
X17187206Y-8640674D01*
X17187206Y-8640674D02*
X17206253Y-8631150D01*
X17206253Y-8631150D02*
X17234825Y-8631150D01*
X17234825Y-8631150D02*
X17253873Y-8640674D01*
X17330063Y-8840674D02*
X17339587Y-8831150D01*
X17339587Y-8831150D02*
X17358634Y-8802579D01*
X17358634Y-8802579D02*
X17368158Y-8783531D01*
X17368158Y-8783531D02*
X17377682Y-8754960D01*
X17377682Y-8754960D02*
X17387206Y-8707341D01*
X17387206Y-8707341D02*
X17387206Y-8669246D01*
X17387206Y-8669246D02*
X17377682Y-8621627D01*
X17377682Y-8621627D02*
X17368158Y-8593055D01*
X17368158Y-8593055D02*
X17358634Y-8574008D01*
X17358634Y-8574008D02*
X17339587Y-8545436D01*
X17339587Y-8545436D02*
X17330063Y-8535912D01*
D12*
X12540063Y-8973063D02*
X12540063Y-8900937D01*
X12467937Y-8900937D01*
X12467937Y-8973063D01*
X12540063Y-8973063D01*
D11*
X12920539Y-9028484D02*
X12806253Y-9028484D01*
X12863396Y-9028484D02*
X12863396Y-8828484D01*
X12863396Y-8828484D02*
X12844348Y-8857055D01*
X12844348Y-8857055D02*
X12825301Y-8876103D01*
X12825301Y-8876103D02*
X12806253Y-8885627D01*
X13006253Y-9009436D02*
X13015777Y-9018960D01*
X13015777Y-9018960D02*
X13006253Y-9028484D01*
X13006253Y-9028484D02*
X12996729Y-9018960D01*
X12996729Y-9018960D02*
X13006253Y-9009436D01*
X13006253Y-9009436D02*
X13006253Y-9028484D01*
X13139586Y-8828484D02*
X13158634Y-8828484D01*
X13158634Y-8828484D02*
X13177682Y-8838008D01*
X13177682Y-8838008D02*
X13187205Y-8847531D01*
X13187205Y-8847531D02*
X13196729Y-8866579D01*
X13196729Y-8866579D02*
X13206253Y-8904674D01*
X13206253Y-8904674D02*
X13206253Y-8952293D01*
X13206253Y-8952293D02*
X13196729Y-8990389D01*
X13196729Y-8990389D02*
X13187205Y-9009436D01*
X13187205Y-9009436D02*
X13177682Y-9018960D01*
X13177682Y-9018960D02*
X13158634Y-9028484D01*
X13158634Y-9028484D02*
X13139586Y-9028484D01*
X13139586Y-9028484D02*
X13120539Y-9018960D01*
X13120539Y-9018960D02*
X13111015Y-9009436D01*
X13111015Y-9009436D02*
X13101491Y-8990389D01*
X13101491Y-8990389D02*
X13091967Y-8952293D01*
X13091967Y-8952293D02*
X13091967Y-8904674D01*
X13091967Y-8904674D02*
X13101491Y-8866579D01*
X13101491Y-8866579D02*
X13111015Y-8847531D01*
X13111015Y-8847531D02*
X13120539Y-8838008D01*
X13120539Y-8838008D02*
X13139586Y-8828484D01*
X13282443Y-8847531D02*
X13291967Y-8838008D01*
X13291967Y-8838008D02*
X13311015Y-8828484D01*
X13311015Y-8828484D02*
X13358634Y-8828484D01*
X13358634Y-8828484D02*
X13377682Y-8838008D01*
X13377682Y-8838008D02*
X13387205Y-8847531D01*
X13387205Y-8847531D02*
X13396729Y-8866579D01*
X13396729Y-8866579D02*
X13396729Y-8885627D01*
X13396729Y-8885627D02*
X13387205Y-8914198D01*
X13387205Y-8914198D02*
X13272920Y-9028484D01*
X13272920Y-9028484D02*
X13396729Y-9028484D01*
X13520539Y-8828484D02*
X13539586Y-8828484D01*
X13539586Y-8828484D02*
X13558634Y-8838008D01*
X13558634Y-8838008D02*
X13568158Y-8847531D01*
X13568158Y-8847531D02*
X13577682Y-8866579D01*
X13577682Y-8866579D02*
X13587205Y-8904674D01*
X13587205Y-8904674D02*
X13587205Y-8952293D01*
X13587205Y-8952293D02*
X13577682Y-8990389D01*
X13577682Y-8990389D02*
X13568158Y-9009436D01*
X13568158Y-9009436D02*
X13558634Y-9018960D01*
X13558634Y-9018960D02*
X13539586Y-9028484D01*
X13539586Y-9028484D02*
X13520539Y-9028484D01*
X13520539Y-9028484D02*
X13501491Y-9018960D01*
X13501491Y-9018960D02*
X13491967Y-9009436D01*
X13491967Y-9009436D02*
X13482443Y-8990389D01*
X13482443Y-8990389D02*
X13472920Y-8952293D01*
X13472920Y-8952293D02*
X13472920Y-8904674D01*
X13472920Y-8904674D02*
X13482443Y-8866579D01*
X13482443Y-8866579D02*
X13491967Y-8847531D01*
X13491967Y-8847531D02*
X13501491Y-8838008D01*
X13501491Y-8838008D02*
X13520539Y-8828484D01*
X13672920Y-9028484D02*
X13672920Y-8895150D01*
X13672920Y-8914198D02*
X13682443Y-8904674D01*
X13682443Y-8904674D02*
X13701491Y-8895150D01*
X13701491Y-8895150D02*
X13730063Y-8895150D01*
X13730063Y-8895150D02*
X13749110Y-8904674D01*
X13749110Y-8904674D02*
X13758634Y-8923722D01*
X13758634Y-8923722D02*
X13758634Y-9028484D01*
X13758634Y-8923722D02*
X13768158Y-8904674D01*
X13768158Y-8904674D02*
X13787205Y-8895150D01*
X13787205Y-8895150D02*
X13815777Y-8895150D01*
X13815777Y-8895150D02*
X13834824Y-8904674D01*
X13834824Y-8904674D02*
X13844348Y-8923722D01*
X13844348Y-8923722D02*
X13844348Y-9028484D01*
X13939586Y-9028484D02*
X13939586Y-8895150D01*
X13939586Y-8914198D02*
X13949110Y-8904674D01*
X13949110Y-8904674D02*
X13968158Y-8895150D01*
X13968158Y-8895150D02*
X13996729Y-8895150D01*
X13996729Y-8895150D02*
X14015777Y-8904674D01*
X14015777Y-8904674D02*
X14025301Y-8923722D01*
X14025301Y-8923722D02*
X14025301Y-9028484D01*
X14025301Y-8923722D02*
X14034824Y-8904674D01*
X14034824Y-8904674D02*
X14053872Y-8895150D01*
X14053872Y-8895150D02*
X14082443Y-8895150D01*
X14082443Y-8895150D02*
X14101491Y-8904674D01*
X14101491Y-8904674D02*
X14111015Y-8923722D01*
X14111015Y-8923722D02*
X14111015Y-9028484D01*
X14501491Y-8818960D02*
X14330063Y-9076103D01*
X14758634Y-8828484D02*
X14777682Y-8828484D01*
X14777682Y-8828484D02*
X14796729Y-8838008D01*
X14796729Y-8838008D02*
X14806253Y-8847531D01*
X14806253Y-8847531D02*
X14815777Y-8866579D01*
X14815777Y-8866579D02*
X14825301Y-8904674D01*
X14825301Y-8904674D02*
X14825301Y-8952293D01*
X14825301Y-8952293D02*
X14815777Y-8990389D01*
X14815777Y-8990389D02*
X14806253Y-9009436D01*
X14806253Y-9009436D02*
X14796729Y-9018960D01*
X14796729Y-9018960D02*
X14777682Y-9028484D01*
X14777682Y-9028484D02*
X14758634Y-9028484D01*
X14758634Y-9028484D02*
X14739586Y-9018960D01*
X14739586Y-9018960D02*
X14730063Y-9009436D01*
X14730063Y-9009436D02*
X14720539Y-8990389D01*
X14720539Y-8990389D02*
X14711015Y-8952293D01*
X14711015Y-8952293D02*
X14711015Y-8904674D01*
X14711015Y-8904674D02*
X14720539Y-8866579D01*
X14720539Y-8866579D02*
X14730063Y-8847531D01*
X14730063Y-8847531D02*
X14739586Y-8838008D01*
X14739586Y-8838008D02*
X14758634Y-8828484D01*
X14911015Y-9009436D02*
X14920539Y-9018960D01*
X14920539Y-9018960D02*
X14911015Y-9028484D01*
X14911015Y-9028484D02*
X14901491Y-9018960D01*
X14901491Y-9018960D02*
X14911015Y-9009436D01*
X14911015Y-9009436D02*
X14911015Y-9028484D01*
X15044348Y-8828484D02*
X15063396Y-8828484D01*
X15063396Y-8828484D02*
X15082444Y-8838008D01*
X15082444Y-8838008D02*
X15091967Y-8847531D01*
X15091967Y-8847531D02*
X15101491Y-8866579D01*
X15101491Y-8866579D02*
X15111015Y-8904674D01*
X15111015Y-8904674D02*
X15111015Y-8952293D01*
X15111015Y-8952293D02*
X15101491Y-8990389D01*
X15101491Y-8990389D02*
X15091967Y-9009436D01*
X15091967Y-9009436D02*
X15082444Y-9018960D01*
X15082444Y-9018960D02*
X15063396Y-9028484D01*
X15063396Y-9028484D02*
X15044348Y-9028484D01*
X15044348Y-9028484D02*
X15025301Y-9018960D01*
X15025301Y-9018960D02*
X15015777Y-9009436D01*
X15015777Y-9009436D02*
X15006253Y-8990389D01*
X15006253Y-8990389D02*
X14996729Y-8952293D01*
X14996729Y-8952293D02*
X14996729Y-8904674D01*
X14996729Y-8904674D02*
X15006253Y-8866579D01*
X15006253Y-8866579D02*
X15015777Y-8847531D01*
X15015777Y-8847531D02*
X15025301Y-8838008D01*
X15025301Y-8838008D02*
X15044348Y-8828484D01*
X15282444Y-8895150D02*
X15282444Y-9028484D01*
X15234825Y-8818960D02*
X15187206Y-8961817D01*
X15187206Y-8961817D02*
X15311015Y-8961817D01*
X15425301Y-8828484D02*
X15444348Y-8828484D01*
X15444348Y-8828484D02*
X15463396Y-8838008D01*
X15463396Y-8838008D02*
X15472920Y-8847531D01*
X15472920Y-8847531D02*
X15482444Y-8866579D01*
X15482444Y-8866579D02*
X15491967Y-8904674D01*
X15491967Y-8904674D02*
X15491967Y-8952293D01*
X15491967Y-8952293D02*
X15482444Y-8990389D01*
X15482444Y-8990389D02*
X15472920Y-9009436D01*
X15472920Y-9009436D02*
X15463396Y-9018960D01*
X15463396Y-9018960D02*
X15444348Y-9028484D01*
X15444348Y-9028484D02*
X15425301Y-9028484D01*
X15425301Y-9028484D02*
X15406253Y-9018960D01*
X15406253Y-9018960D02*
X15396729Y-9009436D01*
X15396729Y-9009436D02*
X15387206Y-8990389D01*
X15387206Y-8990389D02*
X15377682Y-8952293D01*
X15377682Y-8952293D02*
X15377682Y-8904674D01*
X15377682Y-8904674D02*
X15387206Y-8866579D01*
X15387206Y-8866579D02*
X15396729Y-8847531D01*
X15396729Y-8847531D02*
X15406253Y-8838008D01*
X15406253Y-8838008D02*
X15425301Y-8828484D01*
X15568158Y-8847531D02*
X15577682Y-8838008D01*
X15577682Y-8838008D02*
X15596729Y-8828484D01*
X15596729Y-8828484D02*
X15644348Y-8828484D01*
X15644348Y-8828484D02*
X15663396Y-8838008D01*
X15663396Y-8838008D02*
X15672920Y-8847531D01*
X15672920Y-8847531D02*
X15682444Y-8866579D01*
X15682444Y-8866579D02*
X15682444Y-8885627D01*
X15682444Y-8885627D02*
X15672920Y-8914198D01*
X15672920Y-8914198D02*
X15558634Y-9028484D01*
X15558634Y-9028484D02*
X15682444Y-9028484D01*
X15758634Y-8828484D02*
X15758634Y-8866579D01*
X15834825Y-8828484D02*
X15834825Y-8866579D01*
X16130063Y-9104674D02*
X16120539Y-9095150D01*
X16120539Y-9095150D02*
X16101491Y-9066579D01*
X16101491Y-9066579D02*
X16091968Y-9047531D01*
X16091968Y-9047531D02*
X16082444Y-9018960D01*
X16082444Y-9018960D02*
X16072920Y-8971341D01*
X16072920Y-8971341D02*
X16072920Y-8933246D01*
X16072920Y-8933246D02*
X16082444Y-8885627D01*
X16082444Y-8885627D02*
X16091968Y-8857055D01*
X16091968Y-8857055D02*
X16101491Y-8838008D01*
X16101491Y-8838008D02*
X16120539Y-8809436D01*
X16120539Y-8809436D02*
X16130063Y-8799912D01*
X16234825Y-8914198D02*
X16215777Y-8904674D01*
X16215777Y-8904674D02*
X16206253Y-8895150D01*
X16206253Y-8895150D02*
X16196729Y-8876103D01*
X16196729Y-8876103D02*
X16196729Y-8866579D01*
X16196729Y-8866579D02*
X16206253Y-8847531D01*
X16206253Y-8847531D02*
X16215777Y-8838008D01*
X16215777Y-8838008D02*
X16234825Y-8828484D01*
X16234825Y-8828484D02*
X16272920Y-8828484D01*
X16272920Y-8828484D02*
X16291968Y-8838008D01*
X16291968Y-8838008D02*
X16301491Y-8847531D01*
X16301491Y-8847531D02*
X16311015Y-8866579D01*
X16311015Y-8866579D02*
X16311015Y-8876103D01*
X16311015Y-8876103D02*
X16301491Y-8895150D01*
X16301491Y-8895150D02*
X16291968Y-8904674D01*
X16291968Y-8904674D02*
X16272920Y-8914198D01*
X16272920Y-8914198D02*
X16234825Y-8914198D01*
X16234825Y-8914198D02*
X16215777Y-8923722D01*
X16215777Y-8923722D02*
X16206253Y-8933246D01*
X16206253Y-8933246D02*
X16196729Y-8952293D01*
X16196729Y-8952293D02*
X16196729Y-8990389D01*
X16196729Y-8990389D02*
X16206253Y-9009436D01*
X16206253Y-9009436D02*
X16215777Y-9018960D01*
X16215777Y-9018960D02*
X16234825Y-9028484D01*
X16234825Y-9028484D02*
X16272920Y-9028484D01*
X16272920Y-9028484D02*
X16291968Y-9018960D01*
X16291968Y-9018960D02*
X16301491Y-9009436D01*
X16301491Y-9009436D02*
X16311015Y-8990389D01*
X16311015Y-8990389D02*
X16311015Y-8952293D01*
X16311015Y-8952293D02*
X16301491Y-8933246D01*
X16301491Y-8933246D02*
X16291968Y-8923722D01*
X16291968Y-8923722D02*
X16272920Y-8914198D01*
X16549110Y-9028484D02*
X16549110Y-8828484D01*
X16634825Y-9028484D02*
X16634825Y-8923722D01*
X16634825Y-8923722D02*
X16625301Y-8904674D01*
X16625301Y-8904674D02*
X16606253Y-8895150D01*
X16606253Y-8895150D02*
X16577682Y-8895150D01*
X16577682Y-8895150D02*
X16558634Y-8904674D01*
X16558634Y-8904674D02*
X16549110Y-8914198D01*
X16758634Y-9028484D02*
X16739587Y-9018960D01*
X16739587Y-9018960D02*
X16730063Y-9009436D01*
X16730063Y-9009436D02*
X16720539Y-8990389D01*
X16720539Y-8990389D02*
X16720539Y-8933246D01*
X16720539Y-8933246D02*
X16730063Y-8914198D01*
X16730063Y-8914198D02*
X16739587Y-8904674D01*
X16739587Y-8904674D02*
X16758634Y-8895150D01*
X16758634Y-8895150D02*
X16787206Y-8895150D01*
X16787206Y-8895150D02*
X16806253Y-8904674D01*
X16806253Y-8904674D02*
X16815777Y-8914198D01*
X16815777Y-8914198D02*
X16825301Y-8933246D01*
X16825301Y-8933246D02*
X16825301Y-8990389D01*
X16825301Y-8990389D02*
X16815777Y-9009436D01*
X16815777Y-9009436D02*
X16806253Y-9018960D01*
X16806253Y-9018960D02*
X16787206Y-9028484D01*
X16787206Y-9028484D02*
X16758634Y-9028484D01*
X16939587Y-9028484D02*
X16920539Y-9018960D01*
X16920539Y-9018960D02*
X16911015Y-8999912D01*
X16911015Y-8999912D02*
X16911015Y-8828484D01*
X17091968Y-9018960D02*
X17072920Y-9028484D01*
X17072920Y-9028484D02*
X17034825Y-9028484D01*
X17034825Y-9028484D02*
X17015777Y-9018960D01*
X17015777Y-9018960D02*
X17006253Y-8999912D01*
X17006253Y-8999912D02*
X17006253Y-8923722D01*
X17006253Y-8923722D02*
X17015777Y-8904674D01*
X17015777Y-8904674D02*
X17034825Y-8895150D01*
X17034825Y-8895150D02*
X17072920Y-8895150D01*
X17072920Y-8895150D02*
X17091968Y-8904674D01*
X17091968Y-8904674D02*
X17101492Y-8923722D01*
X17101492Y-8923722D02*
X17101492Y-8942770D01*
X17101492Y-8942770D02*
X17006253Y-8961817D01*
X17177682Y-9018960D02*
X17196730Y-9028484D01*
X17196730Y-9028484D02*
X17234825Y-9028484D01*
X17234825Y-9028484D02*
X17253873Y-9018960D01*
X17253873Y-9018960D02*
X17263396Y-8999912D01*
X17263396Y-8999912D02*
X17263396Y-8990389D01*
X17263396Y-8990389D02*
X17253873Y-8971341D01*
X17253873Y-8971341D02*
X17234825Y-8961817D01*
X17234825Y-8961817D02*
X17206253Y-8961817D01*
X17206253Y-8961817D02*
X17187206Y-8952293D01*
X17187206Y-8952293D02*
X17177682Y-8933246D01*
X17177682Y-8933246D02*
X17177682Y-8923722D01*
X17177682Y-8923722D02*
X17187206Y-8904674D01*
X17187206Y-8904674D02*
X17206253Y-8895150D01*
X17206253Y-8895150D02*
X17234825Y-8895150D01*
X17234825Y-8895150D02*
X17253873Y-8904674D01*
X17330063Y-9104674D02*
X17339587Y-9095150D01*
X17339587Y-9095150D02*
X17358634Y-9066579D01*
X17358634Y-9066579D02*
X17368158Y-9047531D01*
X17368158Y-9047531D02*
X17377682Y-9018960D01*
X17377682Y-9018960D02*
X17387206Y-8971341D01*
X17387206Y-8971341D02*
X17387206Y-8933246D01*
X17387206Y-8933246D02*
X17377682Y-8885627D01*
X17377682Y-8885627D02*
X17368158Y-8857055D01*
X17368158Y-8857055D02*
X17358634Y-8838008D01*
X17358634Y-8838008D02*
X17339587Y-8809436D01*
X17339587Y-8809436D02*
X17330063Y-8799912D01*
M02*
