%TF.GenerationSoftware,KiCad,Pcbnew,10.0.6*%
%TF.CreationDate,2026-09-24T22:10:27-07:00*%
%TF.ProjectId,luftctl,6c756674-6374-46c2-9e6b-696361645f70,rev?*%
%TF.SameCoordinates,Original*%
%TF.FileFunction,Legend,Top*%
%TF.FilePolarity,Positive*%
%FSLAX46Y46*%
G04 Gerber Fmt 4.6, Leading zero omitted, Abs format (unit mm)*
G04 Created by KiCad (PCBNEW 10.0.6) date 2026-09-24 22:10:27*
%MOMM*%
%LPD*%
G01*
G04 APERTURE LIST*
G04 Aperture macros list*
%AMRoundRect*
0 Rectangle with rounded corners*
0 $1 Rounding radius*
0 $2 $3 $4 $5 $6 $7 $8 $9 X,Y pos of 4 corners*
0 Add a 4 corners polygon primitive as box body*
4,1,4,$2,$3,$4,$5,$6,$7,$8,$9,$2,$3,0*
0 Add four circle primitives for the rounded corners*
1,1,$1+$1,$2,$3*
1,1,$1+$1,$4,$5*
1,1,$1+$1,$6,$7*
1,1,$1+$1,$8,$9*
0 Add four rect primitives between the rounded corners*
20,1,$1+$1,$2,$3,$4,$5,0*
20,1,$1+$1,$4,$5,$6,$7,0*
20,1,$1+$1,$6,$7,$8,$9,0*
20,1,$1+$1,$8,$9,$2,$3,0*%
G04 Aperture macros list end*
%ADD10C,0.100000*%
%ADD11C,0.120000*%
%ADD12C,0.000000*%
%ADD13RoundRect,0.250000X0.475000X-0.337500X0.475000X0.337500X-0.475000X0.337500X-0.475000X-0.337500X0*%
%ADD14RoundRect,0.250000X-0.325000X-0.450000X0.325000X-0.450000X0.325000X0.450000X-0.325000X0.450000X0*%
%ADD15RoundRect,0.250000X0.350000X0.450000X-0.350000X0.450000X-0.350000X-0.450000X0.350000X-0.450000X0*%
%ADD16RoundRect,0.250000X-0.350000X-0.450000X0.350000X-0.450000X0.350000X0.450000X-0.350000X0.450000X0*%
%ADD17RoundRect,0.150000X-0.150000X0.512500X-0.150000X-0.512500X0.150000X-0.512500X0.150000X0.512500X0*%
%ADD18RoundRect,0.250000X0.450000X-0.350000X0.450000X0.350000X-0.450000X0.350000X-0.450000X-0.350000X0*%
%ADD19RoundRect,0.250000X-0.475000X0.337500X-0.475000X-0.337500X0.475000X-0.337500X0.475000X0.337500X0*%
%ADD20RoundRect,0.250000X-0.450000X0.350000X-0.450000X-0.350000X0.450000X-0.350000X0.450000X0.350000X0*%
%ADD21RoundRect,0.150000X-0.150000X-0.625000X0.150000X-0.625000X0.150000X0.625000X-0.150000X0.625000X0*%
%ADD22RoundRect,0.250000X-0.350000X-0.650000X0.350000X-0.650000X0.350000X0.650000X-0.350000X0.650000X0*%
%ADD23C,1.500000*%
%ADD24R,1.050000X0.650000*%
%ADD25RoundRect,0.150000X-0.512500X-0.150000X0.512500X-0.150000X0.512500X0.150000X-0.512500X0.150000X0*%
%ADD26R,1.500000X0.900000*%
%ADD27R,4.000000X4.000000*%
%ADD28RoundRect,0.250000X-0.337500X-0.475000X0.337500X-0.475000X0.337500X0.475000X-0.337500X0.475000X0*%
%ADD29R,0.900000X1.200000*%
%ADD30RoundRect,0.250000X0.325000X0.450000X-0.325000X0.450000X-0.325000X-0.450000X0.325000X-0.450000X0*%
%ADD31C,1.100000*%
%ADD32R,3.030000X1.730000*%
%ADD33O,3.030000X1.730000*%
%ADD34C,0.650000*%
%ADD35R,1.450000X0.600000*%
%ADD36R,1.450000X0.300000*%
%ADD37O,1.600000X1.000000*%
%ADD38O,2.100000X1.000000*%
%ADD39R,5.100000X2.350000*%
G04 APERTURE END LIST*
D10*
X131771428Y-63641085D02*
X131809524Y-63602990D01*
X131809524Y-63602990D02*
X131885714Y-63564895D01*
X131885714Y-63564895D02*
X132076190Y-63564895D01*
X132076190Y-63564895D02*
X132152381Y-63602990D01*
X132152381Y-63602990D02*
X132190476Y-63641085D01*
X132190476Y-63641085D02*
X132228571Y-63717276D01*
X132228571Y-63717276D02*
X132228571Y-63793466D01*
X132228571Y-63793466D02*
X132190476Y-63907752D01*
X132190476Y-63907752D02*
X131733333Y-64364895D01*
X131733333Y-64364895D02*
X132228571Y-64364895D01*
X161390476Y-64202990D02*
X161314286Y-64164895D01*
X161314286Y-64164895D02*
X161200000Y-64164895D01*
X161200000Y-64164895D02*
X161085714Y-64202990D01*
X161085714Y-64202990D02*
X161009524Y-64279180D01*
X161009524Y-64279180D02*
X160971429Y-64355371D01*
X160971429Y-64355371D02*
X160933333Y-64507752D01*
X160933333Y-64507752D02*
X160933333Y-64622038D01*
X160933333Y-64622038D02*
X160971429Y-64774419D01*
X160971429Y-64774419D02*
X161009524Y-64850609D01*
X161009524Y-64850609D02*
X161085714Y-64926800D01*
X161085714Y-64926800D02*
X161200000Y-64964895D01*
X161200000Y-64964895D02*
X161276191Y-64964895D01*
X161276191Y-64964895D02*
X161390476Y-64926800D01*
X161390476Y-64926800D02*
X161428572Y-64888704D01*
X161428572Y-64888704D02*
X161428572Y-64622038D01*
X161428572Y-64622038D02*
X161276191Y-64622038D01*
X161771429Y-64964895D02*
X161771429Y-64164895D01*
X161771429Y-64164895D02*
X162228572Y-64964895D01*
X162228572Y-64964895D02*
X162228572Y-64164895D01*
X162609524Y-64964895D02*
X162609524Y-64164895D01*
X162609524Y-64164895D02*
X162800000Y-64164895D01*
X162800000Y-64164895D02*
X162914286Y-64202990D01*
X162914286Y-64202990D02*
X162990476Y-64279180D01*
X162990476Y-64279180D02*
X163028571Y-64355371D01*
X163028571Y-64355371D02*
X163066667Y-64507752D01*
X163066667Y-64507752D02*
X163066667Y-64622038D01*
X163066667Y-64622038D02*
X163028571Y-64774419D01*
X163028571Y-64774419D02*
X162990476Y-64850609D01*
X162990476Y-64850609D02*
X162914286Y-64926800D01*
X162914286Y-64926800D02*
X162800000Y-64964895D01*
X162800000Y-64964895D02*
X162609524Y-64964895D01*
X172247617Y-73241085D02*
X172285713Y-73202990D01*
X172285713Y-73202990D02*
X172361903Y-73164895D01*
X172361903Y-73164895D02*
X172552379Y-73164895D01*
X172552379Y-73164895D02*
X172628570Y-73202990D01*
X172628570Y-73202990D02*
X172666665Y-73241085D01*
X172666665Y-73241085D02*
X172704760Y-73317276D01*
X172704760Y-73317276D02*
X172704760Y-73393466D01*
X172704760Y-73393466D02*
X172666665Y-73507752D01*
X172666665Y-73507752D02*
X172209522Y-73964895D01*
X172209522Y-73964895D02*
X172704760Y-73964895D01*
X173199999Y-73164895D02*
X173276189Y-73164895D01*
X173276189Y-73164895D02*
X173352380Y-73202990D01*
X173352380Y-73202990D02*
X173390475Y-73241085D01*
X173390475Y-73241085D02*
X173428570Y-73317276D01*
X173428570Y-73317276D02*
X173466665Y-73469657D01*
X173466665Y-73469657D02*
X173466665Y-73660133D01*
X173466665Y-73660133D02*
X173428570Y-73812514D01*
X173428570Y-73812514D02*
X173390475Y-73888704D01*
X173390475Y-73888704D02*
X173352380Y-73926800D01*
X173352380Y-73926800D02*
X173276189Y-73964895D01*
X173276189Y-73964895D02*
X173199999Y-73964895D01*
X173199999Y-73964895D02*
X173123808Y-73926800D01*
X173123808Y-73926800D02*
X173085713Y-73888704D01*
X173085713Y-73888704D02*
X173047618Y-73812514D01*
X173047618Y-73812514D02*
X173009522Y-73660133D01*
X173009522Y-73660133D02*
X173009522Y-73469657D01*
X173009522Y-73469657D02*
X173047618Y-73317276D01*
X173047618Y-73317276D02*
X173085713Y-73241085D01*
X173085713Y-73241085D02*
X173123808Y-73202990D01*
X173123808Y-73202990D02*
X173199999Y-73164895D01*
X173771427Y-73241085D02*
X173809523Y-73202990D01*
X173809523Y-73202990D02*
X173885713Y-73164895D01*
X173885713Y-73164895D02*
X174076189Y-73164895D01*
X174076189Y-73164895D02*
X174152380Y-73202990D01*
X174152380Y-73202990D02*
X174190475Y-73241085D01*
X174190475Y-73241085D02*
X174228570Y-73317276D01*
X174228570Y-73317276D02*
X174228570Y-73393466D01*
X174228570Y-73393466D02*
X174190475Y-73507752D01*
X174190475Y-73507752D02*
X173733332Y-73964895D01*
X173733332Y-73964895D02*
X174228570Y-73964895D01*
X174533332Y-73241085D02*
X174571428Y-73202990D01*
X174571428Y-73202990D02*
X174647618Y-73164895D01*
X174647618Y-73164895D02*
X174838094Y-73164895D01*
X174838094Y-73164895D02*
X174914285Y-73202990D01*
X174914285Y-73202990D02*
X174952380Y-73241085D01*
X174952380Y-73241085D02*
X174990475Y-73317276D01*
X174990475Y-73317276D02*
X174990475Y-73393466D01*
X174990475Y-73393466D02*
X174952380Y-73507752D01*
X174952380Y-73507752D02*
X174495237Y-73964895D01*
X174495237Y-73964895D02*
X174990475Y-73964895D01*
X176285714Y-73964895D02*
X176285714Y-73545847D01*
X176285714Y-73545847D02*
X176247619Y-73469657D01*
X176247619Y-73469657D02*
X176171428Y-73431561D01*
X176171428Y-73431561D02*
X176019047Y-73431561D01*
X176019047Y-73431561D02*
X175942857Y-73469657D01*
X176285714Y-73926800D02*
X176209523Y-73964895D01*
X176209523Y-73964895D02*
X176019047Y-73964895D01*
X176019047Y-73964895D02*
X175942857Y-73926800D01*
X175942857Y-73926800D02*
X175904761Y-73850609D01*
X175904761Y-73850609D02*
X175904761Y-73774419D01*
X175904761Y-73774419D02*
X175942857Y-73698228D01*
X175942857Y-73698228D02*
X176019047Y-73660133D01*
X176019047Y-73660133D02*
X176209523Y-73660133D01*
X176209523Y-73660133D02*
X176285714Y-73622038D01*
X176666667Y-73431561D02*
X176666667Y-73964895D01*
X176666667Y-73507752D02*
X176704762Y-73469657D01*
X176704762Y-73469657D02*
X176780952Y-73431561D01*
X176780952Y-73431561D02*
X176895238Y-73431561D01*
X176895238Y-73431561D02*
X176971429Y-73469657D01*
X176971429Y-73469657D02*
X177009524Y-73545847D01*
X177009524Y-73545847D02*
X177009524Y-73964895D01*
X177352381Y-73926800D02*
X177428572Y-73964895D01*
X177428572Y-73964895D02*
X177580953Y-73964895D01*
X177580953Y-73964895D02*
X177657143Y-73926800D01*
X177657143Y-73926800D02*
X177695239Y-73850609D01*
X177695239Y-73850609D02*
X177695239Y-73812514D01*
X177695239Y-73812514D02*
X177657143Y-73736323D01*
X177657143Y-73736323D02*
X177580953Y-73698228D01*
X177580953Y-73698228D02*
X177466667Y-73698228D01*
X177466667Y-73698228D02*
X177390477Y-73660133D01*
X177390477Y-73660133D02*
X177352381Y-73583942D01*
X177352381Y-73583942D02*
X177352381Y-73545847D01*
X177352381Y-73545847D02*
X177390477Y-73469657D01*
X177390477Y-73469657D02*
X177466667Y-73431561D01*
X177466667Y-73431561D02*
X177580953Y-73431561D01*
X177580953Y-73431561D02*
X177657143Y-73469657D01*
X178342858Y-73926800D02*
X178266667Y-73964895D01*
X178266667Y-73964895D02*
X178114286Y-73964895D01*
X178114286Y-73964895D02*
X178038096Y-73926800D01*
X178038096Y-73926800D02*
X178000000Y-73850609D01*
X178000000Y-73850609D02*
X178000000Y-73545847D01*
X178000000Y-73545847D02*
X178038096Y-73469657D01*
X178038096Y-73469657D02*
X178114286Y-73431561D01*
X178114286Y-73431561D02*
X178266667Y-73431561D01*
X178266667Y-73431561D02*
X178342858Y-73469657D01*
X178342858Y-73469657D02*
X178380953Y-73545847D01*
X178380953Y-73545847D02*
X178380953Y-73622038D01*
X178380953Y-73622038D02*
X178000000Y-73698228D01*
X178723810Y-73964895D02*
X178723810Y-73431561D01*
X178723810Y-73507752D02*
X178761905Y-73469657D01*
X178761905Y-73469657D02*
X178838095Y-73431561D01*
X178838095Y-73431561D02*
X178952381Y-73431561D01*
X178952381Y-73431561D02*
X179028572Y-73469657D01*
X179028572Y-73469657D02*
X179066667Y-73545847D01*
X179066667Y-73545847D02*
X179066667Y-73964895D01*
X179066667Y-73545847D02*
X179104762Y-73469657D01*
X179104762Y-73469657D02*
X179180953Y-73431561D01*
X179180953Y-73431561D02*
X179295238Y-73431561D01*
X179295238Y-73431561D02*
X179371429Y-73469657D01*
X179371429Y-73469657D02*
X179409524Y-73545847D01*
X179409524Y-73545847D02*
X179409524Y-73964895D01*
X179790477Y-73431561D02*
X179790477Y-74117276D01*
X179790477Y-74117276D02*
X179752381Y-74193466D01*
X179752381Y-74193466D02*
X179676191Y-74231561D01*
X179676191Y-74231561D02*
X179638096Y-74231561D01*
X179790477Y-73164895D02*
X179752381Y-73202990D01*
X179752381Y-73202990D02*
X179790477Y-73241085D01*
X179790477Y-73241085D02*
X179828572Y-73202990D01*
X179828572Y-73202990D02*
X179790477Y-73164895D01*
X179790477Y-73164895D02*
X179790477Y-73241085D01*
X180285714Y-73964895D02*
X180209524Y-73926800D01*
X180209524Y-73926800D02*
X180171429Y-73888704D01*
X180171429Y-73888704D02*
X180133333Y-73812514D01*
X180133333Y-73812514D02*
X180133333Y-73583942D01*
X180133333Y-73583942D02*
X180171429Y-73507752D01*
X180171429Y-73507752D02*
X180209524Y-73469657D01*
X180209524Y-73469657D02*
X180285714Y-73431561D01*
X180285714Y-73431561D02*
X180400000Y-73431561D01*
X180400000Y-73431561D02*
X180476191Y-73469657D01*
X180476191Y-73469657D02*
X180514286Y-73507752D01*
X180514286Y-73507752D02*
X180552381Y-73583942D01*
X180552381Y-73583942D02*
X180552381Y-73812514D01*
X180552381Y-73812514D02*
X180514286Y-73888704D01*
X180514286Y-73888704D02*
X180476191Y-73926800D01*
X180476191Y-73926800D02*
X180400000Y-73964895D01*
X180400000Y-73964895D02*
X180285714Y-73964895D01*
X134019047Y-50564895D02*
X134514285Y-50564895D01*
X134514285Y-50564895D02*
X134247619Y-50869657D01*
X134247619Y-50869657D02*
X134361904Y-50869657D01*
X134361904Y-50869657D02*
X134438095Y-50907752D01*
X134438095Y-50907752D02*
X134476190Y-50945847D01*
X134476190Y-50945847D02*
X134514285Y-51022038D01*
X134514285Y-51022038D02*
X134514285Y-51212514D01*
X134514285Y-51212514D02*
X134476190Y-51288704D01*
X134476190Y-51288704D02*
X134438095Y-51326800D01*
X134438095Y-51326800D02*
X134361904Y-51364895D01*
X134361904Y-51364895D02*
X134133333Y-51364895D01*
X134133333Y-51364895D02*
X134057142Y-51326800D01*
X134057142Y-51326800D02*
X134019047Y-51288704D01*
X134857143Y-51288704D02*
X134895238Y-51326800D01*
X134895238Y-51326800D02*
X134857143Y-51364895D01*
X134857143Y-51364895D02*
X134819047Y-51326800D01*
X134819047Y-51326800D02*
X134857143Y-51288704D01*
X134857143Y-51288704D02*
X134857143Y-51364895D01*
X135161904Y-50564895D02*
X135657142Y-50564895D01*
X135657142Y-50564895D02*
X135390476Y-50869657D01*
X135390476Y-50869657D02*
X135504761Y-50869657D01*
X135504761Y-50869657D02*
X135580952Y-50907752D01*
X135580952Y-50907752D02*
X135619047Y-50945847D01*
X135619047Y-50945847D02*
X135657142Y-51022038D01*
X135657142Y-51022038D02*
X135657142Y-51212514D01*
X135657142Y-51212514D02*
X135619047Y-51288704D01*
X135619047Y-51288704D02*
X135580952Y-51326800D01*
X135580952Y-51326800D02*
X135504761Y-51364895D01*
X135504761Y-51364895D02*
X135276190Y-51364895D01*
X135276190Y-51364895D02*
X135199999Y-51326800D01*
X135199999Y-51326800D02*
X135161904Y-51288704D01*
X135885714Y-50564895D02*
X136152381Y-51364895D01*
X136152381Y-51364895D02*
X136419047Y-50564895D01*
X164543388Y-67949068D02*
X164543388Y-67606211D01*
X165143388Y-67777639D02*
X164543388Y-67777639D01*
X164543388Y-67463353D02*
X165143388Y-67063353D01*
X164543388Y-67063353D02*
X165143388Y-67463353D01*
X166109354Y-67520496D02*
X165823640Y-67720496D01*
X166109354Y-67863353D02*
X165509354Y-67863353D01*
X165509354Y-67863353D02*
X165509354Y-67634782D01*
X165509354Y-67634782D02*
X165537925Y-67577639D01*
X165537925Y-67577639D02*
X165566497Y-67549068D01*
X165566497Y-67549068D02*
X165623640Y-67520496D01*
X165623640Y-67520496D02*
X165709354Y-67520496D01*
X165709354Y-67520496D02*
X165766497Y-67549068D01*
X165766497Y-67549068D02*
X165795068Y-67577639D01*
X165795068Y-67577639D02*
X165823640Y-67634782D01*
X165823640Y-67634782D02*
X165823640Y-67863353D01*
X165509354Y-67320496D02*
X166109354Y-66920496D01*
X165509354Y-66920496D02*
X166109354Y-67320496D01*
X146556265Y-73964895D02*
X146556265Y-73164895D01*
X147089598Y-73164895D02*
X147241979Y-73164895D01*
X147241979Y-73164895D02*
X147318169Y-73202990D01*
X147318169Y-73202990D02*
X147394360Y-73279180D01*
X147394360Y-73279180D02*
X147432455Y-73431561D01*
X147432455Y-73431561D02*
X147432455Y-73698228D01*
X147432455Y-73698228D02*
X147394360Y-73850609D01*
X147394360Y-73850609D02*
X147318169Y-73926800D01*
X147318169Y-73926800D02*
X147241979Y-73964895D01*
X147241979Y-73964895D02*
X147089598Y-73964895D01*
X147089598Y-73964895D02*
X147013407Y-73926800D01*
X147013407Y-73926800D02*
X146937217Y-73850609D01*
X146937217Y-73850609D02*
X146899121Y-73698228D01*
X146899121Y-73698228D02*
X146899121Y-73431561D01*
X146899121Y-73431561D02*
X146937217Y-73279180D01*
X146937217Y-73279180D02*
X147013407Y-73202990D01*
X147013407Y-73202990D02*
X147089598Y-73164895D01*
X147813407Y-73964895D02*
X147965788Y-73964895D01*
X147965788Y-73964895D02*
X148041978Y-73926800D01*
X148041978Y-73926800D02*
X148080074Y-73888704D01*
X148080074Y-73888704D02*
X148156264Y-73774419D01*
X148156264Y-73774419D02*
X148194359Y-73622038D01*
X148194359Y-73622038D02*
X148194359Y-73317276D01*
X148194359Y-73317276D02*
X148156264Y-73241085D01*
X148156264Y-73241085D02*
X148118169Y-73202990D01*
X148118169Y-73202990D02*
X148041978Y-73164895D01*
X148041978Y-73164895D02*
X147889597Y-73164895D01*
X147889597Y-73164895D02*
X147813407Y-73202990D01*
X147813407Y-73202990D02*
X147775312Y-73241085D01*
X147775312Y-73241085D02*
X147737216Y-73317276D01*
X147737216Y-73317276D02*
X147737216Y-73507752D01*
X147737216Y-73507752D02*
X147775312Y-73583942D01*
X147775312Y-73583942D02*
X147813407Y-73622038D01*
X147813407Y-73622038D02*
X147889597Y-73660133D01*
X147889597Y-73660133D02*
X148041978Y-73660133D01*
X148041978Y-73660133D02*
X148118169Y-73622038D01*
X148118169Y-73622038D02*
X148156264Y-73583942D01*
X148156264Y-73583942D02*
X148194359Y-73507752D01*
X172478761Y-51418895D02*
X172021618Y-51418895D01*
X172250190Y-51418895D02*
X172250190Y-50618895D01*
X172250190Y-50618895D02*
X172173999Y-50733180D01*
X172173999Y-50733180D02*
X172097809Y-50809371D01*
X172097809Y-50809371D02*
X172021618Y-50847466D01*
X172783523Y-50695085D02*
X172821619Y-50656990D01*
X172821619Y-50656990D02*
X172897809Y-50618895D01*
X172897809Y-50618895D02*
X173088285Y-50618895D01*
X173088285Y-50618895D02*
X173164476Y-50656990D01*
X173164476Y-50656990D02*
X173202571Y-50695085D01*
X173202571Y-50695085D02*
X173240666Y-50771276D01*
X173240666Y-50771276D02*
X173240666Y-50847466D01*
X173240666Y-50847466D02*
X173202571Y-50961752D01*
X173202571Y-50961752D02*
X172745428Y-51418895D01*
X172745428Y-51418895D02*
X173240666Y-51418895D01*
X173469238Y-50618895D02*
X173735905Y-51418895D01*
X173735905Y-51418895D02*
X174002571Y-50618895D01*
X132228571Y-61364895D02*
X131771428Y-61364895D01*
X132000000Y-61364895D02*
X132000000Y-60564895D01*
X132000000Y-60564895D02*
X131923809Y-60679180D01*
X131923809Y-60679180D02*
X131847619Y-60755371D01*
X131847619Y-60755371D02*
X131771428Y-60793466D01*
X134247619Y-66564895D02*
X133866667Y-66564895D01*
X133866667Y-66564895D02*
X133828571Y-66945847D01*
X133828571Y-66945847D02*
X133866667Y-66907752D01*
X133866667Y-66907752D02*
X133942857Y-66869657D01*
X133942857Y-66869657D02*
X134133333Y-66869657D01*
X134133333Y-66869657D02*
X134209524Y-66907752D01*
X134209524Y-66907752D02*
X134247619Y-66945847D01*
X134247619Y-66945847D02*
X134285714Y-67022038D01*
X134285714Y-67022038D02*
X134285714Y-67212514D01*
X134285714Y-67212514D02*
X134247619Y-67288704D01*
X134247619Y-67288704D02*
X134209524Y-67326800D01*
X134209524Y-67326800D02*
X134133333Y-67364895D01*
X134133333Y-67364895D02*
X133942857Y-67364895D01*
X133942857Y-67364895D02*
X133866667Y-67326800D01*
X133866667Y-67326800D02*
X133828571Y-67288704D01*
X134514286Y-66564895D02*
X134780953Y-67364895D01*
X134780953Y-67364895D02*
X135047619Y-66564895D01*
X151362781Y-73964895D02*
X151096114Y-73583942D01*
X150905638Y-73964895D02*
X150905638Y-73164895D01*
X150905638Y-73164895D02*
X151210400Y-73164895D01*
X151210400Y-73164895D02*
X151286590Y-73202990D01*
X151286590Y-73202990D02*
X151324685Y-73241085D01*
X151324685Y-73241085D02*
X151362781Y-73317276D01*
X151362781Y-73317276D02*
X151362781Y-73431561D01*
X151362781Y-73431561D02*
X151324685Y-73507752D01*
X151324685Y-73507752D02*
X151286590Y-73545847D01*
X151286590Y-73545847D02*
X151210400Y-73583942D01*
X151210400Y-73583942D02*
X150905638Y-73583942D01*
X151705638Y-73545847D02*
X151972304Y-73545847D01*
X152086590Y-73964895D02*
X151705638Y-73964895D01*
X151705638Y-73964895D02*
X151705638Y-73164895D01*
X151705638Y-73164895D02*
X152086590Y-73164895D01*
X152391352Y-73926800D02*
X152505638Y-73964895D01*
X152505638Y-73964895D02*
X152696114Y-73964895D01*
X152696114Y-73964895D02*
X152772305Y-73926800D01*
X152772305Y-73926800D02*
X152810400Y-73888704D01*
X152810400Y-73888704D02*
X152848495Y-73812514D01*
X152848495Y-73812514D02*
X152848495Y-73736323D01*
X152848495Y-73736323D02*
X152810400Y-73660133D01*
X152810400Y-73660133D02*
X152772305Y-73622038D01*
X152772305Y-73622038D02*
X152696114Y-73583942D01*
X152696114Y-73583942D02*
X152543733Y-73545847D01*
X152543733Y-73545847D02*
X152467543Y-73507752D01*
X152467543Y-73507752D02*
X152429448Y-73469657D01*
X152429448Y-73469657D02*
X152391352Y-73393466D01*
X152391352Y-73393466D02*
X152391352Y-73317276D01*
X152391352Y-73317276D02*
X152429448Y-73241085D01*
X152429448Y-73241085D02*
X152467543Y-73202990D01*
X152467543Y-73202990D02*
X152543733Y-73164895D01*
X152543733Y-73164895D02*
X152734210Y-73164895D01*
X152734210Y-73164895D02*
X152848495Y-73202990D01*
X153191353Y-73545847D02*
X153458019Y-73545847D01*
X153572305Y-73964895D02*
X153191353Y-73964895D01*
X153191353Y-73964895D02*
X153191353Y-73164895D01*
X153191353Y-73164895D02*
X153572305Y-73164895D01*
X153800877Y-73164895D02*
X154258020Y-73164895D01*
X154029448Y-73964895D02*
X154029448Y-73164895D01*
X136920817Y-68145925D02*
X136949388Y-68060211D01*
X136949388Y-68060211D02*
X136949388Y-67917353D01*
X136949388Y-67917353D02*
X136920817Y-67860211D01*
X136920817Y-67860211D02*
X136892245Y-67831639D01*
X136892245Y-67831639D02*
X136835102Y-67803068D01*
X136835102Y-67803068D02*
X136777959Y-67803068D01*
X136777959Y-67803068D02*
X136720817Y-67831639D01*
X136720817Y-67831639D02*
X136692245Y-67860211D01*
X136692245Y-67860211D02*
X136663674Y-67917353D01*
X136663674Y-67917353D02*
X136635102Y-68031639D01*
X136635102Y-68031639D02*
X136606531Y-68088782D01*
X136606531Y-68088782D02*
X136577959Y-68117353D01*
X136577959Y-68117353D02*
X136520817Y-68145925D01*
X136520817Y-68145925D02*
X136463674Y-68145925D01*
X136463674Y-68145925D02*
X136406531Y-68117353D01*
X136406531Y-68117353D02*
X136377959Y-68088782D01*
X136377959Y-68088782D02*
X136349388Y-68031639D01*
X136349388Y-68031639D02*
X136349388Y-67888782D01*
X136349388Y-67888782D02*
X136377959Y-67803068D01*
X136949388Y-67545924D02*
X136349388Y-67545924D01*
X136349388Y-67545924D02*
X136349388Y-67403067D01*
X136349388Y-67403067D02*
X136377959Y-67317353D01*
X136377959Y-67317353D02*
X136435102Y-67260210D01*
X136435102Y-67260210D02*
X136492245Y-67231639D01*
X136492245Y-67231639D02*
X136606531Y-67203067D01*
X136606531Y-67203067D02*
X136692245Y-67203067D01*
X136692245Y-67203067D02*
X136806531Y-67231639D01*
X136806531Y-67231639D02*
X136863674Y-67260210D01*
X136863674Y-67260210D02*
X136920817Y-67317353D01*
X136920817Y-67317353D02*
X136949388Y-67403067D01*
X136949388Y-67403067D02*
X136949388Y-67545924D01*
X136777959Y-66974496D02*
X136777959Y-66688782D01*
X136949388Y-67031639D02*
X136349388Y-66831639D01*
X136349388Y-66831639D02*
X136949388Y-66631639D01*
X136320817Y-66003067D02*
X137092245Y-66517353D01*
X136349388Y-65688782D02*
X136349388Y-65631639D01*
X136349388Y-65631639D02*
X136377959Y-65574496D01*
X136377959Y-65574496D02*
X136406531Y-65545925D01*
X136406531Y-65545925D02*
X136463674Y-65517353D01*
X136463674Y-65517353D02*
X136577959Y-65488782D01*
X136577959Y-65488782D02*
X136720817Y-65488782D01*
X136720817Y-65488782D02*
X136835102Y-65517353D01*
X136835102Y-65517353D02*
X136892245Y-65545925D01*
X136892245Y-65545925D02*
X136920817Y-65574496D01*
X136920817Y-65574496D02*
X136949388Y-65631639D01*
X136949388Y-65631639D02*
X136949388Y-65688782D01*
X136949388Y-65688782D02*
X136920817Y-65745925D01*
X136920817Y-65745925D02*
X136892245Y-65774496D01*
X136892245Y-65774496D02*
X136835102Y-65803067D01*
X136835102Y-65803067D02*
X136720817Y-65831639D01*
X136720817Y-65831639D02*
X136577959Y-65831639D01*
X136577959Y-65831639D02*
X136463674Y-65803067D01*
X136463674Y-65803067D02*
X136406531Y-65774496D01*
X136406531Y-65774496D02*
X136377959Y-65745925D01*
X136377959Y-65745925D02*
X136349388Y-65688782D01*
X137886783Y-68145925D02*
X137915354Y-68060211D01*
X137915354Y-68060211D02*
X137915354Y-67917353D01*
X137915354Y-67917353D02*
X137886783Y-67860211D01*
X137886783Y-67860211D02*
X137858211Y-67831639D01*
X137858211Y-67831639D02*
X137801068Y-67803068D01*
X137801068Y-67803068D02*
X137743925Y-67803068D01*
X137743925Y-67803068D02*
X137686783Y-67831639D01*
X137686783Y-67831639D02*
X137658211Y-67860211D01*
X137658211Y-67860211D02*
X137629640Y-67917353D01*
X137629640Y-67917353D02*
X137601068Y-68031639D01*
X137601068Y-68031639D02*
X137572497Y-68088782D01*
X137572497Y-68088782D02*
X137543925Y-68117353D01*
X137543925Y-68117353D02*
X137486783Y-68145925D01*
X137486783Y-68145925D02*
X137429640Y-68145925D01*
X137429640Y-68145925D02*
X137372497Y-68117353D01*
X137372497Y-68117353D02*
X137343925Y-68088782D01*
X137343925Y-68088782D02*
X137315354Y-68031639D01*
X137315354Y-68031639D02*
X137315354Y-67888782D01*
X137315354Y-67888782D02*
X137343925Y-67803068D01*
X137858211Y-67203067D02*
X137886783Y-67231639D01*
X137886783Y-67231639D02*
X137915354Y-67317353D01*
X137915354Y-67317353D02*
X137915354Y-67374496D01*
X137915354Y-67374496D02*
X137886783Y-67460210D01*
X137886783Y-67460210D02*
X137829640Y-67517353D01*
X137829640Y-67517353D02*
X137772497Y-67545924D01*
X137772497Y-67545924D02*
X137658211Y-67574496D01*
X137658211Y-67574496D02*
X137572497Y-67574496D01*
X137572497Y-67574496D02*
X137458211Y-67545924D01*
X137458211Y-67545924D02*
X137401068Y-67517353D01*
X137401068Y-67517353D02*
X137343925Y-67460210D01*
X137343925Y-67460210D02*
X137315354Y-67374496D01*
X137315354Y-67374496D02*
X137315354Y-67317353D01*
X137315354Y-67317353D02*
X137343925Y-67231639D01*
X137343925Y-67231639D02*
X137372497Y-67203067D01*
X137915354Y-66660210D02*
X137915354Y-66945924D01*
X137915354Y-66945924D02*
X137315354Y-66945924D01*
X137286783Y-66031639D02*
X138058211Y-66545925D01*
X137915354Y-65517354D02*
X137915354Y-65860211D01*
X137915354Y-65688782D02*
X137315354Y-65688782D01*
X137315354Y-65688782D02*
X137401068Y-65745925D01*
X137401068Y-65745925D02*
X137458211Y-65803068D01*
X137458211Y-65803068D02*
X137486783Y-65860211D01*
%TO.C,C5*%
D11*
X168735000Y-64611252D02*
X168735000Y-64088748D01*
X167265000Y-64611252D02*
X167265000Y-64088748D01*
%TO.C,D3*%
X165365000Y-52190000D02*
X165365000Y-54110000D01*
X168225000Y-52190000D02*
X165365000Y-52190000D01*
X165365000Y-54110000D02*
X168225000Y-54110000D01*
%TO.C,R3*%
X167227064Y-61685000D02*
X166772936Y-61685000D01*
X167227064Y-60215000D02*
X166772936Y-60215000D01*
%TO.C,R10*%
X166997936Y-51885000D02*
X167452064Y-51885000D01*
X166997936Y-50415000D02*
X167452064Y-50415000D01*
%TO.C,U3*%
X172310000Y-68462500D02*
X172310000Y-66662500D01*
X169190000Y-68462500D02*
X169190000Y-67662500D01*
X169190000Y-68462500D02*
X169190000Y-69262500D01*
X172310000Y-68462500D02*
X172310000Y-69262500D01*
%TO.C,R4*%
X171127064Y-70777500D02*
X170672936Y-70777500D01*
X171127064Y-72247500D02*
X170672936Y-72247500D01*
%TO.C,R8*%
X140335000Y-58577064D02*
X140335000Y-58122936D01*
X138865000Y-58577064D02*
X138865000Y-58122936D01*
%TO.C,C10*%
X162465000Y-59461252D02*
X162465000Y-58938748D01*
X163935000Y-59461252D02*
X163935000Y-58938748D01*
%TO.C,C11*%
X134277500Y-54351248D02*
X134277500Y-54873752D01*
X135747500Y-54351248D02*
X135747500Y-54873752D01*
%TO.C,R1*%
X166785000Y-55822936D02*
X166785000Y-56277064D01*
X165315000Y-55822936D02*
X165315000Y-56277064D01*
%TO.C,J3*%
X132990000Y-69515000D02*
X134040000Y-69515000D01*
X132990000Y-72015000D02*
X132990000Y-69515000D01*
X134160000Y-73985000D02*
X138040000Y-73985000D01*
X139210000Y-72015000D02*
X139210000Y-69515000D01*
X139210000Y-69515000D02*
X138160000Y-69515000D01*
X134040000Y-69515000D02*
X134040000Y-68525000D01*
%TO.C,TP4*%
X162950000Y-66200000D02*
G75*
G02*
X161050000Y-66200000I-950000J0D01*
G01*
X161050000Y-66200000D02*
G75*
G02*
X162950000Y-66200000I950000J0D01*
G01*
%TO.C,JP1*%
X145700000Y-70920000D02*
X145700000Y-70800000D01*
X145700000Y-74200000D02*
X145700000Y-74080000D01*
X145700000Y-73070000D02*
X145700000Y-71930000D01*
X141300000Y-74200000D02*
X145700000Y-74200000D01*
X141300000Y-71930000D02*
X141300000Y-73070000D01*
X141300000Y-70800000D02*
X141300000Y-70920000D01*
X141300000Y-74080000D02*
X141300000Y-74200000D01*
X145700000Y-70800000D02*
X141300000Y-70800000D01*
%TO.C,SW1*%
X159500000Y-70800000D02*
X155100000Y-70800000D01*
X159500000Y-73070000D02*
X159500000Y-71930000D01*
X159500000Y-70920000D02*
X159500000Y-70800000D01*
X155100000Y-70800000D02*
X155100000Y-70920000D01*
X159500000Y-74200000D02*
X159500000Y-74080000D01*
X155100000Y-71930000D02*
X155100000Y-73070000D01*
X155100000Y-74200000D02*
X159500000Y-74200000D01*
X155100000Y-74080000D02*
X155100000Y-74200000D01*
%TO.C,R7*%
X134222936Y-60665000D02*
X134677064Y-60665000D01*
X134222936Y-62135000D02*
X134677064Y-62135000D01*
%TO.C,J2*%
X161190000Y-72015000D02*
X161190000Y-69515000D01*
X162360000Y-73985000D02*
X166240000Y-73985000D01*
X167410000Y-69515000D02*
X166360000Y-69515000D01*
X161190000Y-69515000D02*
X162240000Y-69515000D01*
X162240000Y-69515000D02*
X162240000Y-68525000D01*
X167410000Y-72015000D02*
X167410000Y-69515000D01*
%TO.C,R6*%
X161935000Y-59427064D02*
X161935000Y-58972936D01*
X160465000Y-59427064D02*
X160465000Y-58972936D01*
D12*
%TO.C,kibuzzard-61E47F36*%
G36*
X134421315Y-62640330D02*
G01*
X138778685Y-62640330D01*
X139291315Y-62640330D01*
X139931095Y-63600000D01*
X139291315Y-64559670D01*
X138778685Y-64559670D01*
X134421315Y-64559670D01*
X133908685Y-64559670D01*
X133268905Y-63600000D01*
X133476338Y-63288850D01*
X134421315Y-63288850D01*
X134586415Y-63288850D01*
X134586415Y-63795580D01*
X134598797Y-63904006D01*
X134635945Y-63982905D01*
X134700080Y-64031006D01*
X134793425Y-64047040D01*
X134863910Y-64041960D01*
X134916615Y-64029895D01*
X134951540Y-64016560D01*
X134968685Y-64007670D01*
X134948365Y-63881940D01*
X134906455Y-63898450D01*
X134827715Y-63911150D01*
X134766755Y-63889560D01*
X134742625Y-63807010D01*
X134742625Y-63768910D01*
X135085525Y-63768910D01*
X135088065Y-63827330D01*
X135095685Y-63880670D01*
X135133150Y-63968935D01*
X135207445Y-64026720D01*
X135261102Y-64041960D01*
X135328095Y-64047040D01*
X135397786Y-64044183D01*
X135462080Y-64035610D01*
X135519071Y-64024180D01*
X135566855Y-64012750D01*
X135566855Y-63436170D01*
X135691315Y-63436170D01*
X135691315Y-63565710D01*
X135822125Y-63565710D01*
X135822125Y-64033070D01*
X135979605Y-64033070D01*
X135979605Y-63565710D01*
X136224715Y-63565710D01*
X136224715Y-63436170D01*
X136326315Y-63436170D01*
X136326315Y-63565710D01*
X136462205Y-63565710D01*
X136462205Y-63810820D01*
X136466015Y-63878606D01*
X136477445Y-63932105D01*
X136521895Y-64003860D01*
X136593015Y-64038150D01*
X136689535Y-64047040D01*
X136786690Y-64039420D01*
X136880035Y-64014020D01*
X136858445Y-63879400D01*
X136818440Y-63895910D01*
X136782880Y-63905435D01*
X136747320Y-63909880D01*
X136707315Y-63911150D01*
X136670485Y-63907340D01*
X136642545Y-63892100D01*
X136624765Y-63860350D01*
X136618415Y-63807010D01*
X136618415Y-63734620D01*
X136971475Y-63734620D01*
X136976396Y-63798438D01*
X136991160Y-63857810D01*
X137016401Y-63911150D01*
X137052755Y-63956870D01*
X137100539Y-63994335D01*
X137160070Y-64022910D01*
X137231984Y-64041008D01*
X137316915Y-64047040D01*
X137376288Y-64044976D01*
X137427405Y-64038785D01*
X137507415Y-64017830D01*
X137484555Y-63889560D01*
X137411530Y-63906070D01*
X137334695Y-63911150D01*
X137239286Y-63899403D01*
X137176580Y-63864160D01*
X137141814Y-63808280D01*
X137130225Y-63734620D01*
X137140385Y-63663500D01*
X137173405Y-63606985D01*
X137233730Y-63570155D01*
X137327075Y-63556820D01*
X137406450Y-63563805D01*
X137462965Y-63579680D01*
X137497255Y-63453950D01*
X137435914Y-63436170D01*
X137596315Y-63436170D01*
X137596315Y-63565710D01*
X137732205Y-63565710D01*
X137732205Y-63810820D01*
X137736015Y-63878606D01*
X137747445Y-63932105D01*
X137791895Y-64003860D01*
X137863015Y-64038150D01*
X137959535Y-64047040D01*
X138056690Y-64039420D01*
X138150035Y-64014020D01*
X138128445Y-63879400D01*
X138088440Y-63895910D01*
X138052880Y-63905435D01*
X138017320Y-63909880D01*
X137977315Y-63911150D01*
X137940485Y-63907340D01*
X137912545Y-63892100D01*
X137894765Y-63860350D01*
X137888415Y-63807010D01*
X137888415Y-63565710D01*
X138138605Y-63565710D01*
X138138605Y-63436170D01*
X137888415Y-63436170D01*
X137888415Y-63288850D01*
X138231315Y-63288850D01*
X138396415Y-63288850D01*
X138396415Y-63795580D01*
X138408798Y-63904006D01*
X138445945Y-63982905D01*
X138510080Y-64031006D01*
X138603425Y-64047040D01*
X138673910Y-64041960D01*
X138726615Y-64029895D01*
X138761540Y-64016560D01*
X138778685Y-64007670D01*
X138758365Y-63881940D01*
X138716455Y-63898450D01*
X138637715Y-63911150D01*
X138576755Y-63889560D01*
X138552625Y-63807010D01*
X138552625Y-63159310D01*
X138231315Y-63159310D01*
X138231315Y-63288850D01*
X137888415Y-63288850D01*
X137888415Y-63260910D01*
X137732205Y-63286310D01*
X137732205Y-63436170D01*
X137596315Y-63436170D01*
X137435914Y-63436170D01*
X137409625Y-63428550D01*
X137313105Y-63420930D01*
X137230396Y-63427121D01*
X137160070Y-63445695D01*
X137101491Y-63474905D01*
X137054025Y-63513005D01*
X137017513Y-63559201D01*
X136991795Y-63612700D01*
X136976555Y-63671755D01*
X136971475Y-63734620D01*
X136618415Y-63734620D01*
X136618415Y-63565710D01*
X136868605Y-63565710D01*
X136868605Y-63436170D01*
X136618415Y-63436170D01*
X136618415Y-63260910D01*
X136462205Y-63286310D01*
X136462205Y-63436170D01*
X136326315Y-63436170D01*
X136224715Y-63436170D01*
X135979605Y-63436170D01*
X135979605Y-63404420D01*
X135988495Y-63342825D01*
X136011990Y-63306630D01*
X136046280Y-63290120D01*
X136087555Y-63286310D01*
X136170740Y-63297105D01*
X136243765Y-63318060D01*
X136270435Y-63191060D01*
X136176455Y-63161850D01*
X136074855Y-63152960D01*
X135980875Y-63165025D01*
X135899595Y-63205665D01*
X135843080Y-63281865D01*
X135827364Y-63335681D01*
X135822125Y-63401880D01*
X135822125Y-63436170D01*
X135691315Y-63436170D01*
X135566855Y-63436170D01*
X135409375Y-63436170D01*
X135409375Y-63904800D01*
X135338255Y-63911150D01*
X135261420Y-63871145D01*
X135246656Y-63820504D01*
X135241735Y-63748590D01*
X135241735Y-63436170D01*
X135085525Y-63436170D01*
X135085525Y-63768910D01*
X134742625Y-63768910D01*
X134742625Y-63159310D01*
X134421315Y-63159310D01*
X134421315Y-63288850D01*
X133476338Y-63288850D01*
X133908685Y-62640330D01*
X134421315Y-62640330D01*
G37*
%TO.C,U2*%
D11*
X136100000Y-56690000D02*
X136900000Y-56690000D01*
X136100000Y-59810000D02*
X136900000Y-59810000D01*
X136100000Y-59810000D02*
X135300000Y-59810000D01*
X136100000Y-56690000D02*
X134300000Y-56690000D01*
%TO.C,U4*%
D10*
X159520000Y-69900000D02*
X159520000Y-70200000D01*
X159520000Y-49980000D02*
X159520000Y-56500000D01*
X158400000Y-70220000D02*
X159520000Y-70220000D01*
X141280000Y-69900000D02*
X141280000Y-70220000D01*
X141280000Y-70220000D02*
X142300000Y-70220000D01*
X141280000Y-49980000D02*
X159520000Y-49980000D01*
X141280000Y-49980000D02*
X141280000Y-56000000D01*
X141280000Y-56000000D02*
X139400000Y-56000000D01*
%TO.C,C1*%
D11*
X172815000Y-58038748D02*
X172815000Y-58561252D01*
X174285000Y-58038748D02*
X174285000Y-58561252D01*
%TO.C,C7*%
X166735000Y-64611252D02*
X166735000Y-64088748D01*
X165265000Y-64611252D02*
X165265000Y-64088748D01*
%TO.C,C8*%
X171038748Y-51965000D02*
X171561252Y-51965000D01*
X171038748Y-53435000D02*
X171561252Y-53435000D01*
%TO.C,R9*%
X148727064Y-72335000D02*
X148272936Y-72335000D01*
X148727064Y-70865000D02*
X148272936Y-70865000D01*
%TO.C,R2*%
X166772936Y-59735000D02*
X167227064Y-59735000D01*
X166772936Y-58265000D02*
X167227064Y-58265000D01*
%TO.C,R5*%
X170672936Y-64727500D02*
X171127064Y-64727500D01*
X170672936Y-66197500D02*
X171127064Y-66197500D01*
%TO.C,D1*%
X169300000Y-55950000D02*
X173200000Y-55950000D01*
X169300000Y-53950000D02*
X169300000Y-55950000D01*
X169300000Y-53950000D02*
X173200000Y-53950000D01*
%TO.C,C9*%
X138038748Y-62135000D02*
X138561252Y-62135000D01*
X138038748Y-60665000D02*
X138561252Y-60665000D01*
%TO.C,TP3*%
X133750000Y-51600000D02*
G75*
G02*
X131850000Y-51600000I-950000J0D01*
G01*
X131850000Y-51600000D02*
G75*
G02*
X133750000Y-51600000I950000J0D01*
G01*
%TO.C,FB1*%
X171161252Y-64010000D02*
X170638748Y-64010000D01*
X171161252Y-62590000D02*
X170638748Y-62590000D01*
%TO.C,C4*%
X132277500Y-54873752D02*
X132277500Y-54351248D01*
X133747500Y-54873752D02*
X133747500Y-54351248D01*
%TO.C,J5*%
X125300000Y-73550000D02*
X125300000Y-67800000D01*
X131300000Y-73550000D02*
X125300000Y-73550000D01*
X131300000Y-63250000D02*
X131300000Y-73550000D01*
X130190000Y-67120000D02*
X131200000Y-67120000D01*
X125350000Y-66450000D02*
X125350000Y-63250000D01*
X130190000Y-72200000D02*
X130190000Y-67120000D01*
X125350000Y-63250000D02*
X131300000Y-63250000D01*
X131200000Y-72200000D02*
X130190000Y-72200000D01*
%TO.C,TP1*%
X176083000Y-51816000D02*
G75*
G02*
X174183000Y-51816000I-950000J0D01*
G01*
X174183000Y-51816000D02*
G75*
G02*
X176083000Y-51816000I950000J0D01*
G01*
%TO.C,J4*%
X130190000Y-60300000D02*
X130190000Y-55220000D01*
X131200000Y-60300000D02*
X130190000Y-60300000D01*
X125300000Y-61650000D02*
X125300000Y-55900000D01*
X131300000Y-61650000D02*
X125300000Y-61650000D01*
X130190000Y-55220000D02*
X131200000Y-55220000D01*
X125350000Y-51350000D02*
X131300000Y-51350000D01*
X131300000Y-51350000D02*
X131300000Y-61650000D01*
X125350000Y-54550000D02*
X125350000Y-51350000D01*
%TO.C,C6*%
X168785000Y-55788748D02*
X168785000Y-56311252D01*
X167315000Y-55788748D02*
X167315000Y-56311252D01*
%TO.C,U1*%
X172360000Y-58200000D02*
X172360000Y-59000000D01*
X169240000Y-58200000D02*
X169240000Y-59000000D01*
X169240000Y-58200000D02*
X169240000Y-57400000D01*
X172360000Y-58200000D02*
X172360000Y-56400000D01*
%TO.C,J1*%
X181450000Y-62750000D02*
X183350000Y-62750000D01*
X183350000Y-72150000D02*
X183350000Y-62750000D01*
X177550000Y-72150000D02*
X179550000Y-72150000D01*
X181450000Y-72150000D02*
X183350000Y-72150000D01*
X177550000Y-62750000D02*
X179550000Y-62750000D01*
%TO.C,L1*%
X174700000Y-60050000D02*
X174700000Y-53850000D01*
X180900000Y-60050000D02*
X180450000Y-60050000D01*
X174700000Y-60050000D02*
X175150000Y-60050000D01*
X180900000Y-53850000D02*
X180450000Y-53850000D01*
X180900000Y-53850000D02*
X180900000Y-60050000D01*
X174700000Y-53850000D02*
X175150000Y-53850000D01*
%TO.C,D2*%
X150440000Y-70640000D02*
X150440000Y-72560000D01*
X153300000Y-70640000D02*
X150440000Y-70640000D01*
X150440000Y-72560000D02*
X153300000Y-72560000D01*
%TO.C,C3*%
X132277500Y-58711252D02*
X132277500Y-58188748D01*
X133747500Y-58711252D02*
X133747500Y-58188748D01*
%TO.C,TP2*%
X133750000Y-67800000D02*
G75*
G02*
X131850000Y-67800000I-950000J0D01*
G01*
X131850000Y-67800000D02*
G75*
G02*
X133750000Y-67800000I950000J0D01*
G01*
%TD*%
%LPC*%
D13*
%TO.C,C5*%
X168000000Y-65387500D03*
X168000000Y-63312500D03*
%TD*%
D14*
%TO.C,D3*%
X166200000Y-53150000D03*
X168250000Y-53150000D03*
%TD*%
D15*
%TO.C,R3*%
X168000000Y-60950000D03*
X166000000Y-60950000D03*
%TD*%
D16*
%TO.C,R10*%
X166225000Y-51150000D03*
X168225000Y-51150000D03*
%TD*%
D17*
%TO.C,U3*%
X171700000Y-67325000D03*
X170750000Y-67325000D03*
X169800000Y-67325000D03*
X169800000Y-69600000D03*
X170750000Y-69600000D03*
X171700000Y-69600000D03*
%TD*%
D15*
%TO.C,R4*%
X171900000Y-71512500D03*
X169900000Y-71512500D03*
%TD*%
D18*
%TO.C,R8*%
X139600000Y-59350000D03*
X139600000Y-57350000D03*
%TD*%
D13*
%TO.C,C10*%
X163200000Y-60237500D03*
X163200000Y-58162500D03*
%TD*%
D19*
%TO.C,C11*%
X135012500Y-53575000D03*
X135012500Y-55650000D03*
%TD*%
D20*
%TO.C,R1*%
X166050000Y-55050000D03*
X166050000Y-57050000D03*
%TD*%
D21*
%TO.C,J3*%
X134600000Y-69300000D03*
X135600000Y-69300000D03*
X136600000Y-69300000D03*
X137600000Y-69300000D03*
D22*
X138900000Y-73175000D03*
X133300000Y-73175000D03*
%TD*%
D23*
%TO.C,TP4*%
X162000000Y-66200000D03*
%TD*%
D24*
%TO.C,JP1*%
X141425000Y-73575000D03*
X145575000Y-73575000D03*
X141425000Y-71425000D03*
X145575000Y-71425000D03*
%TD*%
%TO.C,SW1*%
X159375000Y-73575000D03*
X155225000Y-73575000D03*
X155225000Y-71425000D03*
X159375000Y-71425000D03*
%TD*%
D16*
%TO.C,R7*%
X133450000Y-61400000D03*
X135450000Y-61400000D03*
%TD*%
D21*
%TO.C,J2*%
X162800000Y-69300000D03*
X163800000Y-69300000D03*
X164800000Y-69300000D03*
X165800000Y-69300000D03*
D22*
X167100000Y-73175000D03*
X161500000Y-73175000D03*
%TD*%
D18*
%TO.C,R6*%
X161200000Y-60200000D03*
X161200000Y-58200000D03*
%TD*%
D25*
%TO.C,U2*%
X134962500Y-57300000D03*
X134962500Y-58250000D03*
X134962500Y-59200000D03*
X137237500Y-59200000D03*
X137237500Y-57300000D03*
%TD*%
D26*
%TO.C,U4*%
X141650000Y-57200000D03*
X141650000Y-58700000D03*
X141650000Y-60200000D03*
X141650000Y-61700000D03*
X141650000Y-63200000D03*
X141650000Y-64700000D03*
X141650000Y-66200000D03*
X141650000Y-67700000D03*
X141650000Y-69200000D03*
X159150000Y-69200000D03*
X159150000Y-67700000D03*
X159150000Y-66200000D03*
X159150000Y-64700000D03*
X159150000Y-63200000D03*
X159150000Y-61700000D03*
X159150000Y-60200000D03*
X159150000Y-58700000D03*
X159150000Y-57200000D03*
D27*
X151500000Y-63810000D03*
%TD*%
D19*
%TO.C,C1*%
X173550000Y-57262500D03*
X173550000Y-59337500D03*
%TD*%
D13*
%TO.C,C7*%
X166000000Y-65387500D03*
X166000000Y-63312500D03*
%TD*%
D28*
%TO.C,C8*%
X170262500Y-52700000D03*
X172337500Y-52700000D03*
%TD*%
D15*
%TO.C,R9*%
X149500000Y-71600000D03*
X147500000Y-71600000D03*
%TD*%
D16*
%TO.C,R2*%
X166000000Y-59000000D03*
X168000000Y-59000000D03*
%TD*%
%TO.C,R5*%
X169900000Y-65462500D03*
X171900000Y-65462500D03*
%TD*%
D29*
%TO.C,D1*%
X169900000Y-54950000D03*
X173200000Y-54950000D03*
%TD*%
D28*
%TO.C,C9*%
X137262500Y-61400000D03*
X139337500Y-61400000D03*
%TD*%
D23*
%TO.C,TP3*%
X132800000Y-51600000D03*
%TD*%
D30*
%TO.C,FB1*%
X171925000Y-63300000D03*
X169875000Y-63300000D03*
%TD*%
D13*
%TO.C,C4*%
X133012500Y-55650000D03*
X133012500Y-53575000D03*
%TD*%
D31*
%TO.C,J5*%
X125740000Y-67120000D03*
D32*
X127900000Y-72200000D03*
D33*
X127900000Y-69660000D03*
X127900000Y-67120000D03*
X127900000Y-64580000D03*
%TD*%
D23*
%TO.C,TP1*%
X175133000Y-51816000D03*
%TD*%
D31*
%TO.C,J4*%
X125740000Y-55220000D03*
D32*
X127900000Y-60300000D03*
D33*
X127900000Y-57760000D03*
X127900000Y-55220000D03*
X127900000Y-52680000D03*
%TD*%
D19*
%TO.C,C6*%
X168050000Y-55012500D03*
X168050000Y-57087500D03*
%TD*%
D17*
%TO.C,U1*%
X171750000Y-57062500D03*
X170800000Y-57062500D03*
X169850000Y-57062500D03*
X169850000Y-59337500D03*
X171750000Y-59337500D03*
%TD*%
D34*
%TO.C,J1*%
X176850000Y-70340000D03*
X176850000Y-64560000D03*
D35*
X175405000Y-70700000D03*
X175405000Y-69900000D03*
D36*
X175405000Y-68700000D03*
X175405000Y-67700000D03*
X175405000Y-67200000D03*
X175405000Y-66200000D03*
D35*
X175405000Y-65000000D03*
X175405000Y-64200000D03*
X175405000Y-64200000D03*
X175405000Y-65000000D03*
D36*
X175405000Y-65700000D03*
X175405000Y-66700000D03*
X175405000Y-68200000D03*
X175405000Y-69200000D03*
D35*
X175405000Y-69900000D03*
X175405000Y-70700000D03*
D37*
X180500000Y-71770000D03*
D38*
X176320000Y-71770000D03*
X176320000Y-63130000D03*
D37*
X180500000Y-63130000D03*
%TD*%
D39*
%TO.C,L1*%
X177800000Y-59025000D03*
X177800000Y-54875000D03*
%TD*%
D14*
%TO.C,D2*%
X151275000Y-71600000D03*
X153325000Y-71600000D03*
%TD*%
D13*
%TO.C,C3*%
X133012500Y-59487500D03*
X133012500Y-57412500D03*
%TD*%
D23*
%TO.C,TP2*%
X132800000Y-67800000D03*
%TD*%
%LPD*%
M02*
