%TF.GenerationSoftware,KiCad,Pcbnew,10.0.6*%
%TF.CreationDate,2026-09-25T09:05:11-07:00*%
%TF.ProjectId,luftctl-modified,6c756674-6374-46c2-9d6d-6f6469666965,rev?*%
%TF.SameCoordinates,Original*%
%TF.FileFunction,Copper,L1,Top*%
%TF.FilePolarity,Positive*%
%FSLAX46Y46*%
G04 Gerber Fmt 4.6, Leading zero omitted, Abs format (unit mm)*
G04 Created by KiCad (PCBNEW 10.0.6) date 2026-09-25 09:05:11*
%MOMM*%
%LPD*%
G01*
G04 APERTURE LIST*
G04 Aperture macros list*
%AMRoundRect*
0 Rectangle with rounded corners*
0 $1 Rounding radius*
0 $2 $3 $4 $5 $6 $7 $8 $9 X,Y pos of 4 corners*
0 Add a 4 corners polygon primitive as box body*
4,1,4,$2,$3,$4,$5,$6,$7,$8,$9,$2,$3,0*
0 Add four circle primitives for the rounded corners*
1,1,$1+$1,$2,$3*
1,1,$1+$1,$4,$5*
1,1,$1+$1,$6,$7*
1,1,$1+$1,$8,$9*
0 Add four rect primitives between the rounded corners*
20,1,$1+$1,$2,$3,$4,$5,0*
20,1,$1+$1,$4,$5,$6,$7,0*
20,1,$1+$1,$6,$7,$8,$9,0*
20,1,$1+$1,$8,$9,$2,$3,0*%
G04 Aperture macros list end*
%TA.AperFunction,SMDPad,CuDef*%
%ADD10RoundRect,0.250000X0.475000X-0.337500X0.475000X0.337500X-0.475000X0.337500X-0.475000X-0.337500X0*%
%TD*%
%TA.AperFunction,SMDPad,CuDef*%
%ADD11RoundRect,0.250000X-0.325000X-0.450000X0.325000X-0.450000X0.325000X0.450000X-0.325000X0.450000X0*%
%TD*%
%TA.AperFunction,SMDPad,CuDef*%
%ADD12RoundRect,0.250000X0.350000X0.450000X-0.350000X0.450000X-0.350000X-0.450000X0.350000X-0.450000X0*%
%TD*%
%TA.AperFunction,SMDPad,CuDef*%
%ADD13RoundRect,0.250000X-0.350000X-0.450000X0.350000X-0.450000X0.350000X0.450000X-0.350000X0.450000X0*%
%TD*%
%TA.AperFunction,SMDPad,CuDef*%
%ADD14RoundRect,0.150000X-0.150000X0.512500X-0.150000X-0.512500X0.150000X-0.512500X0.150000X0.512500X0*%
%TD*%
%TA.AperFunction,SMDPad,CuDef*%
%ADD15RoundRect,0.250000X0.450000X-0.350000X0.450000X0.350000X-0.450000X0.350000X-0.450000X-0.350000X0*%
%TD*%
%TA.AperFunction,ComponentPad*%
%ADD16R,1.700000X1.700000*%
%TD*%
%TA.AperFunction,ComponentPad*%
%ADD17C,1.700000*%
%TD*%
%TA.AperFunction,SMDPad,CuDef*%
%ADD18RoundRect,0.250000X-0.475000X0.337500X-0.475000X-0.337500X0.475000X-0.337500X0.475000X0.337500X0*%
%TD*%
%TA.AperFunction,SMDPad,CuDef*%
%ADD19RoundRect,0.250000X-0.337500X-0.475000X0.337500X-0.475000X0.337500X0.475000X-0.337500X0.475000X0*%
%TD*%
%TA.AperFunction,SMDPad,CuDef*%
%ADD20RoundRect,0.150000X-0.150000X-0.625000X0.150000X-0.625000X0.150000X0.625000X-0.150000X0.625000X0*%
%TD*%
%TA.AperFunction,SMDPad,CuDef*%
%ADD21RoundRect,0.250000X-0.350000X-0.650000X0.350000X-0.650000X0.350000X0.650000X-0.350000X0.650000X0*%
%TD*%
%TA.AperFunction,ComponentPad*%
%ADD22C,1.500000*%
%TD*%
%TA.AperFunction,SMDPad,CuDef*%
%ADD23R,1.050000X0.650000*%
%TD*%
%TA.AperFunction,SMDPad,CuDef*%
%ADD24RoundRect,0.150000X-0.687500X-0.150000X0.687500X-0.150000X0.687500X0.150000X-0.687500X0.150000X0*%
%TD*%
%TA.AperFunction,HeatsinkPad*%
%ADD25R,2.100000X3.300000*%
%TD*%
%TA.AperFunction,SMDPad,CuDef*%
%ADD26R,1.500000X0.900000*%
%TD*%
%TA.AperFunction,SMDPad,CuDef*%
%ADD27R,4.000000X4.000000*%
%TD*%
%TA.AperFunction,SMDPad,CuDef*%
%ADD28RoundRect,0.150000X-0.512500X-0.150000X0.512500X-0.150000X0.512500X0.150000X-0.512500X0.150000X0*%
%TD*%
%TA.AperFunction,SMDPad,CuDef*%
%ADD29RoundRect,0.250000X0.325000X0.450000X-0.325000X0.450000X-0.325000X-0.450000X0.325000X-0.450000X0*%
%TD*%
%TA.AperFunction,ComponentPad*%
%ADD30R,3.030000X1.730000*%
%TD*%
%TA.AperFunction,ComponentPad*%
%ADD31O,3.030000X1.730000*%
%TD*%
%TA.AperFunction,SMDPad,CuDef*%
%ADD32R,5.100000X2.350000*%
%TD*%
%TA.AperFunction,SMDPad,CuDef*%
%ADD33R,1.450000X0.600000*%
%TD*%
%TA.AperFunction,SMDPad,CuDef*%
%ADD34R,1.450000X0.300000*%
%TD*%
%TA.AperFunction,ComponentPad*%
%ADD35O,2.100000X1.000000*%
%TD*%
%TA.AperFunction,ComponentPad*%
%ADD36O,1.600000X1.000000*%
%TD*%
%TA.AperFunction,ViaPad*%
%ADD37C,0.600000*%
%TD*%
%TA.AperFunction,Conductor*%
%ADD38C,0.200000*%
%TD*%
G04 APERTURE END LIST*
D10*
%TO.P,C5,1*%
%TO.N,GND*%
X168000000Y-65387500D03*
%TO.P,C5,2*%
%TO.N,+12V*%
X168000000Y-63312500D03*
%TD*%
D11*
%TO.P,D3,1,K*%
%TO.N,Net-(D3-K)*%
X166200000Y-53150000D03*
%TO.P,D3,2,A*%
%TO.N,+12V*%
X168250000Y-53150000D03*
%TD*%
D12*
%TO.P,R3,1*%
%TO.N,GPIO3*%
X168000000Y-60950000D03*
%TO.P,R3,2*%
%TO.N,GND*%
X166000000Y-60950000D03*
%TD*%
D13*
%TO.P,R15,1*%
%TO.N,CFG3*%
X152000000Y-83000000D03*
%TO.P,R15,2*%
%TO.N,GND*%
X154000000Y-83000000D03*
%TD*%
%TO.P,R10,1*%
%TO.N,Net-(D3-K)*%
X166225000Y-51150000D03*
%TO.P,R10,2*%
%TO.N,GND*%
X168225000Y-51150000D03*
%TD*%
%TO.P,R11,1*%
%TO.N,+3V3*%
X132000000Y-83000000D03*
%TO.P,R11,2*%
%TO.N,FB_BUCK*%
X134000000Y-83000000D03*
%TD*%
D14*
%TO.P,U3,1,I/O1*%
%TO.N,CC2*%
X171700000Y-67325000D03*
%TO.P,U3,2,GND*%
%TO.N,GND*%
X170750000Y-67325000D03*
%TO.P,U3,3,I/O2*%
%TO.N,USB+*%
X169800000Y-67325000D03*
%TO.P,U3,4,I/O3*%
%TO.N,USB-*%
X169800000Y-69600000D03*
%TO.P,U3,5,VBUS*%
%TO.N,VBUS*%
X170750000Y-69600000D03*
%TO.P,U3,6,I/O4*%
%TO.N,CC1*%
X171700000Y-69600000D03*
%TD*%
D15*
%TO.P,R8,1*%
%TO.N,EN*%
X139600000Y-59350000D03*
%TO.P,R8,2*%
%TO.N,+3V3*%
X139600000Y-57350000D03*
%TD*%
D16*
%TO.P,J6,1*%
%TO.N,+3V3*%
X145000000Y-88000000D03*
D17*
%TO.P,J6,2*%
%TO.N,GND*%
X147540000Y-88000000D03*
%TO.P,J6,3*%
%TO.N,GPIO2*%
X150080000Y-88000000D03*
%TO.P,J6,4*%
%TO.N,GPIO3*%
X152620000Y-88000000D03*
%TO.P,J6,5*%
%TO.N,GPIO8*%
X155160000Y-88000000D03*
%TO.P,J6,6*%
%TO.N,RXD*%
X157700000Y-88000000D03*
%TO.P,J6,7*%
%TO.N,TXD*%
X160240000Y-88000000D03*
%TO.P,J6,8*%
%TO.N,GND*%
X162780000Y-88000000D03*
%TD*%
D13*
%TO.P,R12,1*%
%TO.N,FB_BUCK*%
X137000000Y-83000000D03*
%TO.P,R12,2*%
%TO.N,GND*%
X139000000Y-83000000D03*
%TD*%
D10*
%TO.P,C10,1*%
%TO.N,GND*%
X163200000Y-60237500D03*
%TO.P,C10,2*%
%TO.N,+3V3*%
X163200000Y-58162500D03*
%TD*%
D18*
%TO.P,C11,1*%
%TO.N,GND*%
X135012500Y-53575000D03*
%TO.P,C11,2*%
%TO.N,+3V3*%
X135012500Y-55650000D03*
%TD*%
D19*
%TO.P,C13,1*%
%TO.N,+12V*%
X148962500Y-79000000D03*
%TO.P,C13,2*%
%TO.N,GND*%
X151037500Y-79000000D03*
%TD*%
D20*
%TO.P,J3,1,Pin_1*%
%TO.N,GND*%
X134600000Y-69300000D03*
%TO.P,J3,2,Pin_2*%
%TO.N,+3V3*%
X135600000Y-69300000D03*
%TO.P,J3,3,Pin_3*%
%TO.N,SDA*%
X136600000Y-69300000D03*
%TO.P,J3,4,Pin_4*%
%TO.N,SCL*%
X137600000Y-69300000D03*
D21*
%TO.P,J3,MP,MountPin*%
%TO.N,GND*%
X133300000Y-73175000D03*
X138900000Y-73175000D03*
%TD*%
D22*
%TO.P,TP4,1,1*%
%TO.N,GND*%
X162000000Y-66200000D03*
%TD*%
D23*
%TO.P,JP1,1,A*%
%TO.N,GND*%
X145575000Y-73575000D03*
X141425000Y-73575000D03*
%TO.P,JP1,2,B*%
%TO.N,BOOT*%
X145575000Y-71425000D03*
X141425000Y-71425000D03*
%TD*%
%TO.P,SW1,1,1*%
%TO.N,GND*%
X159375000Y-73575000D03*
X155225000Y-73575000D03*
%TO.P,SW1,2,2*%
%TO.N,EN*%
X159375000Y-71425000D03*
X155225000Y-71425000D03*
%TD*%
D19*
%TO.P,C14,1*%
%TO.N,+3V3*%
X153962500Y-79000000D03*
%TO.P,C14,2*%
%TO.N,GND*%
X156037500Y-79000000D03*
%TD*%
D13*
%TO.P,R7,1*%
%TO.N,GPIO8*%
X133450000Y-61400000D03*
%TO.P,R7,2*%
%TO.N,+3V3*%
X135450000Y-61400000D03*
%TD*%
D20*
%TO.P,J2,1,Pin_1*%
%TO.N,GND*%
X162800000Y-69300000D03*
%TO.P,J2,2,Pin_2*%
%TO.N,+3V3*%
X163800000Y-69300000D03*
%TO.P,J2,3,Pin_3*%
%TO.N,TXD*%
X164800000Y-69300000D03*
%TO.P,J2,4,Pin_4*%
%TO.N,RXD*%
X165800000Y-69300000D03*
D21*
%TO.P,J2,MP,MountPin*%
%TO.N,GND*%
X161500000Y-73175000D03*
X167100000Y-73175000D03*
%TD*%
D13*
%TO.P,R13,1*%
%TO.N,CFG1*%
X142000000Y-83000000D03*
%TO.P,R13,2*%
%TO.N,GND*%
X144000000Y-83000000D03*
%TD*%
D19*
%TO.P,C12,1*%
%TO.N,BST_BUCK*%
X156962500Y-83000000D03*
%TO.P,C12,2*%
%TO.N,SW_BUCK*%
X159037500Y-83000000D03*
%TD*%
D15*
%TO.P,R6,1*%
%TO.N,GPIO2*%
X161200000Y-60200000D03*
%TO.P,R6,2*%
%TO.N,+3V3*%
X161200000Y-58200000D03*
%TD*%
D24*
%TO.P,U5,1*%
%TO.N,VDD_CH*%
X130362500Y-77000000D03*
%TO.P,U5,2*%
%TO.N,CFG2*%
X130362500Y-78000000D03*
%TO.P,U5,3*%
%TO.N,CFG3*%
X130362500Y-79000000D03*
%TO.P,U5,4*%
%TO.N,unconnected-(U5-DP-Pad4)*%
X130362500Y-80000000D03*
%TO.P,U5,5*%
%TO.N,unconnected-(U5-DM-Pad5)*%
X130362500Y-81000000D03*
%TO.P,U5,6*%
%TO.N,CC2*%
X135637500Y-81000000D03*
%TO.P,U5,7*%
%TO.N,CC1*%
X135637500Y-80000000D03*
%TO.P,U5,8*%
%TO.N,VBUS*%
X135637500Y-79000000D03*
%TO.P,U5,9*%
%TO.N,CFG1*%
X135637500Y-78000000D03*
%TO.P,U5,10*%
%TO.N,unconnected-(U5-PG-Pad10)*%
X135637500Y-77000000D03*
D25*
%TO.P,U5,11*%
%TO.N,GND*%
X133000000Y-79000000D03*
%TD*%
D26*
%TO.P,U4,1,VDD*%
%TO.N,+3V3*%
X141650000Y-57200000D03*
%TO.P,U4,2,EN*%
%TO.N,EN*%
X141650000Y-58700000D03*
%TO.P,U4,3,IO4*%
%TO.N,FAN1_PWM*%
X141650000Y-60200000D03*
%TO.P,U4,4,IO5*%
%TO.N,FAN1_Tacho*%
X141650000Y-61700000D03*
%TO.P,U4,5,IO6*%
%TO.N,FAN2_PWM*%
X141650000Y-63200000D03*
%TO.P,U4,6,IO7*%
%TO.N,FAN2_Tacho*%
X141650000Y-64700000D03*
%TO.P,U4,7,IO8*%
%TO.N,GPIO8*%
X141650000Y-66200000D03*
%TO.P,U4,8,IO9*%
%TO.N,BOOT*%
X141650000Y-67700000D03*
%TO.P,U4,9,GND*%
%TO.N,GND*%
X141650000Y-69200000D03*
%TO.P,U4,10,IO10*%
%TO.N,LED*%
X159150000Y-69200000D03*
%TO.P,U4,11,RXD/IO20*%
%TO.N,RXD*%
X159150000Y-67700000D03*
%TO.P,U4,12,TXD/IO21*%
%TO.N,TXD*%
X159150000Y-66200000D03*
%TO.P,U4,13,D-/IO18*%
%TO.N,USB-*%
X159150000Y-64700000D03*
%TO.P,U4,14,D+/IO19*%
%TO.N,USB+*%
X159150000Y-63200000D03*
%TO.P,U4,15,IO3*%
%TO.N,GPIO3*%
X159150000Y-61700000D03*
%TO.P,U4,16,IO2*%
%TO.N,GPIO2*%
X159150000Y-60200000D03*
%TO.P,U4,17,IO1*%
%TO.N,SCL*%
X159150000Y-58700000D03*
%TO.P,U4,18,IO0*%
%TO.N,SDA*%
X159150000Y-57200000D03*
D27*
%TO.P,U4,19,GND*%
%TO.N,GND*%
X151500000Y-63810000D03*
%TD*%
D18*
%TO.P,C1,1*%
%TO.N,GND*%
X173550000Y-57262500D03*
%TO.P,C1,2*%
%TO.N,+12V*%
X173550000Y-59337500D03*
%TD*%
D10*
%TO.P,C7,1*%
%TO.N,GND*%
X166000000Y-65387500D03*
%TO.P,C7,2*%
%TO.N,+12V*%
X166000000Y-63312500D03*
%TD*%
D28*
%TO.P,U6,1*%
%TO.N,GND*%
X141862500Y-78050000D03*
%TO.P,U6,2*%
%TO.N,SW_BUCK*%
X141862500Y-79000000D03*
%TO.P,U6,3*%
%TO.N,+12V*%
X141862500Y-79950000D03*
%TO.P,U6,4*%
%TO.N,FB_BUCK*%
X144137500Y-79950000D03*
%TO.P,U6,5*%
%TO.N,+12V*%
X144137500Y-79000000D03*
%TO.P,U6,6*%
%TO.N,BST_BUCK*%
X144137500Y-78050000D03*
%TD*%
D19*
%TO.P,C8,1*%
%TO.N,+12V*%
X170262500Y-52700000D03*
%TO.P,C8,2*%
%TO.N,GND*%
X172337500Y-52700000D03*
%TD*%
D12*
%TO.P,R9,1*%
%TO.N,Net-(D2-K)*%
X149500000Y-71600000D03*
%TO.P,R9,2*%
%TO.N,GND*%
X147500000Y-71600000D03*
%TD*%
D13*
%TO.P,R14,1*%
%TO.N,CFG2*%
X147000000Y-83000000D03*
%TO.P,R14,2*%
%TO.N,GND*%
X149000000Y-83000000D03*
%TD*%
D19*
%TO.P,C9,1*%
%TO.N,GND*%
X137262500Y-61400000D03*
%TO.P,C9,2*%
%TO.N,EN*%
X139337500Y-61400000D03*
%TD*%
D22*
%TO.P,TP3,1,1*%
%TO.N,+3V3*%
X132800000Y-51600000D03*
%TD*%
D29*
%TO.P,FB1,1*%
%TO.N,VBUS*%
X171925000Y-63300000D03*
%TO.P,FB1,2*%
%TO.N,+12V*%
X169875000Y-63300000D03*
%TD*%
D10*
%TO.P,C4,1*%
%TO.N,+3V3*%
X133012500Y-55650000D03*
%TO.P,C4,2*%
%TO.N,GND*%
X133012500Y-53575000D03*
%TD*%
D30*
%TO.P,J5,1,Pin_1*%
%TO.N,GND*%
X127900000Y-72200000D03*
D31*
%TO.P,J5,2,Pin_2*%
%TO.N,+12V*%
X127900000Y-69660000D03*
%TO.P,J5,3,Pin_3*%
%TO.N,FAN2_Tacho*%
X127900000Y-67120000D03*
%TO.P,J5,4,Pin_4*%
%TO.N,FAN2_PWM*%
X127900000Y-64580000D03*
%TD*%
D19*
%TO.P,C15,1*%
%TO.N,VDD_CH*%
X158962500Y-79000000D03*
%TO.P,C15,2*%
%TO.N,GND*%
X161037500Y-79000000D03*
%TD*%
D32*
%TO.P,L2,1*%
%TO.N,SW_BUCK*%
X172000000Y-81075000D03*
%TO.P,L2,2*%
%TO.N,+3V3*%
X172000000Y-76925000D03*
%TD*%
D22*
%TO.P,TP1,1,1*%
%TO.N,+12V*%
X175133000Y-51816000D03*
%TD*%
D30*
%TO.P,J4,1,Pin_1*%
%TO.N,GND*%
X127900000Y-60300000D03*
D31*
%TO.P,J4,2,Pin_2*%
%TO.N,+12V*%
X127900000Y-57760000D03*
%TO.P,J4,3,Pin_3*%
%TO.N,FAN1_Tacho*%
X127900000Y-55220000D03*
%TO.P,J4,4,Pin_4*%
%TO.N,FAN1_PWM*%
X127900000Y-52680000D03*
%TD*%
D33*
%TO.P,J1,A1,GND*%
%TO.N,GND*%
X175405000Y-70700000D03*
%TO.P,J1,A4,VBUS*%
%TO.N,VBUS*%
X175405000Y-69900000D03*
D34*
%TO.P,J1,A5,CC1*%
%TO.N,CC1*%
X175405000Y-68700000D03*
%TO.P,J1,A6,D+*%
%TO.N,USB+*%
X175405000Y-67700000D03*
%TO.P,J1,A7,D-*%
%TO.N,USB-*%
X175405000Y-67200000D03*
%TO.P,J1,A8,SBU1*%
%TO.N,unconnected-(J1-SBU1-PadA8)*%
X175405000Y-66200000D03*
D33*
%TO.P,J1,A9,VBUS*%
%TO.N,VBUS*%
X175405000Y-65000000D03*
%TO.P,J1,A12,GND*%
%TO.N,GND*%
X175405000Y-64200000D03*
%TO.P,J1,B1,GND*%
X175405000Y-64200000D03*
%TO.P,J1,B4,VBUS*%
%TO.N,VBUS*%
X175405000Y-65000000D03*
D34*
%TO.P,J1,B5,CC2*%
%TO.N,CC2*%
X175405000Y-65700000D03*
%TO.P,J1,B6,D+*%
%TO.N,USB+*%
X175405000Y-66700000D03*
%TO.P,J1,B7,D-*%
%TO.N,USB-*%
X175405000Y-68200000D03*
%TO.P,J1,B8,SBU2*%
%TO.N,unconnected-(J1-SBU2-PadB8)*%
X175405000Y-69200000D03*
D33*
%TO.P,J1,B9,VBUS*%
%TO.N,VBUS*%
X175405000Y-69900000D03*
%TO.P,J1,B12,GND*%
%TO.N,GND*%
X175405000Y-70700000D03*
D35*
%TO.P,J1,S1,SHIELD*%
X176320000Y-71770000D03*
D36*
X180500000Y-71770000D03*
D35*
X176320000Y-63130000D03*
D36*
X180500000Y-63130000D03*
%TD*%
D11*
%TO.P,D2,1,K*%
%TO.N,Net-(D2-K)*%
X151275000Y-71600000D03*
%TO.P,D2,2,A*%
%TO.N,LED*%
X153325000Y-71600000D03*
%TD*%
D10*
%TO.P,C3,1*%
%TO.N,GND*%
X133012500Y-59487500D03*
%TO.P,C3,2*%
%TO.N,+12V*%
X133012500Y-57412500D03*
%TD*%
D22*
%TO.P,TP2,1,1*%
%TO.N,+12V*%
X132800000Y-67800000D03*
%TD*%
D37*
%TO.N,GND*%
X164881300Y-60774400D03*
X137262500Y-61400000D03*
X142693500Y-73812900D03*
X173979100Y-70473100D03*
X142918500Y-68696400D03*
X140150400Y-73694600D03*
X147921300Y-62559300D03*
X132944800Y-81627900D03*
X135409300Y-51361200D03*
X139000000Y-83000000D03*
X173857500Y-52108900D03*
X138952800Y-76626300D03*
X170600100Y-66126500D03*
X150394000Y-82785800D03*
X170008300Y-50992000D03*
X150067400Y-79907300D03*
X133760000Y-68906700D03*
X155206400Y-82092300D03*
X162994800Y-79438100D03*
X138246000Y-62478400D03*
X138174200Y-81618800D03*
X171583300Y-56932500D03*
X145462700Y-82352100D03*
X144243500Y-73812900D03*
X147306400Y-70362100D03*
X162616700Y-73812900D03*
X149000000Y-83000000D03*
X132089000Y-73167500D03*
X161936700Y-68696400D03*
X157147200Y-79439700D03*
X169021800Y-73812900D03*
X134260100Y-59514400D03*
X158117700Y-73812900D03*
X156525300Y-73812900D03*
X174173200Y-64433000D03*
X169534300Y-65331400D03*
%TO.N,+12V*%
X160857000Y-77529000D03*
X163051700Y-63070600D03*
%TO.N,GPIO3*%
X154447500Y-62559300D03*
%TO.N,+3V3*%
X138594200Y-63320200D03*
X163975600Y-71174800D03*
X163132300Y-56862000D03*
X147915400Y-76609400D03*
%TO.N,FB_BUCK*%
X137652100Y-76072800D03*
X135500000Y-82856500D03*
%TO.N,CC2*%
X138952800Y-88693300D03*
X173164700Y-67494900D03*
X168847800Y-87879900D03*
X137178000Y-81584200D03*
%TO.N,USB+*%
X172910800Y-66465100D03*
X171908300Y-65044900D03*
%TO.N,VBUS*%
X139950100Y-88851800D03*
X138502900Y-80340900D03*
%TO.N,CC1*%
X162969000Y-74666200D03*
X145118200Y-74690200D03*
X137583000Y-80410000D03*
X172662700Y-68990900D03*
%TO.N,GPIO2*%
X156889800Y-61091700D03*
%TO.N,GPIO8*%
X152320700Y-67004800D03*
X135660800Y-63174100D03*
X135963300Y-66091300D03*
X151450100Y-85402700D03*
%TO.N,RXD*%
X157400600Y-68696900D03*
%TO.N,TXD*%
X160404200Y-66135500D03*
%TO.N,SDA*%
X139195900Y-67113800D03*
X144260100Y-59289600D03*
%TO.N,SCL*%
X139841000Y-67687600D03*
X145153400Y-59639200D03*
%TO.N,BST_BUCK*%
X147670300Y-78162200D03*
X147809400Y-85188500D03*
%TO.N,SW_BUCK*%
X147023900Y-84271900D03*
X140468100Y-78601400D03*
%TO.N,CFG2*%
X129007000Y-78537200D03*
X134122600Y-84398800D03*
%TO.N,FAN1_PWM*%
X142918500Y-59976300D03*
%TO.N,FAN1_Tacho*%
X142918500Y-61951300D03*
%TD*%
%TO.N,GND*%
D38*
X135409300Y-51361200D02*
X135409300Y-53178200D01*
X161475600Y-79438100D02*
X161037500Y-79000000D01*
X174206000Y-70700000D02*
X173979100Y-70473100D01*
X158117700Y-73812900D02*
X158310400Y-73812900D01*
X134206700Y-68906700D02*
X134600000Y-69300000D01*
X135012500Y-53575000D02*
X133012500Y-53575000D01*
X150130200Y-79907300D02*
X150067400Y-79907300D01*
X165824400Y-60774400D02*
X164881300Y-60774400D01*
X172337500Y-52700000D02*
X172928600Y-52108900D01*
X139419600Y-73694600D02*
X138900000Y-73175000D01*
X147921300Y-62559300D02*
X147947600Y-62559300D01*
X166000000Y-60950000D02*
X165824400Y-60774400D01*
X156477200Y-79439700D02*
X156037500Y-79000000D01*
X175405000Y-64200000D02*
X174378300Y-64200000D01*
X150394000Y-82785800D02*
X149214200Y-82785800D01*
X144510400Y-73812900D02*
X144748300Y-73575000D01*
X132944800Y-81627900D02*
X133000000Y-81572700D01*
X161500000Y-73175000D02*
X162137900Y-73812900D01*
X139000000Y-82444600D02*
X139000000Y-83000000D01*
X161936700Y-68696400D02*
X162196400Y-68696400D01*
X168383000Y-50992000D02*
X168225000Y-51150000D01*
X169021800Y-73812900D02*
X167737900Y-73812900D01*
X141425000Y-73575000D02*
X142251700Y-73575000D01*
X154907700Y-82092300D02*
X154000000Y-83000000D01*
X144000000Y-83000000D02*
X144647900Y-82352100D01*
X147947600Y-62559300D02*
X149198300Y-63810000D01*
X133039400Y-59514400D02*
X133012500Y-59487500D01*
X175405000Y-70700000D02*
X174206000Y-70700000D01*
X170008300Y-50992000D02*
X168383000Y-50992000D01*
X159375000Y-73575000D02*
X158548300Y-73575000D01*
X174378300Y-64227900D02*
X174378300Y-64200000D01*
X138246000Y-62478400D02*
X137262500Y-61494900D01*
X162196400Y-68696400D02*
X162800000Y-69300000D01*
X133000000Y-81572700D02*
X133000000Y-79000000D01*
X173220000Y-56932500D02*
X173550000Y-57262500D01*
X166000000Y-65387500D02*
X168000000Y-65387500D01*
X162994800Y-79438100D02*
X161475600Y-79438100D01*
X158310400Y-73812900D02*
X158548300Y-73575000D01*
X142489600Y-73812900D02*
X142251700Y-73575000D01*
X135409300Y-53178200D02*
X135012500Y-53575000D01*
X163200000Y-60237500D02*
X163736900Y-60774400D01*
X149214200Y-82785800D02*
X149000000Y-83000000D01*
X133760000Y-68906700D02*
X134206700Y-68906700D01*
X156289600Y-73812900D02*
X156051700Y-73575000D01*
X138952800Y-76626300D02*
X140438800Y-76626300D01*
X155206400Y-82092300D02*
X154907700Y-82092300D01*
X174173200Y-64433000D02*
X174378300Y-64227900D01*
X156525300Y-73812900D02*
X156289600Y-73812900D01*
X157147200Y-79439700D02*
X156477200Y-79439700D01*
X142693500Y-73812900D02*
X142489600Y-73812900D01*
X140150400Y-73694600D02*
X139419600Y-73694600D01*
X145575000Y-73575000D02*
X144748300Y-73575000D01*
X151037500Y-79000000D02*
X150130200Y-79907300D01*
X134260100Y-59514400D02*
X133039400Y-59514400D01*
X144243500Y-73812900D02*
X144510400Y-73812900D01*
X140438800Y-76626300D02*
X141862500Y-78050000D01*
X171583300Y-56932500D02*
X173220000Y-56932500D01*
X167737900Y-73812900D02*
X167100000Y-73175000D01*
X170600100Y-66126500D02*
X170750000Y-66276400D01*
X151500000Y-63810000D02*
X149198300Y-63810000D01*
X144647900Y-82352100D02*
X145462700Y-82352100D01*
X141650000Y-69200000D02*
X142701700Y-69200000D01*
X147500000Y-70555700D02*
X147306400Y-70362100D01*
X170750000Y-66276400D02*
X170750000Y-67325000D01*
X168056100Y-65331400D02*
X168000000Y-65387500D01*
X138174200Y-81618800D02*
X139000000Y-82444600D01*
X137262500Y-61494900D02*
X137262500Y-61400000D01*
X169534300Y-65331400D02*
X168056100Y-65331400D01*
X172928600Y-52108900D02*
X173857500Y-52108900D01*
X133292500Y-73167500D02*
X133300000Y-73175000D01*
X147500000Y-71600000D02*
X147500000Y-70555700D01*
X155225000Y-73575000D02*
X156051700Y-73575000D01*
X142701700Y-68913200D02*
X142701700Y-69200000D01*
X132089000Y-73167500D02*
X133292500Y-73167500D01*
X162137900Y-73812900D02*
X162616700Y-73812900D01*
X142918500Y-68696400D02*
X142701700Y-68913200D01*
X163736900Y-60774400D02*
X164881300Y-60774400D01*
%TO.N,+12V*%
X166000000Y-63312500D02*
X168000000Y-63312500D01*
X174253800Y-56372300D02*
X174615700Y-56734200D01*
X174251600Y-56372300D02*
X174253800Y-56372300D01*
X156976500Y-80509100D02*
X149757200Y-80509100D01*
X143117800Y-78732200D02*
X143117800Y-77992700D01*
X143385600Y-79000000D02*
X143318700Y-78933000D01*
X169369300Y-53150000D02*
X171029300Y-53150000D01*
X131377000Y-70097000D02*
X130940000Y-69660000D01*
X158835600Y-77529000D02*
X157762700Y-78601900D01*
X132122500Y-70097100D02*
X131377000Y-70097100D01*
X143117800Y-77992700D02*
X139613900Y-74488800D01*
X133012500Y-57412500D02*
X132665000Y-57760000D01*
X168000000Y-63312500D02*
X169862500Y-63312500D01*
X157762700Y-79722900D02*
X156976500Y-80509100D01*
X143318700Y-78933000D02*
X143117800Y-78732200D01*
X168250000Y-53150000D02*
X169369300Y-53150000D01*
X148962500Y-79000000D02*
X144137500Y-79000000D01*
X169369300Y-53150000D02*
X169812500Y-53150000D01*
X149757200Y-80509100D02*
X148962500Y-79714400D01*
X157762700Y-78601900D02*
X157762700Y-79722900D01*
X165758100Y-63070600D02*
X166000000Y-63312500D01*
X136514200Y-74488800D02*
X132122500Y-70097100D01*
X144137500Y-79000000D02*
X143385600Y-79000000D01*
X169875000Y-63012500D02*
X169875000Y-63300000D01*
X163051700Y-63070600D02*
X165758100Y-63070600D01*
X130940000Y-69660000D02*
X127900000Y-69660000D01*
X132800000Y-67800000D02*
X130940000Y-69660000D01*
X174615700Y-56734200D02*
X174615700Y-58271800D01*
X142301700Y-79950000D02*
X143318700Y-78933000D01*
X170262500Y-52700000D02*
X171498000Y-51464500D01*
X171498000Y-51464500D02*
X174781500Y-51464500D01*
X139613900Y-74488800D02*
X136514200Y-74488800D01*
X174615700Y-58271800D02*
X173550000Y-59337500D01*
X141862500Y-79950000D02*
X142301700Y-79950000D01*
X169812500Y-53150000D02*
X170262500Y-52700000D01*
X160857000Y-77529000D02*
X158835600Y-77529000D01*
X171029300Y-53150000D02*
X174251600Y-56372300D01*
X173550000Y-59337500D02*
X169875000Y-63012500D01*
X132665000Y-57760000D02*
X127900000Y-57760000D01*
X174781500Y-51464500D02*
X175133000Y-51816000D01*
X131377000Y-70097100D02*
X131377000Y-70097000D01*
X148962500Y-79714400D02*
X148962500Y-79000000D01*
X169862500Y-63312500D02*
X169875000Y-63300000D01*
%TO.N,Net-(D3-K)*%
X166200000Y-53150000D02*
X166225000Y-53125000D01*
X166225000Y-53125000D02*
X166225000Y-51150000D01*
%TO.N,GPIO3*%
X159150000Y-61700000D02*
X160201700Y-61700000D01*
X168000000Y-60950000D02*
X166917700Y-62032300D01*
X154447500Y-62559300D02*
X155306800Y-61700000D01*
X166917700Y-62032300D02*
X160534000Y-62032300D01*
X155306800Y-61700000D02*
X159150000Y-61700000D01*
X160534000Y-62032300D02*
X160201700Y-61700000D01*
%TO.N,CFG3*%
X150658800Y-81658800D02*
X141091600Y-81658800D01*
X137137500Y-76977400D02*
X136512100Y-76352000D01*
X138918400Y-79337500D02*
X138844300Y-79337500D01*
X136512100Y-76352000D02*
X132511700Y-76352000D01*
X131575300Y-78285200D02*
X130860500Y-79000000D01*
X139506300Y-80073500D02*
X139506300Y-79925400D01*
X138844300Y-79337500D02*
X137137500Y-77630700D01*
X130860500Y-79000000D02*
X130362500Y-79000000D01*
X139506300Y-79925400D02*
X138918400Y-79337500D01*
X141091600Y-81658800D02*
X139506300Y-80073500D01*
X131575300Y-77288400D02*
X131575300Y-78285200D01*
X152000000Y-83000000D02*
X150658800Y-81658800D01*
X137137500Y-77630700D02*
X137137500Y-76977400D01*
X132511700Y-76352000D02*
X131575300Y-77288400D01*
%TO.N,+3V3*%
X163975600Y-71174800D02*
X163800000Y-71174800D01*
X143468500Y-73898100D02*
X143468500Y-73674300D01*
X163162500Y-58200000D02*
X163200000Y-58162500D01*
X162181300Y-58200000D02*
X163162500Y-58200000D01*
X138906300Y-71155300D02*
X136941000Y-71155300D01*
X136873000Y-88000000D02*
X145000000Y-88000000D01*
X151571900Y-76609400D02*
X153962500Y-79000000D01*
X156037500Y-76925000D02*
X163800000Y-76925000D01*
X131947900Y-54585400D02*
X133012500Y-55650000D01*
X137370200Y-63320200D02*
X135450000Y-61400000D01*
X140101900Y-57200000D02*
X139750000Y-57200000D01*
X136941000Y-71155300D02*
X135600000Y-69814300D01*
X146179800Y-76609400D02*
X143468500Y-73898100D01*
X163800000Y-76925000D02*
X163800000Y-71174800D01*
X140101900Y-57200000D02*
X136562500Y-57200000D01*
X163800000Y-76925000D02*
X172000000Y-76925000D01*
X133012500Y-55650000D02*
X135012500Y-55650000D01*
X139802700Y-72051700D02*
X138906300Y-71155300D01*
X138594200Y-63320200D02*
X137370200Y-63320200D01*
X136562500Y-57200000D02*
X135012500Y-55650000D01*
X135600000Y-69814300D02*
X135600000Y-69300000D01*
X135550000Y-61400000D02*
X135450000Y-61400000D01*
X163800000Y-71174800D02*
X163800000Y-69300000D01*
X131947900Y-52452100D02*
X131947900Y-54585400D01*
X143468500Y-73674300D02*
X141845900Y-72051700D01*
X141845900Y-72051700D02*
X139802700Y-72051700D01*
X147915400Y-76609400D02*
X146179800Y-76609400D01*
X132000000Y-83127000D02*
X136873000Y-88000000D01*
X162181300Y-57813000D02*
X163132300Y-56862000D01*
X139750000Y-57200000D02*
X139600000Y-57350000D01*
X139600000Y-57350000D02*
X135550000Y-61400000D01*
X132800000Y-51600000D02*
X131947900Y-52452100D01*
X153962500Y-79000000D02*
X156037500Y-76925000D01*
X140101900Y-57200000D02*
X141650000Y-57200000D01*
X161200000Y-58200000D02*
X162181300Y-58200000D01*
X162181300Y-58200000D02*
X162181300Y-57813000D01*
X132000000Y-83000000D02*
X132000000Y-83127000D01*
X147915400Y-76609400D02*
X151571900Y-76609400D01*
%TO.N,FB_BUCK*%
X137940900Y-76925000D02*
X137940900Y-76361600D01*
X135500000Y-82856500D02*
X136856500Y-82856500D01*
X141384600Y-80798500D02*
X140380500Y-79794400D01*
X143289000Y-80798500D02*
X141384600Y-80798500D01*
X140380500Y-79364600D02*
X137940900Y-76925000D01*
X137940900Y-76361600D02*
X137652100Y-76072800D01*
X134000000Y-83000000D02*
X137000000Y-83000000D01*
X140380500Y-79794400D02*
X140380500Y-79364600D01*
X136856500Y-82856500D02*
X137000000Y-83000000D01*
X144137500Y-79950000D02*
X143289000Y-80798500D01*
%TO.N,CC2*%
X175405000Y-65700000D02*
X172825100Y-65700000D01*
X172825100Y-65700000D02*
X171700000Y-66825100D01*
X137178000Y-81584200D02*
X136221700Y-81584200D01*
X143858700Y-89553400D02*
X167174300Y-89553400D01*
X140199300Y-89453500D02*
X140399300Y-89253500D01*
X139701000Y-89453500D02*
X140199300Y-89453500D01*
X138952800Y-88705300D02*
X139701000Y-89453500D01*
X136221700Y-81584200D02*
X135637500Y-81000000D01*
X171700000Y-66825100D02*
X171700000Y-67325000D01*
X172994800Y-67325000D02*
X173164700Y-67494900D01*
X140399300Y-89253500D02*
X143558800Y-89253500D01*
X171700000Y-67325000D02*
X172994800Y-67325000D01*
X138952800Y-88693300D02*
X138952800Y-88705300D01*
X167174300Y-89553400D02*
X168847800Y-87879900D01*
X143558800Y-89253500D02*
X143858700Y-89553400D01*
%TO.N,USB+*%
X164936400Y-64486700D02*
X163522500Y-64486700D01*
X171350100Y-64486700D02*
X164936400Y-64486700D01*
X176431700Y-66700000D02*
X176431700Y-67700000D01*
X171908300Y-65044900D02*
X171350100Y-64486700D01*
X173145700Y-66700000D02*
X175405000Y-66700000D01*
X172910800Y-66465100D02*
X173145700Y-66700000D01*
X175918400Y-66700000D02*
X176431700Y-66700000D01*
X162235800Y-63200000D02*
X159150000Y-63200000D01*
X163522500Y-64486700D02*
X162235800Y-63200000D01*
X169312000Y-66837000D02*
X169800000Y-67325000D01*
X164936400Y-65988600D02*
X165784800Y-66837000D01*
X175918400Y-66700000D02*
X175405000Y-66700000D01*
X165784800Y-66837000D02*
X169312000Y-66837000D01*
X164936400Y-64486700D02*
X164936400Y-65988600D01*
X175405000Y-67700000D02*
X176431700Y-67700000D01*
%TO.N,USB-*%
X173877900Y-68200000D02*
X173788100Y-68289800D01*
X174378300Y-68200000D02*
X174378300Y-67200000D01*
X170690100Y-68289800D02*
X169590000Y-69389900D01*
X160201700Y-64700000D02*
X160603400Y-65101700D01*
X169590000Y-69389900D02*
X169800000Y-69600000D01*
X175405000Y-68200000D02*
X174378300Y-68200000D01*
X160603400Y-65101700D02*
X163393500Y-65101700D01*
X167438700Y-67238700D02*
X169590000Y-69389900D01*
X163393500Y-65101700D02*
X165530500Y-67238700D01*
X165530500Y-67238700D02*
X167438700Y-67238700D01*
X159150000Y-64700000D02*
X160201700Y-64700000D01*
X175405000Y-67200000D02*
X174378300Y-67200000D01*
X173788100Y-68289800D02*
X170690100Y-68289800D01*
X174378300Y-68200000D02*
X173877900Y-68200000D01*
%TO.N,VBUS*%
X174378300Y-69900000D02*
X174349700Y-69871400D01*
X155650600Y-89151700D02*
X144025000Y-89151700D01*
X156430100Y-87620500D02*
X156430100Y-88372200D01*
X171875700Y-85402900D02*
X158647700Y-85402900D01*
X177777900Y-62846700D02*
X177214100Y-62282900D01*
X170750000Y-70002600D02*
X171328500Y-70581100D01*
X143848300Y-88975000D02*
X143848300Y-88950600D01*
X173020300Y-70581100D02*
X173114600Y-70486800D01*
X156430100Y-88372200D02*
X155650600Y-89151700D01*
X143749500Y-88851800D02*
X139950100Y-88851800D01*
X144025000Y-89151700D02*
X143848300Y-88975000D01*
X177777900Y-71995900D02*
X177777900Y-62846700D01*
X158647700Y-85402900D02*
X156430100Y-87620500D01*
X175405000Y-69900000D02*
X174378300Y-69900000D01*
X173659700Y-65034700D02*
X175370300Y-65034700D01*
X177202100Y-72571700D02*
X177777900Y-71995900D01*
X171328500Y-70581100D02*
X173020300Y-70581100D01*
X177214100Y-62282900D02*
X172942100Y-62282900D01*
X175199500Y-72571700D02*
X175199500Y-82079100D01*
X173114600Y-70486800D02*
X175199500Y-72571700D01*
X172942100Y-62282900D02*
X171925000Y-63300000D01*
X138502900Y-80340900D02*
X137162000Y-79000000D01*
X175199500Y-82079100D02*
X171875700Y-85402900D01*
X170750000Y-69600000D02*
X170750000Y-70002600D01*
X137162000Y-79000000D02*
X135637500Y-79000000D01*
X174349700Y-69871400D02*
X173730000Y-69871400D01*
X175370300Y-65034700D02*
X175405000Y-65000000D01*
X175199500Y-72571700D02*
X177202100Y-72571700D01*
X171925000Y-63300000D02*
X173659700Y-65034700D01*
X173730000Y-69871400D02*
X173114600Y-70486800D01*
X143848300Y-88950600D02*
X143749500Y-88851800D01*
%TO.N,CC1*%
X171700000Y-69600000D02*
X172309100Y-68990900D01*
X172662700Y-68990900D02*
X172953600Y-68700000D01*
X135637500Y-80000000D02*
X137173000Y-80000000D01*
X172309100Y-68990900D02*
X172662700Y-68990900D01*
X172953600Y-68700000D02*
X175405000Y-68700000D01*
X162969000Y-74666200D02*
X162945000Y-74690200D01*
X137173000Y-80000000D02*
X137583000Y-80410000D01*
X162945000Y-74690200D02*
X145118200Y-74690200D01*
%TO.N,EN*%
X152361000Y-66115800D02*
X149342500Y-66115800D01*
X154398300Y-72148400D02*
X153932500Y-72614200D01*
X143566800Y-60340100D02*
X143566800Y-59565100D01*
X141650000Y-58700000D02*
X142701700Y-58700000D01*
X152941000Y-67584200D02*
X152941000Y-66695800D01*
X154398300Y-71425000D02*
X154398300Y-72148400D01*
X152725400Y-72614200D02*
X152406300Y-72295100D01*
X159375000Y-71425000D02*
X155225000Y-71425000D01*
X140250000Y-58700000D02*
X139600000Y-59350000D01*
X152941000Y-66695800D02*
X152361000Y-66115800D01*
X149342500Y-66115800D02*
X143566800Y-60340100D01*
X143566800Y-59565100D02*
X142701700Y-58700000D01*
X141650000Y-58700000D02*
X140250000Y-58700000D01*
X139337500Y-59612500D02*
X139337500Y-61400000D01*
X139600000Y-59350000D02*
X139337500Y-59612500D01*
X152406300Y-72295100D02*
X152406300Y-68118900D01*
X153932500Y-72614200D02*
X152725400Y-72614200D01*
X152406300Y-68118900D02*
X152941000Y-67584200D01*
X155225000Y-71425000D02*
X154398300Y-71425000D01*
%TO.N,GPIO2*%
X157206600Y-61091700D02*
X158098300Y-60200000D01*
X161200000Y-60200000D02*
X159150000Y-60200000D01*
X156889800Y-61091700D02*
X157206600Y-61091700D01*
X159150000Y-60200000D02*
X158098300Y-60200000D01*
%TO.N,GPIO8*%
X152562700Y-85402700D02*
X151450100Y-85402700D01*
X142701700Y-66200000D02*
X143506500Y-67004800D01*
X135224100Y-63174100D02*
X133450000Y-61400000D01*
X155160000Y-88000000D02*
X152562700Y-85402700D01*
X142075000Y-66200000D02*
X141650000Y-66200000D01*
X141650000Y-66200000D02*
X136072000Y-66200000D01*
X135660800Y-63174100D02*
X135224100Y-63174100D01*
X136072000Y-66200000D02*
X135963300Y-66091300D01*
X143506500Y-67004800D02*
X152320700Y-67004800D01*
X142075000Y-66200000D02*
X142701700Y-66200000D01*
%TO.N,RXD*%
X159150000Y-67700000D02*
X158098300Y-67700000D01*
X165800000Y-68866100D02*
X165800000Y-69300000D01*
X164633900Y-67700000D02*
X165800000Y-68866100D01*
X159150000Y-67700000D02*
X164633900Y-67700000D01*
X157400600Y-68397700D02*
X158098300Y-67700000D01*
X157400600Y-68696900D02*
X157400600Y-68397700D01*
%TO.N,TXD*%
X160266200Y-66135500D02*
X160201700Y-66200000D01*
X160404200Y-66135500D02*
X160266200Y-66135500D01*
X160201700Y-66200000D02*
X161276700Y-67275000D01*
X164998800Y-67275000D02*
X165364200Y-67640400D01*
X165364200Y-67640400D02*
X165625400Y-67640400D01*
X166173600Y-70382800D02*
X165406500Y-70382800D01*
X159150000Y-66200000D02*
X160201700Y-66200000D01*
X166438300Y-70118100D02*
X166173600Y-70382800D01*
X165625400Y-67640400D02*
X166438300Y-68453300D01*
X164800000Y-69776300D02*
X164800000Y-69300000D01*
X166438300Y-68453300D02*
X166438300Y-70118100D01*
X165406500Y-70382800D02*
X164800000Y-69776300D01*
X161276700Y-67275000D02*
X164998800Y-67275000D01*
%TO.N,SDA*%
X159150000Y-57200000D02*
X146349700Y-57200000D01*
X146349700Y-57200000D02*
X144260100Y-59289600D01*
X139195900Y-67113800D02*
X138332100Y-67113800D01*
X136600000Y-68845900D02*
X136600000Y-69300000D01*
X138332100Y-67113800D02*
X136600000Y-68845900D01*
%TO.N,SCL*%
X145153400Y-59639200D02*
X146092600Y-58700000D01*
X138228600Y-69300000D02*
X139841000Y-67687600D01*
X146092600Y-58700000D02*
X159150000Y-58700000D01*
X137600000Y-69300000D02*
X138228600Y-69300000D01*
%TO.N,BOOT*%
X145575000Y-71425000D02*
X144748300Y-71425000D01*
X141425000Y-71425000D02*
X140598300Y-71425000D01*
X144748300Y-71425000D02*
X141425000Y-71425000D01*
X140598300Y-67700000D02*
X140598300Y-71425000D01*
X141650000Y-67700000D02*
X140598300Y-67700000D01*
%TO.N,CFG1*%
X142000000Y-83000000D02*
X141764600Y-83000000D01*
X141764600Y-83000000D02*
X139104600Y-80340000D01*
X139104600Y-80091700D02*
X138752100Y-79739200D01*
X138503800Y-79739200D02*
X136764600Y-78000000D01*
X139104600Y-80340000D02*
X139104600Y-80091700D01*
X136764600Y-78000000D02*
X135637500Y-78000000D01*
X138752100Y-79739200D02*
X138503800Y-79739200D01*
%TO.N,BST_BUCK*%
X155175800Y-84786700D02*
X148211200Y-84786700D01*
X156962500Y-83000000D02*
X155175800Y-84786700D01*
X144249700Y-78162200D02*
X144137500Y-78050000D01*
X147670300Y-78162200D02*
X144249700Y-78162200D01*
X148211200Y-84786700D02*
X147809400Y-85188500D01*
%TO.N,SW_BUCK*%
X140468100Y-78601400D02*
X140866700Y-79000000D01*
X140866700Y-79000000D02*
X141862500Y-79000000D01*
X172000000Y-82551700D02*
X159485800Y-82551700D01*
X154341400Y-84271900D02*
X147023900Y-84271900D01*
X159485800Y-82551700D02*
X159037500Y-83000000D01*
X156347600Y-81970200D02*
X155117800Y-83200000D01*
X155117800Y-83495500D02*
X154341400Y-84271900D01*
X159037500Y-83000000D02*
X158007700Y-81970200D01*
X158007700Y-81970200D02*
X156347600Y-81970200D01*
X155117800Y-83200000D02*
X155117800Y-83495500D01*
X172000000Y-81075000D02*
X172000000Y-82551700D01*
%TO.N,VDD_CH*%
X137539200Y-76811100D02*
X136678400Y-75950300D01*
X158962500Y-79000000D02*
X158962500Y-79091200D01*
X156852000Y-81201700D02*
X141219800Y-81201700D01*
X158962500Y-79091200D02*
X156852000Y-81201700D01*
X141219800Y-81201700D02*
X139908000Y-79889900D01*
X139908000Y-79759100D02*
X137539200Y-77390300D01*
X137539200Y-77390300D02*
X137539200Y-76811100D01*
X139908000Y-79889900D02*
X139908000Y-79759100D01*
X131412200Y-75950300D02*
X130362500Y-77000000D01*
X136678400Y-75950300D02*
X131412200Y-75950300D01*
%TO.N,CFG2*%
X145601200Y-84398800D02*
X134122600Y-84398800D01*
X129544200Y-78000000D02*
X130362500Y-78000000D01*
X129007000Y-78537200D02*
X129544200Y-78000000D01*
X147000000Y-83000000D02*
X145601200Y-84398800D01*
%TO.N,FAN1_PWM*%
X142701700Y-60200000D02*
X142701700Y-60193100D01*
X142701700Y-60193100D02*
X142918500Y-59976300D01*
X141650000Y-60200000D02*
X142701700Y-60200000D01*
%TO.N,FAN1_Tacho*%
X141650000Y-61700000D02*
X142701700Y-61700000D01*
X142701700Y-61734500D02*
X142701700Y-61700000D01*
X142918500Y-61951300D02*
X142701700Y-61734500D01*
%TO.N,FAN2_PWM*%
X138185300Y-64580000D02*
X139565300Y-63200000D01*
X129716700Y-64580000D02*
X138185300Y-64580000D01*
X127900000Y-64580000D02*
X129716700Y-64580000D01*
X139565300Y-63200000D02*
X141650000Y-63200000D01*
%TO.N,FAN2_Tacho*%
X139995000Y-65303300D02*
X140598300Y-64700000D01*
X127900000Y-67120000D02*
X129716700Y-67120000D01*
X131533400Y-65303300D02*
X139995000Y-65303300D01*
X141650000Y-64700000D02*
X140598300Y-64700000D01*
X129716700Y-67120000D02*
X131533400Y-65303300D01*
%TO.N,LED*%
X154973300Y-69951700D02*
X157346600Y-69951700D01*
X159150000Y-69200000D02*
X158098300Y-69200000D01*
X153325000Y-71600000D02*
X154973300Y-69951700D01*
X157346600Y-69951700D02*
X158098300Y-69200000D01*
%TO.N,Net-(D2-K)*%
X151275000Y-71600000D02*
X149500000Y-71600000D01*
%TD*%
M02*
