%TF.GenerationSoftware,KiCad,Pcbnew,10.0.6*%
%TF.CreationDate,2026-09-25T09:05:12-07:00*%
%TF.ProjectId,luftctl-modified,6c756674-6374-46c2-9d6d-6f6469666965,rev?*%
%TF.SameCoordinates,Original*%
%TF.FileFunction,Drillmap*%
%TF.FilePolarity,Positive*%
%FSLAX45Y45*%
G04 Gerber Fmt 4.5, Leading zero omitted, Abs format (unit mm)*
G04 Created by KiCad (PCBNEW 10.0.6) date 2026-09-25 09:05:12*
%MOMM*%
%LPD*%
G01*
G04 APERTURE LIST*
%ADD10C,0.100000*%
%ADD11C,0.200000*%
%ADD12C,0.102000*%
G04 APERTURE END LIST*
D10*
X12560000Y-4900000D02*
X18220000Y-4900000D01*
X12560000Y-9200000D02*
X12560000Y-4900000D01*
X18220000Y-4900000D02*
X18220000Y-9200000D01*
X18220000Y-9200000D02*
X12560000Y-9200000D01*
D11*
D10*
X12885700Y-7838720D02*
X12915700Y-7868720D01*
X12915700Y-7838720D02*
X12885700Y-7868720D01*
X13193900Y-7301750D02*
X13223900Y-7331750D01*
X13223900Y-7301750D02*
X13193900Y-7331750D01*
X13279480Y-8147790D02*
X13309480Y-8177790D01*
X13309480Y-8147790D02*
X13279480Y-8177790D01*
X13361000Y-6875670D02*
X13391000Y-6905670D01*
X13391000Y-6875670D02*
X13361000Y-6905670D01*
X13397260Y-8424880D02*
X13427260Y-8454880D01*
X13427260Y-8424880D02*
X13397260Y-8454880D01*
X13411010Y-5936440D02*
X13441010Y-5966440D01*
X13441010Y-5936440D02*
X13411010Y-5966440D01*
X13525930Y-5121120D02*
X13555930Y-5151120D01*
X13555930Y-5121120D02*
X13525930Y-5151120D01*
X13535000Y-8270650D02*
X13565000Y-8300650D01*
X13565000Y-8270650D02*
X13535000Y-8300650D01*
X13551080Y-6302410D02*
X13581080Y-6332410D01*
X13581080Y-6302410D02*
X13551080Y-6332410D01*
X13581330Y-6594130D02*
X13611330Y-6624130D01*
X13611330Y-6594130D02*
X13581330Y-6624130D01*
X13702800Y-8143420D02*
X13732800Y-8173420D01*
X13732800Y-8143420D02*
X13702800Y-8173420D01*
X13711250Y-6125000D02*
X13741250Y-6155000D01*
X13741250Y-6125000D02*
X13711250Y-6155000D01*
X13743300Y-8026000D02*
X13773300Y-8056000D01*
X13773300Y-8026000D02*
X13743300Y-8056000D01*
X13750210Y-7592280D02*
X13780210Y-7622280D01*
X13780210Y-7592280D02*
X13750210Y-7622280D01*
X13802420Y-8146880D02*
X13832420Y-8176880D01*
X13832420Y-8146880D02*
X13802420Y-8176880D01*
X13809600Y-6232840D02*
X13839600Y-6262840D01*
X13839600Y-6232840D02*
X13809600Y-6262840D01*
X13835290Y-8019090D02*
X13865290Y-8049090D01*
X13865290Y-8019090D02*
X13835290Y-8049090D01*
X13844420Y-6317020D02*
X13874420Y-6347020D01*
X13874420Y-6317020D02*
X13844420Y-6347020D01*
X13880280Y-7647630D02*
X13910280Y-7677630D01*
X13910280Y-7647630D02*
X13880280Y-7677630D01*
X13880280Y-8854330D02*
X13910280Y-8884330D01*
X13910280Y-8854330D02*
X13880280Y-8884330D01*
X13885000Y-8285000D02*
X13915000Y-8315000D01*
X13915000Y-8285000D02*
X13885000Y-8315000D01*
X13904590Y-6696380D02*
X13934590Y-6726380D01*
X13934590Y-6696380D02*
X13904590Y-6726380D01*
X13969100Y-6753760D02*
X13999100Y-6783760D01*
X13999100Y-6753760D02*
X13969100Y-6783760D01*
X13980010Y-8870180D02*
X14010010Y-8900180D01*
X14010010Y-8870180D02*
X13980010Y-8900180D01*
X14000040Y-7354460D02*
X14030040Y-7384460D01*
X14030040Y-7354460D02*
X14000040Y-7384460D01*
X14031810Y-7845140D02*
X14061810Y-7875140D01*
X14061810Y-7845140D02*
X14031810Y-7875140D01*
X14254350Y-7366290D02*
X14284350Y-7396290D01*
X14284350Y-7366290D02*
X14254350Y-7396290D01*
X14276850Y-5982630D02*
X14306850Y-6012630D01*
X14306850Y-5982630D02*
X14276850Y-6012630D01*
X14276850Y-6180130D02*
X14306850Y-6210130D01*
X14306850Y-6180130D02*
X14276850Y-6210130D01*
X14276850Y-6854640D02*
X14306850Y-6884640D01*
X14306850Y-6854640D02*
X14276850Y-6884640D01*
X14409350Y-7366290D02*
X14439350Y-7396290D01*
X14439350Y-7366290D02*
X14409350Y-7396290D01*
X14411010Y-5913960D02*
X14441010Y-5943960D01*
X14441010Y-5913960D02*
X14411010Y-5943960D01*
X14496820Y-7454020D02*
X14526820Y-7484020D01*
X14526820Y-7454020D02*
X14496820Y-7484020D01*
X14500340Y-5948920D02*
X14530340Y-5978920D01*
X14530340Y-5948920D02*
X14500340Y-5978920D01*
X14531270Y-8220210D02*
X14561270Y-8250210D01*
X14561270Y-8220210D02*
X14531270Y-8250210D01*
X14687390Y-8412190D02*
X14717390Y-8442190D01*
X14717390Y-8412190D02*
X14687390Y-8442190D01*
X14715640Y-7021210D02*
X14745640Y-7051210D01*
X14745640Y-7021210D02*
X14715640Y-7051210D01*
X14752030Y-7801220D02*
X14782030Y-7831220D01*
X14782030Y-7801220D02*
X14752030Y-7831220D01*
X14765940Y-8503850D02*
X14795940Y-8533850D01*
X14795940Y-8503850D02*
X14765940Y-8533850D01*
X14776540Y-7645940D02*
X14806540Y-7675940D01*
X14806540Y-7645940D02*
X14776540Y-7675940D01*
X14777130Y-6240930D02*
X14807130Y-6270930D01*
X14807130Y-6240930D02*
X14777130Y-6270930D01*
X14885000Y-8285000D02*
X14915000Y-8315000D01*
X14915000Y-8285000D02*
X14885000Y-8315000D01*
X14991740Y-7975730D02*
X15021740Y-8005730D01*
X15021740Y-7975730D02*
X14991740Y-8005730D01*
X15024400Y-8263580D02*
X15054400Y-8293580D01*
X15054400Y-8263580D02*
X15024400Y-8293580D01*
X15130010Y-8525270D02*
X15160010Y-8555270D01*
X15160010Y-8525270D02*
X15130010Y-8555270D01*
X15217070Y-6685480D02*
X15247070Y-6715480D01*
X15247070Y-6685480D02*
X15217070Y-6715480D01*
X15429750Y-6240930D02*
X15459750Y-6270930D01*
X15459750Y-6240930D02*
X15429750Y-6270930D01*
X15505640Y-8194230D02*
X15535640Y-8224230D01*
X15535640Y-8194230D02*
X15505640Y-8224230D01*
X15637530Y-7366290D02*
X15667530Y-7396290D01*
X15667530Y-7366290D02*
X15637530Y-7396290D01*
X15673980Y-6094170D02*
X15703980Y-6124170D01*
X15703980Y-6094170D02*
X15673980Y-6124170D01*
X15699720Y-7928970D02*
X15729720Y-7958970D01*
X15729720Y-7928970D02*
X15699720Y-7958970D01*
X15725060Y-6854690D02*
X15755060Y-6884690D01*
X15755060Y-6854690D02*
X15725060Y-6884690D01*
X15796770Y-7366290D02*
X15826770Y-7396290D01*
X15826770Y-7366290D02*
X15796770Y-7396290D01*
X16025420Y-6598550D02*
X16055420Y-6628550D01*
X16055420Y-6598550D02*
X16025420Y-6628550D01*
X16070700Y-7737900D02*
X16100700Y-7767900D01*
X16100700Y-7737900D02*
X16070700Y-7767900D01*
X16178670Y-6854640D02*
X16208670Y-6884640D01*
X16208670Y-6854640D02*
X16178670Y-6884640D01*
X16246670Y-7366290D02*
X16276670Y-7396290D01*
X16276670Y-7366290D02*
X16246670Y-7396290D01*
X16281900Y-7451620D02*
X16311900Y-7481620D01*
X16311900Y-7451620D02*
X16281900Y-7481620D01*
X16284480Y-7928810D02*
X16314480Y-7958810D01*
X16314480Y-7928810D02*
X16284480Y-7958810D01*
X16290170Y-6292060D02*
X16320170Y-6322060D01*
X16320170Y-6292060D02*
X16290170Y-6322060D01*
X16298230Y-5671200D02*
X16328230Y-5701200D01*
X16328230Y-5671200D02*
X16298230Y-5701200D01*
X16382560Y-7102480D02*
X16412560Y-7132480D01*
X16412560Y-7102480D02*
X16382560Y-7132480D01*
X16473130Y-6062440D02*
X16503130Y-6092440D01*
X16503130Y-6062440D02*
X16473130Y-6092440D01*
X16869780Y-8772990D02*
X16899780Y-8802990D01*
X16899780Y-8772990D02*
X16869780Y-8802990D01*
X16887180Y-7366290D02*
X16917180Y-7396290D01*
X16917180Y-7366290D02*
X16887180Y-7396290D01*
X16938430Y-6518140D02*
X16968430Y-6548140D01*
X16968430Y-6518140D02*
X16938430Y-6548140D01*
X16985830Y-5084200D02*
X17015830Y-5114200D01*
X17015830Y-5084200D02*
X16985830Y-5114200D01*
X17045010Y-6597650D02*
X17075010Y-6627650D01*
X17075010Y-6597650D02*
X17045010Y-6627650D01*
X17143330Y-5678250D02*
X17173330Y-5708250D01*
X17173330Y-5678250D02*
X17143330Y-5708250D01*
X17175830Y-6489490D02*
X17205830Y-6519490D01*
X17205830Y-6489490D02*
X17175830Y-6519490D01*
X17251270Y-6884090D02*
X17281270Y-6914090D01*
X17281270Y-6884090D02*
X17251270Y-6914090D01*
X17276080Y-6631510D02*
X17306080Y-6661510D01*
X17306080Y-6631510D02*
X17276080Y-6661510D01*
X17301470Y-6734490D02*
X17331470Y-6764490D01*
X17331470Y-6734490D02*
X17301470Y-6764490D01*
X17370750Y-5195890D02*
X17400750Y-5225890D01*
X17400750Y-5195890D02*
X17370750Y-5225890D01*
X17382910Y-7032310D02*
X17412910Y-7062310D01*
X17412910Y-7032310D02*
X17382910Y-7062310D01*
X17402320Y-6428300D02*
X17432320Y-6458300D01*
X17432320Y-6428300D02*
X17402320Y-6458300D01*
X17662000Y-6313000D02*
G75*
G02*
X17602000Y-6313000I-30000J0D01*
G01*
X17602000Y-6313000D02*
G75*
G02*
X17662000Y-6313000I30000J0D01*
G01*
X17577000Y-6343000D02*
X17687000Y-6343000D01*
X17687000Y-6283000D02*
G75*
G02*
X17687000Y-6343000I0J-30000D01*
G01*
X17687000Y-6283000D02*
X17577000Y-6283000D01*
X17577000Y-6283000D02*
G75*
G03*
X17577000Y-6343000I0J-30000D01*
G01*
X17662000Y-7177000D02*
G75*
G02*
X17602000Y-7177000I-30000J0D01*
G01*
X17602000Y-7177000D02*
G75*
G02*
X17662000Y-7177000I30000J0D01*
G01*
X17577000Y-7207000D02*
X17687000Y-7207000D01*
X17687000Y-7147000D02*
G75*
G02*
X17687000Y-7207000I0J-30000D01*
G01*
X17687000Y-7147000D02*
X17577000Y-7147000D01*
X17577000Y-7147000D02*
G75*
G03*
X17577000Y-7207000I0J-30000D01*
G01*
X18080000Y-6313000D02*
G75*
G02*
X18020000Y-6313000I-30000J0D01*
G01*
X18020000Y-6313000D02*
G75*
G02*
X18080000Y-6313000I30000J0D01*
G01*
X18020000Y-6343000D02*
X18080000Y-6343000D01*
X18080000Y-6283000D02*
G75*
G02*
X18080000Y-6343000I0J-30000D01*
G01*
X18080000Y-6283000D02*
X18020000Y-6283000D01*
X18020000Y-6283000D02*
G75*
G03*
X18020000Y-6343000I0J-30000D01*
G01*
X18080000Y-7177000D02*
G75*
G02*
X18020000Y-7177000I-30000J0D01*
G01*
X18020000Y-7177000D02*
G75*
G02*
X18080000Y-7177000I30000J0D01*
G01*
X18020000Y-7207000D02*
X18080000Y-7207000D01*
X18080000Y-7147000D02*
G75*
G02*
X18080000Y-7207000I0J-30000D01*
G01*
X18080000Y-7147000D02*
X18020000Y-7147000D01*
X18020000Y-7147000D02*
G75*
G03*
X18020000Y-7207000I0J-30000D01*
G01*
X13280000Y-5125000D02*
X13280000Y-5195000D01*
X13245000Y-5160000D02*
X13315000Y-5160000D01*
X13280000Y-6745000D02*
X13280000Y-6815000D01*
X13245000Y-6780000D02*
X13315000Y-6780000D01*
X16200000Y-6585000D02*
X16200000Y-6655000D01*
X16165000Y-6620000D02*
X16235000Y-6620000D01*
X17513300Y-5146600D02*
X17513300Y-5216600D01*
X17478300Y-5181600D02*
X17548300Y-5181600D01*
X14535356Y-8835356D02*
X14535356Y-8764644D01*
X14464644Y-8764644D01*
X14464644Y-8835356D01*
X14535356Y-8835356D01*
X14789356Y-8835356D02*
X14789356Y-8764644D01*
X14718644Y-8764644D01*
X14718644Y-8835356D01*
X14789356Y-8835356D01*
X15043356Y-8835356D02*
X15043356Y-8764644D01*
X14972644Y-8764644D01*
X14972644Y-8835356D01*
X15043356Y-8835356D01*
X15297356Y-8835356D02*
X15297356Y-8764644D01*
X15226644Y-8764644D01*
X15226644Y-8835356D01*
X15297356Y-8835356D01*
X15551356Y-8835356D02*
X15551356Y-8764644D01*
X15480644Y-8764644D01*
X15480644Y-8835356D01*
X15551356Y-8835356D01*
X15805356Y-8835356D02*
X15805356Y-8764644D01*
X15734644Y-8764644D01*
X15734644Y-8835356D01*
X15805356Y-8835356D01*
X16059356Y-8835356D02*
X16059356Y-8764644D01*
X15988644Y-8764644D01*
X15988644Y-8835356D01*
X16059356Y-8835356D01*
X16313356Y-8835356D02*
X16313356Y-8764644D01*
X16242644Y-8764644D01*
X16242644Y-8835356D01*
X16313356Y-8835356D01*
D12*
X12790000Y-5319000D02*
X12841000Y-5268000D01*
X12790000Y-5217000D01*
X12739000Y-5268000D01*
X12790000Y-5319000D01*
X12790000Y-5573000D02*
X12841000Y-5522000D01*
X12790000Y-5471000D01*
X12739000Y-5522000D01*
X12790000Y-5573000D01*
X12790000Y-5827000D02*
X12841000Y-5776000D01*
X12790000Y-5725000D01*
X12739000Y-5776000D01*
X12790000Y-5827000D01*
X12790000Y-6081000D02*
X12841000Y-6030000D01*
X12790000Y-5979000D01*
X12739000Y-6030000D01*
X12790000Y-6081000D01*
X12790000Y-6509000D02*
X12841000Y-6458000D01*
X12790000Y-6407000D01*
X12739000Y-6458000D01*
X12790000Y-6509000D01*
X12790000Y-6763000D02*
X12841000Y-6712000D01*
X12790000Y-6661000D01*
X12739000Y-6712000D01*
X12790000Y-6763000D01*
X12790000Y-7017000D02*
X12841000Y-6966000D01*
X12790000Y-6915000D01*
X12739000Y-6966000D01*
X12790000Y-7017000D01*
X12790000Y-7271000D02*
X12841000Y-7220000D01*
X12790000Y-7169000D01*
X12739000Y-7220000D01*
X12790000Y-7271000D01*
D11*
X12815777Y-9516484D02*
X12815777Y-9316484D01*
X12815777Y-9316484D02*
X12863396Y-9316484D01*
X12863396Y-9316484D02*
X12891967Y-9326008D01*
X12891967Y-9326008D02*
X12911015Y-9345055D01*
X12911015Y-9345055D02*
X12920539Y-9364103D01*
X12920539Y-9364103D02*
X12930062Y-9402198D01*
X12930062Y-9402198D02*
X12930062Y-9430770D01*
X12930062Y-9430770D02*
X12920539Y-9468865D01*
X12920539Y-9468865D02*
X12911015Y-9487912D01*
X12911015Y-9487912D02*
X12891967Y-9506960D01*
X12891967Y-9506960D02*
X12863396Y-9516484D01*
X12863396Y-9516484D02*
X12815777Y-9516484D01*
X13015777Y-9516484D02*
X13015777Y-9383150D01*
X13015777Y-9421246D02*
X13025301Y-9402198D01*
X13025301Y-9402198D02*
X13034824Y-9392674D01*
X13034824Y-9392674D02*
X13053872Y-9383150D01*
X13053872Y-9383150D02*
X13072920Y-9383150D01*
X13139586Y-9516484D02*
X13139586Y-9383150D01*
X13139586Y-9316484D02*
X13130062Y-9326008D01*
X13130062Y-9326008D02*
X13139586Y-9335531D01*
X13139586Y-9335531D02*
X13149110Y-9326008D01*
X13149110Y-9326008D02*
X13139586Y-9316484D01*
X13139586Y-9316484D02*
X13139586Y-9335531D01*
X13263396Y-9516484D02*
X13244348Y-9506960D01*
X13244348Y-9506960D02*
X13234824Y-9487912D01*
X13234824Y-9487912D02*
X13234824Y-9316484D01*
X13368158Y-9516484D02*
X13349110Y-9506960D01*
X13349110Y-9506960D02*
X13339586Y-9487912D01*
X13339586Y-9487912D02*
X13339586Y-9316484D01*
X13596729Y-9516484D02*
X13596729Y-9316484D01*
X13596729Y-9316484D02*
X13663396Y-9459341D01*
X13663396Y-9459341D02*
X13730062Y-9316484D01*
X13730062Y-9316484D02*
X13730062Y-9516484D01*
X13911015Y-9516484D02*
X13911015Y-9411722D01*
X13911015Y-9411722D02*
X13901491Y-9392674D01*
X13901491Y-9392674D02*
X13882443Y-9383150D01*
X13882443Y-9383150D02*
X13844348Y-9383150D01*
X13844348Y-9383150D02*
X13825301Y-9392674D01*
X13911015Y-9506960D02*
X13891967Y-9516484D01*
X13891967Y-9516484D02*
X13844348Y-9516484D01*
X13844348Y-9516484D02*
X13825301Y-9506960D01*
X13825301Y-9506960D02*
X13815777Y-9487912D01*
X13815777Y-9487912D02*
X13815777Y-9468865D01*
X13815777Y-9468865D02*
X13825301Y-9449817D01*
X13825301Y-9449817D02*
X13844348Y-9440293D01*
X13844348Y-9440293D02*
X13891967Y-9440293D01*
X13891967Y-9440293D02*
X13911015Y-9430770D01*
X14006253Y-9383150D02*
X14006253Y-9583150D01*
X14006253Y-9392674D02*
X14025301Y-9383150D01*
X14025301Y-9383150D02*
X14063396Y-9383150D01*
X14063396Y-9383150D02*
X14082443Y-9392674D01*
X14082443Y-9392674D02*
X14091967Y-9402198D01*
X14091967Y-9402198D02*
X14101491Y-9421246D01*
X14101491Y-9421246D02*
X14101491Y-9478389D01*
X14101491Y-9478389D02*
X14091967Y-9497436D01*
X14091967Y-9497436D02*
X14082443Y-9506960D01*
X14082443Y-9506960D02*
X14063396Y-9516484D01*
X14063396Y-9516484D02*
X14025301Y-9516484D01*
X14025301Y-9516484D02*
X14006253Y-9506960D01*
X14187205Y-9497436D02*
X14196729Y-9506960D01*
X14196729Y-9506960D02*
X14187205Y-9516484D01*
X14187205Y-9516484D02*
X14177682Y-9506960D01*
X14177682Y-9506960D02*
X14187205Y-9497436D01*
X14187205Y-9497436D02*
X14187205Y-9516484D01*
X14187205Y-9392674D02*
X14196729Y-9402198D01*
X14196729Y-9402198D02*
X14187205Y-9411722D01*
X14187205Y-9411722D02*
X14177682Y-9402198D01*
X14177682Y-9402198D02*
X14187205Y-9392674D01*
X14187205Y-9392674D02*
X14187205Y-9411722D01*
D10*
X12525000Y-9830000D02*
X12555000Y-9860000D01*
X12555000Y-9830000D02*
X12525000Y-9860000D01*
D11*
X12853872Y-9736484D02*
X12872920Y-9736484D01*
X12872920Y-9736484D02*
X12891967Y-9746008D01*
X12891967Y-9746008D02*
X12901491Y-9755531D01*
X12901491Y-9755531D02*
X12911015Y-9774579D01*
X12911015Y-9774579D02*
X12920539Y-9812674D01*
X12920539Y-9812674D02*
X12920539Y-9860293D01*
X12920539Y-9860293D02*
X12911015Y-9898389D01*
X12911015Y-9898389D02*
X12901491Y-9917436D01*
X12901491Y-9917436D02*
X12891967Y-9926960D01*
X12891967Y-9926960D02*
X12872920Y-9936484D01*
X12872920Y-9936484D02*
X12853872Y-9936484D01*
X12853872Y-9936484D02*
X12834824Y-9926960D01*
X12834824Y-9926960D02*
X12825301Y-9917436D01*
X12825301Y-9917436D02*
X12815777Y-9898389D01*
X12815777Y-9898389D02*
X12806253Y-9860293D01*
X12806253Y-9860293D02*
X12806253Y-9812674D01*
X12806253Y-9812674D02*
X12815777Y-9774579D01*
X12815777Y-9774579D02*
X12825301Y-9755531D01*
X12825301Y-9755531D02*
X12834824Y-9746008D01*
X12834824Y-9746008D02*
X12853872Y-9736484D01*
X13006253Y-9917436D02*
X13015777Y-9926960D01*
X13015777Y-9926960D02*
X13006253Y-9936484D01*
X13006253Y-9936484D02*
X12996729Y-9926960D01*
X12996729Y-9926960D02*
X13006253Y-9917436D01*
X13006253Y-9917436D02*
X13006253Y-9936484D01*
X13082443Y-9736484D02*
X13206253Y-9736484D01*
X13206253Y-9736484D02*
X13139586Y-9812674D01*
X13139586Y-9812674D02*
X13168158Y-9812674D01*
X13168158Y-9812674D02*
X13187205Y-9822198D01*
X13187205Y-9822198D02*
X13196729Y-9831722D01*
X13196729Y-9831722D02*
X13206253Y-9850770D01*
X13206253Y-9850770D02*
X13206253Y-9898389D01*
X13206253Y-9898389D02*
X13196729Y-9917436D01*
X13196729Y-9917436D02*
X13187205Y-9926960D01*
X13187205Y-9926960D02*
X13168158Y-9936484D01*
X13168158Y-9936484D02*
X13111015Y-9936484D01*
X13111015Y-9936484D02*
X13091967Y-9926960D01*
X13091967Y-9926960D02*
X13082443Y-9917436D01*
X13330062Y-9736484D02*
X13349110Y-9736484D01*
X13349110Y-9736484D02*
X13368158Y-9746008D01*
X13368158Y-9746008D02*
X13377682Y-9755531D01*
X13377682Y-9755531D02*
X13387205Y-9774579D01*
X13387205Y-9774579D02*
X13396729Y-9812674D01*
X13396729Y-9812674D02*
X13396729Y-9860293D01*
X13396729Y-9860293D02*
X13387205Y-9898389D01*
X13387205Y-9898389D02*
X13377682Y-9917436D01*
X13377682Y-9917436D02*
X13368158Y-9926960D01*
X13368158Y-9926960D02*
X13349110Y-9936484D01*
X13349110Y-9936484D02*
X13330062Y-9936484D01*
X13330062Y-9936484D02*
X13311015Y-9926960D01*
X13311015Y-9926960D02*
X13301491Y-9917436D01*
X13301491Y-9917436D02*
X13291967Y-9898389D01*
X13291967Y-9898389D02*
X13282443Y-9860293D01*
X13282443Y-9860293D02*
X13282443Y-9812674D01*
X13282443Y-9812674D02*
X13291967Y-9774579D01*
X13291967Y-9774579D02*
X13301491Y-9755531D01*
X13301491Y-9755531D02*
X13311015Y-9746008D01*
X13311015Y-9746008D02*
X13330062Y-9736484D01*
X13520539Y-9736484D02*
X13539586Y-9736484D01*
X13539586Y-9736484D02*
X13558634Y-9746008D01*
X13558634Y-9746008D02*
X13568158Y-9755531D01*
X13568158Y-9755531D02*
X13577682Y-9774579D01*
X13577682Y-9774579D02*
X13587205Y-9812674D01*
X13587205Y-9812674D02*
X13587205Y-9860293D01*
X13587205Y-9860293D02*
X13577682Y-9898389D01*
X13577682Y-9898389D02*
X13568158Y-9917436D01*
X13568158Y-9917436D02*
X13558634Y-9926960D01*
X13558634Y-9926960D02*
X13539586Y-9936484D01*
X13539586Y-9936484D02*
X13520539Y-9936484D01*
X13520539Y-9936484D02*
X13501491Y-9926960D01*
X13501491Y-9926960D02*
X13491967Y-9917436D01*
X13491967Y-9917436D02*
X13482443Y-9898389D01*
X13482443Y-9898389D02*
X13472920Y-9860293D01*
X13472920Y-9860293D02*
X13472920Y-9812674D01*
X13472920Y-9812674D02*
X13482443Y-9774579D01*
X13482443Y-9774579D02*
X13491967Y-9755531D01*
X13491967Y-9755531D02*
X13501491Y-9746008D01*
X13501491Y-9746008D02*
X13520539Y-9736484D01*
X13672920Y-9936484D02*
X13672920Y-9803150D01*
X13672920Y-9822198D02*
X13682443Y-9812674D01*
X13682443Y-9812674D02*
X13701491Y-9803150D01*
X13701491Y-9803150D02*
X13730063Y-9803150D01*
X13730063Y-9803150D02*
X13749110Y-9812674D01*
X13749110Y-9812674D02*
X13758634Y-9831722D01*
X13758634Y-9831722D02*
X13758634Y-9936484D01*
X13758634Y-9831722D02*
X13768158Y-9812674D01*
X13768158Y-9812674D02*
X13787205Y-9803150D01*
X13787205Y-9803150D02*
X13815777Y-9803150D01*
X13815777Y-9803150D02*
X13834824Y-9812674D01*
X13834824Y-9812674D02*
X13844348Y-9831722D01*
X13844348Y-9831722D02*
X13844348Y-9936484D01*
X13939586Y-9936484D02*
X13939586Y-9803150D01*
X13939586Y-9822198D02*
X13949110Y-9812674D01*
X13949110Y-9812674D02*
X13968158Y-9803150D01*
X13968158Y-9803150D02*
X13996729Y-9803150D01*
X13996729Y-9803150D02*
X14015777Y-9812674D01*
X14015777Y-9812674D02*
X14025301Y-9831722D01*
X14025301Y-9831722D02*
X14025301Y-9936484D01*
X14025301Y-9831722D02*
X14034824Y-9812674D01*
X14034824Y-9812674D02*
X14053872Y-9803150D01*
X14053872Y-9803150D02*
X14082443Y-9803150D01*
X14082443Y-9803150D02*
X14101491Y-9812674D01*
X14101491Y-9812674D02*
X14111015Y-9831722D01*
X14111015Y-9831722D02*
X14111015Y-9936484D01*
X14501491Y-9726960D02*
X14330063Y-9984103D01*
X14758634Y-9736484D02*
X14777682Y-9736484D01*
X14777682Y-9736484D02*
X14796729Y-9746008D01*
X14796729Y-9746008D02*
X14806253Y-9755531D01*
X14806253Y-9755531D02*
X14815777Y-9774579D01*
X14815777Y-9774579D02*
X14825301Y-9812674D01*
X14825301Y-9812674D02*
X14825301Y-9860293D01*
X14825301Y-9860293D02*
X14815777Y-9898389D01*
X14815777Y-9898389D02*
X14806253Y-9917436D01*
X14806253Y-9917436D02*
X14796729Y-9926960D01*
X14796729Y-9926960D02*
X14777682Y-9936484D01*
X14777682Y-9936484D02*
X14758634Y-9936484D01*
X14758634Y-9936484D02*
X14739586Y-9926960D01*
X14739586Y-9926960D02*
X14730063Y-9917436D01*
X14730063Y-9917436D02*
X14720539Y-9898389D01*
X14720539Y-9898389D02*
X14711015Y-9860293D01*
X14711015Y-9860293D02*
X14711015Y-9812674D01*
X14711015Y-9812674D02*
X14720539Y-9774579D01*
X14720539Y-9774579D02*
X14730063Y-9755531D01*
X14730063Y-9755531D02*
X14739586Y-9746008D01*
X14739586Y-9746008D02*
X14758634Y-9736484D01*
X14911015Y-9917436D02*
X14920539Y-9926960D01*
X14920539Y-9926960D02*
X14911015Y-9936484D01*
X14911015Y-9936484D02*
X14901491Y-9926960D01*
X14901491Y-9926960D02*
X14911015Y-9917436D01*
X14911015Y-9917436D02*
X14911015Y-9936484D01*
X15044348Y-9736484D02*
X15063396Y-9736484D01*
X15063396Y-9736484D02*
X15082444Y-9746008D01*
X15082444Y-9746008D02*
X15091967Y-9755531D01*
X15091967Y-9755531D02*
X15101491Y-9774579D01*
X15101491Y-9774579D02*
X15111015Y-9812674D01*
X15111015Y-9812674D02*
X15111015Y-9860293D01*
X15111015Y-9860293D02*
X15101491Y-9898389D01*
X15101491Y-9898389D02*
X15091967Y-9917436D01*
X15091967Y-9917436D02*
X15082444Y-9926960D01*
X15082444Y-9926960D02*
X15063396Y-9936484D01*
X15063396Y-9936484D02*
X15044348Y-9936484D01*
X15044348Y-9936484D02*
X15025301Y-9926960D01*
X15025301Y-9926960D02*
X15015777Y-9917436D01*
X15015777Y-9917436D02*
X15006253Y-9898389D01*
X15006253Y-9898389D02*
X14996729Y-9860293D01*
X14996729Y-9860293D02*
X14996729Y-9812674D01*
X14996729Y-9812674D02*
X15006253Y-9774579D01*
X15006253Y-9774579D02*
X15015777Y-9755531D01*
X15015777Y-9755531D02*
X15025301Y-9746008D01*
X15025301Y-9746008D02*
X15044348Y-9736484D01*
X15301491Y-9936484D02*
X15187206Y-9936484D01*
X15244348Y-9936484D02*
X15244348Y-9736484D01*
X15244348Y-9736484D02*
X15225301Y-9765055D01*
X15225301Y-9765055D02*
X15206253Y-9784103D01*
X15206253Y-9784103D02*
X15187206Y-9793627D01*
X15491967Y-9936484D02*
X15377682Y-9936484D01*
X15434825Y-9936484D02*
X15434825Y-9736484D01*
X15434825Y-9736484D02*
X15415777Y-9765055D01*
X15415777Y-9765055D02*
X15396729Y-9784103D01*
X15396729Y-9784103D02*
X15377682Y-9793627D01*
X15606253Y-9822198D02*
X15587206Y-9812674D01*
X15587206Y-9812674D02*
X15577682Y-9803150D01*
X15577682Y-9803150D02*
X15568158Y-9784103D01*
X15568158Y-9784103D02*
X15568158Y-9774579D01*
X15568158Y-9774579D02*
X15577682Y-9755531D01*
X15577682Y-9755531D02*
X15587206Y-9746008D01*
X15587206Y-9746008D02*
X15606253Y-9736484D01*
X15606253Y-9736484D02*
X15644348Y-9736484D01*
X15644348Y-9736484D02*
X15663396Y-9746008D01*
X15663396Y-9746008D02*
X15672920Y-9755531D01*
X15672920Y-9755531D02*
X15682444Y-9774579D01*
X15682444Y-9774579D02*
X15682444Y-9784103D01*
X15682444Y-9784103D02*
X15672920Y-9803150D01*
X15672920Y-9803150D02*
X15663396Y-9812674D01*
X15663396Y-9812674D02*
X15644348Y-9822198D01*
X15644348Y-9822198D02*
X15606253Y-9822198D01*
X15606253Y-9822198D02*
X15587206Y-9831722D01*
X15587206Y-9831722D02*
X15577682Y-9841246D01*
X15577682Y-9841246D02*
X15568158Y-9860293D01*
X15568158Y-9860293D02*
X15568158Y-9898389D01*
X15568158Y-9898389D02*
X15577682Y-9917436D01*
X15577682Y-9917436D02*
X15587206Y-9926960D01*
X15587206Y-9926960D02*
X15606253Y-9936484D01*
X15606253Y-9936484D02*
X15644348Y-9936484D01*
X15644348Y-9936484D02*
X15663396Y-9926960D01*
X15663396Y-9926960D02*
X15672920Y-9917436D01*
X15672920Y-9917436D02*
X15682444Y-9898389D01*
X15682444Y-9898389D02*
X15682444Y-9860293D01*
X15682444Y-9860293D02*
X15672920Y-9841246D01*
X15672920Y-9841246D02*
X15663396Y-9831722D01*
X15663396Y-9831722D02*
X15644348Y-9822198D01*
X15758634Y-9736484D02*
X15758634Y-9774579D01*
X15834825Y-9736484D02*
X15834825Y-9774579D01*
X16130063Y-10012674D02*
X16120539Y-10003150D01*
X16120539Y-10003150D02*
X16101491Y-9974579D01*
X16101491Y-9974579D02*
X16091968Y-9955531D01*
X16091968Y-9955531D02*
X16082444Y-9926960D01*
X16082444Y-9926960D02*
X16072920Y-9879341D01*
X16072920Y-9879341D02*
X16072920Y-9841246D01*
X16072920Y-9841246D02*
X16082444Y-9793627D01*
X16082444Y-9793627D02*
X16091968Y-9765055D01*
X16091968Y-9765055D02*
X16101491Y-9746008D01*
X16101491Y-9746008D02*
X16120539Y-9717436D01*
X16120539Y-9717436D02*
X16130063Y-9707912D01*
X16187206Y-9736484D02*
X16320539Y-9736484D01*
X16320539Y-9736484D02*
X16234825Y-9936484D01*
X16482444Y-9736484D02*
X16444348Y-9736484D01*
X16444348Y-9736484D02*
X16425301Y-9746008D01*
X16425301Y-9746008D02*
X16415777Y-9755531D01*
X16415777Y-9755531D02*
X16396729Y-9784103D01*
X16396729Y-9784103D02*
X16387206Y-9822198D01*
X16387206Y-9822198D02*
X16387206Y-9898389D01*
X16387206Y-9898389D02*
X16396729Y-9917436D01*
X16396729Y-9917436D02*
X16406253Y-9926960D01*
X16406253Y-9926960D02*
X16425301Y-9936484D01*
X16425301Y-9936484D02*
X16463396Y-9936484D01*
X16463396Y-9936484D02*
X16482444Y-9926960D01*
X16482444Y-9926960D02*
X16491968Y-9917436D01*
X16491968Y-9917436D02*
X16501491Y-9898389D01*
X16501491Y-9898389D02*
X16501491Y-9850770D01*
X16501491Y-9850770D02*
X16491968Y-9831722D01*
X16491968Y-9831722D02*
X16482444Y-9822198D01*
X16482444Y-9822198D02*
X16463396Y-9812674D01*
X16463396Y-9812674D02*
X16425301Y-9812674D01*
X16425301Y-9812674D02*
X16406253Y-9822198D01*
X16406253Y-9822198D02*
X16396729Y-9831722D01*
X16396729Y-9831722D02*
X16387206Y-9850770D01*
X16739587Y-9936484D02*
X16739587Y-9736484D01*
X16825301Y-9936484D02*
X16825301Y-9831722D01*
X16825301Y-9831722D02*
X16815777Y-9812674D01*
X16815777Y-9812674D02*
X16796730Y-9803150D01*
X16796730Y-9803150D02*
X16768158Y-9803150D01*
X16768158Y-9803150D02*
X16749110Y-9812674D01*
X16749110Y-9812674D02*
X16739587Y-9822198D01*
X16949111Y-9936484D02*
X16930063Y-9926960D01*
X16930063Y-9926960D02*
X16920539Y-9917436D01*
X16920539Y-9917436D02*
X16911015Y-9898389D01*
X16911015Y-9898389D02*
X16911015Y-9841246D01*
X16911015Y-9841246D02*
X16920539Y-9822198D01*
X16920539Y-9822198D02*
X16930063Y-9812674D01*
X16930063Y-9812674D02*
X16949111Y-9803150D01*
X16949111Y-9803150D02*
X16977682Y-9803150D01*
X16977682Y-9803150D02*
X16996730Y-9812674D01*
X16996730Y-9812674D02*
X17006253Y-9822198D01*
X17006253Y-9822198D02*
X17015777Y-9841246D01*
X17015777Y-9841246D02*
X17015777Y-9898389D01*
X17015777Y-9898389D02*
X17006253Y-9917436D01*
X17006253Y-9917436D02*
X16996730Y-9926960D01*
X16996730Y-9926960D02*
X16977682Y-9936484D01*
X16977682Y-9936484D02*
X16949111Y-9936484D01*
X17130063Y-9936484D02*
X17111015Y-9926960D01*
X17111015Y-9926960D02*
X17101492Y-9907912D01*
X17101492Y-9907912D02*
X17101492Y-9736484D01*
X17282444Y-9926960D02*
X17263396Y-9936484D01*
X17263396Y-9936484D02*
X17225301Y-9936484D01*
X17225301Y-9936484D02*
X17206253Y-9926960D01*
X17206253Y-9926960D02*
X17196730Y-9907912D01*
X17196730Y-9907912D02*
X17196730Y-9831722D01*
X17196730Y-9831722D02*
X17206253Y-9812674D01*
X17206253Y-9812674D02*
X17225301Y-9803150D01*
X17225301Y-9803150D02*
X17263396Y-9803150D01*
X17263396Y-9803150D02*
X17282444Y-9812674D01*
X17282444Y-9812674D02*
X17291968Y-9831722D01*
X17291968Y-9831722D02*
X17291968Y-9850770D01*
X17291968Y-9850770D02*
X17196730Y-9869817D01*
X17368158Y-9926960D02*
X17387206Y-9936484D01*
X17387206Y-9936484D02*
X17425301Y-9936484D01*
X17425301Y-9936484D02*
X17444349Y-9926960D01*
X17444349Y-9926960D02*
X17453873Y-9907912D01*
X17453873Y-9907912D02*
X17453873Y-9898389D01*
X17453873Y-9898389D02*
X17444349Y-9879341D01*
X17444349Y-9879341D02*
X17425301Y-9869817D01*
X17425301Y-9869817D02*
X17396730Y-9869817D01*
X17396730Y-9869817D02*
X17377682Y-9860293D01*
X17377682Y-9860293D02*
X17368158Y-9841246D01*
X17368158Y-9841246D02*
X17368158Y-9831722D01*
X17368158Y-9831722D02*
X17377682Y-9812674D01*
X17377682Y-9812674D02*
X17396730Y-9803150D01*
X17396730Y-9803150D02*
X17425301Y-9803150D01*
X17425301Y-9803150D02*
X17444349Y-9812674D01*
X17520539Y-10012674D02*
X17530063Y-10003150D01*
X17530063Y-10003150D02*
X17549111Y-9974579D01*
X17549111Y-9974579D02*
X17558634Y-9955531D01*
X17558634Y-9955531D02*
X17568158Y-9926960D01*
X17568158Y-9926960D02*
X17577682Y-9879341D01*
X17577682Y-9879341D02*
X17577682Y-9841246D01*
X17577682Y-9841246D02*
X17568158Y-9793627D01*
X17568158Y-9793627D02*
X17558634Y-9765055D01*
X17558634Y-9765055D02*
X17549111Y-9746008D01*
X17549111Y-9746008D02*
X17530063Y-9717436D01*
X17530063Y-9717436D02*
X17520539Y-9707912D01*
D10*
X12555000Y-10109000D02*
G75*
G02*
X12495000Y-10109000I-30000J0D01*
G01*
X12495000Y-10109000D02*
G75*
G02*
X12555000Y-10109000I30000J0D01*
G01*
D11*
X12853872Y-10000484D02*
X12872920Y-10000484D01*
X12872920Y-10000484D02*
X12891967Y-10010008D01*
X12891967Y-10010008D02*
X12901491Y-10019531D01*
X12901491Y-10019531D02*
X12911015Y-10038579D01*
X12911015Y-10038579D02*
X12920539Y-10076674D01*
X12920539Y-10076674D02*
X12920539Y-10124293D01*
X12920539Y-10124293D02*
X12911015Y-10162389D01*
X12911015Y-10162389D02*
X12901491Y-10181436D01*
X12901491Y-10181436D02*
X12891967Y-10190960D01*
X12891967Y-10190960D02*
X12872920Y-10200484D01*
X12872920Y-10200484D02*
X12853872Y-10200484D01*
X12853872Y-10200484D02*
X12834824Y-10190960D01*
X12834824Y-10190960D02*
X12825301Y-10181436D01*
X12825301Y-10181436D02*
X12815777Y-10162389D01*
X12815777Y-10162389D02*
X12806253Y-10124293D01*
X12806253Y-10124293D02*
X12806253Y-10076674D01*
X12806253Y-10076674D02*
X12815777Y-10038579D01*
X12815777Y-10038579D02*
X12825301Y-10019531D01*
X12825301Y-10019531D02*
X12834824Y-10010008D01*
X12834824Y-10010008D02*
X12853872Y-10000484D01*
X13006253Y-10181436D02*
X13015777Y-10190960D01*
X13015777Y-10190960D02*
X13006253Y-10200484D01*
X13006253Y-10200484D02*
X12996729Y-10190960D01*
X12996729Y-10190960D02*
X13006253Y-10181436D01*
X13006253Y-10181436D02*
X13006253Y-10200484D01*
X13187205Y-10000484D02*
X13149110Y-10000484D01*
X13149110Y-10000484D02*
X13130062Y-10010008D01*
X13130062Y-10010008D02*
X13120539Y-10019531D01*
X13120539Y-10019531D02*
X13101491Y-10048103D01*
X13101491Y-10048103D02*
X13091967Y-10086198D01*
X13091967Y-10086198D02*
X13091967Y-10162389D01*
X13091967Y-10162389D02*
X13101491Y-10181436D01*
X13101491Y-10181436D02*
X13111015Y-10190960D01*
X13111015Y-10190960D02*
X13130062Y-10200484D01*
X13130062Y-10200484D02*
X13168158Y-10200484D01*
X13168158Y-10200484D02*
X13187205Y-10190960D01*
X13187205Y-10190960D02*
X13196729Y-10181436D01*
X13196729Y-10181436D02*
X13206253Y-10162389D01*
X13206253Y-10162389D02*
X13206253Y-10114770D01*
X13206253Y-10114770D02*
X13196729Y-10095722D01*
X13196729Y-10095722D02*
X13187205Y-10086198D01*
X13187205Y-10086198D02*
X13168158Y-10076674D01*
X13168158Y-10076674D02*
X13130062Y-10076674D01*
X13130062Y-10076674D02*
X13111015Y-10086198D01*
X13111015Y-10086198D02*
X13101491Y-10095722D01*
X13101491Y-10095722D02*
X13091967Y-10114770D01*
X13330062Y-10000484D02*
X13349110Y-10000484D01*
X13349110Y-10000484D02*
X13368158Y-10010008D01*
X13368158Y-10010008D02*
X13377682Y-10019531D01*
X13377682Y-10019531D02*
X13387205Y-10038579D01*
X13387205Y-10038579D02*
X13396729Y-10076674D01*
X13396729Y-10076674D02*
X13396729Y-10124293D01*
X13396729Y-10124293D02*
X13387205Y-10162389D01*
X13387205Y-10162389D02*
X13377682Y-10181436D01*
X13377682Y-10181436D02*
X13368158Y-10190960D01*
X13368158Y-10190960D02*
X13349110Y-10200484D01*
X13349110Y-10200484D02*
X13330062Y-10200484D01*
X13330062Y-10200484D02*
X13311015Y-10190960D01*
X13311015Y-10190960D02*
X13301491Y-10181436D01*
X13301491Y-10181436D02*
X13291967Y-10162389D01*
X13291967Y-10162389D02*
X13282443Y-10124293D01*
X13282443Y-10124293D02*
X13282443Y-10076674D01*
X13282443Y-10076674D02*
X13291967Y-10038579D01*
X13291967Y-10038579D02*
X13301491Y-10019531D01*
X13301491Y-10019531D02*
X13311015Y-10010008D01*
X13311015Y-10010008D02*
X13330062Y-10000484D01*
X13520539Y-10000484D02*
X13539586Y-10000484D01*
X13539586Y-10000484D02*
X13558634Y-10010008D01*
X13558634Y-10010008D02*
X13568158Y-10019531D01*
X13568158Y-10019531D02*
X13577682Y-10038579D01*
X13577682Y-10038579D02*
X13587205Y-10076674D01*
X13587205Y-10076674D02*
X13587205Y-10124293D01*
X13587205Y-10124293D02*
X13577682Y-10162389D01*
X13577682Y-10162389D02*
X13568158Y-10181436D01*
X13568158Y-10181436D02*
X13558634Y-10190960D01*
X13558634Y-10190960D02*
X13539586Y-10200484D01*
X13539586Y-10200484D02*
X13520539Y-10200484D01*
X13520539Y-10200484D02*
X13501491Y-10190960D01*
X13501491Y-10190960D02*
X13491967Y-10181436D01*
X13491967Y-10181436D02*
X13482443Y-10162389D01*
X13482443Y-10162389D02*
X13472920Y-10124293D01*
X13472920Y-10124293D02*
X13472920Y-10076674D01*
X13472920Y-10076674D02*
X13482443Y-10038579D01*
X13482443Y-10038579D02*
X13491967Y-10019531D01*
X13491967Y-10019531D02*
X13501491Y-10010008D01*
X13501491Y-10010008D02*
X13520539Y-10000484D01*
X13672920Y-10200484D02*
X13672920Y-10067150D01*
X13672920Y-10086198D02*
X13682443Y-10076674D01*
X13682443Y-10076674D02*
X13701491Y-10067150D01*
X13701491Y-10067150D02*
X13730063Y-10067150D01*
X13730063Y-10067150D02*
X13749110Y-10076674D01*
X13749110Y-10076674D02*
X13758634Y-10095722D01*
X13758634Y-10095722D02*
X13758634Y-10200484D01*
X13758634Y-10095722D02*
X13768158Y-10076674D01*
X13768158Y-10076674D02*
X13787205Y-10067150D01*
X13787205Y-10067150D02*
X13815777Y-10067150D01*
X13815777Y-10067150D02*
X13834824Y-10076674D01*
X13834824Y-10076674D02*
X13844348Y-10095722D01*
X13844348Y-10095722D02*
X13844348Y-10200484D01*
X13939586Y-10200484D02*
X13939586Y-10067150D01*
X13939586Y-10086198D02*
X13949110Y-10076674D01*
X13949110Y-10076674D02*
X13968158Y-10067150D01*
X13968158Y-10067150D02*
X13996729Y-10067150D01*
X13996729Y-10067150D02*
X14015777Y-10076674D01*
X14015777Y-10076674D02*
X14025301Y-10095722D01*
X14025301Y-10095722D02*
X14025301Y-10200484D01*
X14025301Y-10095722D02*
X14034824Y-10076674D01*
X14034824Y-10076674D02*
X14053872Y-10067150D01*
X14053872Y-10067150D02*
X14082443Y-10067150D01*
X14082443Y-10067150D02*
X14101491Y-10076674D01*
X14101491Y-10076674D02*
X14111015Y-10095722D01*
X14111015Y-10095722D02*
X14111015Y-10200484D01*
X14501491Y-9990960D02*
X14330063Y-10248103D01*
X14758634Y-10000484D02*
X14777682Y-10000484D01*
X14777682Y-10000484D02*
X14796729Y-10010008D01*
X14796729Y-10010008D02*
X14806253Y-10019531D01*
X14806253Y-10019531D02*
X14815777Y-10038579D01*
X14815777Y-10038579D02*
X14825301Y-10076674D01*
X14825301Y-10076674D02*
X14825301Y-10124293D01*
X14825301Y-10124293D02*
X14815777Y-10162389D01*
X14815777Y-10162389D02*
X14806253Y-10181436D01*
X14806253Y-10181436D02*
X14796729Y-10190960D01*
X14796729Y-10190960D02*
X14777682Y-10200484D01*
X14777682Y-10200484D02*
X14758634Y-10200484D01*
X14758634Y-10200484D02*
X14739586Y-10190960D01*
X14739586Y-10190960D02*
X14730063Y-10181436D01*
X14730063Y-10181436D02*
X14720539Y-10162389D01*
X14720539Y-10162389D02*
X14711015Y-10124293D01*
X14711015Y-10124293D02*
X14711015Y-10076674D01*
X14711015Y-10076674D02*
X14720539Y-10038579D01*
X14720539Y-10038579D02*
X14730063Y-10019531D01*
X14730063Y-10019531D02*
X14739586Y-10010008D01*
X14739586Y-10010008D02*
X14758634Y-10000484D01*
X14911015Y-10181436D02*
X14920539Y-10190960D01*
X14920539Y-10190960D02*
X14911015Y-10200484D01*
X14911015Y-10200484D02*
X14901491Y-10190960D01*
X14901491Y-10190960D02*
X14911015Y-10181436D01*
X14911015Y-10181436D02*
X14911015Y-10200484D01*
X15044348Y-10000484D02*
X15063396Y-10000484D01*
X15063396Y-10000484D02*
X15082444Y-10010008D01*
X15082444Y-10010008D02*
X15091967Y-10019531D01*
X15091967Y-10019531D02*
X15101491Y-10038579D01*
X15101491Y-10038579D02*
X15111015Y-10076674D01*
X15111015Y-10076674D02*
X15111015Y-10124293D01*
X15111015Y-10124293D02*
X15101491Y-10162389D01*
X15101491Y-10162389D02*
X15091967Y-10181436D01*
X15091967Y-10181436D02*
X15082444Y-10190960D01*
X15082444Y-10190960D02*
X15063396Y-10200484D01*
X15063396Y-10200484D02*
X15044348Y-10200484D01*
X15044348Y-10200484D02*
X15025301Y-10190960D01*
X15025301Y-10190960D02*
X15015777Y-10181436D01*
X15015777Y-10181436D02*
X15006253Y-10162389D01*
X15006253Y-10162389D02*
X14996729Y-10124293D01*
X14996729Y-10124293D02*
X14996729Y-10076674D01*
X14996729Y-10076674D02*
X15006253Y-10038579D01*
X15006253Y-10038579D02*
X15015777Y-10019531D01*
X15015777Y-10019531D02*
X15025301Y-10010008D01*
X15025301Y-10010008D02*
X15044348Y-10000484D01*
X15187206Y-10019531D02*
X15196729Y-10010008D01*
X15196729Y-10010008D02*
X15215777Y-10000484D01*
X15215777Y-10000484D02*
X15263396Y-10000484D01*
X15263396Y-10000484D02*
X15282444Y-10010008D01*
X15282444Y-10010008D02*
X15291967Y-10019531D01*
X15291967Y-10019531D02*
X15301491Y-10038579D01*
X15301491Y-10038579D02*
X15301491Y-10057627D01*
X15301491Y-10057627D02*
X15291967Y-10086198D01*
X15291967Y-10086198D02*
X15177682Y-10200484D01*
X15177682Y-10200484D02*
X15301491Y-10200484D01*
X15368158Y-10000484D02*
X15491967Y-10000484D01*
X15491967Y-10000484D02*
X15425301Y-10076674D01*
X15425301Y-10076674D02*
X15453872Y-10076674D01*
X15453872Y-10076674D02*
X15472920Y-10086198D01*
X15472920Y-10086198D02*
X15482444Y-10095722D01*
X15482444Y-10095722D02*
X15491967Y-10114770D01*
X15491967Y-10114770D02*
X15491967Y-10162389D01*
X15491967Y-10162389D02*
X15482444Y-10181436D01*
X15482444Y-10181436D02*
X15472920Y-10190960D01*
X15472920Y-10190960D02*
X15453872Y-10200484D01*
X15453872Y-10200484D02*
X15396729Y-10200484D01*
X15396729Y-10200484D02*
X15377682Y-10190960D01*
X15377682Y-10190960D02*
X15368158Y-10181436D01*
X15663396Y-10000484D02*
X15625301Y-10000484D01*
X15625301Y-10000484D02*
X15606253Y-10010008D01*
X15606253Y-10010008D02*
X15596729Y-10019531D01*
X15596729Y-10019531D02*
X15577682Y-10048103D01*
X15577682Y-10048103D02*
X15568158Y-10086198D01*
X15568158Y-10086198D02*
X15568158Y-10162389D01*
X15568158Y-10162389D02*
X15577682Y-10181436D01*
X15577682Y-10181436D02*
X15587206Y-10190960D01*
X15587206Y-10190960D02*
X15606253Y-10200484D01*
X15606253Y-10200484D02*
X15644348Y-10200484D01*
X15644348Y-10200484D02*
X15663396Y-10190960D01*
X15663396Y-10190960D02*
X15672920Y-10181436D01*
X15672920Y-10181436D02*
X15682444Y-10162389D01*
X15682444Y-10162389D02*
X15682444Y-10114770D01*
X15682444Y-10114770D02*
X15672920Y-10095722D01*
X15672920Y-10095722D02*
X15663396Y-10086198D01*
X15663396Y-10086198D02*
X15644348Y-10076674D01*
X15644348Y-10076674D02*
X15606253Y-10076674D01*
X15606253Y-10076674D02*
X15587206Y-10086198D01*
X15587206Y-10086198D02*
X15577682Y-10095722D01*
X15577682Y-10095722D02*
X15568158Y-10114770D01*
X15758634Y-10000484D02*
X15758634Y-10038579D01*
X15834825Y-10000484D02*
X15834825Y-10038579D01*
X16130063Y-10276674D02*
X16120539Y-10267150D01*
X16120539Y-10267150D02*
X16101491Y-10238579D01*
X16101491Y-10238579D02*
X16091968Y-10219531D01*
X16091968Y-10219531D02*
X16082444Y-10190960D01*
X16082444Y-10190960D02*
X16072920Y-10143341D01*
X16072920Y-10143341D02*
X16072920Y-10105246D01*
X16072920Y-10105246D02*
X16082444Y-10057627D01*
X16082444Y-10057627D02*
X16091968Y-10029055D01*
X16091968Y-10029055D02*
X16101491Y-10010008D01*
X16101491Y-10010008D02*
X16120539Y-9981436D01*
X16120539Y-9981436D02*
X16130063Y-9971912D01*
X16244348Y-10000484D02*
X16263396Y-10000484D01*
X16263396Y-10000484D02*
X16282444Y-10010008D01*
X16282444Y-10010008D02*
X16291968Y-10019531D01*
X16291968Y-10019531D02*
X16301491Y-10038579D01*
X16301491Y-10038579D02*
X16311015Y-10076674D01*
X16311015Y-10076674D02*
X16311015Y-10124293D01*
X16311015Y-10124293D02*
X16301491Y-10162389D01*
X16301491Y-10162389D02*
X16291968Y-10181436D01*
X16291968Y-10181436D02*
X16282444Y-10190960D01*
X16282444Y-10190960D02*
X16263396Y-10200484D01*
X16263396Y-10200484D02*
X16244348Y-10200484D01*
X16244348Y-10200484D02*
X16225301Y-10190960D01*
X16225301Y-10190960D02*
X16215777Y-10181436D01*
X16215777Y-10181436D02*
X16206253Y-10162389D01*
X16206253Y-10162389D02*
X16196729Y-10124293D01*
X16196729Y-10124293D02*
X16196729Y-10076674D01*
X16196729Y-10076674D02*
X16206253Y-10038579D01*
X16206253Y-10038579D02*
X16215777Y-10019531D01*
X16215777Y-10019531D02*
X16225301Y-10010008D01*
X16225301Y-10010008D02*
X16244348Y-10000484D01*
X16549110Y-10200484D02*
X16549110Y-10000484D01*
X16634825Y-10200484D02*
X16634825Y-10095722D01*
X16634825Y-10095722D02*
X16625301Y-10076674D01*
X16625301Y-10076674D02*
X16606253Y-10067150D01*
X16606253Y-10067150D02*
X16577682Y-10067150D01*
X16577682Y-10067150D02*
X16558634Y-10076674D01*
X16558634Y-10076674D02*
X16549110Y-10086198D01*
X16758634Y-10200484D02*
X16739587Y-10190960D01*
X16739587Y-10190960D02*
X16730063Y-10181436D01*
X16730063Y-10181436D02*
X16720539Y-10162389D01*
X16720539Y-10162389D02*
X16720539Y-10105246D01*
X16720539Y-10105246D02*
X16730063Y-10086198D01*
X16730063Y-10086198D02*
X16739587Y-10076674D01*
X16739587Y-10076674D02*
X16758634Y-10067150D01*
X16758634Y-10067150D02*
X16787206Y-10067150D01*
X16787206Y-10067150D02*
X16806253Y-10076674D01*
X16806253Y-10076674D02*
X16815777Y-10086198D01*
X16815777Y-10086198D02*
X16825301Y-10105246D01*
X16825301Y-10105246D02*
X16825301Y-10162389D01*
X16825301Y-10162389D02*
X16815777Y-10181436D01*
X16815777Y-10181436D02*
X16806253Y-10190960D01*
X16806253Y-10190960D02*
X16787206Y-10200484D01*
X16787206Y-10200484D02*
X16758634Y-10200484D01*
X16939587Y-10200484D02*
X16920539Y-10190960D01*
X16920539Y-10190960D02*
X16911015Y-10171912D01*
X16911015Y-10171912D02*
X16911015Y-10000484D01*
X17091968Y-10190960D02*
X17072920Y-10200484D01*
X17072920Y-10200484D02*
X17034825Y-10200484D01*
X17034825Y-10200484D02*
X17015777Y-10190960D01*
X17015777Y-10190960D02*
X17006253Y-10171912D01*
X17006253Y-10171912D02*
X17006253Y-10095722D01*
X17006253Y-10095722D02*
X17015777Y-10076674D01*
X17015777Y-10076674D02*
X17034825Y-10067150D01*
X17034825Y-10067150D02*
X17072920Y-10067150D01*
X17072920Y-10067150D02*
X17091968Y-10076674D01*
X17091968Y-10076674D02*
X17101492Y-10095722D01*
X17101492Y-10095722D02*
X17101492Y-10114770D01*
X17101492Y-10114770D02*
X17006253Y-10133817D01*
X17177682Y-10190960D02*
X17196730Y-10200484D01*
X17196730Y-10200484D02*
X17234825Y-10200484D01*
X17234825Y-10200484D02*
X17253873Y-10190960D01*
X17253873Y-10190960D02*
X17263396Y-10171912D01*
X17263396Y-10171912D02*
X17263396Y-10162389D01*
X17263396Y-10162389D02*
X17253873Y-10143341D01*
X17253873Y-10143341D02*
X17234825Y-10133817D01*
X17234825Y-10133817D02*
X17206253Y-10133817D01*
X17206253Y-10133817D02*
X17187206Y-10124293D01*
X17187206Y-10124293D02*
X17177682Y-10105246D01*
X17177682Y-10105246D02*
X17177682Y-10095722D01*
X17177682Y-10095722D02*
X17187206Y-10076674D01*
X17187206Y-10076674D02*
X17206253Y-10067150D01*
X17206253Y-10067150D02*
X17234825Y-10067150D01*
X17234825Y-10067150D02*
X17253873Y-10076674D01*
X17501492Y-10124293D02*
X17653873Y-10124293D01*
X17577682Y-10200484D02*
X17577682Y-10048103D01*
X17987206Y-10067150D02*
X17987206Y-10200484D01*
X17939587Y-9990960D02*
X17891968Y-10133817D01*
X17891968Y-10133817D02*
X18015777Y-10133817D01*
X18234825Y-10190960D02*
X18253873Y-10200484D01*
X18253873Y-10200484D02*
X18291968Y-10200484D01*
X18291968Y-10200484D02*
X18311016Y-10190960D01*
X18311016Y-10190960D02*
X18320539Y-10171912D01*
X18320539Y-10171912D02*
X18320539Y-10162389D01*
X18320539Y-10162389D02*
X18311016Y-10143341D01*
X18311016Y-10143341D02*
X18291968Y-10133817D01*
X18291968Y-10133817D02*
X18263396Y-10133817D01*
X18263396Y-10133817D02*
X18244349Y-10124293D01*
X18244349Y-10124293D02*
X18234825Y-10105246D01*
X18234825Y-10105246D02*
X18234825Y-10095722D01*
X18234825Y-10095722D02*
X18244349Y-10076674D01*
X18244349Y-10076674D02*
X18263396Y-10067150D01*
X18263396Y-10067150D02*
X18291968Y-10067150D01*
X18291968Y-10067150D02*
X18311016Y-10076674D01*
X18434825Y-10200484D02*
X18415777Y-10190960D01*
X18415777Y-10190960D02*
X18406254Y-10171912D01*
X18406254Y-10171912D02*
X18406254Y-10000484D01*
X18539587Y-10200484D02*
X18520539Y-10190960D01*
X18520539Y-10190960D02*
X18511016Y-10181436D01*
X18511016Y-10181436D02*
X18501492Y-10162389D01*
X18501492Y-10162389D02*
X18501492Y-10105246D01*
X18501492Y-10105246D02*
X18511016Y-10086198D01*
X18511016Y-10086198D02*
X18520539Y-10076674D01*
X18520539Y-10076674D02*
X18539587Y-10067150D01*
X18539587Y-10067150D02*
X18568158Y-10067150D01*
X18568158Y-10067150D02*
X18587206Y-10076674D01*
X18587206Y-10076674D02*
X18596730Y-10086198D01*
X18596730Y-10086198D02*
X18606254Y-10105246D01*
X18606254Y-10105246D02*
X18606254Y-10162389D01*
X18606254Y-10162389D02*
X18596730Y-10181436D01*
X18596730Y-10181436D02*
X18587206Y-10190960D01*
X18587206Y-10190960D02*
X18568158Y-10200484D01*
X18568158Y-10200484D02*
X18539587Y-10200484D01*
X18663397Y-10067150D02*
X18739587Y-10067150D01*
X18691968Y-10000484D02*
X18691968Y-10171912D01*
X18691968Y-10171912D02*
X18701492Y-10190960D01*
X18701492Y-10190960D02*
X18720539Y-10200484D01*
X18720539Y-10200484D02*
X18739587Y-10200484D01*
X18796730Y-10190960D02*
X18815777Y-10200484D01*
X18815777Y-10200484D02*
X18853873Y-10200484D01*
X18853873Y-10200484D02*
X18872920Y-10190960D01*
X18872920Y-10190960D02*
X18882444Y-10171912D01*
X18882444Y-10171912D02*
X18882444Y-10162389D01*
X18882444Y-10162389D02*
X18872920Y-10143341D01*
X18872920Y-10143341D02*
X18853873Y-10133817D01*
X18853873Y-10133817D02*
X18825301Y-10133817D01*
X18825301Y-10133817D02*
X18806254Y-10124293D01*
X18806254Y-10124293D02*
X18796730Y-10105246D01*
X18796730Y-10105246D02*
X18796730Y-10095722D01*
X18796730Y-10095722D02*
X18806254Y-10076674D01*
X18806254Y-10076674D02*
X18825301Y-10067150D01*
X18825301Y-10067150D02*
X18853873Y-10067150D01*
X18853873Y-10067150D02*
X18872920Y-10076674D01*
X18949111Y-10276674D02*
X18958635Y-10267150D01*
X18958635Y-10267150D02*
X18977682Y-10238579D01*
X18977682Y-10238579D02*
X18987206Y-10219531D01*
X18987206Y-10219531D02*
X18996730Y-10190960D01*
X18996730Y-10190960D02*
X19006254Y-10143341D01*
X19006254Y-10143341D02*
X19006254Y-10105246D01*
X19006254Y-10105246D02*
X18996730Y-10057627D01*
X18996730Y-10057627D02*
X18987206Y-10029055D01*
X18987206Y-10029055D02*
X18977682Y-10010008D01*
X18977682Y-10010008D02*
X18958635Y-9981436D01*
X18958635Y-9981436D02*
X18949111Y-9971912D01*
D10*
X12520000Y-10338000D02*
X12520000Y-10408000D01*
X12485000Y-10373000D02*
X12555000Y-10373000D01*
D11*
X12853872Y-10264484D02*
X12872920Y-10264484D01*
X12872920Y-10264484D02*
X12891967Y-10274008D01*
X12891967Y-10274008D02*
X12901491Y-10283531D01*
X12901491Y-10283531D02*
X12911015Y-10302579D01*
X12911015Y-10302579D02*
X12920539Y-10340674D01*
X12920539Y-10340674D02*
X12920539Y-10388293D01*
X12920539Y-10388293D02*
X12911015Y-10426389D01*
X12911015Y-10426389D02*
X12901491Y-10445436D01*
X12901491Y-10445436D02*
X12891967Y-10454960D01*
X12891967Y-10454960D02*
X12872920Y-10464484D01*
X12872920Y-10464484D02*
X12853872Y-10464484D01*
X12853872Y-10464484D02*
X12834824Y-10454960D01*
X12834824Y-10454960D02*
X12825301Y-10445436D01*
X12825301Y-10445436D02*
X12815777Y-10426389D01*
X12815777Y-10426389D02*
X12806253Y-10388293D01*
X12806253Y-10388293D02*
X12806253Y-10340674D01*
X12806253Y-10340674D02*
X12815777Y-10302579D01*
X12815777Y-10302579D02*
X12825301Y-10283531D01*
X12825301Y-10283531D02*
X12834824Y-10274008D01*
X12834824Y-10274008D02*
X12853872Y-10264484D01*
X13006253Y-10445436D02*
X13015777Y-10454960D01*
X13015777Y-10454960D02*
X13006253Y-10464484D01*
X13006253Y-10464484D02*
X12996729Y-10454960D01*
X12996729Y-10454960D02*
X13006253Y-10445436D01*
X13006253Y-10445436D02*
X13006253Y-10464484D01*
X13082443Y-10264484D02*
X13215777Y-10264484D01*
X13215777Y-10264484D02*
X13130062Y-10464484D01*
X13330062Y-10264484D02*
X13349110Y-10264484D01*
X13349110Y-10264484D02*
X13368158Y-10274008D01*
X13368158Y-10274008D02*
X13377682Y-10283531D01*
X13377682Y-10283531D02*
X13387205Y-10302579D01*
X13387205Y-10302579D02*
X13396729Y-10340674D01*
X13396729Y-10340674D02*
X13396729Y-10388293D01*
X13396729Y-10388293D02*
X13387205Y-10426389D01*
X13387205Y-10426389D02*
X13377682Y-10445436D01*
X13377682Y-10445436D02*
X13368158Y-10454960D01*
X13368158Y-10454960D02*
X13349110Y-10464484D01*
X13349110Y-10464484D02*
X13330062Y-10464484D01*
X13330062Y-10464484D02*
X13311015Y-10454960D01*
X13311015Y-10454960D02*
X13301491Y-10445436D01*
X13301491Y-10445436D02*
X13291967Y-10426389D01*
X13291967Y-10426389D02*
X13282443Y-10388293D01*
X13282443Y-10388293D02*
X13282443Y-10340674D01*
X13282443Y-10340674D02*
X13291967Y-10302579D01*
X13291967Y-10302579D02*
X13301491Y-10283531D01*
X13301491Y-10283531D02*
X13311015Y-10274008D01*
X13311015Y-10274008D02*
X13330062Y-10264484D01*
X13520539Y-10264484D02*
X13539586Y-10264484D01*
X13539586Y-10264484D02*
X13558634Y-10274008D01*
X13558634Y-10274008D02*
X13568158Y-10283531D01*
X13568158Y-10283531D02*
X13577682Y-10302579D01*
X13577682Y-10302579D02*
X13587205Y-10340674D01*
X13587205Y-10340674D02*
X13587205Y-10388293D01*
X13587205Y-10388293D02*
X13577682Y-10426389D01*
X13577682Y-10426389D02*
X13568158Y-10445436D01*
X13568158Y-10445436D02*
X13558634Y-10454960D01*
X13558634Y-10454960D02*
X13539586Y-10464484D01*
X13539586Y-10464484D02*
X13520539Y-10464484D01*
X13520539Y-10464484D02*
X13501491Y-10454960D01*
X13501491Y-10454960D02*
X13491967Y-10445436D01*
X13491967Y-10445436D02*
X13482443Y-10426389D01*
X13482443Y-10426389D02*
X13472920Y-10388293D01*
X13472920Y-10388293D02*
X13472920Y-10340674D01*
X13472920Y-10340674D02*
X13482443Y-10302579D01*
X13482443Y-10302579D02*
X13491967Y-10283531D01*
X13491967Y-10283531D02*
X13501491Y-10274008D01*
X13501491Y-10274008D02*
X13520539Y-10264484D01*
X13672920Y-10464484D02*
X13672920Y-10331150D01*
X13672920Y-10350198D02*
X13682443Y-10340674D01*
X13682443Y-10340674D02*
X13701491Y-10331150D01*
X13701491Y-10331150D02*
X13730063Y-10331150D01*
X13730063Y-10331150D02*
X13749110Y-10340674D01*
X13749110Y-10340674D02*
X13758634Y-10359722D01*
X13758634Y-10359722D02*
X13758634Y-10464484D01*
X13758634Y-10359722D02*
X13768158Y-10340674D01*
X13768158Y-10340674D02*
X13787205Y-10331150D01*
X13787205Y-10331150D02*
X13815777Y-10331150D01*
X13815777Y-10331150D02*
X13834824Y-10340674D01*
X13834824Y-10340674D02*
X13844348Y-10359722D01*
X13844348Y-10359722D02*
X13844348Y-10464484D01*
X13939586Y-10464484D02*
X13939586Y-10331150D01*
X13939586Y-10350198D02*
X13949110Y-10340674D01*
X13949110Y-10340674D02*
X13968158Y-10331150D01*
X13968158Y-10331150D02*
X13996729Y-10331150D01*
X13996729Y-10331150D02*
X14015777Y-10340674D01*
X14015777Y-10340674D02*
X14025301Y-10359722D01*
X14025301Y-10359722D02*
X14025301Y-10464484D01*
X14025301Y-10359722D02*
X14034824Y-10340674D01*
X14034824Y-10340674D02*
X14053872Y-10331150D01*
X14053872Y-10331150D02*
X14082443Y-10331150D01*
X14082443Y-10331150D02*
X14101491Y-10340674D01*
X14101491Y-10340674D02*
X14111015Y-10359722D01*
X14111015Y-10359722D02*
X14111015Y-10464484D01*
X14501491Y-10254960D02*
X14330063Y-10512103D01*
X14758634Y-10264484D02*
X14777682Y-10264484D01*
X14777682Y-10264484D02*
X14796729Y-10274008D01*
X14796729Y-10274008D02*
X14806253Y-10283531D01*
X14806253Y-10283531D02*
X14815777Y-10302579D01*
X14815777Y-10302579D02*
X14825301Y-10340674D01*
X14825301Y-10340674D02*
X14825301Y-10388293D01*
X14825301Y-10388293D02*
X14815777Y-10426389D01*
X14815777Y-10426389D02*
X14806253Y-10445436D01*
X14806253Y-10445436D02*
X14796729Y-10454960D01*
X14796729Y-10454960D02*
X14777682Y-10464484D01*
X14777682Y-10464484D02*
X14758634Y-10464484D01*
X14758634Y-10464484D02*
X14739586Y-10454960D01*
X14739586Y-10454960D02*
X14730063Y-10445436D01*
X14730063Y-10445436D02*
X14720539Y-10426389D01*
X14720539Y-10426389D02*
X14711015Y-10388293D01*
X14711015Y-10388293D02*
X14711015Y-10340674D01*
X14711015Y-10340674D02*
X14720539Y-10302579D01*
X14720539Y-10302579D02*
X14730063Y-10283531D01*
X14730063Y-10283531D02*
X14739586Y-10274008D01*
X14739586Y-10274008D02*
X14758634Y-10264484D01*
X14911015Y-10445436D02*
X14920539Y-10454960D01*
X14920539Y-10454960D02*
X14911015Y-10464484D01*
X14911015Y-10464484D02*
X14901491Y-10454960D01*
X14901491Y-10454960D02*
X14911015Y-10445436D01*
X14911015Y-10445436D02*
X14911015Y-10464484D01*
X15044348Y-10264484D02*
X15063396Y-10264484D01*
X15063396Y-10264484D02*
X15082444Y-10274008D01*
X15082444Y-10274008D02*
X15091967Y-10283531D01*
X15091967Y-10283531D02*
X15101491Y-10302579D01*
X15101491Y-10302579D02*
X15111015Y-10340674D01*
X15111015Y-10340674D02*
X15111015Y-10388293D01*
X15111015Y-10388293D02*
X15101491Y-10426389D01*
X15101491Y-10426389D02*
X15091967Y-10445436D01*
X15091967Y-10445436D02*
X15082444Y-10454960D01*
X15082444Y-10454960D02*
X15063396Y-10464484D01*
X15063396Y-10464484D02*
X15044348Y-10464484D01*
X15044348Y-10464484D02*
X15025301Y-10454960D01*
X15025301Y-10454960D02*
X15015777Y-10445436D01*
X15015777Y-10445436D02*
X15006253Y-10426389D01*
X15006253Y-10426389D02*
X14996729Y-10388293D01*
X14996729Y-10388293D02*
X14996729Y-10340674D01*
X14996729Y-10340674D02*
X15006253Y-10302579D01*
X15006253Y-10302579D02*
X15015777Y-10283531D01*
X15015777Y-10283531D02*
X15025301Y-10274008D01*
X15025301Y-10274008D02*
X15044348Y-10264484D01*
X15187206Y-10283531D02*
X15196729Y-10274008D01*
X15196729Y-10274008D02*
X15215777Y-10264484D01*
X15215777Y-10264484D02*
X15263396Y-10264484D01*
X15263396Y-10264484D02*
X15282444Y-10274008D01*
X15282444Y-10274008D02*
X15291967Y-10283531D01*
X15291967Y-10283531D02*
X15301491Y-10302579D01*
X15301491Y-10302579D02*
X15301491Y-10321627D01*
X15301491Y-10321627D02*
X15291967Y-10350198D01*
X15291967Y-10350198D02*
X15177682Y-10464484D01*
X15177682Y-10464484D02*
X15301491Y-10464484D01*
X15368158Y-10264484D02*
X15501491Y-10264484D01*
X15501491Y-10264484D02*
X15415777Y-10464484D01*
X15663396Y-10264484D02*
X15625301Y-10264484D01*
X15625301Y-10264484D02*
X15606253Y-10274008D01*
X15606253Y-10274008D02*
X15596729Y-10283531D01*
X15596729Y-10283531D02*
X15577682Y-10312103D01*
X15577682Y-10312103D02*
X15568158Y-10350198D01*
X15568158Y-10350198D02*
X15568158Y-10426389D01*
X15568158Y-10426389D02*
X15577682Y-10445436D01*
X15577682Y-10445436D02*
X15587206Y-10454960D01*
X15587206Y-10454960D02*
X15606253Y-10464484D01*
X15606253Y-10464484D02*
X15644348Y-10464484D01*
X15644348Y-10464484D02*
X15663396Y-10454960D01*
X15663396Y-10454960D02*
X15672920Y-10445436D01*
X15672920Y-10445436D02*
X15682444Y-10426389D01*
X15682444Y-10426389D02*
X15682444Y-10378770D01*
X15682444Y-10378770D02*
X15672920Y-10359722D01*
X15672920Y-10359722D02*
X15663396Y-10350198D01*
X15663396Y-10350198D02*
X15644348Y-10340674D01*
X15644348Y-10340674D02*
X15606253Y-10340674D01*
X15606253Y-10340674D02*
X15587206Y-10350198D01*
X15587206Y-10350198D02*
X15577682Y-10359722D01*
X15577682Y-10359722D02*
X15568158Y-10378770D01*
X15758634Y-10264484D02*
X15758634Y-10302579D01*
X15834825Y-10264484D02*
X15834825Y-10302579D01*
X16130063Y-10540674D02*
X16120539Y-10531150D01*
X16120539Y-10531150D02*
X16101491Y-10502579D01*
X16101491Y-10502579D02*
X16091968Y-10483531D01*
X16091968Y-10483531D02*
X16082444Y-10454960D01*
X16082444Y-10454960D02*
X16072920Y-10407341D01*
X16072920Y-10407341D02*
X16072920Y-10369246D01*
X16072920Y-10369246D02*
X16082444Y-10321627D01*
X16082444Y-10321627D02*
X16091968Y-10293055D01*
X16091968Y-10293055D02*
X16101491Y-10274008D01*
X16101491Y-10274008D02*
X16120539Y-10245436D01*
X16120539Y-10245436D02*
X16130063Y-10235912D01*
X16291968Y-10331150D02*
X16291968Y-10464484D01*
X16244348Y-10254960D02*
X16196729Y-10397817D01*
X16196729Y-10397817D02*
X16320539Y-10397817D01*
X16549110Y-10464484D02*
X16549110Y-10264484D01*
X16634825Y-10464484D02*
X16634825Y-10359722D01*
X16634825Y-10359722D02*
X16625301Y-10340674D01*
X16625301Y-10340674D02*
X16606253Y-10331150D01*
X16606253Y-10331150D02*
X16577682Y-10331150D01*
X16577682Y-10331150D02*
X16558634Y-10340674D01*
X16558634Y-10340674D02*
X16549110Y-10350198D01*
X16758634Y-10464484D02*
X16739587Y-10454960D01*
X16739587Y-10454960D02*
X16730063Y-10445436D01*
X16730063Y-10445436D02*
X16720539Y-10426389D01*
X16720539Y-10426389D02*
X16720539Y-10369246D01*
X16720539Y-10369246D02*
X16730063Y-10350198D01*
X16730063Y-10350198D02*
X16739587Y-10340674D01*
X16739587Y-10340674D02*
X16758634Y-10331150D01*
X16758634Y-10331150D02*
X16787206Y-10331150D01*
X16787206Y-10331150D02*
X16806253Y-10340674D01*
X16806253Y-10340674D02*
X16815777Y-10350198D01*
X16815777Y-10350198D02*
X16825301Y-10369246D01*
X16825301Y-10369246D02*
X16825301Y-10426389D01*
X16825301Y-10426389D02*
X16815777Y-10445436D01*
X16815777Y-10445436D02*
X16806253Y-10454960D01*
X16806253Y-10454960D02*
X16787206Y-10464484D01*
X16787206Y-10464484D02*
X16758634Y-10464484D01*
X16939587Y-10464484D02*
X16920539Y-10454960D01*
X16920539Y-10454960D02*
X16911015Y-10435912D01*
X16911015Y-10435912D02*
X16911015Y-10264484D01*
X17091968Y-10454960D02*
X17072920Y-10464484D01*
X17072920Y-10464484D02*
X17034825Y-10464484D01*
X17034825Y-10464484D02*
X17015777Y-10454960D01*
X17015777Y-10454960D02*
X17006253Y-10435912D01*
X17006253Y-10435912D02*
X17006253Y-10359722D01*
X17006253Y-10359722D02*
X17015777Y-10340674D01*
X17015777Y-10340674D02*
X17034825Y-10331150D01*
X17034825Y-10331150D02*
X17072920Y-10331150D01*
X17072920Y-10331150D02*
X17091968Y-10340674D01*
X17091968Y-10340674D02*
X17101492Y-10359722D01*
X17101492Y-10359722D02*
X17101492Y-10378770D01*
X17101492Y-10378770D02*
X17006253Y-10397817D01*
X17177682Y-10454960D02*
X17196730Y-10464484D01*
X17196730Y-10464484D02*
X17234825Y-10464484D01*
X17234825Y-10464484D02*
X17253873Y-10454960D01*
X17253873Y-10454960D02*
X17263396Y-10435912D01*
X17263396Y-10435912D02*
X17263396Y-10426389D01*
X17263396Y-10426389D02*
X17253873Y-10407341D01*
X17253873Y-10407341D02*
X17234825Y-10397817D01*
X17234825Y-10397817D02*
X17206253Y-10397817D01*
X17206253Y-10397817D02*
X17187206Y-10388293D01*
X17187206Y-10388293D02*
X17177682Y-10369246D01*
X17177682Y-10369246D02*
X17177682Y-10359722D01*
X17177682Y-10359722D02*
X17187206Y-10340674D01*
X17187206Y-10340674D02*
X17206253Y-10331150D01*
X17206253Y-10331150D02*
X17234825Y-10331150D01*
X17234825Y-10331150D02*
X17253873Y-10340674D01*
X17330063Y-10540674D02*
X17339587Y-10531150D01*
X17339587Y-10531150D02*
X17358634Y-10502579D01*
X17358634Y-10502579D02*
X17368158Y-10483531D01*
X17368158Y-10483531D02*
X17377682Y-10454960D01*
X17377682Y-10454960D02*
X17387206Y-10407341D01*
X17387206Y-10407341D02*
X17387206Y-10369246D01*
X17387206Y-10369246D02*
X17377682Y-10321627D01*
X17377682Y-10321627D02*
X17368158Y-10293055D01*
X17368158Y-10293055D02*
X17358634Y-10274008D01*
X17358634Y-10274008D02*
X17339587Y-10245436D01*
X17339587Y-10245436D02*
X17330063Y-10235912D01*
D10*
X12540356Y-10672356D02*
X12540356Y-10601644D01*
X12469644Y-10601644D01*
X12469644Y-10672356D01*
X12540356Y-10672356D01*
D11*
X12920539Y-10728484D02*
X12806253Y-10728484D01*
X12863396Y-10728484D02*
X12863396Y-10528484D01*
X12863396Y-10528484D02*
X12844348Y-10557055D01*
X12844348Y-10557055D02*
X12825301Y-10576103D01*
X12825301Y-10576103D02*
X12806253Y-10585627D01*
X13006253Y-10709436D02*
X13015777Y-10718960D01*
X13015777Y-10718960D02*
X13006253Y-10728484D01*
X13006253Y-10728484D02*
X12996729Y-10718960D01*
X12996729Y-10718960D02*
X13006253Y-10709436D01*
X13006253Y-10709436D02*
X13006253Y-10728484D01*
X13139586Y-10528484D02*
X13158634Y-10528484D01*
X13158634Y-10528484D02*
X13177682Y-10538008D01*
X13177682Y-10538008D02*
X13187205Y-10547531D01*
X13187205Y-10547531D02*
X13196729Y-10566579D01*
X13196729Y-10566579D02*
X13206253Y-10604674D01*
X13206253Y-10604674D02*
X13206253Y-10652293D01*
X13206253Y-10652293D02*
X13196729Y-10690389D01*
X13196729Y-10690389D02*
X13187205Y-10709436D01*
X13187205Y-10709436D02*
X13177682Y-10718960D01*
X13177682Y-10718960D02*
X13158634Y-10728484D01*
X13158634Y-10728484D02*
X13139586Y-10728484D01*
X13139586Y-10728484D02*
X13120539Y-10718960D01*
X13120539Y-10718960D02*
X13111015Y-10709436D01*
X13111015Y-10709436D02*
X13101491Y-10690389D01*
X13101491Y-10690389D02*
X13091967Y-10652293D01*
X13091967Y-10652293D02*
X13091967Y-10604674D01*
X13091967Y-10604674D02*
X13101491Y-10566579D01*
X13101491Y-10566579D02*
X13111015Y-10547531D01*
X13111015Y-10547531D02*
X13120539Y-10538008D01*
X13120539Y-10538008D02*
X13139586Y-10528484D01*
X13330062Y-10528484D02*
X13349110Y-10528484D01*
X13349110Y-10528484D02*
X13368158Y-10538008D01*
X13368158Y-10538008D02*
X13377682Y-10547531D01*
X13377682Y-10547531D02*
X13387205Y-10566579D01*
X13387205Y-10566579D02*
X13396729Y-10604674D01*
X13396729Y-10604674D02*
X13396729Y-10652293D01*
X13396729Y-10652293D02*
X13387205Y-10690389D01*
X13387205Y-10690389D02*
X13377682Y-10709436D01*
X13377682Y-10709436D02*
X13368158Y-10718960D01*
X13368158Y-10718960D02*
X13349110Y-10728484D01*
X13349110Y-10728484D02*
X13330062Y-10728484D01*
X13330062Y-10728484D02*
X13311015Y-10718960D01*
X13311015Y-10718960D02*
X13301491Y-10709436D01*
X13301491Y-10709436D02*
X13291967Y-10690389D01*
X13291967Y-10690389D02*
X13282443Y-10652293D01*
X13282443Y-10652293D02*
X13282443Y-10604674D01*
X13282443Y-10604674D02*
X13291967Y-10566579D01*
X13291967Y-10566579D02*
X13301491Y-10547531D01*
X13301491Y-10547531D02*
X13311015Y-10538008D01*
X13311015Y-10538008D02*
X13330062Y-10528484D01*
X13520539Y-10528484D02*
X13539586Y-10528484D01*
X13539586Y-10528484D02*
X13558634Y-10538008D01*
X13558634Y-10538008D02*
X13568158Y-10547531D01*
X13568158Y-10547531D02*
X13577682Y-10566579D01*
X13577682Y-10566579D02*
X13587205Y-10604674D01*
X13587205Y-10604674D02*
X13587205Y-10652293D01*
X13587205Y-10652293D02*
X13577682Y-10690389D01*
X13577682Y-10690389D02*
X13568158Y-10709436D01*
X13568158Y-10709436D02*
X13558634Y-10718960D01*
X13558634Y-10718960D02*
X13539586Y-10728484D01*
X13539586Y-10728484D02*
X13520539Y-10728484D01*
X13520539Y-10728484D02*
X13501491Y-10718960D01*
X13501491Y-10718960D02*
X13491967Y-10709436D01*
X13491967Y-10709436D02*
X13482443Y-10690389D01*
X13482443Y-10690389D02*
X13472920Y-10652293D01*
X13472920Y-10652293D02*
X13472920Y-10604674D01*
X13472920Y-10604674D02*
X13482443Y-10566579D01*
X13482443Y-10566579D02*
X13491967Y-10547531D01*
X13491967Y-10547531D02*
X13501491Y-10538008D01*
X13501491Y-10538008D02*
X13520539Y-10528484D01*
X13672920Y-10728484D02*
X13672920Y-10595150D01*
X13672920Y-10614198D02*
X13682443Y-10604674D01*
X13682443Y-10604674D02*
X13701491Y-10595150D01*
X13701491Y-10595150D02*
X13730063Y-10595150D01*
X13730063Y-10595150D02*
X13749110Y-10604674D01*
X13749110Y-10604674D02*
X13758634Y-10623722D01*
X13758634Y-10623722D02*
X13758634Y-10728484D01*
X13758634Y-10623722D02*
X13768158Y-10604674D01*
X13768158Y-10604674D02*
X13787205Y-10595150D01*
X13787205Y-10595150D02*
X13815777Y-10595150D01*
X13815777Y-10595150D02*
X13834824Y-10604674D01*
X13834824Y-10604674D02*
X13844348Y-10623722D01*
X13844348Y-10623722D02*
X13844348Y-10728484D01*
X13939586Y-10728484D02*
X13939586Y-10595150D01*
X13939586Y-10614198D02*
X13949110Y-10604674D01*
X13949110Y-10604674D02*
X13968158Y-10595150D01*
X13968158Y-10595150D02*
X13996729Y-10595150D01*
X13996729Y-10595150D02*
X14015777Y-10604674D01*
X14015777Y-10604674D02*
X14025301Y-10623722D01*
X14025301Y-10623722D02*
X14025301Y-10728484D01*
X14025301Y-10623722D02*
X14034824Y-10604674D01*
X14034824Y-10604674D02*
X14053872Y-10595150D01*
X14053872Y-10595150D02*
X14082443Y-10595150D01*
X14082443Y-10595150D02*
X14101491Y-10604674D01*
X14101491Y-10604674D02*
X14111015Y-10623722D01*
X14111015Y-10623722D02*
X14111015Y-10728484D01*
X14501491Y-10518960D02*
X14330063Y-10776103D01*
X14758634Y-10528484D02*
X14777682Y-10528484D01*
X14777682Y-10528484D02*
X14796729Y-10538008D01*
X14796729Y-10538008D02*
X14806253Y-10547531D01*
X14806253Y-10547531D02*
X14815777Y-10566579D01*
X14815777Y-10566579D02*
X14825301Y-10604674D01*
X14825301Y-10604674D02*
X14825301Y-10652293D01*
X14825301Y-10652293D02*
X14815777Y-10690389D01*
X14815777Y-10690389D02*
X14806253Y-10709436D01*
X14806253Y-10709436D02*
X14796729Y-10718960D01*
X14796729Y-10718960D02*
X14777682Y-10728484D01*
X14777682Y-10728484D02*
X14758634Y-10728484D01*
X14758634Y-10728484D02*
X14739586Y-10718960D01*
X14739586Y-10718960D02*
X14730063Y-10709436D01*
X14730063Y-10709436D02*
X14720539Y-10690389D01*
X14720539Y-10690389D02*
X14711015Y-10652293D01*
X14711015Y-10652293D02*
X14711015Y-10604674D01*
X14711015Y-10604674D02*
X14720539Y-10566579D01*
X14720539Y-10566579D02*
X14730063Y-10547531D01*
X14730063Y-10547531D02*
X14739586Y-10538008D01*
X14739586Y-10538008D02*
X14758634Y-10528484D01*
X14911015Y-10709436D02*
X14920539Y-10718960D01*
X14920539Y-10718960D02*
X14911015Y-10728484D01*
X14911015Y-10728484D02*
X14901491Y-10718960D01*
X14901491Y-10718960D02*
X14911015Y-10709436D01*
X14911015Y-10709436D02*
X14911015Y-10728484D01*
X15044348Y-10528484D02*
X15063396Y-10528484D01*
X15063396Y-10528484D02*
X15082444Y-10538008D01*
X15082444Y-10538008D02*
X15091967Y-10547531D01*
X15091967Y-10547531D02*
X15101491Y-10566579D01*
X15101491Y-10566579D02*
X15111015Y-10604674D01*
X15111015Y-10604674D02*
X15111015Y-10652293D01*
X15111015Y-10652293D02*
X15101491Y-10690389D01*
X15101491Y-10690389D02*
X15091967Y-10709436D01*
X15091967Y-10709436D02*
X15082444Y-10718960D01*
X15082444Y-10718960D02*
X15063396Y-10728484D01*
X15063396Y-10728484D02*
X15044348Y-10728484D01*
X15044348Y-10728484D02*
X15025301Y-10718960D01*
X15025301Y-10718960D02*
X15015777Y-10709436D01*
X15015777Y-10709436D02*
X15006253Y-10690389D01*
X15006253Y-10690389D02*
X14996729Y-10652293D01*
X14996729Y-10652293D02*
X14996729Y-10604674D01*
X14996729Y-10604674D02*
X15006253Y-10566579D01*
X15006253Y-10566579D02*
X15015777Y-10547531D01*
X15015777Y-10547531D02*
X15025301Y-10538008D01*
X15025301Y-10538008D02*
X15044348Y-10528484D01*
X15177682Y-10528484D02*
X15301491Y-10528484D01*
X15301491Y-10528484D02*
X15234825Y-10604674D01*
X15234825Y-10604674D02*
X15263396Y-10604674D01*
X15263396Y-10604674D02*
X15282444Y-10614198D01*
X15282444Y-10614198D02*
X15291967Y-10623722D01*
X15291967Y-10623722D02*
X15301491Y-10642770D01*
X15301491Y-10642770D02*
X15301491Y-10690389D01*
X15301491Y-10690389D02*
X15291967Y-10709436D01*
X15291967Y-10709436D02*
X15282444Y-10718960D01*
X15282444Y-10718960D02*
X15263396Y-10728484D01*
X15263396Y-10728484D02*
X15206253Y-10728484D01*
X15206253Y-10728484D02*
X15187206Y-10718960D01*
X15187206Y-10718960D02*
X15177682Y-10709436D01*
X15396729Y-10728484D02*
X15434825Y-10728484D01*
X15434825Y-10728484D02*
X15453872Y-10718960D01*
X15453872Y-10718960D02*
X15463396Y-10709436D01*
X15463396Y-10709436D02*
X15482444Y-10680865D01*
X15482444Y-10680865D02*
X15491967Y-10642770D01*
X15491967Y-10642770D02*
X15491967Y-10566579D01*
X15491967Y-10566579D02*
X15482444Y-10547531D01*
X15482444Y-10547531D02*
X15472920Y-10538008D01*
X15472920Y-10538008D02*
X15453872Y-10528484D01*
X15453872Y-10528484D02*
X15415777Y-10528484D01*
X15415777Y-10528484D02*
X15396729Y-10538008D01*
X15396729Y-10538008D02*
X15387206Y-10547531D01*
X15387206Y-10547531D02*
X15377682Y-10566579D01*
X15377682Y-10566579D02*
X15377682Y-10614198D01*
X15377682Y-10614198D02*
X15387206Y-10633246D01*
X15387206Y-10633246D02*
X15396729Y-10642770D01*
X15396729Y-10642770D02*
X15415777Y-10652293D01*
X15415777Y-10652293D02*
X15453872Y-10652293D01*
X15453872Y-10652293D02*
X15472920Y-10642770D01*
X15472920Y-10642770D02*
X15482444Y-10633246D01*
X15482444Y-10633246D02*
X15491967Y-10614198D01*
X15663396Y-10595150D02*
X15663396Y-10728484D01*
X15615777Y-10518960D02*
X15568158Y-10661817D01*
X15568158Y-10661817D02*
X15691967Y-10661817D01*
X15758634Y-10528484D02*
X15758634Y-10566579D01*
X15834825Y-10528484D02*
X15834825Y-10566579D01*
X16130063Y-10804674D02*
X16120539Y-10795150D01*
X16120539Y-10795150D02*
X16101491Y-10766579D01*
X16101491Y-10766579D02*
X16091968Y-10747531D01*
X16091968Y-10747531D02*
X16082444Y-10718960D01*
X16082444Y-10718960D02*
X16072920Y-10671341D01*
X16072920Y-10671341D02*
X16072920Y-10633246D01*
X16072920Y-10633246D02*
X16082444Y-10585627D01*
X16082444Y-10585627D02*
X16091968Y-10557055D01*
X16091968Y-10557055D02*
X16101491Y-10538008D01*
X16101491Y-10538008D02*
X16120539Y-10509436D01*
X16120539Y-10509436D02*
X16130063Y-10499912D01*
X16234825Y-10614198D02*
X16215777Y-10604674D01*
X16215777Y-10604674D02*
X16206253Y-10595150D01*
X16206253Y-10595150D02*
X16196729Y-10576103D01*
X16196729Y-10576103D02*
X16196729Y-10566579D01*
X16196729Y-10566579D02*
X16206253Y-10547531D01*
X16206253Y-10547531D02*
X16215777Y-10538008D01*
X16215777Y-10538008D02*
X16234825Y-10528484D01*
X16234825Y-10528484D02*
X16272920Y-10528484D01*
X16272920Y-10528484D02*
X16291968Y-10538008D01*
X16291968Y-10538008D02*
X16301491Y-10547531D01*
X16301491Y-10547531D02*
X16311015Y-10566579D01*
X16311015Y-10566579D02*
X16311015Y-10576103D01*
X16311015Y-10576103D02*
X16301491Y-10595150D01*
X16301491Y-10595150D02*
X16291968Y-10604674D01*
X16291968Y-10604674D02*
X16272920Y-10614198D01*
X16272920Y-10614198D02*
X16234825Y-10614198D01*
X16234825Y-10614198D02*
X16215777Y-10623722D01*
X16215777Y-10623722D02*
X16206253Y-10633246D01*
X16206253Y-10633246D02*
X16196729Y-10652293D01*
X16196729Y-10652293D02*
X16196729Y-10690389D01*
X16196729Y-10690389D02*
X16206253Y-10709436D01*
X16206253Y-10709436D02*
X16215777Y-10718960D01*
X16215777Y-10718960D02*
X16234825Y-10728484D01*
X16234825Y-10728484D02*
X16272920Y-10728484D01*
X16272920Y-10728484D02*
X16291968Y-10718960D01*
X16291968Y-10718960D02*
X16301491Y-10709436D01*
X16301491Y-10709436D02*
X16311015Y-10690389D01*
X16311015Y-10690389D02*
X16311015Y-10652293D01*
X16311015Y-10652293D02*
X16301491Y-10633246D01*
X16301491Y-10633246D02*
X16291968Y-10623722D01*
X16291968Y-10623722D02*
X16272920Y-10614198D01*
X16549110Y-10728484D02*
X16549110Y-10528484D01*
X16634825Y-10728484D02*
X16634825Y-10623722D01*
X16634825Y-10623722D02*
X16625301Y-10604674D01*
X16625301Y-10604674D02*
X16606253Y-10595150D01*
X16606253Y-10595150D02*
X16577682Y-10595150D01*
X16577682Y-10595150D02*
X16558634Y-10604674D01*
X16558634Y-10604674D02*
X16549110Y-10614198D01*
X16758634Y-10728484D02*
X16739587Y-10718960D01*
X16739587Y-10718960D02*
X16730063Y-10709436D01*
X16730063Y-10709436D02*
X16720539Y-10690389D01*
X16720539Y-10690389D02*
X16720539Y-10633246D01*
X16720539Y-10633246D02*
X16730063Y-10614198D01*
X16730063Y-10614198D02*
X16739587Y-10604674D01*
X16739587Y-10604674D02*
X16758634Y-10595150D01*
X16758634Y-10595150D02*
X16787206Y-10595150D01*
X16787206Y-10595150D02*
X16806253Y-10604674D01*
X16806253Y-10604674D02*
X16815777Y-10614198D01*
X16815777Y-10614198D02*
X16825301Y-10633246D01*
X16825301Y-10633246D02*
X16825301Y-10690389D01*
X16825301Y-10690389D02*
X16815777Y-10709436D01*
X16815777Y-10709436D02*
X16806253Y-10718960D01*
X16806253Y-10718960D02*
X16787206Y-10728484D01*
X16787206Y-10728484D02*
X16758634Y-10728484D01*
X16939587Y-10728484D02*
X16920539Y-10718960D01*
X16920539Y-10718960D02*
X16911015Y-10699912D01*
X16911015Y-10699912D02*
X16911015Y-10528484D01*
X17091968Y-10718960D02*
X17072920Y-10728484D01*
X17072920Y-10728484D02*
X17034825Y-10728484D01*
X17034825Y-10728484D02*
X17015777Y-10718960D01*
X17015777Y-10718960D02*
X17006253Y-10699912D01*
X17006253Y-10699912D02*
X17006253Y-10623722D01*
X17006253Y-10623722D02*
X17015777Y-10604674D01*
X17015777Y-10604674D02*
X17034825Y-10595150D01*
X17034825Y-10595150D02*
X17072920Y-10595150D01*
X17072920Y-10595150D02*
X17091968Y-10604674D01*
X17091968Y-10604674D02*
X17101492Y-10623722D01*
X17101492Y-10623722D02*
X17101492Y-10642770D01*
X17101492Y-10642770D02*
X17006253Y-10661817D01*
X17177682Y-10718960D02*
X17196730Y-10728484D01*
X17196730Y-10728484D02*
X17234825Y-10728484D01*
X17234825Y-10728484D02*
X17253873Y-10718960D01*
X17253873Y-10718960D02*
X17263396Y-10699912D01*
X17263396Y-10699912D02*
X17263396Y-10690389D01*
X17263396Y-10690389D02*
X17253873Y-10671341D01*
X17253873Y-10671341D02*
X17234825Y-10661817D01*
X17234825Y-10661817D02*
X17206253Y-10661817D01*
X17206253Y-10661817D02*
X17187206Y-10652293D01*
X17187206Y-10652293D02*
X17177682Y-10633246D01*
X17177682Y-10633246D02*
X17177682Y-10623722D01*
X17177682Y-10623722D02*
X17187206Y-10604674D01*
X17187206Y-10604674D02*
X17206253Y-10595150D01*
X17206253Y-10595150D02*
X17234825Y-10595150D01*
X17234825Y-10595150D02*
X17253873Y-10604674D01*
X17330063Y-10804674D02*
X17339587Y-10795150D01*
X17339587Y-10795150D02*
X17358634Y-10766579D01*
X17358634Y-10766579D02*
X17368158Y-10747531D01*
X17368158Y-10747531D02*
X17377682Y-10718960D01*
X17377682Y-10718960D02*
X17387206Y-10671341D01*
X17387206Y-10671341D02*
X17387206Y-10633246D01*
X17387206Y-10633246D02*
X17377682Y-10585627D01*
X17377682Y-10585627D02*
X17368158Y-10557055D01*
X17368158Y-10557055D02*
X17358634Y-10538008D01*
X17358634Y-10538008D02*
X17339587Y-10509436D01*
X17339587Y-10509436D02*
X17330063Y-10499912D01*
D12*
X12504000Y-10952000D02*
X12555000Y-10901000D01*
X12504000Y-10850000D01*
X12453000Y-10901000D01*
X12504000Y-10952000D01*
D11*
X12920539Y-10992484D02*
X12806253Y-10992484D01*
X12863396Y-10992484D02*
X12863396Y-10792484D01*
X12863396Y-10792484D02*
X12844348Y-10821055D01*
X12844348Y-10821055D02*
X12825301Y-10840103D01*
X12825301Y-10840103D02*
X12806253Y-10849627D01*
X13006253Y-10973436D02*
X13015777Y-10982960D01*
X13015777Y-10982960D02*
X13006253Y-10992484D01*
X13006253Y-10992484D02*
X12996729Y-10982960D01*
X12996729Y-10982960D02*
X13006253Y-10973436D01*
X13006253Y-10973436D02*
X13006253Y-10992484D01*
X13139586Y-10792484D02*
X13158634Y-10792484D01*
X13158634Y-10792484D02*
X13177682Y-10802008D01*
X13177682Y-10802008D02*
X13187205Y-10811531D01*
X13187205Y-10811531D02*
X13196729Y-10830579D01*
X13196729Y-10830579D02*
X13206253Y-10868674D01*
X13206253Y-10868674D02*
X13206253Y-10916293D01*
X13206253Y-10916293D02*
X13196729Y-10954389D01*
X13196729Y-10954389D02*
X13187205Y-10973436D01*
X13187205Y-10973436D02*
X13177682Y-10982960D01*
X13177682Y-10982960D02*
X13158634Y-10992484D01*
X13158634Y-10992484D02*
X13139586Y-10992484D01*
X13139586Y-10992484D02*
X13120539Y-10982960D01*
X13120539Y-10982960D02*
X13111015Y-10973436D01*
X13111015Y-10973436D02*
X13101491Y-10954389D01*
X13101491Y-10954389D02*
X13091967Y-10916293D01*
X13091967Y-10916293D02*
X13091967Y-10868674D01*
X13091967Y-10868674D02*
X13101491Y-10830579D01*
X13101491Y-10830579D02*
X13111015Y-10811531D01*
X13111015Y-10811531D02*
X13120539Y-10802008D01*
X13120539Y-10802008D02*
X13139586Y-10792484D01*
X13282443Y-10811531D02*
X13291967Y-10802008D01*
X13291967Y-10802008D02*
X13311015Y-10792484D01*
X13311015Y-10792484D02*
X13358634Y-10792484D01*
X13358634Y-10792484D02*
X13377682Y-10802008D01*
X13377682Y-10802008D02*
X13387205Y-10811531D01*
X13387205Y-10811531D02*
X13396729Y-10830579D01*
X13396729Y-10830579D02*
X13396729Y-10849627D01*
X13396729Y-10849627D02*
X13387205Y-10878198D01*
X13387205Y-10878198D02*
X13272920Y-10992484D01*
X13272920Y-10992484D02*
X13396729Y-10992484D01*
X13520539Y-10792484D02*
X13539586Y-10792484D01*
X13539586Y-10792484D02*
X13558634Y-10802008D01*
X13558634Y-10802008D02*
X13568158Y-10811531D01*
X13568158Y-10811531D02*
X13577682Y-10830579D01*
X13577682Y-10830579D02*
X13587205Y-10868674D01*
X13587205Y-10868674D02*
X13587205Y-10916293D01*
X13587205Y-10916293D02*
X13577682Y-10954389D01*
X13577682Y-10954389D02*
X13568158Y-10973436D01*
X13568158Y-10973436D02*
X13558634Y-10982960D01*
X13558634Y-10982960D02*
X13539586Y-10992484D01*
X13539586Y-10992484D02*
X13520539Y-10992484D01*
X13520539Y-10992484D02*
X13501491Y-10982960D01*
X13501491Y-10982960D02*
X13491967Y-10973436D01*
X13491967Y-10973436D02*
X13482443Y-10954389D01*
X13482443Y-10954389D02*
X13472920Y-10916293D01*
X13472920Y-10916293D02*
X13472920Y-10868674D01*
X13472920Y-10868674D02*
X13482443Y-10830579D01*
X13482443Y-10830579D02*
X13491967Y-10811531D01*
X13491967Y-10811531D02*
X13501491Y-10802008D01*
X13501491Y-10802008D02*
X13520539Y-10792484D01*
X13672920Y-10992484D02*
X13672920Y-10859150D01*
X13672920Y-10878198D02*
X13682443Y-10868674D01*
X13682443Y-10868674D02*
X13701491Y-10859150D01*
X13701491Y-10859150D02*
X13730063Y-10859150D01*
X13730063Y-10859150D02*
X13749110Y-10868674D01*
X13749110Y-10868674D02*
X13758634Y-10887722D01*
X13758634Y-10887722D02*
X13758634Y-10992484D01*
X13758634Y-10887722D02*
X13768158Y-10868674D01*
X13768158Y-10868674D02*
X13787205Y-10859150D01*
X13787205Y-10859150D02*
X13815777Y-10859150D01*
X13815777Y-10859150D02*
X13834824Y-10868674D01*
X13834824Y-10868674D02*
X13844348Y-10887722D01*
X13844348Y-10887722D02*
X13844348Y-10992484D01*
X13939586Y-10992484D02*
X13939586Y-10859150D01*
X13939586Y-10878198D02*
X13949110Y-10868674D01*
X13949110Y-10868674D02*
X13968158Y-10859150D01*
X13968158Y-10859150D02*
X13996729Y-10859150D01*
X13996729Y-10859150D02*
X14015777Y-10868674D01*
X14015777Y-10868674D02*
X14025301Y-10887722D01*
X14025301Y-10887722D02*
X14025301Y-10992484D01*
X14025301Y-10887722D02*
X14034824Y-10868674D01*
X14034824Y-10868674D02*
X14053872Y-10859150D01*
X14053872Y-10859150D02*
X14082443Y-10859150D01*
X14082443Y-10859150D02*
X14101491Y-10868674D01*
X14101491Y-10868674D02*
X14111015Y-10887722D01*
X14111015Y-10887722D02*
X14111015Y-10992484D01*
X14501491Y-10782960D02*
X14330063Y-11040103D01*
X14758634Y-10792484D02*
X14777682Y-10792484D01*
X14777682Y-10792484D02*
X14796729Y-10802008D01*
X14796729Y-10802008D02*
X14806253Y-10811531D01*
X14806253Y-10811531D02*
X14815777Y-10830579D01*
X14815777Y-10830579D02*
X14825301Y-10868674D01*
X14825301Y-10868674D02*
X14825301Y-10916293D01*
X14825301Y-10916293D02*
X14815777Y-10954389D01*
X14815777Y-10954389D02*
X14806253Y-10973436D01*
X14806253Y-10973436D02*
X14796729Y-10982960D01*
X14796729Y-10982960D02*
X14777682Y-10992484D01*
X14777682Y-10992484D02*
X14758634Y-10992484D01*
X14758634Y-10992484D02*
X14739586Y-10982960D01*
X14739586Y-10982960D02*
X14730063Y-10973436D01*
X14730063Y-10973436D02*
X14720539Y-10954389D01*
X14720539Y-10954389D02*
X14711015Y-10916293D01*
X14711015Y-10916293D02*
X14711015Y-10868674D01*
X14711015Y-10868674D02*
X14720539Y-10830579D01*
X14720539Y-10830579D02*
X14730063Y-10811531D01*
X14730063Y-10811531D02*
X14739586Y-10802008D01*
X14739586Y-10802008D02*
X14758634Y-10792484D01*
X14911015Y-10973436D02*
X14920539Y-10982960D01*
X14920539Y-10982960D02*
X14911015Y-10992484D01*
X14911015Y-10992484D02*
X14901491Y-10982960D01*
X14901491Y-10982960D02*
X14911015Y-10973436D01*
X14911015Y-10973436D02*
X14911015Y-10992484D01*
X15044348Y-10792484D02*
X15063396Y-10792484D01*
X15063396Y-10792484D02*
X15082444Y-10802008D01*
X15082444Y-10802008D02*
X15091967Y-10811531D01*
X15091967Y-10811531D02*
X15101491Y-10830579D01*
X15101491Y-10830579D02*
X15111015Y-10868674D01*
X15111015Y-10868674D02*
X15111015Y-10916293D01*
X15111015Y-10916293D02*
X15101491Y-10954389D01*
X15101491Y-10954389D02*
X15091967Y-10973436D01*
X15091967Y-10973436D02*
X15082444Y-10982960D01*
X15082444Y-10982960D02*
X15063396Y-10992484D01*
X15063396Y-10992484D02*
X15044348Y-10992484D01*
X15044348Y-10992484D02*
X15025301Y-10982960D01*
X15025301Y-10982960D02*
X15015777Y-10973436D01*
X15015777Y-10973436D02*
X15006253Y-10954389D01*
X15006253Y-10954389D02*
X14996729Y-10916293D01*
X14996729Y-10916293D02*
X14996729Y-10868674D01*
X14996729Y-10868674D02*
X15006253Y-10830579D01*
X15006253Y-10830579D02*
X15015777Y-10811531D01*
X15015777Y-10811531D02*
X15025301Y-10802008D01*
X15025301Y-10802008D02*
X15044348Y-10792484D01*
X15282444Y-10859150D02*
X15282444Y-10992484D01*
X15234825Y-10782960D02*
X15187206Y-10925817D01*
X15187206Y-10925817D02*
X15311015Y-10925817D01*
X15425301Y-10792484D02*
X15444348Y-10792484D01*
X15444348Y-10792484D02*
X15463396Y-10802008D01*
X15463396Y-10802008D02*
X15472920Y-10811531D01*
X15472920Y-10811531D02*
X15482444Y-10830579D01*
X15482444Y-10830579D02*
X15491967Y-10868674D01*
X15491967Y-10868674D02*
X15491967Y-10916293D01*
X15491967Y-10916293D02*
X15482444Y-10954389D01*
X15482444Y-10954389D02*
X15472920Y-10973436D01*
X15472920Y-10973436D02*
X15463396Y-10982960D01*
X15463396Y-10982960D02*
X15444348Y-10992484D01*
X15444348Y-10992484D02*
X15425301Y-10992484D01*
X15425301Y-10992484D02*
X15406253Y-10982960D01*
X15406253Y-10982960D02*
X15396729Y-10973436D01*
X15396729Y-10973436D02*
X15387206Y-10954389D01*
X15387206Y-10954389D02*
X15377682Y-10916293D01*
X15377682Y-10916293D02*
X15377682Y-10868674D01*
X15377682Y-10868674D02*
X15387206Y-10830579D01*
X15387206Y-10830579D02*
X15396729Y-10811531D01*
X15396729Y-10811531D02*
X15406253Y-10802008D01*
X15406253Y-10802008D02*
X15425301Y-10792484D01*
X15568158Y-10811531D02*
X15577682Y-10802008D01*
X15577682Y-10802008D02*
X15596729Y-10792484D01*
X15596729Y-10792484D02*
X15644348Y-10792484D01*
X15644348Y-10792484D02*
X15663396Y-10802008D01*
X15663396Y-10802008D02*
X15672920Y-10811531D01*
X15672920Y-10811531D02*
X15682444Y-10830579D01*
X15682444Y-10830579D02*
X15682444Y-10849627D01*
X15682444Y-10849627D02*
X15672920Y-10878198D01*
X15672920Y-10878198D02*
X15558634Y-10992484D01*
X15558634Y-10992484D02*
X15682444Y-10992484D01*
X15758634Y-10792484D02*
X15758634Y-10830579D01*
X15834825Y-10792484D02*
X15834825Y-10830579D01*
X16130063Y-11068674D02*
X16120539Y-11059150D01*
X16120539Y-11059150D02*
X16101491Y-11030579D01*
X16101491Y-11030579D02*
X16091968Y-11011531D01*
X16091968Y-11011531D02*
X16082444Y-10982960D01*
X16082444Y-10982960D02*
X16072920Y-10935341D01*
X16072920Y-10935341D02*
X16072920Y-10897246D01*
X16072920Y-10897246D02*
X16082444Y-10849627D01*
X16082444Y-10849627D02*
X16091968Y-10821055D01*
X16091968Y-10821055D02*
X16101491Y-10802008D01*
X16101491Y-10802008D02*
X16120539Y-10773436D01*
X16120539Y-10773436D02*
X16130063Y-10763912D01*
X16234825Y-10878198D02*
X16215777Y-10868674D01*
X16215777Y-10868674D02*
X16206253Y-10859150D01*
X16206253Y-10859150D02*
X16196729Y-10840103D01*
X16196729Y-10840103D02*
X16196729Y-10830579D01*
X16196729Y-10830579D02*
X16206253Y-10811531D01*
X16206253Y-10811531D02*
X16215777Y-10802008D01*
X16215777Y-10802008D02*
X16234825Y-10792484D01*
X16234825Y-10792484D02*
X16272920Y-10792484D01*
X16272920Y-10792484D02*
X16291968Y-10802008D01*
X16291968Y-10802008D02*
X16301491Y-10811531D01*
X16301491Y-10811531D02*
X16311015Y-10830579D01*
X16311015Y-10830579D02*
X16311015Y-10840103D01*
X16311015Y-10840103D02*
X16301491Y-10859150D01*
X16301491Y-10859150D02*
X16291968Y-10868674D01*
X16291968Y-10868674D02*
X16272920Y-10878198D01*
X16272920Y-10878198D02*
X16234825Y-10878198D01*
X16234825Y-10878198D02*
X16215777Y-10887722D01*
X16215777Y-10887722D02*
X16206253Y-10897246D01*
X16206253Y-10897246D02*
X16196729Y-10916293D01*
X16196729Y-10916293D02*
X16196729Y-10954389D01*
X16196729Y-10954389D02*
X16206253Y-10973436D01*
X16206253Y-10973436D02*
X16215777Y-10982960D01*
X16215777Y-10982960D02*
X16234825Y-10992484D01*
X16234825Y-10992484D02*
X16272920Y-10992484D01*
X16272920Y-10992484D02*
X16291968Y-10982960D01*
X16291968Y-10982960D02*
X16301491Y-10973436D01*
X16301491Y-10973436D02*
X16311015Y-10954389D01*
X16311015Y-10954389D02*
X16311015Y-10916293D01*
X16311015Y-10916293D02*
X16301491Y-10897246D01*
X16301491Y-10897246D02*
X16291968Y-10887722D01*
X16291968Y-10887722D02*
X16272920Y-10878198D01*
X16549110Y-10992484D02*
X16549110Y-10792484D01*
X16634825Y-10992484D02*
X16634825Y-10887722D01*
X16634825Y-10887722D02*
X16625301Y-10868674D01*
X16625301Y-10868674D02*
X16606253Y-10859150D01*
X16606253Y-10859150D02*
X16577682Y-10859150D01*
X16577682Y-10859150D02*
X16558634Y-10868674D01*
X16558634Y-10868674D02*
X16549110Y-10878198D01*
X16758634Y-10992484D02*
X16739587Y-10982960D01*
X16739587Y-10982960D02*
X16730063Y-10973436D01*
X16730063Y-10973436D02*
X16720539Y-10954389D01*
X16720539Y-10954389D02*
X16720539Y-10897246D01*
X16720539Y-10897246D02*
X16730063Y-10878198D01*
X16730063Y-10878198D02*
X16739587Y-10868674D01*
X16739587Y-10868674D02*
X16758634Y-10859150D01*
X16758634Y-10859150D02*
X16787206Y-10859150D01*
X16787206Y-10859150D02*
X16806253Y-10868674D01*
X16806253Y-10868674D02*
X16815777Y-10878198D01*
X16815777Y-10878198D02*
X16825301Y-10897246D01*
X16825301Y-10897246D02*
X16825301Y-10954389D01*
X16825301Y-10954389D02*
X16815777Y-10973436D01*
X16815777Y-10973436D02*
X16806253Y-10982960D01*
X16806253Y-10982960D02*
X16787206Y-10992484D01*
X16787206Y-10992484D02*
X16758634Y-10992484D01*
X16939587Y-10992484D02*
X16920539Y-10982960D01*
X16920539Y-10982960D02*
X16911015Y-10963912D01*
X16911015Y-10963912D02*
X16911015Y-10792484D01*
X17091968Y-10982960D02*
X17072920Y-10992484D01*
X17072920Y-10992484D02*
X17034825Y-10992484D01*
X17034825Y-10992484D02*
X17015777Y-10982960D01*
X17015777Y-10982960D02*
X17006253Y-10963912D01*
X17006253Y-10963912D02*
X17006253Y-10887722D01*
X17006253Y-10887722D02*
X17015777Y-10868674D01*
X17015777Y-10868674D02*
X17034825Y-10859150D01*
X17034825Y-10859150D02*
X17072920Y-10859150D01*
X17072920Y-10859150D02*
X17091968Y-10868674D01*
X17091968Y-10868674D02*
X17101492Y-10887722D01*
X17101492Y-10887722D02*
X17101492Y-10906770D01*
X17101492Y-10906770D02*
X17006253Y-10925817D01*
X17177682Y-10982960D02*
X17196730Y-10992484D01*
X17196730Y-10992484D02*
X17234825Y-10992484D01*
X17234825Y-10992484D02*
X17253873Y-10982960D01*
X17253873Y-10982960D02*
X17263396Y-10963912D01*
X17263396Y-10963912D02*
X17263396Y-10954389D01*
X17263396Y-10954389D02*
X17253873Y-10935341D01*
X17253873Y-10935341D02*
X17234825Y-10925817D01*
X17234825Y-10925817D02*
X17206253Y-10925817D01*
X17206253Y-10925817D02*
X17187206Y-10916293D01*
X17187206Y-10916293D02*
X17177682Y-10897246D01*
X17177682Y-10897246D02*
X17177682Y-10887722D01*
X17177682Y-10887722D02*
X17187206Y-10868674D01*
X17187206Y-10868674D02*
X17206253Y-10859150D01*
X17206253Y-10859150D02*
X17234825Y-10859150D01*
X17234825Y-10859150D02*
X17253873Y-10868674D01*
X17330063Y-11068674D02*
X17339587Y-11059150D01*
X17339587Y-11059150D02*
X17358634Y-11030579D01*
X17358634Y-11030579D02*
X17368158Y-11011531D01*
X17368158Y-11011531D02*
X17377682Y-10982960D01*
X17377682Y-10982960D02*
X17387206Y-10935341D01*
X17387206Y-10935341D02*
X17387206Y-10897246D01*
X17387206Y-10897246D02*
X17377682Y-10849627D01*
X17377682Y-10849627D02*
X17368158Y-10821055D01*
X17368158Y-10821055D02*
X17358634Y-10802008D01*
X17358634Y-10802008D02*
X17339587Y-10773436D01*
X17339587Y-10773436D02*
X17330063Y-10763912D01*
M02*
