%TF.GenerationSoftware,KiCad,Pcbnew,10.0.6*%
%TF.CreationDate,2026-09-25T16:47:10-07:00*%
%TF.ProjectId,luftctl-modified,6c756674-6374-46c2-9d6d-6f6469666965,rev?*%
%TF.SameCoordinates,Original*%
%TF.FileFunction,Copper,L1,Top*%
%TF.FilePolarity,Positive*%
%FSLAX46Y46*%
G04 Gerber Fmt 4.6, Leading zero omitted, Abs format (unit mm)*
G04 Created by KiCad (PCBNEW 10.0.6) date 2026-09-25 16:47:10*
%MOMM*%
%LPD*%
G01*
G04 APERTURE LIST*
G04 Aperture macros list*
%AMRoundRect*
0 Rectangle with rounded corners*
0 $1 Rounding radius*
0 $2 $3 $4 $5 $6 $7 $8 $9 X,Y pos of 4 corners*
0 Add a 4 corners polygon primitive as box body*
4,1,4,$2,$3,$4,$5,$6,$7,$8,$9,$2,$3,0*
0 Add four circle primitives for the rounded corners*
1,1,$1+$1,$2,$3*
1,1,$1+$1,$4,$5*
1,1,$1+$1,$6,$7*
1,1,$1+$1,$8,$9*
0 Add four rect primitives between the rounded corners*
20,1,$1+$1,$2,$3,$4,$5,0*
20,1,$1+$1,$4,$5,$6,$7,0*
20,1,$1+$1,$6,$7,$8,$9,0*
20,1,$1+$1,$8,$9,$2,$3,0*%
G04 Aperture macros list end*
%TA.AperFunction,SMDPad,CuDef*%
%ADD10RoundRect,0.250000X0.475000X-0.337500X0.475000X0.337500X-0.475000X0.337500X-0.475000X-0.337500X0*%
%TD*%
%TA.AperFunction,SMDPad,CuDef*%
%ADD11RoundRect,0.250000X-0.325000X-0.450000X0.325000X-0.450000X0.325000X0.450000X-0.325000X0.450000X0*%
%TD*%
%TA.AperFunction,SMDPad,CuDef*%
%ADD12RoundRect,0.250000X0.350000X0.450000X-0.350000X0.450000X-0.350000X-0.450000X0.350000X-0.450000X0*%
%TD*%
%TA.AperFunction,SMDPad,CuDef*%
%ADD13RoundRect,0.250000X-0.350000X-0.450000X0.350000X-0.450000X0.350000X0.450000X-0.350000X0.450000X0*%
%TD*%
%TA.AperFunction,SMDPad,CuDef*%
%ADD14R,5.100000X2.350000*%
%TD*%
%TA.AperFunction,SMDPad,CuDef*%
%ADD15RoundRect,0.150000X-0.150000X0.512500X-0.150000X-0.512500X0.150000X-0.512500X0.150000X0.512500X0*%
%TD*%
%TA.AperFunction,SMDPad,CuDef*%
%ADD16RoundRect,0.250000X0.450000X-0.350000X0.450000X0.350000X-0.450000X0.350000X-0.450000X-0.350000X0*%
%TD*%
%TA.AperFunction,SMDPad,CuDef*%
%ADD17RoundRect,0.250000X-0.475000X0.337500X-0.475000X-0.337500X0.475000X-0.337500X0.475000X0.337500X0*%
%TD*%
%TA.AperFunction,SMDPad,CuDef*%
%ADD18RoundRect,0.250000X-0.337500X-0.475000X0.337500X-0.475000X0.337500X0.475000X-0.337500X0.475000X0*%
%TD*%
%TA.AperFunction,SMDPad,CuDef*%
%ADD19RoundRect,0.150000X-0.150000X-0.625000X0.150000X-0.625000X0.150000X0.625000X-0.150000X0.625000X0*%
%TD*%
%TA.AperFunction,SMDPad,CuDef*%
%ADD20RoundRect,0.250000X-0.350000X-0.650000X0.350000X-0.650000X0.350000X0.650000X-0.350000X0.650000X0*%
%TD*%
%TA.AperFunction,ComponentPad*%
%ADD21R,1.700000X1.700000*%
%TD*%
%TA.AperFunction,ComponentPad*%
%ADD22C,1.700000*%
%TD*%
%TA.AperFunction,ComponentPad*%
%ADD23C,1.500000*%
%TD*%
%TA.AperFunction,SMDPad,CuDef*%
%ADD24R,1.050000X0.650000*%
%TD*%
%TA.AperFunction,SMDPad,CuDef*%
%ADD25R,1.500000X0.900000*%
%TD*%
%TA.AperFunction,SMDPad,CuDef*%
%ADD26R,4.000000X4.000000*%
%TD*%
%TA.AperFunction,SMDPad,CuDef*%
%ADD27RoundRect,0.150000X-0.687500X-0.150000X0.687500X-0.150000X0.687500X0.150000X-0.687500X0.150000X0*%
%TD*%
%TA.AperFunction,HeatsinkPad*%
%ADD28R,2.100000X3.300000*%
%TD*%
%TA.AperFunction,SMDPad,CuDef*%
%ADD29RoundRect,0.250000X0.325000X0.450000X-0.325000X0.450000X-0.325000X-0.450000X0.325000X-0.450000X0*%
%TD*%
%TA.AperFunction,ComponentPad*%
%ADD30R,3.030000X1.730000*%
%TD*%
%TA.AperFunction,ComponentPad*%
%ADD31O,3.030000X1.730000*%
%TD*%
%TA.AperFunction,SMDPad,CuDef*%
%ADD32RoundRect,0.150000X-0.512500X-0.150000X0.512500X-0.150000X0.512500X0.150000X-0.512500X0.150000X0*%
%TD*%
%TA.AperFunction,SMDPad,CuDef*%
%ADD33R,1.450000X0.600000*%
%TD*%
%TA.AperFunction,SMDPad,CuDef*%
%ADD34R,1.450000X0.300000*%
%TD*%
%TA.AperFunction,ComponentPad*%
%ADD35O,2.100000X1.000000*%
%TD*%
%TA.AperFunction,ComponentPad*%
%ADD36O,1.600000X1.000000*%
%TD*%
%TA.AperFunction,ViaPad*%
%ADD37C,0.600000*%
%TD*%
%TA.AperFunction,Conductor*%
%ADD38C,0.200000*%
%TD*%
G04 APERTURE END LIST*
D10*
%TO.P,C5,1*%
%TO.N,GND*%
X168000000Y-65387500D03*
%TO.P,C5,2*%
%TO.N,+12V*%
X168000000Y-63312500D03*
%TD*%
D11*
%TO.P,D3,1,K*%
%TO.N,Net-(D3-K)*%
X166200000Y-53150000D03*
%TO.P,D3,2,A*%
%TO.N,+12V*%
X168250000Y-53150000D03*
%TD*%
D12*
%TO.P,R3,1*%
%TO.N,GPIO3*%
X168000000Y-60950000D03*
%TO.P,R3,2*%
%TO.N,GND*%
X166000000Y-60950000D03*
%TD*%
D13*
%TO.P,R14,1*%
%TO.N,CFG2*%
X147000000Y-83000000D03*
%TO.P,R14,2*%
%TO.N,GND*%
X149000000Y-83000000D03*
%TD*%
%TO.P,R10,1*%
%TO.N,Net-(D3-K)*%
X166225000Y-51150000D03*
%TO.P,R10,2*%
%TO.N,GND*%
X168225000Y-51150000D03*
%TD*%
D14*
%TO.P,L2,1*%
%TO.N,SW_BUCK*%
X172000000Y-81075000D03*
%TO.P,L2,2*%
%TO.N,+3V3*%
X172000000Y-76925000D03*
%TD*%
D15*
%TO.P,U3,1,I/O1*%
%TO.N,CC2*%
X171700000Y-67325000D03*
%TO.P,U3,2,GND*%
%TO.N,GND*%
X170750000Y-67325000D03*
%TO.P,U3,3,I/O2*%
%TO.N,USB+*%
X169800000Y-67325000D03*
%TO.P,U3,4,I/O3*%
%TO.N,USB-*%
X169800000Y-69600000D03*
%TO.P,U3,5,VBUS*%
%TO.N,VBUS*%
X170750000Y-69600000D03*
%TO.P,U3,6,I/O4*%
%TO.N,CC1*%
X171700000Y-69600000D03*
%TD*%
D16*
%TO.P,R8,1*%
%TO.N,EN*%
X139600000Y-59350000D03*
%TO.P,R8,2*%
%TO.N,+3V3*%
X139600000Y-57350000D03*
%TD*%
D10*
%TO.P,C10,1*%
%TO.N,GND*%
X163200000Y-60237500D03*
%TO.P,C10,2*%
%TO.N,+3V3*%
X163200000Y-58162500D03*
%TD*%
D17*
%TO.P,C11,1*%
%TO.N,GND*%
X135012500Y-53575000D03*
%TO.P,C11,2*%
%TO.N,+3V3*%
X135012500Y-55650000D03*
%TD*%
D13*
%TO.P,R12,1*%
%TO.N,FB_BUCK*%
X137000000Y-83000000D03*
%TO.P,R12,2*%
%TO.N,GND*%
X139000000Y-83000000D03*
%TD*%
D18*
%TO.P,C13,1*%
%TO.N,+12V*%
X148962500Y-79000000D03*
%TO.P,C13,2*%
%TO.N,GND*%
X151037500Y-79000000D03*
%TD*%
D19*
%TO.P,J3,1,Pin_1*%
%TO.N,GND*%
X134600000Y-69300000D03*
%TO.P,J3,2,Pin_2*%
%TO.N,+3V3*%
X135600000Y-69300000D03*
%TO.P,J3,3,Pin_3*%
%TO.N,SDA*%
X136600000Y-69300000D03*
%TO.P,J3,4,Pin_4*%
%TO.N,SCL*%
X137600000Y-69300000D03*
D20*
%TO.P,J3,MP,MountPin*%
%TO.N,GND*%
X133300000Y-73175000D03*
X138900000Y-73175000D03*
%TD*%
D18*
%TO.P,C14,1*%
%TO.N,+3V3*%
X153962500Y-79000000D03*
%TO.P,C14,2*%
%TO.N,GND*%
X156037500Y-79000000D03*
%TD*%
D21*
%TO.P,J6,1*%
%TO.N,+3V3*%
X145000000Y-88000000D03*
D22*
%TO.P,J6,2*%
%TO.N,GND*%
X147540000Y-88000000D03*
%TO.P,J6,3*%
%TO.N,GPIO2*%
X150080000Y-88000000D03*
%TO.P,J6,4*%
%TO.N,GPIO3*%
X152620000Y-88000000D03*
%TO.P,J6,5*%
%TO.N,GPIO8*%
X155160000Y-88000000D03*
%TO.P,J6,6*%
%TO.N,RXD*%
X157700000Y-88000000D03*
%TO.P,J6,7*%
%TO.N,TXD*%
X160240000Y-88000000D03*
%TO.P,J6,8*%
%TO.N,GND*%
X162780000Y-88000000D03*
%TD*%
D23*
%TO.P,TP4,1,1*%
%TO.N,GND*%
X162000000Y-66200000D03*
%TD*%
D24*
%TO.P,JP1,1,A*%
%TO.N,GND*%
X145575000Y-73575000D03*
X141425000Y-73575000D03*
%TO.P,JP1,2,B*%
%TO.N,BOOT*%
X145575000Y-71425000D03*
X141425000Y-71425000D03*
%TD*%
%TO.P,SW1,1,1*%
%TO.N,GND*%
X159375000Y-73575000D03*
X155225000Y-73575000D03*
%TO.P,SW1,2,2*%
%TO.N,EN*%
X159375000Y-71425000D03*
X155225000Y-71425000D03*
%TD*%
D18*
%TO.P,C15,1*%
%TO.N,VDD_CH*%
X158962500Y-79000000D03*
%TO.P,C15,2*%
%TO.N,GND*%
X161037500Y-79000000D03*
%TD*%
D13*
%TO.P,R7,1*%
%TO.N,GPIO8*%
X133450000Y-61400000D03*
%TO.P,R7,2*%
%TO.N,+3V3*%
X135450000Y-61400000D03*
%TD*%
%TO.P,R11,1*%
%TO.N,+3V3*%
X132000000Y-83000000D03*
%TO.P,R11,2*%
%TO.N,FB_BUCK*%
X134000000Y-83000000D03*
%TD*%
D19*
%TO.P,J2,1,Pin_1*%
%TO.N,GND*%
X162800000Y-69300000D03*
%TO.P,J2,2,Pin_2*%
%TO.N,+3V3*%
X163800000Y-69300000D03*
%TO.P,J2,3,Pin_3*%
%TO.N,TXD*%
X164800000Y-69300000D03*
%TO.P,J2,4,Pin_4*%
%TO.N,RXD*%
X165800000Y-69300000D03*
D20*
%TO.P,J2,MP,MountPin*%
%TO.N,GND*%
X161500000Y-73175000D03*
X167100000Y-73175000D03*
%TD*%
D16*
%TO.P,R6,1*%
%TO.N,GPIO2*%
X161200000Y-60200000D03*
%TO.P,R6,2*%
%TO.N,+3V3*%
X161200000Y-58200000D03*
%TD*%
D13*
%TO.P,R15,1*%
%TO.N,CFG3*%
X152000000Y-83000000D03*
%TO.P,R15,2*%
%TO.N,VDD_CH*%
X154000000Y-83000000D03*
%TD*%
D25*
%TO.P,U4,1,VDD*%
%TO.N,+3V3*%
X141650000Y-57200000D03*
%TO.P,U4,2,EN*%
%TO.N,EN*%
X141650000Y-58700000D03*
%TO.P,U4,3,IO4*%
%TO.N,FAN1_PWM*%
X141650000Y-60200000D03*
%TO.P,U4,4,IO5*%
%TO.N,FAN1_Tacho*%
X141650000Y-61700000D03*
%TO.P,U4,5,IO6*%
%TO.N,FAN2_PWM*%
X141650000Y-63200000D03*
%TO.P,U4,6,IO7*%
%TO.N,FAN2_Tacho*%
X141650000Y-64700000D03*
%TO.P,U4,7,IO8*%
%TO.N,GPIO8*%
X141650000Y-66200000D03*
%TO.P,U4,8,IO9*%
%TO.N,BOOT*%
X141650000Y-67700000D03*
%TO.P,U4,9,GND*%
%TO.N,GND*%
X141650000Y-69200000D03*
%TO.P,U4,10,IO10*%
%TO.N,LED*%
X159150000Y-69200000D03*
%TO.P,U4,11,RXD/IO20*%
%TO.N,RXD*%
X159150000Y-67700000D03*
%TO.P,U4,12,TXD/IO21*%
%TO.N,TXD*%
X159150000Y-66200000D03*
%TO.P,U4,13,D-/IO18*%
%TO.N,USB-*%
X159150000Y-64700000D03*
%TO.P,U4,14,D+/IO19*%
%TO.N,USB+*%
X159150000Y-63200000D03*
%TO.P,U4,15,IO3*%
%TO.N,GPIO3*%
X159150000Y-61700000D03*
%TO.P,U4,16,IO2*%
%TO.N,GPIO2*%
X159150000Y-60200000D03*
%TO.P,U4,17,IO1*%
%TO.N,SCL*%
X159150000Y-58700000D03*
%TO.P,U4,18,IO0*%
%TO.N,SDA*%
X159150000Y-57200000D03*
D26*
%TO.P,U4,19,GND*%
%TO.N,GND*%
X151500000Y-63810000D03*
%TD*%
D27*
%TO.P,U5,1*%
%TO.N,VDD_CH*%
X130362500Y-77000000D03*
%TO.P,U5,2*%
%TO.N,CFG2*%
X130362500Y-78000000D03*
%TO.P,U5,3*%
%TO.N,CFG3*%
X130362500Y-79000000D03*
%TO.P,U5,4*%
%TO.N,unconnected-(U5-DP-Pad4)*%
X130362500Y-80000000D03*
%TO.P,U5,5*%
%TO.N,unconnected-(U5-DM-Pad5)*%
X130362500Y-81000000D03*
%TO.P,U5,6*%
%TO.N,CC2*%
X135637500Y-81000000D03*
%TO.P,U5,7*%
%TO.N,CC1*%
X135637500Y-80000000D03*
%TO.P,U5,8*%
%TO.N,VBUS*%
X135637500Y-79000000D03*
%TO.P,U5,9*%
%TO.N,CFG1*%
X135637500Y-78000000D03*
%TO.P,U5,10*%
%TO.N,unconnected-(U5-PG-Pad10)*%
X135637500Y-77000000D03*
D28*
%TO.P,U5,11*%
%TO.N,GND*%
X133000000Y-79000000D03*
%TD*%
D17*
%TO.P,C1,1*%
%TO.N,GND*%
X173550000Y-57262500D03*
%TO.P,C1,2*%
%TO.N,+12V*%
X173550000Y-59337500D03*
%TD*%
D10*
%TO.P,C7,1*%
%TO.N,GND*%
X166000000Y-65387500D03*
%TO.P,C7,2*%
%TO.N,+12V*%
X166000000Y-63312500D03*
%TD*%
D13*
%TO.P,R16,1*%
%TO.N,VBUS*%
X129000000Y-88000000D03*
%TO.P,R16,2*%
%TO.N,VDD_CH*%
X131000000Y-88000000D03*
%TD*%
D18*
%TO.P,C8,1*%
%TO.N,+12V*%
X170262500Y-52700000D03*
%TO.P,C8,2*%
%TO.N,GND*%
X172337500Y-52700000D03*
%TD*%
D12*
%TO.P,R9,1*%
%TO.N,Net-(D2-K)*%
X149500000Y-71600000D03*
%TO.P,R9,2*%
%TO.N,GND*%
X147500000Y-71600000D03*
%TD*%
D18*
%TO.P,C12,1*%
%TO.N,BST_BUCK*%
X156962500Y-83000000D03*
%TO.P,C12,2*%
%TO.N,SW_BUCK*%
X159037500Y-83000000D03*
%TD*%
%TO.P,C9,1*%
%TO.N,GND*%
X137262500Y-61400000D03*
%TO.P,C9,2*%
%TO.N,EN*%
X139337500Y-61400000D03*
%TD*%
D23*
%TO.P,TP3,1,1*%
%TO.N,+3V3*%
X132800000Y-51600000D03*
%TD*%
D29*
%TO.P,FB1,1*%
%TO.N,VBUS*%
X171925000Y-63300000D03*
%TO.P,FB1,2*%
%TO.N,+12V*%
X169875000Y-63300000D03*
%TD*%
D10*
%TO.P,C4,1*%
%TO.N,+3V3*%
X133012500Y-55650000D03*
%TO.P,C4,2*%
%TO.N,GND*%
X133012500Y-53575000D03*
%TD*%
D13*
%TO.P,R13,1*%
%TO.N,CFG1*%
X142000000Y-83000000D03*
%TO.P,R13,2*%
%TO.N,GND*%
X144000000Y-83000000D03*
%TD*%
D30*
%TO.P,J5,1,Pin_1*%
%TO.N,GND*%
X127900000Y-72200000D03*
D31*
%TO.P,J5,2,Pin_2*%
%TO.N,+12V*%
X127900000Y-69660000D03*
%TO.P,J5,3,Pin_3*%
%TO.N,FAN2_Tacho*%
X127900000Y-67120000D03*
%TO.P,J5,4,Pin_4*%
%TO.N,FAN2_PWM*%
X127900000Y-64580000D03*
%TD*%
D23*
%TO.P,TP1,1,1*%
%TO.N,+12V*%
X175133000Y-51816000D03*
%TD*%
D30*
%TO.P,J4,1,Pin_1*%
%TO.N,GND*%
X127900000Y-60300000D03*
D31*
%TO.P,J4,2,Pin_2*%
%TO.N,+12V*%
X127900000Y-57760000D03*
%TO.P,J4,3,Pin_3*%
%TO.N,FAN1_Tacho*%
X127900000Y-55220000D03*
%TO.P,J4,4,Pin_4*%
%TO.N,FAN1_PWM*%
X127900000Y-52680000D03*
%TD*%
D32*
%TO.P,U6,1*%
%TO.N,GND*%
X141862500Y-78050000D03*
%TO.P,U6,2*%
%TO.N,SW_BUCK*%
X141862500Y-79000000D03*
%TO.P,U6,3*%
%TO.N,+12V*%
X141862500Y-79950000D03*
%TO.P,U6,4*%
%TO.N,FB_BUCK*%
X144137500Y-79950000D03*
%TO.P,U6,5*%
%TO.N,+12V*%
X144137500Y-79000000D03*
%TO.P,U6,6*%
%TO.N,BST_BUCK*%
X144137500Y-78050000D03*
%TD*%
D33*
%TO.P,J1,A1,GND*%
%TO.N,GND*%
X175405000Y-70700000D03*
%TO.P,J1,A4,VBUS*%
%TO.N,VBUS*%
X175405000Y-69900000D03*
D34*
%TO.P,J1,A5,CC1*%
%TO.N,CC1*%
X175405000Y-68700000D03*
%TO.P,J1,A6,D+*%
%TO.N,USB+*%
X175405000Y-67700000D03*
%TO.P,J1,A7,D-*%
%TO.N,USB-*%
X175405000Y-67200000D03*
%TO.P,J1,A8,SBU1*%
%TO.N,unconnected-(J1-SBU1-PadA8)*%
X175405000Y-66200000D03*
D33*
%TO.P,J1,A9,VBUS*%
%TO.N,VBUS*%
X175405000Y-65000000D03*
%TO.P,J1,A12,GND*%
%TO.N,GND*%
X175405000Y-64200000D03*
%TO.P,J1,B1,GND*%
X175405000Y-64200000D03*
%TO.P,J1,B4,VBUS*%
%TO.N,VBUS*%
X175405000Y-65000000D03*
D34*
%TO.P,J1,B5,CC2*%
%TO.N,CC2*%
X175405000Y-65700000D03*
%TO.P,J1,B6,D+*%
%TO.N,USB+*%
X175405000Y-66700000D03*
%TO.P,J1,B7,D-*%
%TO.N,USB-*%
X175405000Y-68200000D03*
%TO.P,J1,B8,SBU2*%
%TO.N,unconnected-(J1-SBU2-PadB8)*%
X175405000Y-69200000D03*
D33*
%TO.P,J1,B9,VBUS*%
%TO.N,VBUS*%
X175405000Y-69900000D03*
%TO.P,J1,B12,GND*%
%TO.N,GND*%
X175405000Y-70700000D03*
D35*
%TO.P,J1,S1,SHIELD*%
X176320000Y-71770000D03*
D36*
X180500000Y-71770000D03*
D35*
X176320000Y-63130000D03*
D36*
X180500000Y-63130000D03*
%TD*%
D11*
%TO.P,D2,1,K*%
%TO.N,Net-(D2-K)*%
X151275000Y-71600000D03*
%TO.P,D2,2,A*%
%TO.N,LED*%
X153325000Y-71600000D03*
%TD*%
D10*
%TO.P,C3,1*%
%TO.N,GND*%
X133012500Y-59487500D03*
%TO.P,C3,2*%
%TO.N,+12V*%
X133012500Y-57412500D03*
%TD*%
D23*
%TO.P,TP2,1,1*%
%TO.N,+12V*%
X132800000Y-67800000D03*
%TD*%
D37*
%TO.N,GND*%
X170008300Y-50992000D03*
X169534300Y-65329800D03*
X148907500Y-81574300D03*
X162652500Y-73811300D03*
X151500900Y-80286200D03*
X132889600Y-69249100D03*
X164629400Y-60774400D03*
X147191700Y-70247500D03*
X174173200Y-64433000D03*
X135409300Y-51361200D03*
X140743800Y-82920600D03*
X138243300Y-62557800D03*
X144243500Y-73538600D03*
X142693500Y-73811300D03*
X174010000Y-70580200D03*
X132089000Y-73167500D03*
X170750000Y-66143000D03*
X162141200Y-79439700D03*
X154174900Y-73656200D03*
X157057800Y-80231000D03*
X142194300Y-77139700D03*
X169021800Y-73811300D03*
X137773400Y-73442800D03*
X173857500Y-52108900D03*
X175298800Y-56932500D03*
X133060100Y-76687700D03*
X161936700Y-68696400D03*
X157067300Y-73812900D03*
X145112900Y-83685500D03*
X148202700Y-65650900D03*
X135782200Y-59338000D03*
X139582000Y-69933900D03*
%TO.N,+12V*%
X165903600Y-75873400D03*
X139203500Y-79692000D03*
%TO.N,GPIO3*%
X155047700Y-61814100D03*
%TO.N,CFG2*%
X137214400Y-81078000D03*
X132119600Y-76741900D03*
%TO.N,+3V3*%
X147488100Y-58569600D03*
X164631800Y-70945800D03*
X147917500Y-73646000D03*
X162868800Y-76759500D03*
X165312300Y-58427900D03*
X147913700Y-76622300D03*
%TO.N,USB-*%
X172989800Y-68241400D03*
X169293600Y-70854400D03*
%TO.N,VBUS*%
X171928600Y-70784400D03*
X172012100Y-65206000D03*
%TO.N,CC1*%
X172530300Y-69726900D03*
X172754600Y-71743500D03*
%TO.N,SDA*%
X140361000Y-67939700D03*
X142935500Y-57483000D03*
%TO.N,SCL*%
X144931800Y-62559300D03*
X142275900Y-70375000D03*
%TO.N,GPIO2*%
X150910800Y-59747500D03*
%TO.N,GPIO8*%
X135187500Y-60168500D03*
X135963300Y-65789700D03*
X155029200Y-68428300D03*
%TO.N,RXD*%
X157421600Y-68586200D03*
%TO.N,TXD*%
X156889800Y-65374300D03*
%TO.N,VDD_CH*%
X155630900Y-82852700D03*
X156055300Y-80438300D03*
%TO.N,CFG3*%
X135500000Y-83379900D03*
X133914300Y-76472900D03*
%TO.N,FAN1_PWM*%
X143483800Y-62445900D03*
%TD*%
%TO.N,GND*%
D38*
X133162000Y-59338000D02*
X133012500Y-59487500D01*
X144685500Y-83685500D02*
X144000000Y-83000000D01*
X174378300Y-70700000D02*
X174129800Y-70700000D01*
X138243200Y-62380700D02*
X137262500Y-61400000D01*
X173857500Y-52108900D02*
X172928600Y-52108900D01*
X170008300Y-50992000D02*
X168383000Y-50992000D01*
X132089000Y-73167500D02*
X133292500Y-73167500D01*
X135012500Y-53575000D02*
X133012500Y-53575000D01*
X139079400Y-82920600D02*
X139000000Y-83000000D01*
X161477200Y-79439700D02*
X161037500Y-79000000D01*
X155225000Y-73575000D02*
X154398300Y-73575000D01*
X163736900Y-60774400D02*
X164629400Y-60774400D01*
X134549100Y-69249100D02*
X134600000Y-69300000D01*
X157067300Y-73812900D02*
X158310400Y-73812900D01*
X163200000Y-60237500D02*
X163736900Y-60774400D01*
X138632200Y-73442800D02*
X138900000Y-73175000D01*
X149000000Y-81666800D02*
X149000000Y-83000000D01*
X162652500Y-73811300D02*
X162136300Y-73811300D01*
X170750000Y-66143000D02*
X170750000Y-67325000D01*
X162141200Y-79439700D02*
X161477200Y-79439700D01*
X164629400Y-60774400D02*
X165824400Y-60774400D01*
X162196400Y-68696400D02*
X162800000Y-69300000D01*
X174378300Y-64227900D02*
X174378300Y-64200000D01*
X142194300Y-77139700D02*
X141862500Y-77471500D01*
X135409300Y-53178200D02*
X135012500Y-53575000D01*
X156037500Y-79210700D02*
X156037500Y-79000000D01*
X175405000Y-70700000D02*
X174378300Y-70700000D01*
X133292500Y-73167500D02*
X133300000Y-73175000D01*
X154317100Y-73656200D02*
X154398300Y-73575000D01*
X151500900Y-80286200D02*
X151037500Y-79822800D01*
X169021800Y-73811300D02*
X167736300Y-73811300D01*
X174173200Y-64433000D02*
X174378300Y-64227900D01*
X145575000Y-73575000D02*
X144748300Y-73575000D01*
X165824400Y-60774400D02*
X166000000Y-60950000D01*
X162136300Y-73811300D02*
X161500000Y-73175000D01*
X159375000Y-73575000D02*
X158548300Y-73575000D01*
X175298800Y-56932500D02*
X173880000Y-56932500D01*
X168383000Y-50992000D02*
X168225000Y-51150000D01*
X157057800Y-80231000D02*
X156037500Y-79210700D01*
X133000000Y-76747800D02*
X133000000Y-79000000D01*
X151500000Y-63810000D02*
X149198300Y-63810000D01*
X147191800Y-70247500D02*
X147191800Y-71291800D01*
X148202700Y-64805600D02*
X149198300Y-63810000D01*
X144243500Y-73538600D02*
X144711900Y-73538600D01*
X174129800Y-70700000D02*
X174010000Y-70580200D01*
X154174900Y-73656200D02*
X154317100Y-73656200D01*
X140743800Y-82920600D02*
X139079400Y-82920600D01*
X133060100Y-76687700D02*
X133000000Y-76747800D01*
X141425000Y-73575000D02*
X142251700Y-73575000D01*
X147191700Y-70247500D02*
X147191800Y-70247500D01*
X138243300Y-62557800D02*
X138243200Y-62557800D01*
X138243200Y-62557800D02*
X138243200Y-62380700D01*
X158310400Y-73812900D02*
X158548300Y-73575000D01*
X140315900Y-69200000D02*
X141650000Y-69200000D01*
X174129800Y-70700000D02*
X174010000Y-70580200D01*
X137773400Y-73442800D02*
X138632200Y-73442800D01*
X144711900Y-73538600D02*
X144748300Y-73575000D01*
X135782200Y-59338000D02*
X133162000Y-59338000D01*
X169534300Y-65329800D02*
X169476600Y-65387500D01*
X132889600Y-69249100D02*
X134549100Y-69249100D01*
X173880000Y-56932500D02*
X173550000Y-57262500D01*
X172928600Y-52108900D02*
X172337500Y-52700000D01*
X135409300Y-51361200D02*
X135409300Y-53178200D01*
X148907500Y-81574300D02*
X149000000Y-81666800D01*
X139582000Y-69933900D02*
X140315900Y-69200000D01*
X142488000Y-73811300D02*
X142251700Y-73575000D01*
X161936700Y-68696400D02*
X162196400Y-68696400D01*
X142693500Y-73811300D02*
X142488000Y-73811300D01*
X175405000Y-64200000D02*
X174378300Y-64200000D01*
X168000000Y-65387500D02*
X166000000Y-65387500D01*
X174010000Y-70580200D02*
X174129800Y-70700000D01*
X151037500Y-79822800D02*
X151037500Y-79000000D01*
X147191800Y-71291800D02*
X147500000Y-71600000D01*
X148202700Y-65650900D02*
X148202700Y-64805600D01*
X167736300Y-73811300D02*
X167100000Y-73175000D01*
X145112900Y-83685500D02*
X144685500Y-83685500D01*
X169476600Y-65387500D02*
X168000000Y-65387500D01*
X141862500Y-77471500D02*
X141862500Y-78050000D01*
%TO.N,+12V*%
X127900000Y-57760000D02*
X132665000Y-57760000D01*
X171670400Y-56570400D02*
X168250000Y-53150000D01*
X143385600Y-79000000D02*
X144137500Y-79000000D01*
X175133000Y-51816000D02*
X174816500Y-51499500D01*
X168700000Y-52700000D02*
X168250000Y-53150000D01*
X174816500Y-51499500D02*
X171463000Y-51499500D01*
X165756500Y-76020500D02*
X165903600Y-75873400D01*
X130940000Y-69660000D02*
X132800000Y-67800000D01*
X139203500Y-79692000D02*
X140889600Y-79692000D01*
X168000000Y-63312500D02*
X166000000Y-63312500D01*
X171670400Y-59337500D02*
X171670400Y-56570400D01*
X168012500Y-63300000D02*
X168000000Y-63312500D01*
X127900000Y-69660000D02*
X130940000Y-69660000D01*
X140889600Y-77593200D02*
X142462300Y-76020500D01*
X144137500Y-79000000D02*
X148962500Y-79000000D01*
X171463000Y-51499500D02*
X170262500Y-52700000D01*
X171670400Y-61504600D02*
X169875000Y-63300000D01*
X140889600Y-79692000D02*
X141604500Y-79692000D01*
X173550000Y-59337500D02*
X171670400Y-59337500D01*
X142435600Y-79950000D02*
X143385600Y-79000000D01*
X141862500Y-79950000D02*
X142435600Y-79950000D01*
X169875000Y-63300000D02*
X168012500Y-63300000D01*
X170262500Y-52700000D02*
X168700000Y-52700000D01*
X140889600Y-79692000D02*
X140889600Y-77593200D01*
X142462300Y-76020500D02*
X165756500Y-76020500D01*
X171670400Y-59337500D02*
X171670400Y-61504600D01*
X141604500Y-79692000D02*
X141862500Y-79950000D01*
X132665000Y-57760000D02*
X133012500Y-57412500D01*
%TO.N,Net-(D3-K)*%
X166225000Y-51150000D02*
X166200000Y-51175000D01*
X166200000Y-51175000D02*
X166200000Y-53150000D01*
%TO.N,GPIO3*%
X155047700Y-61814100D02*
X155161800Y-61700000D01*
X160201700Y-61700000D02*
X160455300Y-61953600D01*
X155161800Y-61700000D02*
X158098300Y-61700000D01*
X159150000Y-61700000D02*
X160201700Y-61700000D01*
X166996400Y-61953600D02*
X168000000Y-60950000D01*
X160455300Y-61953600D02*
X166996400Y-61953600D01*
X159150000Y-61700000D02*
X158098300Y-61700000D01*
%TO.N,CFG2*%
X129847400Y-76033900D02*
X131411600Y-76033900D01*
X137214400Y-81078000D02*
X145078000Y-81078000D01*
X145078000Y-81078000D02*
X147000000Y-83000000D01*
X129200100Y-77346200D02*
X129200100Y-76681200D01*
X129200100Y-76681200D02*
X129847400Y-76033900D01*
X131411600Y-76033900D02*
X132119600Y-76741900D01*
X130362500Y-78000000D02*
X129853900Y-78000000D01*
X129853900Y-78000000D02*
X129200100Y-77346200D01*
%TO.N,SW_BUCK*%
X171551700Y-83000000D02*
X172000000Y-82551700D01*
X172000000Y-81075000D02*
X172000000Y-82551700D01*
X152653500Y-79364100D02*
X154691900Y-81402500D01*
X143429800Y-77431000D02*
X151117600Y-77431000D01*
X152653500Y-78966900D02*
X152653500Y-79364100D01*
X141862500Y-79000000D02*
X142272400Y-79000000D01*
X154691900Y-81402500D02*
X157440000Y-81402500D01*
X142272400Y-79000000D02*
X143000000Y-78272400D01*
X151117600Y-77431000D02*
X152653500Y-78966900D01*
X143000000Y-77860800D02*
X143429800Y-77431000D01*
X143000000Y-78272400D02*
X143000000Y-77860800D01*
X159037500Y-83000000D02*
X171551700Y-83000000D01*
X157440000Y-81402500D02*
X159037500Y-83000000D01*
%TO.N,+3V3*%
X165312300Y-58427900D02*
X165046900Y-58162500D01*
X139750000Y-57200000D02*
X141650000Y-57200000D01*
X163162500Y-58200000D02*
X163200000Y-58162500D01*
X147913700Y-76622300D02*
X151584800Y-76622300D01*
X135600000Y-69795800D02*
X135600000Y-69300000D01*
X135450000Y-61400000D02*
X139500000Y-57350000D01*
X137089900Y-71285700D02*
X135600000Y-69795800D01*
X139550000Y-57350000D02*
X136712500Y-57350000D01*
X131947900Y-54585400D02*
X133012500Y-55650000D01*
X147917500Y-73646000D02*
X146324000Y-72052500D01*
X141801400Y-57200000D02*
X141650000Y-57200000D01*
X155802100Y-76925000D02*
X153962500Y-78764600D01*
X135012500Y-55650000D02*
X133012500Y-55650000D01*
X146324000Y-72052500D02*
X139786600Y-72052500D01*
X165046900Y-58162500D02*
X163200000Y-58162500D01*
X139600000Y-57350000D02*
X139750000Y-57200000D01*
X131947900Y-52452100D02*
X131947900Y-54585400D01*
X139019800Y-71285700D02*
X137089900Y-71285700D01*
X162868800Y-76925000D02*
X155802100Y-76925000D01*
X162868800Y-76925000D02*
X172000000Y-76925000D01*
X162868800Y-76759500D02*
X162868800Y-76925000D01*
X145000000Y-88000000D02*
X137000000Y-88000000D01*
X161200000Y-58200000D02*
X163162500Y-58200000D01*
X137000000Y-88000000D02*
X132000000Y-83000000D01*
X132800000Y-51600000D02*
X131947900Y-52452100D01*
X139550000Y-57350000D02*
X139600000Y-57350000D01*
X163800000Y-70114000D02*
X164631800Y-70945800D01*
X163800000Y-69300000D02*
X163800000Y-70114000D01*
X153962500Y-78764600D02*
X153962500Y-79000000D01*
X151584800Y-76622300D02*
X153962500Y-79000000D01*
X139786600Y-72052500D02*
X139019800Y-71285700D01*
X139500000Y-57350000D02*
X139550000Y-57350000D01*
X136712500Y-57350000D02*
X135012500Y-55650000D01*
X147488100Y-58569600D02*
X143171000Y-58569600D01*
X143171000Y-58569600D02*
X141801400Y-57200000D01*
%TO.N,CC2*%
X164722800Y-75383400D02*
X164487400Y-75618800D01*
X177779900Y-72051400D02*
X177779900Y-67048200D01*
X164887600Y-75218600D02*
X174612700Y-75218600D01*
X136965300Y-80476300D02*
X136441600Y-81000000D01*
X173325000Y-65700000D02*
X171700000Y-67325000D01*
X137438500Y-80476300D02*
X136965300Y-80476300D01*
X164487400Y-75618800D02*
X142296000Y-75618800D01*
X136441600Y-81000000D02*
X135637500Y-81000000D01*
X142296000Y-75618800D02*
X137438500Y-80476300D01*
X175405000Y-65700000D02*
X176431700Y-65700000D01*
X164722800Y-75383400D02*
X164887600Y-75218600D01*
X174612700Y-75218600D02*
X177779900Y-72051400D01*
X175405000Y-65700000D02*
X173325000Y-65700000D01*
X177779900Y-67048200D02*
X176431700Y-65700000D01*
X164722800Y-75383400D02*
X164887600Y-75218600D01*
%TO.N,USB+*%
X174438600Y-67700000D02*
X175405000Y-67700000D01*
X172740700Y-67639700D02*
X172023200Y-68357200D01*
X169800000Y-67700900D02*
X169800000Y-67325000D01*
X174378300Y-66700000D02*
X174378300Y-67639700D01*
X174378300Y-67639700D02*
X172740700Y-67639700D01*
X162165700Y-63200000D02*
X165325400Y-66359700D01*
X168834700Y-66359700D02*
X169800000Y-67325000D01*
X172023200Y-68357200D02*
X170456300Y-68357200D01*
X175405000Y-66700000D02*
X174378300Y-66700000D01*
X159150000Y-63200000D02*
X162165700Y-63200000D01*
X170456300Y-68357200D02*
X169800000Y-67700900D01*
X174378300Y-67639700D02*
X174438600Y-67700000D01*
X165325400Y-66359700D02*
X168834700Y-66359700D01*
%TO.N,USB-*%
X172989800Y-68241400D02*
X174336900Y-68241400D01*
X175405000Y-68200000D02*
X174378300Y-68200000D01*
X163499400Y-65101700D02*
X165207300Y-66809600D01*
X159150000Y-64700000D02*
X160201700Y-64700000D01*
X160603400Y-65101700D02*
X163499400Y-65101700D01*
X175405000Y-68200000D02*
X176431700Y-68200000D01*
X176431700Y-67200000D02*
X176431700Y-68200000D01*
X174336900Y-68241400D02*
X174378300Y-68200000D01*
X165207300Y-66809600D02*
X167009600Y-66809600D01*
X175405000Y-67200000D02*
X176431700Y-67200000D01*
X167009600Y-66809600D02*
X169800000Y-69600000D01*
X169293600Y-70106400D02*
X169293600Y-70854400D01*
X160201700Y-64700000D02*
X160603400Y-65101700D01*
X169800000Y-69600000D02*
X169293600Y-70106400D01*
%TO.N,VBUS*%
X159930000Y-72842300D02*
X160856200Y-71916100D01*
X129514800Y-75230500D02*
X128396700Y-76348600D01*
X136029900Y-75230500D02*
X129514800Y-75230500D01*
X169082800Y-71916100D02*
X170750000Y-70248900D01*
X171929800Y-70586100D02*
X172522000Y-70586100D01*
X128396700Y-87396700D02*
X129000000Y-88000000D01*
X171929800Y-70784900D02*
X171928600Y-70786100D01*
X173208000Y-69900000D02*
X175405000Y-69900000D01*
X136833300Y-78302200D02*
X136833300Y-76033900D01*
X175370300Y-65034700D02*
X172183400Y-65034700D01*
X150398200Y-72842300D02*
X159930000Y-72842300D01*
X138051800Y-74815400D02*
X148425100Y-74815400D01*
X171929800Y-70586100D02*
X171929800Y-70784900D01*
X172183400Y-65034700D02*
X172012100Y-65206000D01*
X173208000Y-69900100D02*
X173208000Y-69900000D01*
X172183400Y-65034700D02*
X172183400Y-63558400D01*
X172183400Y-63558400D02*
X171925000Y-63300000D01*
X136135500Y-79000000D02*
X136833300Y-78302200D01*
X160856200Y-71916100D02*
X169082800Y-71916100D01*
X175405000Y-65000000D02*
X175370300Y-65034700D01*
X171928600Y-70786100D02*
X171928600Y-70784400D01*
X136833300Y-76033900D02*
X138051800Y-74815400D01*
X148425100Y-74815400D02*
X150398200Y-72842300D01*
X170750000Y-70248900D02*
X170750000Y-69600000D01*
X136833300Y-76033900D02*
X136029900Y-75230500D01*
X171087200Y-70586100D02*
X170750000Y-70248900D01*
X171929800Y-70586100D02*
X171087200Y-70586100D01*
X172522000Y-70586100D02*
X173208000Y-69900100D01*
X135637500Y-79000000D02*
X136135500Y-79000000D01*
X128396700Y-76348600D02*
X128396700Y-87396700D01*
%TO.N,CC1*%
X172756200Y-71743500D02*
X172754600Y-71743500D01*
X164120900Y-75217100D02*
X164761300Y-74576700D01*
X172482100Y-69678700D02*
X172482100Y-69600000D01*
X164761300Y-74576700D02*
X169923000Y-74576700D01*
X169923000Y-74576700D02*
X172756200Y-71743500D01*
X172530300Y-69726900D02*
X172482100Y-69678700D01*
X172403400Y-69600000D02*
X171700000Y-69600000D01*
X172482100Y-69600000D02*
X173382100Y-68700000D01*
X135637500Y-80000000D02*
X137264200Y-80000000D01*
X142047100Y-75217100D02*
X164120900Y-75217100D01*
X172444700Y-69600000D02*
X172482100Y-69600000D01*
X137264200Y-80000000D02*
X142047100Y-75217100D01*
X173382100Y-68700000D02*
X175405000Y-68700000D01*
X172403400Y-69600000D02*
X172444700Y-69600000D01*
%TO.N,EN*%
X144100900Y-61956200D02*
X142868000Y-60723300D01*
X142868000Y-60723300D02*
X142701700Y-60557000D01*
X142868000Y-60723300D02*
X142701700Y-60557000D01*
X139337500Y-59612500D02*
X139337500Y-61400000D01*
X142701700Y-60557000D02*
X142701700Y-58700000D01*
X156051700Y-68594100D02*
X154957600Y-67500000D01*
X156051700Y-71425000D02*
X156051700Y-68594100D01*
X144100900Y-62632200D02*
X144100900Y-61956200D01*
X139600000Y-59350000D02*
X140250000Y-58700000D01*
X154957600Y-67500000D02*
X148968700Y-67500000D01*
X156051700Y-71425000D02*
X159375000Y-71425000D01*
X155225000Y-71425000D02*
X156051700Y-71425000D01*
X139600000Y-59350000D02*
X139337500Y-59612500D01*
X148968700Y-67500000D02*
X144100900Y-62632200D01*
X141650000Y-58700000D02*
X142701700Y-58700000D01*
X140250000Y-58700000D02*
X141650000Y-58700000D01*
%TO.N,FB_BUCK*%
X145589100Y-79950000D02*
X144137500Y-79950000D01*
X138320500Y-84320500D02*
X147271900Y-84320500D01*
X136778200Y-82778200D02*
X134221800Y-82778200D01*
X134221800Y-82778200D02*
X134000000Y-83000000D01*
X147271900Y-84320500D02*
X147909000Y-83683400D01*
X137000000Y-83000000D02*
X136778200Y-82778200D01*
X137000000Y-83000000D02*
X138320500Y-84320500D01*
X147909000Y-82269900D02*
X145589100Y-79950000D01*
X147909000Y-83683400D02*
X147909000Y-82269900D01*
%TO.N,SDA*%
X140361000Y-67939700D02*
X137508100Y-67939700D01*
X159150000Y-57200000D02*
X143218500Y-57200000D01*
X136600000Y-68847800D02*
X136600000Y-69300000D01*
X143218500Y-57200000D02*
X142935500Y-57483000D01*
X137508100Y-67939700D02*
X136600000Y-68847800D01*
%TO.N,SCL*%
X142115300Y-70535600D02*
X142275900Y-70375000D01*
X137600000Y-69300000D02*
X138835600Y-70535600D01*
X159150000Y-58700000D02*
X148791100Y-58700000D01*
X138835600Y-70535600D02*
X142115300Y-70535600D01*
X148791100Y-58700000D02*
X144931800Y-62559300D01*
%TO.N,GPIO2*%
X161200000Y-60200000D02*
X159150000Y-60200000D01*
X158098300Y-60200100D02*
X158098300Y-60200000D01*
X158333600Y-60435400D02*
X158098300Y-60200100D01*
X150910800Y-59747500D02*
X152025300Y-60862000D01*
X159150000Y-60200000D02*
X158098300Y-60200000D01*
X152025300Y-60862000D02*
X158239600Y-60862000D01*
X158333600Y-60768000D02*
X158333600Y-60435400D01*
X158239600Y-60862000D02*
X158333600Y-60768000D01*
%TO.N,GPIO8*%
X155029200Y-68428300D02*
X148600100Y-68428300D01*
X135187500Y-60168500D02*
X134681500Y-60168500D01*
X148600100Y-68428300D02*
X146371800Y-66200000D01*
X146371800Y-66200000D02*
X141650000Y-66200000D01*
X136373600Y-66200000D02*
X135963300Y-65789700D01*
X141650000Y-66200000D02*
X136373600Y-66200000D01*
X134681500Y-60168500D02*
X133450000Y-61400000D01*
%TO.N,RXD*%
X165800000Y-68819900D02*
X165800000Y-69300000D01*
X157421600Y-68376700D02*
X158098300Y-67700000D01*
X164680100Y-67700000D02*
X165800000Y-68819900D01*
X157421600Y-68586200D02*
X157421600Y-68376700D01*
X159150000Y-67700000D02*
X158098300Y-67700000D01*
X159150000Y-67700000D02*
X164680100Y-67700000D01*
%TO.N,TXD*%
X156889800Y-65374300D02*
X157715500Y-66200000D01*
X166412800Y-68477700D02*
X165210100Y-67275000D01*
X164800000Y-69776300D02*
X165406500Y-70382800D01*
X166173600Y-70382800D02*
X166412800Y-70143600D01*
X164800000Y-69300000D02*
X164800000Y-69776300D01*
X165406500Y-70382800D02*
X166173600Y-70382800D01*
X159150000Y-66200000D02*
X160201700Y-66200000D01*
X165210100Y-67275000D02*
X161276700Y-67275000D01*
X161276700Y-67275000D02*
X160201700Y-66200000D01*
X157715500Y-66200000D02*
X159150000Y-66200000D01*
X166412800Y-70143600D02*
X166412800Y-68477700D01*
%TO.N,BOOT*%
X142877600Y-67875900D02*
X142701700Y-67700000D01*
X142877600Y-71425000D02*
X142877600Y-67875900D01*
X142877600Y-71425000D02*
X145575000Y-71425000D01*
X141650000Y-67700000D02*
X142701700Y-67700000D01*
X141425000Y-71425000D02*
X142877600Y-71425000D01*
%TO.N,VDD_CH*%
X158962500Y-79000000D02*
X157928500Y-77966000D01*
X131551700Y-81829100D02*
X131000000Y-82380800D01*
X131000000Y-82380800D02*
X131000000Y-88000000D01*
X155630900Y-82852700D02*
X154147300Y-82852700D01*
X155814100Y-80438300D02*
X156055300Y-80438300D01*
X155420700Y-77966000D02*
X155103000Y-78283700D01*
X130893300Y-77000000D02*
X131551700Y-77658400D01*
X155103000Y-79727200D02*
X155814100Y-80438300D01*
X146989900Y-86848300D02*
X150151700Y-86848300D01*
X157928500Y-77966000D02*
X155420700Y-77966000D01*
X154147300Y-82852700D02*
X154000000Y-83000000D01*
X132151700Y-89151700D02*
X146010700Y-89151700D01*
X146270000Y-88892400D02*
X146270000Y-87568200D01*
X146010700Y-89151700D02*
X146270000Y-88892400D01*
X150151700Y-86848300D02*
X154000000Y-83000000D01*
X131551700Y-77658400D02*
X131551700Y-81829100D01*
X146270000Y-87568200D02*
X146989900Y-86848300D01*
X131000000Y-88000000D02*
X132151700Y-89151700D01*
X130362500Y-77000000D02*
X130893300Y-77000000D01*
X155103000Y-78283700D02*
X155103000Y-79727200D01*
%TO.N,CFG3*%
X129681100Y-75632200D02*
X128798400Y-76514900D01*
X136915900Y-84795800D02*
X135500000Y-83379900D01*
X128798400Y-77999000D02*
X129799400Y-79000000D01*
X150204200Y-84795800D02*
X136915900Y-84795800D01*
X133914300Y-76472900D02*
X133073600Y-75632200D01*
X129799400Y-79000000D02*
X130362500Y-79000000D01*
X133073600Y-75632200D02*
X129681100Y-75632200D01*
X128798400Y-76514900D02*
X128798400Y-77999000D01*
X152000000Y-83000000D02*
X150204200Y-84795800D01*
%TO.N,FAN1_PWM*%
X142701700Y-61125000D02*
X142525000Y-60948300D01*
X143483800Y-62445900D02*
X142701700Y-61663800D01*
X142701700Y-61663800D02*
X142701700Y-61125000D01*
X142398300Y-60948300D02*
X141650000Y-60200000D01*
X142525000Y-60948300D02*
X142398300Y-60948300D01*
%TO.N,FAN1_Tacho*%
X127900000Y-55220000D02*
X126083300Y-57036700D01*
X126083300Y-61325400D02*
X127957900Y-63200000D01*
X126083300Y-57036700D02*
X126083300Y-61325400D01*
X138544800Y-63200000D02*
X139295000Y-62449800D01*
X141650000Y-61700000D02*
X140598300Y-61700000D01*
X139295000Y-62449800D02*
X139942900Y-62449800D01*
X139942900Y-62449800D02*
X140598300Y-61794400D01*
X140598300Y-61794400D02*
X140598300Y-61700000D01*
X127957900Y-63200000D02*
X138544800Y-63200000D01*
%TO.N,FAN2_PWM*%
X138811300Y-63601700D02*
X139046700Y-63366300D01*
X129716700Y-64580000D02*
X130695000Y-63601700D01*
X130695000Y-63601700D02*
X138811300Y-63601700D01*
X139213000Y-63200000D02*
X141650000Y-63200000D01*
X139046700Y-63366300D02*
X139213000Y-63200000D01*
X139046700Y-63366300D02*
X139213000Y-63200000D01*
X127900000Y-64580000D02*
X129716700Y-64580000D01*
%TO.N,FAN2_Tacho*%
X129716700Y-67120000D02*
X132136700Y-64700000D01*
X127900000Y-67120000D02*
X129716700Y-67120000D01*
X132136700Y-64700000D02*
X141650000Y-64700000D01*
%TO.N,LED*%
X160031500Y-72051700D02*
X153776700Y-72051700D01*
X159150000Y-69200000D02*
X160201700Y-69200000D01*
X153776700Y-72051700D02*
X153325000Y-71600000D01*
X160201700Y-71881500D02*
X160031500Y-72051700D01*
X160201700Y-69200000D02*
X160201700Y-71881500D01*
%TO.N,CFG1*%
X140940000Y-81940000D02*
X135071900Y-81940000D01*
X135071900Y-81940000D02*
X134490300Y-81358400D01*
X134490300Y-81358400D02*
X134490300Y-78661200D01*
X134490300Y-78661200D02*
X135151500Y-78000000D01*
X142000000Y-83000000D02*
X140940000Y-81940000D01*
X135151500Y-78000000D02*
X135637500Y-78000000D01*
%TO.N,Net-(D2-K)*%
X149500000Y-71600000D02*
X151275000Y-71600000D01*
%TO.N,BST_BUCK*%
X149500800Y-77939900D02*
X150120100Y-78559200D01*
X144137500Y-78050000D02*
X144247600Y-77939900D01*
X144247600Y-77939900D02*
X149500800Y-77939900D01*
X150120100Y-79760000D02*
X152164300Y-81804200D01*
X150120100Y-78559200D02*
X150120100Y-79760000D01*
X155766700Y-81804200D02*
X156962500Y-83000000D01*
X152164300Y-81804200D02*
X155766700Y-81804200D01*
%TD*%
M02*
