M48
; DRILL file KiCad 10.0.6 date 2026-09-25T09:05:12
; FORMAT={-:-/ absolute / metric / decimal}
; #@! TF.CreationDate,2026-09-25T09:05:12-07:00
; #@! TF.GenerationSoftware,Kicad,Pcbnew,10.0.6
; #@! TF.FileFunction,Plated,1,2,PTH
FMAT,2
METRIC
; #@! TA.AperFunction,Plated,PTH,ViaDrill
T1C0.300
; #@! TA.AperFunction,Plated,PTH,ComponentDrill
T2C0.600
; #@! TA.AperFunction,Plated,PTH,ComponentDrill
T3C0.700
; #@! TA.AperFunction,Plated,PTH,ComponentDrill
T4C1.000
; #@! TA.AperFunction,Plated,PTH,ComponentDrill
T5C1.020
%
G90
G05
T1
X129.007Y-78.537
X132.089Y-73.167
X132.945Y-81.628
X133.76Y-68.907
X134.123Y-84.399
X134.26Y-59.514
X135.409Y-51.361
X135.5Y-82.856
X135.661Y-63.174
X135.963Y-66.091
X137.178Y-81.584
X137.262Y-61.4
X137.583Y-80.41
X137.652Y-76.073
X138.174Y-81.619
X138.246Y-62.478
X138.503Y-80.341
X138.594Y-63.32
X138.953Y-76.626
X138.953Y-88.693
X139.0Y-83.0
X139.196Y-67.114
X139.841Y-67.688
X139.95Y-88.852
X140.15Y-73.695
X140.468Y-78.601
X142.694Y-73.813
X142.918Y-59.976
X142.918Y-61.951
X142.918Y-68.696
X144.243Y-73.813
X144.26Y-59.29
X145.118Y-74.69
X145.153Y-59.639
X145.463Y-82.352
X147.024Y-84.272
X147.306Y-70.362
X147.67Y-78.162
X147.809Y-85.188
X147.915Y-76.609
X147.921Y-62.559
X149.0Y-83.0
X150.067Y-79.907
X150.394Y-82.786
X151.45Y-85.403
X152.321Y-67.005
X154.447Y-62.559
X155.206Y-82.092
X156.525Y-73.813
X156.89Y-61.092
X157.147Y-79.44
X157.401Y-68.697
X158.118Y-73.813
X160.404Y-66.135
X160.857Y-77.529
X161.937Y-68.696
X162.617Y-73.813
X162.969Y-74.666
X162.995Y-79.438
X163.052Y-63.071
X163.132Y-56.862
X163.976Y-71.175
X164.881Y-60.774
X168.848Y-87.88
X169.022Y-73.813
X169.534Y-65.331
X170.008Y-50.992
X170.6Y-66.126
X171.583Y-56.932
X171.908Y-65.045
X172.663Y-68.991
X172.911Y-66.465
X173.165Y-67.495
X173.857Y-52.109
X173.979Y-70.473
X174.173Y-64.433
T3
X132.8Y-51.6
X132.8Y-67.8
X162.0Y-66.2
X175.133Y-51.816
T4
X145.0Y-88.0
X147.54Y-88.0
X150.08Y-88.0
X152.62Y-88.0
X155.16Y-88.0
X157.7Y-88.0
X160.24Y-88.0
X162.78Y-88.0
T5
X127.9Y-52.68
X127.9Y-55.22
X127.9Y-57.76
X127.9Y-60.3
X127.9Y-64.58
X127.9Y-67.12
X127.9Y-69.66
X127.9Y-72.2
T2
X175.77Y-63.13G85X176.87Y-63.13
G05
X175.77Y-71.77G85X176.87Y-71.77
G05
X180.2Y-63.13G85X180.8Y-63.13
G05
X180.2Y-71.77G85X180.8Y-71.77
G05
M30
