M48
; DRILL file KiCad 10.0.6 date 2026-09-25T16:47:11
; FORMAT={-:-/ absolute / metric / decimal}
; #@! TF.CreationDate,2026-09-25T16:47:11-07:00
; #@! TF.GenerationSoftware,Kicad,Pcbnew,10.0.6
; #@! TF.FileFunction,Plated,1,2,PTH
FMAT,2
METRIC
; #@! TA.AperFunction,Plated,PTH,ViaDrill
T1C0.300
; #@! TA.AperFunction,Plated,PTH,ComponentDrill
T2C0.600
; #@! TA.AperFunction,Plated,PTH,ComponentDrill
T3C0.700
; #@! TA.AperFunction,Plated,PTH,ComponentDrill
T4C1.000
; #@! TA.AperFunction,Plated,PTH,ComponentDrill
T5C1.020
%
G90
G05
T1
X132.089Y-73.167
X132.12Y-76.742
X132.89Y-69.249
X133.06Y-76.688
X133.914Y-76.473
X135.188Y-60.168
X135.409Y-51.361
X135.5Y-83.38
X135.782Y-59.338
X135.963Y-65.79
X137.214Y-81.078
X137.773Y-73.443
X138.243Y-62.558
X139.203Y-79.692
X139.582Y-69.934
X140.361Y-67.94
X140.744Y-82.921
X142.194Y-77.14
X142.276Y-70.375
X142.694Y-73.811
X142.935Y-57.483
X143.484Y-62.446
X144.243Y-73.539
X144.932Y-62.559
X145.113Y-83.685
X147.192Y-70.248
X147.488Y-58.57
X147.914Y-76.622
X147.917Y-73.646
X148.203Y-65.651
X148.907Y-81.574
X150.911Y-59.747
X151.501Y-80.286
X154.175Y-73.656
X155.029Y-68.428
X155.048Y-61.814
X155.631Y-82.853
X156.055Y-80.438
X156.89Y-65.374
X157.058Y-80.231
X157.067Y-73.813
X157.422Y-68.586
X161.937Y-68.696
X162.141Y-79.44
X162.653Y-73.811
X162.869Y-76.76
X164.629Y-60.774
X164.632Y-70.946
X165.312Y-58.428
X165.904Y-75.873
X169.022Y-73.811
X169.294Y-70.854
X169.534Y-65.33
X170.008Y-50.992
X170.75Y-66.143
X171.929Y-70.784
X172.012Y-65.206
X172.53Y-69.727
X172.755Y-71.743
X172.99Y-68.241
X173.857Y-52.109
X174.01Y-70.58
X174.173Y-64.433
X175.299Y-56.932
T3
X132.8Y-51.6
X132.8Y-67.8
X162.0Y-66.2
X175.133Y-51.816
T4
X145.0Y-88.0
X147.54Y-88.0
X150.08Y-88.0
X152.62Y-88.0
X155.16Y-88.0
X157.7Y-88.0
X160.24Y-88.0
X162.78Y-88.0
T5
X127.9Y-52.68
X127.9Y-55.22
X127.9Y-57.76
X127.9Y-60.3
X127.9Y-64.58
X127.9Y-67.12
X127.9Y-69.66
X127.9Y-72.2
T2
X175.77Y-63.13G85X176.87Y-63.13
G05
X175.77Y-71.77G85X176.87Y-71.77
G05
X180.2Y-63.13G85X180.8Y-63.13
G05
X180.2Y-71.77G85X180.8Y-71.77
G05
M30
