%TF.GenerationSoftware,KiCad,Pcbnew,10.0.6*%
%TF.CreationDate,2026-09-25T09:05:11-07:00*%
%TF.ProjectId,luftctl-modified,6c756674-6374-46c2-9d6d-6f6469666965,rev?*%
%TF.SameCoordinates,Original*%
%TF.FileFunction,Copper,L2,Bot*%
%TF.FilePolarity,Positive*%
%FSLAX46Y46*%
G04 Gerber Fmt 4.6, Leading zero omitted, Abs format (unit mm)*
G04 Created by KiCad (PCBNEW 10.0.6) date 2026-09-25 09:05:11*
%MOMM*%
%LPD*%
G01*
G04 APERTURE LIST*
%TA.AperFunction,ComponentPad*%
%ADD10R,1.700000X1.700000*%
%TD*%
%TA.AperFunction,ComponentPad*%
%ADD11C,1.700000*%
%TD*%
%TA.AperFunction,ComponentPad*%
%ADD12C,1.500000*%
%TD*%
%TA.AperFunction,ComponentPad*%
%ADD13R,3.030000X1.730000*%
%TD*%
%TA.AperFunction,ComponentPad*%
%ADD14O,3.030000X1.730000*%
%TD*%
%TA.AperFunction,ComponentPad*%
%ADD15O,2.100000X1.000000*%
%TD*%
%TA.AperFunction,ComponentPad*%
%ADD16O,1.600000X1.000000*%
%TD*%
%TA.AperFunction,ViaPad*%
%ADD17C,0.600000*%
%TD*%
%TA.AperFunction,Conductor*%
%ADD18C,0.200000*%
%TD*%
G04 APERTURE END LIST*
D10*
%TO.P,J6,1*%
%TO.N,+3V3*%
X145000000Y-88000000D03*
D11*
%TO.P,J6,2*%
%TO.N,GND*%
X147540000Y-88000000D03*
%TO.P,J6,3*%
%TO.N,GPIO2*%
X150080000Y-88000000D03*
%TO.P,J6,4*%
%TO.N,GPIO3*%
X152620000Y-88000000D03*
%TO.P,J6,5*%
%TO.N,GPIO8*%
X155160000Y-88000000D03*
%TO.P,J6,6*%
%TO.N,RXD*%
X157700000Y-88000000D03*
%TO.P,J6,7*%
%TO.N,TXD*%
X160240000Y-88000000D03*
%TO.P,J6,8*%
%TO.N,GND*%
X162780000Y-88000000D03*
%TD*%
D12*
%TO.P,TP4,1,1*%
%TO.N,GND*%
X162000000Y-66200000D03*
%TD*%
%TO.P,TP3,1,1*%
%TO.N,+3V3*%
X132800000Y-51600000D03*
%TD*%
D13*
%TO.P,J5,1,Pin_1*%
%TO.N,GND*%
X127900000Y-72200000D03*
D14*
%TO.P,J5,2,Pin_2*%
%TO.N,+12V*%
X127900000Y-69660000D03*
%TO.P,J5,3,Pin_3*%
%TO.N,FAN2_Tacho*%
X127900000Y-67120000D03*
%TO.P,J5,4,Pin_4*%
%TO.N,FAN2_PWM*%
X127900000Y-64580000D03*
%TD*%
D12*
%TO.P,TP1,1,1*%
%TO.N,+12V*%
X175133000Y-51816000D03*
%TD*%
D13*
%TO.P,J4,1,Pin_1*%
%TO.N,GND*%
X127900000Y-60300000D03*
D14*
%TO.P,J4,2,Pin_2*%
%TO.N,+12V*%
X127900000Y-57760000D03*
%TO.P,J4,3,Pin_3*%
%TO.N,FAN1_Tacho*%
X127900000Y-55220000D03*
%TO.P,J4,4,Pin_4*%
%TO.N,FAN1_PWM*%
X127900000Y-52680000D03*
%TD*%
D15*
%TO.P,J1,S1,SHIELD*%
%TO.N,GND*%
X176320000Y-71770000D03*
D16*
X180500000Y-71770000D03*
D15*
X176320000Y-63130000D03*
D16*
X180500000Y-63130000D03*
%TD*%
D12*
%TO.P,TP2,1,1*%
%TO.N,+12V*%
X132800000Y-67800000D03*
%TD*%
D17*
%TO.N,GND*%
X164881300Y-60774400D03*
X137262500Y-61400000D03*
X142693500Y-73812900D03*
X173979100Y-70473100D03*
X142918500Y-68696400D03*
X140150400Y-73694600D03*
X147921300Y-62559300D03*
X132944800Y-81627900D03*
X135409300Y-51361200D03*
X139000000Y-83000000D03*
X173857500Y-52108900D03*
X138952800Y-76626300D03*
X170600100Y-66126500D03*
X150394000Y-82785800D03*
X170008300Y-50992000D03*
X150067400Y-79907300D03*
X133760000Y-68906700D03*
X155206400Y-82092300D03*
X162994800Y-79438100D03*
X138246000Y-62478400D03*
X138174200Y-81618800D03*
X171583300Y-56932500D03*
X145462700Y-82352100D03*
X144243500Y-73812900D03*
X147306400Y-70362100D03*
X162616700Y-73812900D03*
X149000000Y-83000000D03*
X132089000Y-73167500D03*
X161936700Y-68696400D03*
X157147200Y-79439700D03*
X169021800Y-73812900D03*
X134260100Y-59514400D03*
X158117700Y-73812900D03*
X156525300Y-73812900D03*
X174173200Y-64433000D03*
X169534300Y-65331400D03*
%TO.N,+12V*%
X160857000Y-77529000D03*
X163051700Y-63070600D03*
%TO.N,GPIO3*%
X154447500Y-62559300D03*
%TO.N,+3V3*%
X138594200Y-63320200D03*
X163975600Y-71174800D03*
X163132300Y-56862000D03*
X147915400Y-76609400D03*
%TO.N,FB_BUCK*%
X137652100Y-76072800D03*
X135500000Y-82856500D03*
%TO.N,CC2*%
X138952800Y-88693300D03*
X173164700Y-67494900D03*
X168847800Y-87879900D03*
X137178000Y-81584200D03*
%TO.N,USB+*%
X172910800Y-66465100D03*
X171908300Y-65044900D03*
%TO.N,VBUS*%
X139950100Y-88851800D03*
X138502900Y-80340900D03*
%TO.N,CC1*%
X162969000Y-74666200D03*
X145118200Y-74690200D03*
X137583000Y-80410000D03*
X172662700Y-68990900D03*
%TO.N,GPIO2*%
X156889800Y-61091700D03*
%TO.N,GPIO8*%
X152320700Y-67004800D03*
X135660800Y-63174100D03*
X135963300Y-66091300D03*
X151450100Y-85402700D03*
%TO.N,RXD*%
X157400600Y-68696900D03*
%TO.N,TXD*%
X160404200Y-66135500D03*
%TO.N,SDA*%
X139195900Y-67113800D03*
X144260100Y-59289600D03*
%TO.N,SCL*%
X139841000Y-67687600D03*
X145153400Y-59639200D03*
%TO.N,BST_BUCK*%
X147670300Y-78162200D03*
X147809400Y-85188500D03*
%TO.N,SW_BUCK*%
X147023900Y-84271900D03*
X140468100Y-78601400D03*
%TO.N,CFG2*%
X129007000Y-78537200D03*
X134122600Y-84398800D03*
%TO.N,FAN1_PWM*%
X142918500Y-59976300D03*
%TO.N,FAN1_Tacho*%
X142918500Y-61951300D03*
%TD*%
%TO.N,+12V*%
D18*
X160857000Y-68830400D02*
X163051700Y-66635700D01*
X132800000Y-67800000D02*
X132800000Y-60843300D01*
X163051700Y-66635700D02*
X163051700Y-63070600D01*
X160857000Y-77529000D02*
X160857000Y-68830400D01*
X127900000Y-57760000D02*
X129716700Y-57760000D01*
X132800000Y-60843300D02*
X129716700Y-57760000D01*
%TO.N,GPIO3*%
X152620000Y-88000000D02*
X152922500Y-87697500D01*
X152922500Y-64084300D02*
X154447500Y-62559300D01*
X152922500Y-87697500D02*
X152922500Y-64084300D01*
%TO.N,+3V3*%
X163975600Y-57705300D02*
X163975600Y-71174800D01*
X145000000Y-86848300D02*
X144861000Y-86709300D01*
X139018100Y-67715500D02*
X138946800Y-67715500D01*
X138946800Y-67715500D02*
X138594200Y-67362900D01*
X147912000Y-76609400D02*
X139018100Y-67715500D01*
X145000000Y-88000000D02*
X145000000Y-86848300D01*
X144861000Y-79663800D02*
X147915400Y-76609400D01*
X147915400Y-76609400D02*
X147912000Y-76609400D01*
X138594200Y-67362900D02*
X138594200Y-63320200D01*
X144861000Y-86709300D02*
X144861000Y-79663800D01*
X163132300Y-56862000D02*
X163975600Y-57705300D01*
%TO.N,FB_BUCK*%
X135500000Y-78224900D02*
X137652100Y-76072800D01*
X135500000Y-82856500D02*
X135500000Y-78224900D01*
%TO.N,CC2*%
X138952800Y-88693300D02*
X137178000Y-86918500D01*
X173269800Y-83457900D02*
X168847800Y-87879900D01*
X137178000Y-86918500D02*
X137178000Y-81584200D01*
X173164700Y-67494900D02*
X173269800Y-67600000D01*
X173269800Y-67600000D02*
X173269800Y-83457900D01*
%TO.N,USB+*%
X171908300Y-65044900D02*
X172910800Y-66047400D01*
X172910800Y-66047400D02*
X172910800Y-66465100D01*
%TO.N,VBUS*%
X139950100Y-88851800D02*
X139950100Y-81788100D01*
X139950100Y-81788100D02*
X138502900Y-80340900D01*
%TO.N,CC1*%
X143302800Y-74690200D02*
X137583000Y-80410000D01*
X172662700Y-68990900D02*
X166987500Y-74666100D01*
X166987500Y-74666100D02*
X162969000Y-74666100D01*
X145118200Y-74690200D02*
X143302800Y-74690200D01*
X162969000Y-74666100D02*
X162969000Y-74666200D01*
%TO.N,GPIO2*%
X153890000Y-64091500D02*
X156889800Y-61091700D01*
X153890000Y-88414300D02*
X153890000Y-64091500D01*
X150080000Y-88000000D02*
X151286600Y-89206600D01*
X151286600Y-89206600D02*
X153097700Y-89206600D01*
X153097700Y-89206600D02*
X153890000Y-88414300D01*
%TO.N,GPIO8*%
X135963300Y-63476600D02*
X135660800Y-63174100D01*
X151450100Y-85402700D02*
X152320700Y-84532100D01*
X135963300Y-66091300D02*
X135963300Y-63476600D01*
X152320700Y-84532100D02*
X152320700Y-67004800D01*
%TO.N,RXD*%
X157750800Y-87949200D02*
X157700000Y-88000000D01*
X157750800Y-74296800D02*
X157750800Y-87949200D01*
X157400600Y-68696900D02*
X157400600Y-73946600D01*
X157400600Y-73946600D02*
X157750800Y-74296800D01*
%TO.N,TXD*%
X160240000Y-66299700D02*
X160404200Y-66135500D01*
X160240000Y-88000000D02*
X160240000Y-66299700D01*
%TO.N,SDA*%
X144260100Y-62049600D02*
X139195900Y-67113800D01*
X144260100Y-59289600D02*
X144260100Y-62049600D01*
%TO.N,SCL*%
X139841000Y-67687600D02*
X145153400Y-62375200D01*
X145153400Y-62375200D02*
X145153400Y-59639200D01*
%TO.N,BST_BUCK*%
X147670300Y-85049400D02*
X147670300Y-78162200D01*
X147809400Y-85188500D02*
X147670300Y-85049400D01*
%TO.N,SW_BUCK*%
X146014400Y-89151700D02*
X144025000Y-89151700D01*
X144025000Y-89151700D02*
X140468100Y-85594800D01*
X140468100Y-85594800D02*
X140468100Y-78601400D01*
X146298600Y-88867500D02*
X146014400Y-89151700D01*
X146298600Y-84997200D02*
X146298600Y-88867500D01*
X147023900Y-84271900D02*
X146298600Y-84997200D01*
%TO.N,CFG2*%
X129007000Y-79283200D02*
X129007000Y-78537200D01*
X134122600Y-84398800D02*
X129007000Y-79283200D01*
%TO.N,FAN1_PWM*%
X142918500Y-59976300D02*
X137671300Y-59976300D01*
X137671300Y-59976300D02*
X130375000Y-52680000D01*
X130375000Y-52680000D02*
X127900000Y-52680000D01*
%TO.N,FAN1_Tacho*%
X129716700Y-55901300D02*
X134391900Y-60576500D01*
X134391900Y-60576500D02*
X141543700Y-60576500D01*
X127900000Y-55220000D02*
X129716700Y-55220000D01*
X129716700Y-55220000D02*
X129716700Y-55901300D01*
X141543700Y-60576500D02*
X142918500Y-61951300D01*
%TD*%
%TA.AperFunction,Conductor*%
%TO.N,GND*%
G36*
X132287248Y-50518907D02*
G01*
X132323212Y-50568407D01*
X132323212Y-50629593D01*
X132287248Y-50679093D01*
X132284058Y-50681316D01*
X132130348Y-50784020D01*
X131984020Y-50930348D01*
X131869058Y-51102402D01*
X131789869Y-51293581D01*
X131749500Y-51496532D01*
X131749500Y-51703467D01*
X131789869Y-51906418D01*
X131869058Y-52097597D01*
X131977968Y-52260593D01*
X131984023Y-52269655D01*
X132130345Y-52415977D01*
X132302402Y-52530941D01*
X132493580Y-52610130D01*
X132696535Y-52650500D01*
X132696536Y-52650500D01*
X132903464Y-52650500D01*
X132903465Y-52650500D01*
X133106420Y-52610130D01*
X133297598Y-52530941D01*
X133469655Y-52415977D01*
X133615977Y-52269655D01*
X133730941Y-52097598D01*
X133810130Y-51906420D01*
X133850500Y-51703465D01*
X133850500Y-51496535D01*
X133810130Y-51293580D01*
X133730941Y-51102402D01*
X133615977Y-50930345D01*
X133469655Y-50784023D01*
X133441933Y-50765500D01*
X133315942Y-50681316D01*
X133278062Y-50633266D01*
X133275660Y-50572128D01*
X133309652Y-50521254D01*
X133367056Y-50500076D01*
X133370943Y-50500000D01*
X136251000Y-50500000D01*
X136309191Y-50518907D01*
X136345155Y-50568407D01*
X136350000Y-50599000D01*
X136350000Y-56150000D01*
X136350001Y-56150000D01*
X162795047Y-56150000D01*
X162853238Y-56168907D01*
X162889202Y-56218407D01*
X162889202Y-56279593D01*
X162853238Y-56329093D01*
X162844555Y-56334731D01*
X162763584Y-56381480D01*
X162651780Y-56493284D01*
X162572723Y-56630216D01*
X162531800Y-56782943D01*
X162531800Y-56941057D01*
X162572723Y-57093784D01*
X162651780Y-57230716D01*
X162763584Y-57342520D01*
X162900516Y-57421577D01*
X163053243Y-57462500D01*
X163125399Y-57462500D01*
X163183590Y-57481407D01*
X163195403Y-57491496D01*
X163546104Y-57842197D01*
X163573881Y-57896714D01*
X163575100Y-57912201D01*
X163575100Y-62508021D01*
X163556193Y-62566212D01*
X163506693Y-62602176D01*
X163445507Y-62602176D01*
X163426649Y-62592261D01*
X163426035Y-62593325D01*
X163420418Y-62590082D01*
X163420416Y-62590080D01*
X163283484Y-62511023D01*
X163130757Y-62470100D01*
X162972643Y-62470100D01*
X162819916Y-62511023D01*
X162682984Y-62590080D01*
X162571180Y-62701884D01*
X162492123Y-62838816D01*
X162451200Y-62991543D01*
X162451200Y-63149657D01*
X162492123Y-63302384D01*
X162571180Y-63439316D01*
X162622205Y-63490341D01*
X162649981Y-63544856D01*
X162651200Y-63560343D01*
X162651200Y-66428799D01*
X162632293Y-66486990D01*
X162622204Y-66498803D01*
X160809504Y-68311503D01*
X160754987Y-68339280D01*
X160694555Y-68329709D01*
X160651290Y-68286444D01*
X160640500Y-68241499D01*
X160640500Y-66749626D01*
X160659407Y-66691435D01*
X160689997Y-66663892D01*
X160772916Y-66616020D01*
X160884720Y-66504216D01*
X160963777Y-66367284D01*
X161004700Y-66214557D01*
X161004700Y-66056443D01*
X160963777Y-65903716D01*
X160884720Y-65766784D01*
X160772916Y-65654980D01*
X160635984Y-65575923D01*
X160483257Y-65535000D01*
X160325143Y-65535000D01*
X160172416Y-65575923D01*
X160035484Y-65654980D01*
X159923680Y-65766784D01*
X159844623Y-65903716D01*
X159803700Y-66056443D01*
X159803700Y-66214557D01*
X159832780Y-66323083D01*
X159836127Y-66335575D01*
X159839500Y-66361198D01*
X159839500Y-86852160D01*
X159820593Y-86910351D01*
X159785445Y-86940370D01*
X159637008Y-87016002D01*
X159595823Y-87045925D01*
X159490499Y-87122447D01*
X159362447Y-87250499D01*
X159311717Y-87320323D01*
X159256002Y-87397008D01*
X159173788Y-87558362D01*
X159117828Y-87730593D01*
X159089500Y-87909450D01*
X159089500Y-88090549D01*
X159117828Y-88269406D01*
X159173788Y-88441637D01*
X159218020Y-88528448D01*
X159256004Y-88602994D01*
X159362447Y-88749501D01*
X159490499Y-88877553D01*
X159637006Y-88983996D01*
X159798361Y-89066211D01*
X159970591Y-89122171D01*
X160042136Y-89133502D01*
X160149451Y-89150500D01*
X160149454Y-89150500D01*
X160330549Y-89150500D01*
X160419977Y-89136335D01*
X160509409Y-89122171D01*
X160681639Y-89066211D01*
X160842994Y-88983996D01*
X160989501Y-88877553D01*
X161117553Y-88749501D01*
X161223996Y-88602994D01*
X161306211Y-88441639D01*
X161362171Y-88269409D01*
X161377789Y-88170799D01*
X161390500Y-88090549D01*
X161390500Y-87909450D01*
X161362171Y-87730593D01*
X161362171Y-87730591D01*
X161306211Y-87558361D01*
X161223996Y-87397006D01*
X161117553Y-87250499D01*
X160989501Y-87122447D01*
X160842994Y-87016004D01*
X160842993Y-87016003D01*
X160842991Y-87016002D01*
X160694555Y-86940370D01*
X160651290Y-86897105D01*
X160640500Y-86852160D01*
X160640500Y-78221691D01*
X160659407Y-78163500D01*
X160708907Y-78127536D01*
X160765123Y-78126065D01*
X160777943Y-78129500D01*
X160777944Y-78129500D01*
X160936055Y-78129500D01*
X160936057Y-78129500D01*
X161088784Y-78088577D01*
X161225716Y-78009520D01*
X161337520Y-77897716D01*
X161416577Y-77760784D01*
X161457500Y-77608057D01*
X161457500Y-77449943D01*
X161416577Y-77297216D01*
X161337520Y-77160284D01*
X161337517Y-77160281D01*
X161286496Y-77109259D01*
X161258719Y-77054742D01*
X161257500Y-77039256D01*
X161257500Y-74587143D01*
X162368500Y-74587143D01*
X162368500Y-74745257D01*
X162409423Y-74897984D01*
X162488480Y-75034916D01*
X162600284Y-75146720D01*
X162737216Y-75225777D01*
X162889943Y-75266700D01*
X162889945Y-75266700D01*
X163048055Y-75266700D01*
X163048057Y-75266700D01*
X163200784Y-75225777D01*
X163337716Y-75146720D01*
X163374829Y-75109607D01*
X163388841Y-75095596D01*
X163443358Y-75067819D01*
X163458844Y-75066600D01*
X167040225Y-75066600D01*
X167040227Y-75066600D01*
X167142088Y-75039307D01*
X167142090Y-75039305D01*
X167142092Y-75039305D01*
X167233408Y-74986583D01*
X167233408Y-74986582D01*
X167233413Y-74986580D01*
X172599597Y-69620396D01*
X172654114Y-69592619D01*
X172669601Y-69591400D01*
X172741756Y-69591400D01*
X172741757Y-69591400D01*
X172744254Y-69590731D01*
X172744676Y-69590618D01*
X172746835Y-69590731D01*
X172748189Y-69590553D01*
X172748222Y-69590803D01*
X172805778Y-69593819D01*
X172853328Y-69632324D01*
X172869300Y-69686244D01*
X172869300Y-83250999D01*
X172850393Y-83309190D01*
X172840304Y-83321003D01*
X168910903Y-87250404D01*
X168856386Y-87278181D01*
X168840899Y-87279400D01*
X168768743Y-87279400D01*
X168616016Y-87320323D01*
X168479084Y-87399380D01*
X168367280Y-87511184D01*
X168288223Y-87648116D01*
X168247300Y-87800843D01*
X168247300Y-87958957D01*
X168288223Y-88111684D01*
X168367280Y-88248616D01*
X168479084Y-88360420D01*
X168616016Y-88439477D01*
X168768743Y-88480400D01*
X168768745Y-88480400D01*
X168926855Y-88480400D01*
X168926857Y-88480400D01*
X169079584Y-88439477D01*
X169216516Y-88360420D01*
X169328320Y-88248616D01*
X169407377Y-88111684D01*
X169448300Y-87958957D01*
X169448300Y-87886800D01*
X169467207Y-87828609D01*
X169477290Y-87816802D01*
X173590280Y-83703813D01*
X173643007Y-83612487D01*
X173670300Y-83510627D01*
X173670300Y-70264234D01*
X176274500Y-70264234D01*
X176274500Y-70415766D01*
X176309086Y-70544847D01*
X176313720Y-70562139D01*
X176389481Y-70693360D01*
X176389483Y-70693362D01*
X176389485Y-70693365D01*
X176496635Y-70800515D01*
X176496637Y-70800516D01*
X176496639Y-70800518D01*
X176627861Y-70876279D01*
X176627859Y-70876279D01*
X176627863Y-70876280D01*
X176627865Y-70876281D01*
X176774234Y-70915500D01*
X176774236Y-70915500D01*
X176925764Y-70915500D01*
X176925766Y-70915500D01*
X177072135Y-70876281D01*
X177072137Y-70876279D01*
X177072139Y-70876279D01*
X177203360Y-70800518D01*
X177203360Y-70800517D01*
X177203365Y-70800515D01*
X177310515Y-70693365D01*
X177331611Y-70656826D01*
X177386279Y-70562139D01*
X177386279Y-70562137D01*
X177386281Y-70562135D01*
X177425500Y-70415766D01*
X177425500Y-70264234D01*
X177386281Y-70117865D01*
X177386279Y-70117862D01*
X177386279Y-70117860D01*
X177310518Y-69986639D01*
X177310516Y-69986637D01*
X177310515Y-69986635D01*
X177203365Y-69879485D01*
X177203362Y-69879483D01*
X177203360Y-69879481D01*
X177072138Y-69803720D01*
X177072140Y-69803720D01*
X177015347Y-69788503D01*
X176925766Y-69764500D01*
X176774234Y-69764500D01*
X176684652Y-69788503D01*
X176627860Y-69803720D01*
X176496639Y-69879481D01*
X176389481Y-69986639D01*
X176313720Y-70117860D01*
X176313719Y-70117865D01*
X176274500Y-70264234D01*
X173670300Y-70264234D01*
X173670300Y-67846702D01*
X173683563Y-67797202D01*
X173687836Y-67789801D01*
X173724277Y-67726684D01*
X173765200Y-67573957D01*
X173765200Y-67415843D01*
X173724277Y-67263116D01*
X173645220Y-67126184D01*
X173533416Y-67014380D01*
X173434392Y-66957209D01*
X173393452Y-66911740D01*
X173387056Y-66850890D01*
X173398157Y-66821973D01*
X173398789Y-66820880D01*
X173470377Y-66696884D01*
X173511300Y-66544157D01*
X173511300Y-66386043D01*
X173470377Y-66233316D01*
X173391320Y-66096384D01*
X173391317Y-66096381D01*
X173337996Y-66043059D01*
X173312373Y-65998678D01*
X173300536Y-65954500D01*
X173284007Y-65892812D01*
X173284005Y-65892809D01*
X173284005Y-65892807D01*
X173231283Y-65801491D01*
X173231282Y-65801490D01*
X173231281Y-65801489D01*
X173231280Y-65801487D01*
X172537796Y-65108003D01*
X172510019Y-65053486D01*
X172508800Y-65037999D01*
X172508800Y-64965844D01*
X172508800Y-64965843D01*
X172467877Y-64813116D01*
X172388820Y-64676184D01*
X172277016Y-64564380D01*
X172140084Y-64485323D01*
X172136020Y-64484234D01*
X176274500Y-64484234D01*
X176274500Y-64635766D01*
X176285330Y-64676184D01*
X176313720Y-64782139D01*
X176389481Y-64913360D01*
X176389483Y-64913362D01*
X176389485Y-64913365D01*
X176496635Y-65020515D01*
X176496637Y-65020516D01*
X176496639Y-65020518D01*
X176627861Y-65096279D01*
X176627859Y-65096279D01*
X176627863Y-65096280D01*
X176627865Y-65096281D01*
X176774234Y-65135500D01*
X176774236Y-65135500D01*
X176925764Y-65135500D01*
X176925766Y-65135500D01*
X177072135Y-65096281D01*
X177072137Y-65096279D01*
X177072139Y-65096279D01*
X177203360Y-65020518D01*
X177203360Y-65020517D01*
X177203365Y-65020515D01*
X177310515Y-64913365D01*
X177345409Y-64852927D01*
X177386279Y-64782139D01*
X177386279Y-64782137D01*
X177386281Y-64782135D01*
X177425500Y-64635766D01*
X177425500Y-64484234D01*
X177386281Y-64337865D01*
X177386279Y-64337862D01*
X177386279Y-64337860D01*
X177310518Y-64206639D01*
X177310516Y-64206637D01*
X177310515Y-64206635D01*
X177203365Y-64099485D01*
X177203362Y-64099483D01*
X177203360Y-64099481D01*
X177072138Y-64023720D01*
X177072140Y-64023720D01*
X177015347Y-64008503D01*
X176925766Y-63984500D01*
X176774234Y-63984500D01*
X176684652Y-64008503D01*
X176627860Y-64023720D01*
X176496639Y-64099481D01*
X176389481Y-64206639D01*
X176313720Y-64337860D01*
X176313719Y-64337865D01*
X176274500Y-64484234D01*
X172136020Y-64484234D01*
X171987357Y-64444400D01*
X171829243Y-64444400D01*
X171676516Y-64485323D01*
X171539584Y-64564380D01*
X171427780Y-64676184D01*
X171348723Y-64813116D01*
X171307800Y-64965843D01*
X171307800Y-65123957D01*
X171348723Y-65276684D01*
X171427780Y-65413616D01*
X171539584Y-65525420D01*
X171676516Y-65604477D01*
X171829243Y-65645400D01*
X171901399Y-65645400D01*
X171959590Y-65664307D01*
X171971403Y-65674396D01*
X172363062Y-66066055D01*
X172390839Y-66120572D01*
X172381268Y-66181004D01*
X172378795Y-66185558D01*
X172351224Y-66233313D01*
X172351223Y-66233315D01*
X172351223Y-66233316D01*
X172310300Y-66386043D01*
X172310300Y-66544157D01*
X172351223Y-66696884D01*
X172430280Y-66833816D01*
X172542084Y-66945620D01*
X172641107Y-67002790D01*
X172682047Y-67048259D01*
X172688443Y-67109109D01*
X172677343Y-67138025D01*
X172605123Y-67263114D01*
X172577841Y-67364934D01*
X172564200Y-67415843D01*
X172564200Y-67573957D01*
X172605123Y-67726684D01*
X172684180Y-67863616D01*
X172795984Y-67975420D01*
X172795986Y-67975421D01*
X172795987Y-67975422D01*
X172819797Y-67989168D01*
X172860740Y-68034636D01*
X172869300Y-68074906D01*
X172869300Y-68295555D01*
X172850393Y-68353746D01*
X172800893Y-68389710D01*
X172748209Y-68391091D01*
X172748189Y-68391247D01*
X172747208Y-68391117D01*
X172744686Y-68391184D01*
X172741761Y-68390400D01*
X172741757Y-68390400D01*
X172583643Y-68390400D01*
X172430916Y-68431323D01*
X172293984Y-68510380D01*
X172182180Y-68622184D01*
X172103123Y-68759116D01*
X172098611Y-68775957D01*
X172062200Y-68911844D01*
X172062200Y-68983999D01*
X172043293Y-69042190D01*
X172033204Y-69054003D01*
X166850603Y-74236604D01*
X166796086Y-74264381D01*
X166780599Y-74265600D01*
X163458644Y-74265600D01*
X163400453Y-74246693D01*
X163388641Y-74236604D01*
X163337718Y-74185682D01*
X163337716Y-74185680D01*
X163200784Y-74106623D01*
X163048057Y-74065700D01*
X162889943Y-74065700D01*
X162737216Y-74106623D01*
X162600284Y-74185680D01*
X162488480Y-74297484D01*
X162409423Y-74434416D01*
X162368500Y-74587143D01*
X161257500Y-74587143D01*
X161257500Y-69037299D01*
X161276407Y-68979108D01*
X161286490Y-68967301D01*
X163297610Y-66956181D01*
X163297613Y-66956180D01*
X163372180Y-66881613D01*
X163390364Y-66850116D01*
X163435832Y-66809176D01*
X163496683Y-66802780D01*
X163549671Y-66833373D01*
X163574558Y-66889268D01*
X163575100Y-66899617D01*
X163575100Y-70685056D01*
X163556193Y-70743247D01*
X163546104Y-70755059D01*
X163495082Y-70806081D01*
X163495080Y-70806083D01*
X163495080Y-70806084D01*
X163416023Y-70943016D01*
X163375100Y-71095743D01*
X163375100Y-71253857D01*
X163416023Y-71406584D01*
X163495080Y-71543516D01*
X163606884Y-71655320D01*
X163743816Y-71734377D01*
X163896543Y-71775300D01*
X163896545Y-71775300D01*
X164054655Y-71775300D01*
X164054657Y-71775300D01*
X164207384Y-71734377D01*
X164344316Y-71655320D01*
X164456120Y-71543516D01*
X164535177Y-71406584D01*
X164576100Y-71253857D01*
X164576100Y-71095743D01*
X164535177Y-70943016D01*
X164456120Y-70806084D01*
X164446837Y-70796801D01*
X164405096Y-70755059D01*
X164377319Y-70700542D01*
X164376100Y-70685056D01*
X164376100Y-57652574D01*
X164376099Y-57652570D01*
X164363464Y-57605411D01*
X164363464Y-57605410D01*
X164348807Y-57550712D01*
X164348805Y-57550708D01*
X164296083Y-57459391D01*
X164296082Y-57459390D01*
X164296081Y-57459389D01*
X164296080Y-57459387D01*
X163761796Y-56925103D01*
X163734019Y-56870586D01*
X163732800Y-56855099D01*
X163732800Y-56782944D01*
X163727503Y-56763175D01*
X163691877Y-56630216D01*
X163612820Y-56493284D01*
X163501016Y-56381480D01*
X163420051Y-56334735D01*
X163379112Y-56289267D01*
X163372716Y-56228417D01*
X163403309Y-56175429D01*
X163459205Y-56150542D01*
X163469553Y-56150000D01*
X164449999Y-56150000D01*
X164450000Y-56150000D01*
X164450000Y-51712532D01*
X174082500Y-51712532D01*
X174082500Y-51919467D01*
X174122869Y-52122418D01*
X174202058Y-52313597D01*
X174202059Y-52313598D01*
X174317023Y-52485655D01*
X174463345Y-52631977D01*
X174635402Y-52746941D01*
X174826580Y-52826130D01*
X175029535Y-52866500D01*
X175029536Y-52866500D01*
X175236464Y-52866500D01*
X175236465Y-52866500D01*
X175439420Y-52826130D01*
X175630598Y-52746941D01*
X175802655Y-52631977D01*
X175948977Y-52485655D01*
X176063941Y-52313598D01*
X176143130Y-52122420D01*
X176183500Y-51919465D01*
X176183500Y-51712535D01*
X176143130Y-51509580D01*
X176063941Y-51318402D01*
X175948977Y-51146345D01*
X175802655Y-51000023D01*
X175802651Y-51000020D01*
X175630597Y-50885058D01*
X175439418Y-50805869D01*
X175236467Y-50765500D01*
X175236465Y-50765500D01*
X175029535Y-50765500D01*
X175029532Y-50765500D01*
X174826581Y-50805869D01*
X174635402Y-50885058D01*
X174463348Y-51000020D01*
X174317020Y-51146348D01*
X174202058Y-51318402D01*
X174122869Y-51509581D01*
X174082500Y-51712532D01*
X164450000Y-51712532D01*
X164450000Y-50599000D01*
X164468907Y-50540809D01*
X164518407Y-50504845D01*
X164549000Y-50500000D01*
X181600500Y-50500000D01*
X181658691Y-50518907D01*
X181694655Y-50568407D01*
X181699500Y-50599000D01*
X181699500Y-91400500D01*
X181680593Y-91458691D01*
X181631093Y-91494655D01*
X181600500Y-91499500D01*
X126199500Y-91499500D01*
X126141309Y-91480593D01*
X126105345Y-91431093D01*
X126100500Y-91400500D01*
X126100500Y-78458143D01*
X128406500Y-78458143D01*
X128406500Y-78616257D01*
X128447423Y-78768984D01*
X128526480Y-78905916D01*
X128577505Y-78956941D01*
X128605281Y-79011456D01*
X128606500Y-79026943D01*
X128606500Y-79230473D01*
X128606500Y-79335927D01*
X128628461Y-79417887D01*
X128633794Y-79437792D01*
X128686516Y-79529108D01*
X128686518Y-79529110D01*
X128686520Y-79529113D01*
X133493105Y-84335698D01*
X133520881Y-84390213D01*
X133522100Y-84405700D01*
X133522100Y-84477857D01*
X133563023Y-84630584D01*
X133642080Y-84767516D01*
X133753884Y-84879320D01*
X133890816Y-84958377D01*
X134043543Y-84999300D01*
X134043545Y-84999300D01*
X134201655Y-84999300D01*
X134201657Y-84999300D01*
X134354384Y-84958377D01*
X134491316Y-84879320D01*
X134603120Y-84767516D01*
X134682177Y-84630584D01*
X134723100Y-84477857D01*
X134723100Y-84319743D01*
X134682177Y-84167016D01*
X134603120Y-84030084D01*
X134491316Y-83918280D01*
X134354384Y-83839223D01*
X134201657Y-83798300D01*
X134201655Y-83798300D01*
X134129501Y-83798300D01*
X134071310Y-83779393D01*
X134059497Y-83769304D01*
X133067636Y-82777443D01*
X134899500Y-82777443D01*
X134899500Y-82935557D01*
X134940423Y-83088284D01*
X135019480Y-83225216D01*
X135131284Y-83337020D01*
X135268216Y-83416077D01*
X135420943Y-83457000D01*
X135420945Y-83457000D01*
X135579055Y-83457000D01*
X135579057Y-83457000D01*
X135731784Y-83416077D01*
X135868716Y-83337020D01*
X135980520Y-83225216D01*
X136059577Y-83088284D01*
X136100500Y-82935557D01*
X136100500Y-82777443D01*
X136059577Y-82624716D01*
X135980520Y-82487784D01*
X135980517Y-82487781D01*
X135929496Y-82436759D01*
X135901719Y-82382242D01*
X135900500Y-82366756D01*
X135900500Y-78431801D01*
X135919407Y-78373610D01*
X135929496Y-78361797D01*
X137588997Y-76702296D01*
X137643514Y-76674519D01*
X137659001Y-76673300D01*
X137731155Y-76673300D01*
X137731157Y-76673300D01*
X137883884Y-76632377D01*
X138020816Y-76553320D01*
X138132620Y-76441516D01*
X138211677Y-76304584D01*
X138252600Y-76151857D01*
X138252600Y-75993743D01*
X138211677Y-75841016D01*
X138132620Y-75704084D01*
X138020816Y-75592280D01*
X137883884Y-75513223D01*
X137731157Y-75472300D01*
X137573043Y-75472300D01*
X137420316Y-75513223D01*
X137283384Y-75592280D01*
X137171580Y-75704084D01*
X137092523Y-75841016D01*
X137051600Y-75993744D01*
X137051600Y-76065899D01*
X137032693Y-76124090D01*
X137022604Y-76135903D01*
X135179516Y-77978991D01*
X135126793Y-78070311D01*
X135126792Y-78070311D01*
X135126793Y-78070312D01*
X135099500Y-78172173D01*
X135099500Y-82366756D01*
X135080593Y-82424947D01*
X135070504Y-82436759D01*
X135019482Y-82487781D01*
X135019480Y-82487783D01*
X135019480Y-82487784D01*
X134940423Y-82624716D01*
X134899500Y-82777443D01*
X133067636Y-82777443D01*
X129436496Y-79146303D01*
X129408719Y-79091786D01*
X129407500Y-79076299D01*
X129407500Y-79026943D01*
X129426407Y-78968752D01*
X129436490Y-78956945D01*
X129487520Y-78905916D01*
X129566577Y-78768984D01*
X129607500Y-78616257D01*
X129607500Y-78458143D01*
X129566577Y-78305416D01*
X129487520Y-78168484D01*
X129375716Y-78056680D01*
X129238784Y-77977623D01*
X129086057Y-77936700D01*
X128927943Y-77936700D01*
X128775216Y-77977623D01*
X128638284Y-78056680D01*
X128526480Y-78168484D01*
X128447423Y-78305416D01*
X128406500Y-78458143D01*
X126100500Y-78458143D01*
X126100500Y-70365406D01*
X126119407Y-70307215D01*
X126168907Y-70271251D01*
X126230093Y-70271251D01*
X126279590Y-70307213D01*
X126279593Y-70307216D01*
X126358458Y-70415766D01*
X126361006Y-70419272D01*
X126490728Y-70548994D01*
X126639145Y-70656825D01*
X126802603Y-70740111D01*
X126802605Y-70740111D01*
X126802606Y-70740112D01*
X126802609Y-70740114D01*
X126977072Y-70796801D01*
X126977076Y-70796802D01*
X127158270Y-70825500D01*
X127158273Y-70825500D01*
X128641730Y-70825500D01*
X128822923Y-70796802D01*
X128822927Y-70796801D01*
X128997390Y-70740114D01*
X128997392Y-70740112D01*
X128997397Y-70740111D01*
X129160855Y-70656825D01*
X129309272Y-70548994D01*
X129438994Y-70419272D01*
X129546825Y-70270855D01*
X129630111Y-70107397D01*
X129630112Y-70107392D01*
X129630114Y-70107390D01*
X129686801Y-69932927D01*
X129686802Y-69932923D01*
X129715500Y-69751730D01*
X129715500Y-69568269D01*
X129686802Y-69387076D01*
X129686801Y-69387072D01*
X129630114Y-69212609D01*
X129630112Y-69212606D01*
X129630111Y-69212605D01*
X129630111Y-69212603D01*
X129546825Y-69049145D01*
X129438994Y-68900728D01*
X129309272Y-68771006D01*
X129160855Y-68663175D01*
X129160854Y-68663174D01*
X129160852Y-68663173D01*
X128997393Y-68579887D01*
X128997390Y-68579885D01*
X128822927Y-68523198D01*
X128822923Y-68523197D01*
X128641730Y-68494500D01*
X128641727Y-68494500D01*
X127158273Y-68494500D01*
X127158270Y-68494500D01*
X126977076Y-68523197D01*
X126977072Y-68523198D01*
X126802609Y-68579885D01*
X126802606Y-68579887D01*
X126639147Y-68663173D01*
X126490729Y-68771005D01*
X126361005Y-68900729D01*
X126279593Y-69012784D01*
X126230093Y-69048748D01*
X126168907Y-69048748D01*
X126119407Y-69012784D01*
X126100500Y-68954593D01*
X126100500Y-67894791D01*
X126119407Y-67836600D01*
X126144496Y-67812477D01*
X126178434Y-67789800D01*
X126237321Y-67773192D01*
X126294725Y-67794369D01*
X126313527Y-67813924D01*
X126349631Y-67863616D01*
X126361006Y-67879272D01*
X126490728Y-68008994D01*
X126639145Y-68116825D01*
X126802603Y-68200111D01*
X126802605Y-68200111D01*
X126802606Y-68200112D01*
X126802609Y-68200114D01*
X126977072Y-68256801D01*
X126977076Y-68256802D01*
X127158270Y-68285500D01*
X127158273Y-68285500D01*
X128641730Y-68285500D01*
X128822923Y-68256802D01*
X128822927Y-68256801D01*
X128997390Y-68200114D01*
X128997392Y-68200112D01*
X128997397Y-68200111D01*
X129160855Y-68116825D01*
X129309272Y-68008994D01*
X129438994Y-67879272D01*
X129546825Y-67730855D01*
X129630111Y-67567397D01*
X129630112Y-67567392D01*
X129630114Y-67567390D01*
X129686801Y-67392927D01*
X129686802Y-67392923D01*
X129715500Y-67211730D01*
X129715500Y-67028269D01*
X129686802Y-66847076D01*
X129686801Y-66847072D01*
X129630114Y-66672609D01*
X129630112Y-66672606D01*
X129630111Y-66672605D01*
X129630111Y-66672603D01*
X129546825Y-66509145D01*
X129438994Y-66360728D01*
X129309272Y-66231006D01*
X129160855Y-66123175D01*
X129160854Y-66123174D01*
X129160852Y-66123173D01*
X128997393Y-66039887D01*
X128997390Y-66039885D01*
X128822927Y-65983198D01*
X128822923Y-65983197D01*
X128641730Y-65954500D01*
X128641727Y-65954500D01*
X127158273Y-65954500D01*
X127158270Y-65954500D01*
X126977076Y-65983197D01*
X126977072Y-65983198D01*
X126802609Y-66039885D01*
X126802606Y-66039887D01*
X126639147Y-66123173D01*
X126490729Y-66231005D01*
X126361004Y-66360730D01*
X126313527Y-66426076D01*
X126264027Y-66462039D01*
X126202841Y-66462038D01*
X126178436Y-66450200D01*
X126144496Y-66427522D01*
X126106618Y-66379471D01*
X126100500Y-66345208D01*
X126100500Y-65285406D01*
X126119407Y-65227215D01*
X126168907Y-65191251D01*
X126230093Y-65191251D01*
X126279590Y-65227213D01*
X126361006Y-65339272D01*
X126490728Y-65468994D01*
X126639145Y-65576825D01*
X126802603Y-65660111D01*
X126802605Y-65660111D01*
X126802606Y-65660112D01*
X126802609Y-65660114D01*
X126977072Y-65716801D01*
X126977076Y-65716802D01*
X127158270Y-65745500D01*
X127158273Y-65745500D01*
X128641730Y-65745500D01*
X128822923Y-65716802D01*
X128822927Y-65716801D01*
X128997390Y-65660114D01*
X128997392Y-65660112D01*
X128997397Y-65660111D01*
X129160855Y-65576825D01*
X129309272Y-65468994D01*
X129438994Y-65339272D01*
X129546825Y-65190855D01*
X129630111Y-65027397D01*
X129630112Y-65027392D01*
X129630114Y-65027390D01*
X129686801Y-64852927D01*
X129686802Y-64852923D01*
X129715500Y-64671730D01*
X129715500Y-64488269D01*
X129686802Y-64307076D01*
X129686801Y-64307072D01*
X129630114Y-64132609D01*
X129630112Y-64132606D01*
X129630111Y-64132605D01*
X129630111Y-64132603D01*
X129546825Y-63969145D01*
X129438994Y-63820728D01*
X129309272Y-63691006D01*
X129160855Y-63583175D01*
X129160854Y-63583174D01*
X129160852Y-63583173D01*
X128997393Y-63499887D01*
X128997390Y-63499885D01*
X128822927Y-63443198D01*
X128822923Y-63443197D01*
X128641730Y-63414500D01*
X128641727Y-63414500D01*
X127158273Y-63414500D01*
X127158270Y-63414500D01*
X126977076Y-63443197D01*
X126977072Y-63443198D01*
X126802609Y-63499885D01*
X126802606Y-63499887D01*
X126639147Y-63583173D01*
X126490729Y-63691005D01*
X126490728Y-63691006D01*
X126361006Y-63820728D01*
X126281826Y-63929711D01*
X126279593Y-63932784D01*
X126230093Y-63968748D01*
X126168907Y-63968748D01*
X126119407Y-63932784D01*
X126100500Y-63874593D01*
X126100500Y-58465406D01*
X126119407Y-58407215D01*
X126168907Y-58371251D01*
X126230093Y-58371251D01*
X126279590Y-58407213D01*
X126361006Y-58519272D01*
X126490728Y-58648994D01*
X126639145Y-58756825D01*
X126802603Y-58840111D01*
X126802605Y-58840111D01*
X126802606Y-58840112D01*
X126802609Y-58840114D01*
X126977072Y-58896801D01*
X126977076Y-58896802D01*
X127158270Y-58925500D01*
X127158273Y-58925500D01*
X128641730Y-58925500D01*
X128822923Y-58896802D01*
X128822927Y-58896801D01*
X128997390Y-58840114D01*
X128997392Y-58840112D01*
X128997397Y-58840111D01*
X129160855Y-58756825D01*
X129309272Y-58648994D01*
X129438994Y-58519272D01*
X129546825Y-58370855D01*
X129548330Y-58367900D01*
X129557310Y-58350278D01*
X129600573Y-58307012D01*
X129661005Y-58297440D01*
X129715522Y-58325216D01*
X129715524Y-58325217D01*
X132370504Y-60980196D01*
X132398281Y-61034713D01*
X132399500Y-61050200D01*
X132399500Y-66762689D01*
X132380593Y-66820880D01*
X132338387Y-66854152D01*
X132302405Y-66869056D01*
X132130348Y-66984020D01*
X131984020Y-67130348D01*
X131869058Y-67302402D01*
X131789869Y-67493581D01*
X131749500Y-67696532D01*
X131749500Y-67903467D01*
X131789869Y-68106418D01*
X131869058Y-68297597D01*
X131980990Y-68465116D01*
X131984023Y-68469655D01*
X132130345Y-68615977D01*
X132302402Y-68730941D01*
X132493580Y-68810130D01*
X132696535Y-68850500D01*
X132696536Y-68850500D01*
X132903464Y-68850500D01*
X132903465Y-68850500D01*
X133106420Y-68810130D01*
X133297598Y-68730941D01*
X133469655Y-68615977D01*
X133615977Y-68469655D01*
X133730941Y-68297598D01*
X133810130Y-68106420D01*
X133850500Y-67903465D01*
X133850500Y-67696535D01*
X133810130Y-67493580D01*
X133730941Y-67302402D01*
X133615977Y-67130345D01*
X133469655Y-66984023D01*
X133429527Y-66957210D01*
X133297594Y-66869056D01*
X133261613Y-66854152D01*
X133215088Y-66814415D01*
X133200500Y-66762689D01*
X133200500Y-63095043D01*
X135060300Y-63095043D01*
X135060300Y-63253157D01*
X135101223Y-63405884D01*
X135180280Y-63542816D01*
X135292084Y-63654620D01*
X135429016Y-63733677D01*
X135489423Y-63749863D01*
X135540737Y-63783186D01*
X135562664Y-63840307D01*
X135562800Y-63845489D01*
X135562800Y-65601556D01*
X135543893Y-65659747D01*
X135533804Y-65671559D01*
X135482782Y-65722581D01*
X135482780Y-65722583D01*
X135482780Y-65722584D01*
X135403723Y-65859516D01*
X135362800Y-66012243D01*
X135362800Y-66170357D01*
X135403723Y-66323084D01*
X135482780Y-66460016D01*
X135594584Y-66571820D01*
X135731516Y-66650877D01*
X135884243Y-66691800D01*
X135884245Y-66691800D01*
X136042355Y-66691800D01*
X136042357Y-66691800D01*
X136195084Y-66650877D01*
X136332016Y-66571820D01*
X136443820Y-66460016D01*
X136522877Y-66323084D01*
X136563800Y-66170357D01*
X136563800Y-66012243D01*
X136522877Y-65859516D01*
X136443820Y-65722584D01*
X136438037Y-65716801D01*
X136392796Y-65671559D01*
X136365019Y-65617042D01*
X136363800Y-65601556D01*
X136363800Y-63537314D01*
X136363801Y-63537301D01*
X136363801Y-63423872D01*
X136363800Y-63423870D01*
X136336507Y-63322014D01*
X136336507Y-63322013D01*
X136296753Y-63253157D01*
X136296753Y-63253156D01*
X136283779Y-63230686D01*
X136281754Y-63228046D01*
X136280959Y-63225801D01*
X136280537Y-63225070D01*
X136280672Y-63224991D01*
X136261334Y-63170369D01*
X136261300Y-63167784D01*
X136261300Y-63095044D01*
X136259524Y-63088416D01*
X136220377Y-62942316D01*
X136141320Y-62805384D01*
X136029516Y-62693580D01*
X135892584Y-62614523D01*
X135739857Y-62573600D01*
X135581743Y-62573600D01*
X135429016Y-62614523D01*
X135292084Y-62693580D01*
X135180280Y-62805384D01*
X135101223Y-62942316D01*
X135060300Y-63095043D01*
X133200500Y-63095043D01*
X133200500Y-60904014D01*
X133200501Y-60904001D01*
X133200501Y-60790572D01*
X133200500Y-60790570D01*
X133173207Y-60688713D01*
X133173205Y-60688709D01*
X133120481Y-60597389D01*
X133120480Y-60597387D01*
X133045913Y-60522820D01*
X133045910Y-60522818D01*
X129962613Y-57439520D01*
X129962610Y-57439518D01*
X129962608Y-57439516D01*
X129871291Y-57386794D01*
X129871293Y-57386794D01*
X129831770Y-57376204D01*
X129769427Y-57359500D01*
X129769425Y-57359500D01*
X129714673Y-57359500D01*
X129656482Y-57340593D01*
X129626465Y-57305447D01*
X129546825Y-57149145D01*
X129438994Y-57000728D01*
X129309272Y-56871006D01*
X129160855Y-56763175D01*
X129160854Y-56763174D01*
X129160852Y-56763173D01*
X128997393Y-56679887D01*
X128997390Y-56679885D01*
X128822927Y-56623198D01*
X128822923Y-56623197D01*
X128641730Y-56594500D01*
X128641727Y-56594500D01*
X127158273Y-56594500D01*
X127158270Y-56594500D01*
X126977076Y-56623197D01*
X126977072Y-56623198D01*
X126802609Y-56679885D01*
X126802606Y-56679887D01*
X126639147Y-56763173D01*
X126490729Y-56871005D01*
X126361005Y-57000729D01*
X126279593Y-57112784D01*
X126230093Y-57148748D01*
X126168907Y-57148748D01*
X126119407Y-57112784D01*
X126100500Y-57054593D01*
X126100500Y-55994791D01*
X126119407Y-55936600D01*
X126144496Y-55912477D01*
X126178434Y-55889800D01*
X126237321Y-55873192D01*
X126294725Y-55894369D01*
X126313527Y-55913924D01*
X126352553Y-55967638D01*
X126361006Y-55979272D01*
X126490728Y-56108994D01*
X126639145Y-56216825D01*
X126802603Y-56300111D01*
X126802605Y-56300111D01*
X126802606Y-56300112D01*
X126802609Y-56300114D01*
X126977072Y-56356801D01*
X126977076Y-56356802D01*
X127158270Y-56385500D01*
X127158273Y-56385500D01*
X128641730Y-56385500D01*
X128822923Y-56356802D01*
X128822927Y-56356801D01*
X128997390Y-56300114D01*
X128997392Y-56300112D01*
X128997397Y-56300111D01*
X129160855Y-56216825D01*
X129269090Y-56138187D01*
X129327279Y-56119280D01*
X129385470Y-56138187D01*
X129397277Y-56148270D01*
X134145987Y-60896980D01*
X134145989Y-60896981D01*
X134145991Y-60896983D01*
X134237308Y-60949705D01*
X134237306Y-60949705D01*
X134237310Y-60949706D01*
X134237312Y-60949707D01*
X134339173Y-60977000D01*
X141336799Y-60977000D01*
X141394990Y-60995907D01*
X141406803Y-61005996D01*
X142289004Y-61888197D01*
X142316781Y-61942714D01*
X142318000Y-61958201D01*
X142318000Y-62030357D01*
X142358923Y-62183084D01*
X142437980Y-62320016D01*
X142549784Y-62431820D01*
X142686716Y-62510877D01*
X142839443Y-62551800D01*
X142839445Y-62551800D01*
X142952499Y-62551800D01*
X143010690Y-62570707D01*
X143046654Y-62620207D01*
X143046654Y-62681393D01*
X143022503Y-62720804D01*
X139259003Y-66484304D01*
X139204486Y-66512081D01*
X139188999Y-66513300D01*
X139116843Y-66513300D01*
X139116842Y-66513300D01*
X139110411Y-66514147D01*
X139110149Y-66512159D01*
X139058199Y-66509424D01*
X139010658Y-66470907D01*
X138994700Y-66417008D01*
X138994700Y-63809943D01*
X139013607Y-63751752D01*
X139023690Y-63739945D01*
X139074720Y-63688916D01*
X139153777Y-63551984D01*
X139194700Y-63399257D01*
X139194700Y-63241143D01*
X139153777Y-63088416D01*
X139074720Y-62951484D01*
X138962916Y-62839680D01*
X138825984Y-62760623D01*
X138673257Y-62719700D01*
X138515143Y-62719700D01*
X138362416Y-62760623D01*
X138225484Y-62839680D01*
X138113680Y-62951484D01*
X138034623Y-63088416D01*
X137993700Y-63241143D01*
X137993700Y-63399257D01*
X138034623Y-63551984D01*
X138113680Y-63688916D01*
X138164705Y-63739941D01*
X138192481Y-63794456D01*
X138193700Y-63809943D01*
X138193700Y-67310173D01*
X138193700Y-67415627D01*
X138214587Y-67493580D01*
X138220994Y-67517492D01*
X138273716Y-67608808D01*
X138273720Y-67608813D01*
X138626317Y-67961411D01*
X138626318Y-67961411D01*
X138626320Y-67961413D01*
X138626319Y-67961413D01*
X138700885Y-68035979D01*
X138736110Y-68056316D01*
X138743889Y-68060807D01*
X138792213Y-68088707D01*
X138811259Y-68093810D01*
X138855639Y-68119432D01*
X144782767Y-74046560D01*
X144810544Y-74101077D01*
X144800973Y-74161509D01*
X144762268Y-74202298D01*
X144749485Y-74209678D01*
X144749482Y-74209680D01*
X144698459Y-74260704D01*
X144643942Y-74288481D01*
X144628456Y-74289700D01*
X143361606Y-74289700D01*
X143361590Y-74289699D01*
X143355527Y-74289699D01*
X143250073Y-74289699D01*
X143250070Y-74289699D01*
X143148213Y-74316992D01*
X143148209Y-74316994D01*
X143056887Y-74369719D01*
X142982319Y-74444286D01*
X142982320Y-74444287D01*
X137646103Y-79780504D01*
X137591586Y-79808281D01*
X137576099Y-79809500D01*
X137503943Y-79809500D01*
X137351216Y-79850423D01*
X137214284Y-79929480D01*
X137102480Y-80041284D01*
X137023423Y-80178216D01*
X136982500Y-80330943D01*
X136982500Y-80489057D01*
X137023423Y-80641784D01*
X137102480Y-80778716D01*
X137142150Y-80818386D01*
X137169926Y-80872901D01*
X137160355Y-80933333D01*
X137117090Y-80976598D01*
X137097769Y-80984014D01*
X136946216Y-81024623D01*
X136809284Y-81103680D01*
X136697480Y-81215484D01*
X136618423Y-81352416D01*
X136577500Y-81505143D01*
X136577500Y-81663257D01*
X136618423Y-81815984D01*
X136697480Y-81952916D01*
X136748505Y-82003941D01*
X136776281Y-82058456D01*
X136777500Y-82073943D01*
X136777500Y-86865773D01*
X136777500Y-86971227D01*
X136779110Y-86977235D01*
X136804794Y-87073092D01*
X136857516Y-87164408D01*
X136857518Y-87164410D01*
X136857520Y-87164413D01*
X138323305Y-88630198D01*
X138351081Y-88684713D01*
X138352300Y-88700200D01*
X138352300Y-88772357D01*
X138393223Y-88925084D01*
X138472280Y-89062016D01*
X138584084Y-89173820D01*
X138721016Y-89252877D01*
X138873743Y-89293800D01*
X138873745Y-89293800D01*
X139031855Y-89293800D01*
X139031857Y-89293800D01*
X139184584Y-89252877D01*
X139321516Y-89173820D01*
X139321517Y-89173818D01*
X139326607Y-89170880D01*
X139386455Y-89158158D01*
X139442351Y-89183045D01*
X139461843Y-89207115D01*
X139469580Y-89220516D01*
X139581384Y-89332320D01*
X139718316Y-89411377D01*
X139871043Y-89452300D01*
X139871045Y-89452300D01*
X140029155Y-89452300D01*
X140029157Y-89452300D01*
X140181884Y-89411377D01*
X140318816Y-89332320D01*
X140430620Y-89220516D01*
X140509677Y-89083584D01*
X140550600Y-88930857D01*
X140550600Y-88772743D01*
X140509677Y-88620016D01*
X140430620Y-88483084D01*
X140421467Y-88473931D01*
X140379596Y-88432059D01*
X140351819Y-88377542D01*
X140350600Y-88362056D01*
X140350600Y-86282700D01*
X140369507Y-86224509D01*
X140419007Y-86188545D01*
X140480193Y-86188545D01*
X140519601Y-86212694D01*
X143779087Y-89472180D01*
X143779089Y-89472181D01*
X143779091Y-89472183D01*
X143870408Y-89524905D01*
X143870406Y-89524905D01*
X143870410Y-89524906D01*
X143870412Y-89524907D01*
X143972273Y-89552200D01*
X143972275Y-89552200D01*
X146067125Y-89552200D01*
X146067127Y-89552200D01*
X146168988Y-89524907D01*
X146168990Y-89524905D01*
X146168992Y-89524905D01*
X146260308Y-89472183D01*
X146260308Y-89472182D01*
X146260313Y-89472180D01*
X146619080Y-89113413D01*
X146628144Y-89097713D01*
X146671807Y-89022087D01*
X146699100Y-88920227D01*
X146699100Y-87909450D01*
X148929500Y-87909450D01*
X148929500Y-88090549D01*
X148957828Y-88269406D01*
X149013788Y-88441637D01*
X149058020Y-88528448D01*
X149096004Y-88602994D01*
X149202447Y-88749501D01*
X149330499Y-88877553D01*
X149477006Y-88983996D01*
X149638361Y-89066211D01*
X149810591Y-89122171D01*
X149882136Y-89133502D01*
X149989451Y-89150500D01*
X149989454Y-89150500D01*
X150170549Y-89150500D01*
X150349404Y-89122172D01*
X150349405Y-89122171D01*
X150349409Y-89122171D01*
X150507854Y-89070690D01*
X150569037Y-89070690D01*
X150608447Y-89094841D01*
X151040686Y-89527079D01*
X151040691Y-89527083D01*
X151132008Y-89579805D01*
X151132006Y-89579805D01*
X151132010Y-89579806D01*
X151132012Y-89579807D01*
X151233873Y-89607100D01*
X151233875Y-89607100D01*
X153150425Y-89607100D01*
X153150427Y-89607100D01*
X153252288Y-89579807D01*
X153252290Y-89579805D01*
X153252292Y-89579805D01*
X153343608Y-89527083D01*
X153343608Y-89527082D01*
X153343613Y-89527080D01*
X154132629Y-88738063D01*
X154187142Y-88710289D01*
X154247574Y-88719860D01*
X154279368Y-88747013D01*
X154279920Y-88746543D01*
X154282437Y-88749490D01*
X154282444Y-88749497D01*
X154282447Y-88749501D01*
X154410499Y-88877553D01*
X154557006Y-88983996D01*
X154718361Y-89066211D01*
X154890591Y-89122171D01*
X154962136Y-89133502D01*
X155069451Y-89150500D01*
X155069454Y-89150500D01*
X155250549Y-89150500D01*
X155339977Y-89136335D01*
X155429409Y-89122171D01*
X155601639Y-89066211D01*
X155762994Y-88983996D01*
X155909501Y-88877553D01*
X156037553Y-88749501D01*
X156143996Y-88602994D01*
X156226211Y-88441639D01*
X156282171Y-88269409D01*
X156297789Y-88170799D01*
X156310500Y-88090549D01*
X156310500Y-87909450D01*
X156549500Y-87909450D01*
X156549500Y-88090549D01*
X156577828Y-88269406D01*
X156633788Y-88441637D01*
X156678020Y-88528448D01*
X156716004Y-88602994D01*
X156822447Y-88749501D01*
X156950499Y-88877553D01*
X157097006Y-88983996D01*
X157258361Y-89066211D01*
X157430591Y-89122171D01*
X157502136Y-89133502D01*
X157609451Y-89150500D01*
X157609454Y-89150500D01*
X157790549Y-89150500D01*
X157879977Y-89136335D01*
X157969409Y-89122171D01*
X158141639Y-89066211D01*
X158302994Y-88983996D01*
X158449501Y-88877553D01*
X158577553Y-88749501D01*
X158683996Y-88602994D01*
X158766211Y-88441639D01*
X158822171Y-88269409D01*
X158837789Y-88170799D01*
X158850500Y-88090549D01*
X158850500Y-87909450D01*
X158822171Y-87730593D01*
X158822171Y-87730591D01*
X158766211Y-87558361D01*
X158683996Y-87397006D01*
X158577553Y-87250499D01*
X158449501Y-87122447D01*
X158302994Y-87016004D01*
X158302990Y-87016001D01*
X158302983Y-87015997D01*
X158205355Y-86966253D01*
X158162090Y-86922989D01*
X158151300Y-86878044D01*
X158151300Y-74357514D01*
X158151301Y-74357501D01*
X158151301Y-74244072D01*
X158151300Y-74244070D01*
X158149299Y-74236604D01*
X158124007Y-74142213D01*
X158071280Y-74050887D01*
X158066953Y-74046560D01*
X157996713Y-73976319D01*
X157996713Y-73976320D01*
X157830096Y-73809703D01*
X157802319Y-73755186D01*
X157801100Y-73739699D01*
X157801100Y-69186643D01*
X157820007Y-69128452D01*
X157830090Y-69116645D01*
X157881120Y-69065616D01*
X157960177Y-68928684D01*
X158001100Y-68775957D01*
X158001100Y-68617843D01*
X157960177Y-68465116D01*
X157881120Y-68328184D01*
X157769316Y-68216380D01*
X157632384Y-68137323D01*
X157479657Y-68096400D01*
X157321543Y-68096400D01*
X157168816Y-68137323D01*
X157031884Y-68216380D01*
X156920080Y-68328184D01*
X156841023Y-68465116D01*
X156800100Y-68617843D01*
X156800100Y-68775957D01*
X156841023Y-68928684D01*
X156920080Y-69065616D01*
X156971105Y-69116641D01*
X156998881Y-69171156D01*
X157000100Y-69186643D01*
X157000100Y-73893873D01*
X157000100Y-73999327D01*
X157012756Y-74046560D01*
X157027394Y-74101192D01*
X157080116Y-74192508D01*
X157080120Y-74192513D01*
X157204601Y-74316994D01*
X157321303Y-74433695D01*
X157349081Y-74488212D01*
X157350300Y-74503699D01*
X157350300Y-86831988D01*
X157331393Y-86890179D01*
X157281893Y-86926142D01*
X157258369Y-86933785D01*
X157258367Y-86933786D01*
X157097008Y-87016002D01*
X157055823Y-87045925D01*
X156950499Y-87122447D01*
X156822447Y-87250499D01*
X156771717Y-87320323D01*
X156716002Y-87397008D01*
X156633788Y-87558362D01*
X156577828Y-87730593D01*
X156549500Y-87909450D01*
X156310500Y-87909450D01*
X156282171Y-87730593D01*
X156282171Y-87730591D01*
X156226211Y-87558361D01*
X156143996Y-87397006D01*
X156037553Y-87250499D01*
X155909501Y-87122447D01*
X155762994Y-87016004D01*
X155762993Y-87016003D01*
X155762991Y-87016002D01*
X155601637Y-86933788D01*
X155429406Y-86877828D01*
X155250549Y-86849500D01*
X155250546Y-86849500D01*
X155069454Y-86849500D01*
X155069451Y-86849500D01*
X154890593Y-86877828D01*
X154718362Y-86933788D01*
X154557008Y-87016002D01*
X154515823Y-87045925D01*
X154447689Y-87095426D01*
X154389500Y-87114333D01*
X154331309Y-87095426D01*
X154295345Y-87045925D01*
X154290500Y-87015333D01*
X154290500Y-64298401D01*
X154309407Y-64240210D01*
X154319496Y-64228397D01*
X156826697Y-61721196D01*
X156881214Y-61693419D01*
X156896701Y-61692200D01*
X156968855Y-61692200D01*
X156968857Y-61692200D01*
X157121584Y-61651277D01*
X157258516Y-61572220D01*
X157370320Y-61460416D01*
X157449377Y-61323484D01*
X157490300Y-61170757D01*
X157490300Y-61012643D01*
X157449377Y-60859916D01*
X157370320Y-60722984D01*
X157258516Y-60611180D01*
X157121584Y-60532123D01*
X156968857Y-60491200D01*
X156810743Y-60491200D01*
X156658016Y-60532123D01*
X156521084Y-60611180D01*
X156409280Y-60722984D01*
X156330223Y-60859916D01*
X156293785Y-60995907D01*
X156289300Y-61012644D01*
X156289300Y-61084798D01*
X156270393Y-61142989D01*
X156260304Y-61154802D01*
X155127777Y-62287328D01*
X155073260Y-62315105D01*
X155012828Y-62305534D01*
X154972037Y-62266825D01*
X154928020Y-62190584D01*
X154816216Y-62078780D01*
X154679284Y-61999723D01*
X154526557Y-61958800D01*
X154368443Y-61958800D01*
X154215716Y-61999723D01*
X154078784Y-62078780D01*
X153966980Y-62190584D01*
X153887923Y-62327516D01*
X153847000Y-62480244D01*
X153847000Y-62552399D01*
X153828093Y-62610590D01*
X153818004Y-62622403D01*
X152602016Y-63838391D01*
X152549293Y-63929711D01*
X152549292Y-63929711D01*
X152549293Y-63929712D01*
X152522000Y-64031573D01*
X152522000Y-66308035D01*
X152503093Y-66366226D01*
X152453593Y-66402190D01*
X152406415Y-66403429D01*
X152406189Y-66405147D01*
X152399757Y-66404300D01*
X152241643Y-66404300D01*
X152088916Y-66445223D01*
X151951984Y-66524280D01*
X151840180Y-66636084D01*
X151761123Y-66773016D01*
X151720200Y-66925743D01*
X151720200Y-67083857D01*
X151761123Y-67236584D01*
X151840180Y-67373516D01*
X151891205Y-67424541D01*
X151918981Y-67479056D01*
X151920200Y-67494543D01*
X151920200Y-84325199D01*
X151901293Y-84383390D01*
X151891204Y-84395203D01*
X151513203Y-84773204D01*
X151458686Y-84800981D01*
X151443199Y-84802200D01*
X151371043Y-84802200D01*
X151218316Y-84843123D01*
X151081384Y-84922180D01*
X150969580Y-85033984D01*
X150890523Y-85170916D01*
X150849600Y-85323643D01*
X150849600Y-85481757D01*
X150890523Y-85634484D01*
X150969580Y-85771416D01*
X151081384Y-85883220D01*
X151218316Y-85962277D01*
X151371043Y-86003200D01*
X151371045Y-86003200D01*
X151529155Y-86003200D01*
X151529157Y-86003200D01*
X151681884Y-85962277D01*
X151818816Y-85883220D01*
X151930620Y-85771416D01*
X152009677Y-85634484D01*
X152050600Y-85481757D01*
X152050600Y-85409601D01*
X152069507Y-85351410D01*
X152079596Y-85339597D01*
X152352996Y-85066197D01*
X152407513Y-85038420D01*
X152467945Y-85047991D01*
X152511210Y-85091256D01*
X152522000Y-85136201D01*
X152522000Y-86766126D01*
X152503093Y-86824317D01*
X152453593Y-86860281D01*
X152438487Y-86863907D01*
X152350593Y-86877828D01*
X152178362Y-86933788D01*
X152017008Y-87016002D01*
X151975823Y-87045925D01*
X151870499Y-87122447D01*
X151742447Y-87250499D01*
X151691717Y-87320323D01*
X151636002Y-87397008D01*
X151553788Y-87558362D01*
X151497828Y-87730593D01*
X151469500Y-87909450D01*
X151469500Y-88090549D01*
X151497828Y-88269406D01*
X151553788Y-88441637D01*
X151636003Y-88602993D01*
X151636007Y-88602999D01*
X151669363Y-88648909D01*
X151688271Y-88707100D01*
X151669364Y-88765290D01*
X151619864Y-88801254D01*
X151589271Y-88806100D01*
X151493501Y-88806100D01*
X151435310Y-88787193D01*
X151423497Y-88777104D01*
X151174841Y-88528448D01*
X151147064Y-88473931D01*
X151150689Y-88427854D01*
X151202171Y-88269409D01*
X151203654Y-88260048D01*
X151230500Y-88090549D01*
X151230500Y-87909450D01*
X151202171Y-87730593D01*
X151202171Y-87730591D01*
X151146211Y-87558361D01*
X151063996Y-87397006D01*
X150957553Y-87250499D01*
X150829501Y-87122447D01*
X150682994Y-87016004D01*
X150682993Y-87016003D01*
X150682991Y-87016002D01*
X150521637Y-86933788D01*
X150349406Y-86877828D01*
X150170549Y-86849500D01*
X150170546Y-86849500D01*
X149989454Y-86849500D01*
X149989451Y-86849500D01*
X149810593Y-86877828D01*
X149638362Y-86933788D01*
X149477008Y-87016002D01*
X149435823Y-87045925D01*
X149330499Y-87122447D01*
X149202447Y-87250499D01*
X149151717Y-87320323D01*
X149096002Y-87397008D01*
X149013788Y-87558362D01*
X148957828Y-87730593D01*
X148929500Y-87909450D01*
X146699100Y-87909450D01*
X146699100Y-85204101D01*
X146718007Y-85145910D01*
X146728096Y-85134097D01*
X146960797Y-84901396D01*
X147015314Y-84873619D01*
X147030801Y-84872400D01*
X147102956Y-84872400D01*
X147102957Y-84872400D01*
X147119892Y-84867862D01*
X147180993Y-84871063D01*
X147228543Y-84909567D01*
X147244380Y-84968667D01*
X147241143Y-84989109D01*
X147208900Y-85109443D01*
X147208900Y-85267557D01*
X147249823Y-85420284D01*
X147328880Y-85557216D01*
X147440684Y-85669020D01*
X147577616Y-85748077D01*
X147730343Y-85789000D01*
X147730345Y-85789000D01*
X147888455Y-85789000D01*
X147888457Y-85789000D01*
X148041184Y-85748077D01*
X148178116Y-85669020D01*
X148289920Y-85557216D01*
X148368977Y-85420284D01*
X148409900Y-85267557D01*
X148409900Y-85109443D01*
X148368977Y-84956716D01*
X148289920Y-84819784D01*
X148178116Y-84707980D01*
X148178113Y-84707978D01*
X148178111Y-84707976D01*
X148120300Y-84674599D01*
X148079359Y-84629130D01*
X148070800Y-84588863D01*
X148070800Y-78651943D01*
X148089707Y-78593752D01*
X148099790Y-78581945D01*
X148150820Y-78530916D01*
X148229877Y-78393984D01*
X148270800Y-78241257D01*
X148270800Y-78083143D01*
X148229877Y-77930416D01*
X148150820Y-77793484D01*
X148039016Y-77681680D01*
X147902084Y-77602623D01*
X147749357Y-77561700D01*
X147749355Y-77561700D01*
X147743089Y-77560021D01*
X147743789Y-77557407D01*
X147698873Y-77535977D01*
X147669683Y-77482204D01*
X147677675Y-77421543D01*
X147697022Y-77394169D01*
X147852297Y-77238896D01*
X147906813Y-77211119D01*
X147922300Y-77209900D01*
X147994455Y-77209900D01*
X147994457Y-77209900D01*
X148147184Y-77168977D01*
X148284116Y-77089920D01*
X148395920Y-76978116D01*
X148474977Y-76841184D01*
X148515900Y-76688457D01*
X148515900Y-76530343D01*
X148474977Y-76377616D01*
X148395920Y-76240684D01*
X148284116Y-76128880D01*
X148147184Y-76049823D01*
X147994457Y-76008900D01*
X147994455Y-76008900D01*
X147918901Y-76008900D01*
X147860710Y-75989993D01*
X147848897Y-75979904D01*
X140191520Y-68322527D01*
X140163743Y-68268010D01*
X140173314Y-68207578D01*
X140205661Y-68173502D01*
X140204565Y-68172073D01*
X140209710Y-68168124D01*
X140209711Y-68168122D01*
X140209716Y-68168120D01*
X140321520Y-68056316D01*
X140400577Y-67919384D01*
X140441500Y-67766657D01*
X140441500Y-67694500D01*
X140460407Y-67636309D01*
X140470490Y-67624502D01*
X145473880Y-62621113D01*
X145479956Y-62610590D01*
X145526605Y-62529792D01*
X145526605Y-62529790D01*
X145526607Y-62529788D01*
X145553900Y-62427927D01*
X145553900Y-62322473D01*
X145553900Y-60128943D01*
X145572807Y-60070752D01*
X145582890Y-60058945D01*
X145633920Y-60007916D01*
X145712977Y-59870984D01*
X145753900Y-59718257D01*
X145753900Y-59560143D01*
X145712977Y-59407416D01*
X145633920Y-59270484D01*
X145522116Y-59158680D01*
X145385184Y-59079623D01*
X145232457Y-59038700D01*
X145074343Y-59038700D01*
X144977420Y-59064670D01*
X144917614Y-59080695D01*
X144856512Y-59077492D01*
X144808962Y-59038987D01*
X144806269Y-59034592D01*
X144740620Y-58920884D01*
X144628816Y-58809080D01*
X144491884Y-58730023D01*
X144339157Y-58689100D01*
X144181043Y-58689100D01*
X144028316Y-58730023D01*
X143891384Y-58809080D01*
X143779580Y-58920884D01*
X143700523Y-59057816D01*
X143659600Y-59210543D01*
X143659600Y-59368657D01*
X143700523Y-59521384D01*
X143779580Y-59658316D01*
X143830605Y-59709341D01*
X143858381Y-59763856D01*
X143859600Y-59779343D01*
X143859600Y-61842699D01*
X143840693Y-61900890D01*
X143830604Y-61912703D01*
X143688004Y-62055303D01*
X143633487Y-62083080D01*
X143573055Y-62073509D01*
X143529790Y-62030244D01*
X143519000Y-61985299D01*
X143519000Y-61872244D01*
X143519000Y-61872243D01*
X143478077Y-61719516D01*
X143399020Y-61582584D01*
X143287216Y-61470780D01*
X143150284Y-61391723D01*
X142997557Y-61350800D01*
X142997555Y-61350800D01*
X142925401Y-61350800D01*
X142867210Y-61331893D01*
X142855397Y-61321804D01*
X142079397Y-60545804D01*
X142051620Y-60491287D01*
X142061191Y-60430855D01*
X142104456Y-60387590D01*
X142149401Y-60376800D01*
X142428756Y-60376800D01*
X142486947Y-60395707D01*
X142498759Y-60405796D01*
X142549781Y-60456817D01*
X142549784Y-60456820D01*
X142686716Y-60535877D01*
X142839443Y-60576800D01*
X142839445Y-60576800D01*
X142997555Y-60576800D01*
X142997557Y-60576800D01*
X143150284Y-60535877D01*
X143287216Y-60456820D01*
X143399020Y-60345016D01*
X143478077Y-60208084D01*
X143519000Y-60055357D01*
X143519000Y-59897243D01*
X143478077Y-59744516D01*
X143399020Y-59607584D01*
X143287216Y-59495780D01*
X143150284Y-59416723D01*
X142997557Y-59375800D01*
X142839443Y-59375800D01*
X142686716Y-59416723D01*
X142549781Y-59495782D01*
X142498759Y-59546804D01*
X142444242Y-59574581D01*
X142428756Y-59575800D01*
X137878201Y-59575800D01*
X137820010Y-59556893D01*
X137808197Y-59546804D01*
X134240662Y-55979269D01*
X130620913Y-52359520D01*
X130620910Y-52359518D01*
X130620909Y-52359517D01*
X130620908Y-52359516D01*
X130529591Y-52306794D01*
X130529593Y-52306794D01*
X130490070Y-52296204D01*
X130427727Y-52279500D01*
X130427725Y-52279500D01*
X129714673Y-52279500D01*
X129656482Y-52260593D01*
X129626465Y-52225447D01*
X129546825Y-52069145D01*
X129438994Y-51920728D01*
X129309272Y-51791006D01*
X129160855Y-51683175D01*
X129160854Y-51683174D01*
X129160852Y-51683173D01*
X128997393Y-51599887D01*
X128997390Y-51599885D01*
X128822927Y-51543198D01*
X128822923Y-51543197D01*
X128641730Y-51514500D01*
X128641727Y-51514500D01*
X127158273Y-51514500D01*
X127158270Y-51514500D01*
X126977076Y-51543197D01*
X126977072Y-51543198D01*
X126802609Y-51599885D01*
X126802606Y-51599887D01*
X126639147Y-51683173D01*
X126490729Y-51791005D01*
X126361005Y-51920729D01*
X126279593Y-52032784D01*
X126230093Y-52068748D01*
X126168907Y-52068748D01*
X126119407Y-52032784D01*
X126100500Y-51974593D01*
X126100500Y-50599000D01*
X126119407Y-50540809D01*
X126168907Y-50504845D01*
X126199500Y-50500000D01*
X132229057Y-50500000D01*
X132287248Y-50518907D01*
G37*
%TD.AperFunction*%
%TA.AperFunction,Conductor*%
G36*
X138123593Y-80815383D02*
G01*
X138128419Y-80818427D01*
X138128565Y-80818175D01*
X138134181Y-80821417D01*
X138134184Y-80821420D01*
X138271116Y-80900477D01*
X138423843Y-80941400D01*
X138495999Y-80941400D01*
X138554190Y-80960307D01*
X138566003Y-80970396D01*
X139520604Y-81924997D01*
X139548381Y-81979514D01*
X139549600Y-81995001D01*
X139549600Y-88201857D01*
X139530693Y-88260048D01*
X139481193Y-88296012D01*
X139420007Y-88296012D01*
X139380598Y-88271862D01*
X139321516Y-88212780D01*
X139184584Y-88133723D01*
X139031857Y-88092800D01*
X139031855Y-88092800D01*
X138959701Y-88092800D01*
X138901510Y-88073893D01*
X138889697Y-88063804D01*
X137607496Y-86781603D01*
X137579719Y-86727086D01*
X137578500Y-86711599D01*
X137578500Y-82073943D01*
X137597407Y-82015752D01*
X137607490Y-82003945D01*
X137658520Y-81952916D01*
X137737577Y-81815984D01*
X137778500Y-81663257D01*
X137778500Y-81505143D01*
X137737577Y-81352416D01*
X137658520Y-81215484D01*
X137618848Y-81175812D01*
X137591073Y-81121298D01*
X137600644Y-81060866D01*
X137643909Y-81017601D01*
X137663218Y-81010188D01*
X137814784Y-80969577D01*
X137951716Y-80890520D01*
X138008647Y-80833588D01*
X138063161Y-80805812D01*
X138123593Y-80815383D01*
G37*
%TD.AperFunction*%
%TA.AperFunction,Conductor*%
G36*
X147017217Y-78170717D02*
G01*
X147060482Y-78213982D01*
X147067091Y-78235264D01*
X147068121Y-78234989D01*
X147069800Y-78241255D01*
X147069800Y-78241257D01*
X147110723Y-78393984D01*
X147189780Y-78530916D01*
X147240805Y-78581941D01*
X147268581Y-78636456D01*
X147269800Y-78651943D01*
X147269800Y-83587086D01*
X147250893Y-83645277D01*
X147201393Y-83681241D01*
X147145178Y-83682713D01*
X147102957Y-83671400D01*
X146944843Y-83671400D01*
X146792116Y-83712323D01*
X146655184Y-83791380D01*
X146543380Y-83903184D01*
X146464323Y-84040116D01*
X146430321Y-84167016D01*
X146423400Y-84192844D01*
X146423400Y-84264999D01*
X146404493Y-84323190D01*
X146394404Y-84335002D01*
X145978120Y-84751286D01*
X145978116Y-84751291D01*
X145925394Y-84842608D01*
X145925392Y-84842612D01*
X145915556Y-84879318D01*
X145915557Y-84879319D01*
X145898100Y-84944473D01*
X145898100Y-86750500D01*
X145879193Y-86808691D01*
X145829693Y-86844655D01*
X145799100Y-86849500D01*
X145490916Y-86849500D01*
X145432725Y-86830593D01*
X145396761Y-86781093D01*
X145395290Y-86776124D01*
X145382149Y-86727086D01*
X145373207Y-86693713D01*
X145351764Y-86656573D01*
X145351763Y-86656571D01*
X145351763Y-86656570D01*
X145334273Y-86626278D01*
X145320480Y-86602387D01*
X145290495Y-86572402D01*
X145262719Y-86517885D01*
X145261500Y-86502399D01*
X145261500Y-79870700D01*
X145280407Y-79812509D01*
X145290490Y-79800702D01*
X146902270Y-78188921D01*
X146956785Y-78161146D01*
X147017217Y-78170717D01*
G37*
%TD.AperFunction*%
%TA.AperFunction,Conductor*%
G36*
X130226290Y-53099407D02*
G01*
X130238103Y-53109496D01*
X137135603Y-60006996D01*
X137163380Y-60061513D01*
X137153809Y-60121945D01*
X137110544Y-60165210D01*
X137065599Y-60176000D01*
X134598801Y-60176000D01*
X134540610Y-60157093D01*
X134528797Y-60147004D01*
X130146196Y-55764403D01*
X130118419Y-55709886D01*
X130117200Y-55694399D01*
X130117200Y-55167274D01*
X130117200Y-55167273D01*
X130089907Y-55065413D01*
X130037180Y-54974087D01*
X129962613Y-54899520D01*
X129871287Y-54846793D01*
X129769427Y-54819500D01*
X129769425Y-54819500D01*
X129714673Y-54819500D01*
X129656482Y-54800593D01*
X129626465Y-54765447D01*
X129546825Y-54609145D01*
X129438994Y-54460728D01*
X129309272Y-54331006D01*
X129160855Y-54223175D01*
X129160854Y-54223174D01*
X129160852Y-54223173D01*
X128997393Y-54139887D01*
X128997390Y-54139885D01*
X128822927Y-54083198D01*
X128822923Y-54083197D01*
X128641730Y-54054500D01*
X128641727Y-54054500D01*
X127158273Y-54054500D01*
X127158270Y-54054500D01*
X126977076Y-54083197D01*
X126977072Y-54083198D01*
X126802609Y-54139885D01*
X126802606Y-54139887D01*
X126639147Y-54223173D01*
X126490729Y-54331005D01*
X126361004Y-54460730D01*
X126313527Y-54526076D01*
X126264027Y-54562039D01*
X126202841Y-54562038D01*
X126178436Y-54550200D01*
X126144496Y-54527522D01*
X126106618Y-54479471D01*
X126100500Y-54445208D01*
X126100500Y-53385406D01*
X126119407Y-53327215D01*
X126168907Y-53291251D01*
X126230093Y-53291251D01*
X126279590Y-53327213D01*
X126361006Y-53439272D01*
X126490728Y-53568994D01*
X126639145Y-53676825D01*
X126802603Y-53760111D01*
X126802605Y-53760111D01*
X126802606Y-53760112D01*
X126802609Y-53760114D01*
X126977072Y-53816801D01*
X126977076Y-53816802D01*
X127158270Y-53845500D01*
X127158273Y-53845500D01*
X128641730Y-53845500D01*
X128822923Y-53816802D01*
X128822927Y-53816801D01*
X128997390Y-53760114D01*
X128997392Y-53760112D01*
X128997397Y-53760111D01*
X129160855Y-53676825D01*
X129309272Y-53568994D01*
X129438994Y-53439272D01*
X129546825Y-53290855D01*
X129626464Y-53134553D01*
X129669728Y-53091291D01*
X129714673Y-53080500D01*
X130168099Y-53080500D01*
X130226290Y-53099407D01*
G37*
%TD.AperFunction*%
%TD*%
M02*
