%TF.GenerationSoftware,KiCad,Pcbnew,10.0.6*%
%TF.CreationDate,2026-09-25T16:47:10-07:00*%
%TF.ProjectId,luftctl-modified,6c756674-6374-46c2-9d6d-6f6469666965,rev?*%
%TF.SameCoordinates,Original*%
%TF.FileFunction,Paste,Top*%
%TF.FilePolarity,Positive*%
%FSLAX46Y46*%
G04 Gerber Fmt 4.6, Leading zero omitted, Abs format (unit mm)*
G04 Created by KiCad (PCBNEW 10.0.6) date 2026-09-25 16:47:10*
%MOMM*%
%LPD*%
G01*
G04 APERTURE LIST*
G04 Aperture macros list*
%AMRoundRect*
0 Rectangle with rounded corners*
0 $1 Rounding radius*
0 $2 $3 $4 $5 $6 $7 $8 $9 X,Y pos of 4 corners*
0 Add a 4 corners polygon primitive as box body*
4,1,4,$2,$3,$4,$5,$6,$7,$8,$9,$2,$3,0*
0 Add four circle primitives for the rounded corners*
1,1,$1+$1,$2,$3*
1,1,$1+$1,$4,$5*
1,1,$1+$1,$6,$7*
1,1,$1+$1,$8,$9*
0 Add four rect primitives between the rounded corners*
20,1,$1+$1,$2,$3,$4,$5,0*
20,1,$1+$1,$4,$5,$6,$7,0*
20,1,$1+$1,$6,$7,$8,$9,0*
20,1,$1+$1,$8,$9,$2,$3,0*%
G04 Aperture macros list end*
%ADD10RoundRect,0.250000X0.475000X-0.337500X0.475000X0.337500X-0.475000X0.337500X-0.475000X-0.337500X0*%
%ADD11RoundRect,0.250000X-0.325000X-0.450000X0.325000X-0.450000X0.325000X0.450000X-0.325000X0.450000X0*%
%ADD12RoundRect,0.250000X0.350000X0.450000X-0.350000X0.450000X-0.350000X-0.450000X0.350000X-0.450000X0*%
%ADD13RoundRect,0.250000X-0.350000X-0.450000X0.350000X-0.450000X0.350000X0.450000X-0.350000X0.450000X0*%
%ADD14R,5.100000X2.350000*%
%ADD15RoundRect,0.150000X-0.150000X0.512500X-0.150000X-0.512500X0.150000X-0.512500X0.150000X0.512500X0*%
%ADD16RoundRect,0.250000X0.450000X-0.350000X0.450000X0.350000X-0.450000X0.350000X-0.450000X-0.350000X0*%
%ADD17RoundRect,0.250000X-0.475000X0.337500X-0.475000X-0.337500X0.475000X-0.337500X0.475000X0.337500X0*%
%ADD18RoundRect,0.250000X-0.337500X-0.475000X0.337500X-0.475000X0.337500X0.475000X-0.337500X0.475000X0*%
%ADD19RoundRect,0.150000X-0.150000X-0.625000X0.150000X-0.625000X0.150000X0.625000X-0.150000X0.625000X0*%
%ADD20RoundRect,0.250000X-0.350000X-0.650000X0.350000X-0.650000X0.350000X0.650000X-0.350000X0.650000X0*%
%ADD21R,1.050000X0.650000*%
%ADD22R,1.500000X0.900000*%
%ADD23R,4.000000X4.000000*%
%ADD24RoundRect,0.250000X-0.595000X-1.080000X0.595000X-1.080000X0.595000X1.080000X-0.595000X1.080000X0*%
%ADD25RoundRect,0.150000X-0.687500X-0.150000X0.687500X-0.150000X0.687500X0.150000X-0.687500X0.150000X0*%
%ADD26RoundRect,0.250000X0.325000X0.450000X-0.325000X0.450000X-0.325000X-0.450000X0.325000X-0.450000X0*%
%ADD27RoundRect,0.150000X-0.512500X-0.150000X0.512500X-0.150000X0.512500X0.150000X-0.512500X0.150000X0*%
%ADD28R,1.450000X0.600000*%
%ADD29R,1.450000X0.300000*%
G04 APERTURE END LIST*
D10*
%TO.C,C5*%
X168000000Y-65387500D03*
X168000000Y-63312500D03*
%TD*%
D11*
%TO.C,D3*%
X166200000Y-53150000D03*
X168250000Y-53150000D03*
%TD*%
D12*
%TO.C,R3*%
X168000000Y-60950000D03*
X166000000Y-60950000D03*
%TD*%
D13*
%TO.C,R14*%
X147000000Y-83000000D03*
X149000000Y-83000000D03*
%TD*%
%TO.C,R10*%
X166225000Y-51150000D03*
X168225000Y-51150000D03*
%TD*%
D14*
%TO.C,L2*%
X172000000Y-81075000D03*
X172000000Y-76925000D03*
%TD*%
D15*
%TO.C,U3*%
X171700000Y-67325000D03*
X170750000Y-67325000D03*
X169800000Y-67325000D03*
X169800000Y-69600000D03*
X170750000Y-69600000D03*
X171700000Y-69600000D03*
%TD*%
D16*
%TO.C,R8*%
X139600000Y-59350000D03*
X139600000Y-57350000D03*
%TD*%
D10*
%TO.C,C10*%
X163200000Y-60237500D03*
X163200000Y-58162500D03*
%TD*%
D17*
%TO.C,C11*%
X135012500Y-53575000D03*
X135012500Y-55650000D03*
%TD*%
D13*
%TO.C,R12*%
X137000000Y-83000000D03*
X139000000Y-83000000D03*
%TD*%
D18*
%TO.C,C13*%
X148962500Y-79000000D03*
X151037500Y-79000000D03*
%TD*%
D19*
%TO.C,J3*%
X134600000Y-69300000D03*
X135600000Y-69300000D03*
X136600000Y-69300000D03*
X137600000Y-69300000D03*
D20*
X133300000Y-73175000D03*
X138900000Y-73175000D03*
%TD*%
D18*
%TO.C,C14*%
X153962500Y-79000000D03*
X156037500Y-79000000D03*
%TD*%
D21*
%TO.C,JP1*%
X145575000Y-73575000D03*
X141425000Y-73575000D03*
X145575000Y-71425000D03*
X141425000Y-71425000D03*
%TD*%
%TO.C,SW1*%
X159375000Y-73575000D03*
X155225000Y-73575000D03*
X159375000Y-71425000D03*
X155225000Y-71425000D03*
%TD*%
D18*
%TO.C,C15*%
X158962500Y-79000000D03*
X161037500Y-79000000D03*
%TD*%
D13*
%TO.C,R7*%
X133450000Y-61400000D03*
X135450000Y-61400000D03*
%TD*%
%TO.C,R11*%
X132000000Y-83000000D03*
X134000000Y-83000000D03*
%TD*%
D19*
%TO.C,J2*%
X162800000Y-69300000D03*
X163800000Y-69300000D03*
X164800000Y-69300000D03*
X165800000Y-69300000D03*
D20*
X161500000Y-73175000D03*
X167100000Y-73175000D03*
%TD*%
D16*
%TO.C,R6*%
X161200000Y-60200000D03*
X161200000Y-58200000D03*
%TD*%
D13*
%TO.C,R15*%
X152000000Y-83000000D03*
X154000000Y-83000000D03*
%TD*%
D22*
%TO.C,U4*%
X141650000Y-57200000D03*
X141650000Y-58700000D03*
X141650000Y-60200000D03*
X141650000Y-61700000D03*
X141650000Y-63200000D03*
X141650000Y-64700000D03*
X141650000Y-66200000D03*
X141650000Y-67700000D03*
X141650000Y-69200000D03*
X159150000Y-69200000D03*
X159150000Y-67700000D03*
X159150000Y-66200000D03*
X159150000Y-64700000D03*
X159150000Y-63200000D03*
X159150000Y-61700000D03*
X159150000Y-60200000D03*
X159150000Y-58700000D03*
X159150000Y-57200000D03*
D23*
X151500000Y-63810000D03*
%TD*%
D24*
%TO.C,U5*%
X133000000Y-79000000D03*
D25*
X130362500Y-77000000D03*
X130362500Y-78000000D03*
X130362500Y-79000000D03*
X130362500Y-80000000D03*
X130362500Y-81000000D03*
X135637500Y-81000000D03*
X135637500Y-80000000D03*
X135637500Y-79000000D03*
X135637500Y-78000000D03*
X135637500Y-77000000D03*
%TD*%
D17*
%TO.C,C1*%
X173550000Y-57262500D03*
X173550000Y-59337500D03*
%TD*%
D10*
%TO.C,C7*%
X166000000Y-65387500D03*
X166000000Y-63312500D03*
%TD*%
D13*
%TO.C,R16*%
X129000000Y-88000000D03*
X131000000Y-88000000D03*
%TD*%
D18*
%TO.C,C8*%
X170262500Y-52700000D03*
X172337500Y-52700000D03*
%TD*%
D12*
%TO.C,R9*%
X149500000Y-71600000D03*
X147500000Y-71600000D03*
%TD*%
D18*
%TO.C,C12*%
X156962500Y-83000000D03*
X159037500Y-83000000D03*
%TD*%
%TO.C,C9*%
X137262500Y-61400000D03*
X139337500Y-61400000D03*
%TD*%
D26*
%TO.C,FB1*%
X171925000Y-63300000D03*
X169875000Y-63300000D03*
%TD*%
D10*
%TO.C,C4*%
X133012500Y-55650000D03*
X133012500Y-53575000D03*
%TD*%
D13*
%TO.C,R13*%
X142000000Y-83000000D03*
X144000000Y-83000000D03*
%TD*%
D27*
%TO.C,U6*%
X141862500Y-78050000D03*
X141862500Y-79000000D03*
X141862500Y-79950000D03*
X144137500Y-79950000D03*
X144137500Y-79000000D03*
X144137500Y-78050000D03*
%TD*%
D28*
%TO.C,J1*%
X175405000Y-70700000D03*
X175405000Y-69900000D03*
D29*
X175405000Y-68700000D03*
X175405000Y-67700000D03*
X175405000Y-67200000D03*
X175405000Y-66200000D03*
D28*
X175405000Y-65000000D03*
X175405000Y-64200000D03*
X175405000Y-64200000D03*
X175405000Y-65000000D03*
D29*
X175405000Y-65700000D03*
X175405000Y-66700000D03*
X175405000Y-68200000D03*
X175405000Y-69200000D03*
D28*
X175405000Y-69900000D03*
X175405000Y-70700000D03*
%TD*%
D11*
%TO.C,D2*%
X151275000Y-71600000D03*
X153325000Y-71600000D03*
%TD*%
D10*
%TO.C,C3*%
X133012500Y-59487500D03*
X133012500Y-57412500D03*
%TD*%
M02*
